<?xml version="1.0" encoding="utf-8" standalone="no"?>
<!DOCTYPE svg PUBLIC "-//W3C//DTD SVG 1.1//EN"
  "http://www.w3.org/Graphics/SVG/1.1/DTD/svg11.dtd">
<svg height="288pt" version="1.1" viewBox="0 0 432 288" width="432pt" xmlns="http://www.w3.org/2000/svg" xmlns:xlink="http://www.w3.org/1999/xlink">
 <metadata>
  <rdf:RDF xmlns:cc="http://creativecommons.org/ns#" xmlns:dc="http://purl.org/dc/elements/1.1/" xmlns:rdf="http://www.w3.org/1999/02/22-rdf-syntax-ns#">
   <cc:Work>
    <dc:type rdf:resource="http://purl.org/dc/dcmitype/StillImage"/>
    <dc:date>2022-03-29T19:23:25.491971</dc:date>
    <dc:format>image/svg+xml</dc:format>
    <dc:creator>
     <cc:Agent>
      <dc:title>Matplotlib v3.4.3, https://matplotlib.org/</dc:title>
     </cc:Agent>
    </dc:creator>
   </cc:Work>
  </rdf:RDF>
 </metadata>
 <defs>
  <style type="text/css">*{stroke-linecap:butt;stroke-linejoin:round;}</style>
 </defs>
 <g id="figure_1">
  <g id="patch_1">
   <path d="M 0 288 
L 432 288 
L 432 0 
L 0 0 
z
" style="fill:none;"/>
  </g>
  <g id="axes_1">
   <g id="patch_2">
    <path d="M 54 252 
L 388.8 252 
L 388.8 34.56 
L 54 34.56 
z
" style="fill:#ffffff;"/>
   </g>
   <g id="matplotlib.axis_1">
    <g id="xtick_1">
     <g id="line2d_1">
      <defs>
       <path d="M 0 0 
L 0 3.5 
" id="mf5cdaee375" style="stroke:#000000;stroke-width:0.8;"/>
      </defs>
      <g>
       <use style="stroke:#000000;stroke-width:0.8;" x="68.686161" xlink:href="#mf5cdaee375" y="252"/>
      </g>
     </g>
     <g id="text_1">
      <!-- 0 -->
      <g transform="translate(65.504911 266.598437)scale(0.1 -0.1)">
       <defs>
        <path d="M 2034 4250 
Q 1547 4250 1301 3770 
Q 1056 3291 1056 2328 
Q 1056 1369 1301 889 
Q 1547 409 2034 409 
Q 2525 409 2770 889 
Q 3016 1369 3016 2328 
Q 3016 3291 2770 3770 
Q 2525 4250 2034 4250 
z
M 2034 4750 
Q 2819 4750 3233 4129 
Q 3647 3509 3647 2328 
Q 3647 1150 3233 529 
Q 2819 -91 2034 -91 
Q 1250 -91 836 529 
Q 422 1150 422 2328 
Q 422 3509 836 4129 
Q 1250 4750 2034 4750 
z
" id="DejaVuSans-30" transform="scale(0.015625)"/>
       </defs>
       <use xlink:href="#DejaVuSans-30"/>
      </g>
     </g>
    </g>
    <g id="xtick_2">
     <g id="line2d_2">
      <g>
       <use style="stroke:#000000;stroke-width:0.8;" x="121.888216" xlink:href="#mf5cdaee375" y="252"/>
      </g>
     </g>
     <g id="text_2">
      <!-- 100 -->
      <g transform="translate(112.344466 266.598437)scale(0.1 -0.1)">
       <defs>
        <path d="M 794 531 
L 1825 531 
L 1825 4091 
L 703 3866 
L 703 4441 
L 1819 4666 
L 2450 4666 
L 2450 531 
L 3481 531 
L 3481 0 
L 794 0 
L 794 531 
z
" id="DejaVuSans-31" transform="scale(0.015625)"/>
       </defs>
       <use xlink:href="#DejaVuSans-31"/>
       <use x="63.623047" xlink:href="#DejaVuSans-30"/>
       <use x="127.246094" xlink:href="#DejaVuSans-30"/>
      </g>
     </g>
    </g>
    <g id="xtick_3">
     <g id="line2d_3">
      <g>
       <use style="stroke:#000000;stroke-width:0.8;" x="175.090271" xlink:href="#mf5cdaee375" y="252"/>
      </g>
     </g>
     <g id="text_3">
      <!-- 200 -->
      <g transform="translate(165.546521 266.598437)scale(0.1 -0.1)">
       <defs>
        <path d="M 1228 531 
L 3431 531 
L 3431 0 
L 469 0 
L 469 531 
Q 828 903 1448 1529 
Q 2069 2156 2228 2338 
Q 2531 2678 2651 2914 
Q 2772 3150 2772 3378 
Q 2772 3750 2511 3984 
Q 2250 4219 1831 4219 
Q 1534 4219 1204 4116 
Q 875 4013 500 3803 
L 500 4441 
Q 881 4594 1212 4672 
Q 1544 4750 1819 4750 
Q 2544 4750 2975 4387 
Q 3406 4025 3406 3419 
Q 3406 3131 3298 2873 
Q 3191 2616 2906 2266 
Q 2828 2175 2409 1742 
Q 1991 1309 1228 531 
z
" id="DejaVuSans-32" transform="scale(0.015625)"/>
       </defs>
       <use xlink:href="#DejaVuSans-32"/>
       <use x="63.623047" xlink:href="#DejaVuSans-30"/>
       <use x="127.246094" xlink:href="#DejaVuSans-30"/>
      </g>
     </g>
    </g>
    <g id="xtick_4">
     <g id="line2d_4">
      <g>
       <use style="stroke:#000000;stroke-width:0.8;" x="228.292326" xlink:href="#mf5cdaee375" y="252"/>
      </g>
     </g>
     <g id="text_4">
      <!-- 300 -->
      <g transform="translate(218.748576 266.598437)scale(0.1 -0.1)">
       <defs>
        <path d="M 2597 2516 
Q 3050 2419 3304 2112 
Q 3559 1806 3559 1356 
Q 3559 666 3084 287 
Q 2609 -91 1734 -91 
Q 1441 -91 1130 -33 
Q 819 25 488 141 
L 488 750 
Q 750 597 1062 519 
Q 1375 441 1716 441 
Q 2309 441 2620 675 
Q 2931 909 2931 1356 
Q 2931 1769 2642 2001 
Q 2353 2234 1838 2234 
L 1294 2234 
L 1294 2753 
L 1863 2753 
Q 2328 2753 2575 2939 
Q 2822 3125 2822 3475 
Q 2822 3834 2567 4026 
Q 2313 4219 1838 4219 
Q 1578 4219 1281 4162 
Q 984 4106 628 3988 
L 628 4550 
Q 988 4650 1302 4700 
Q 1616 4750 1894 4750 
Q 2613 4750 3031 4423 
Q 3450 4097 3450 3541 
Q 3450 3153 3228 2886 
Q 3006 2619 2597 2516 
z
" id="DejaVuSans-33" transform="scale(0.015625)"/>
       </defs>
       <use xlink:href="#DejaVuSans-33"/>
       <use x="63.623047" xlink:href="#DejaVuSans-30"/>
       <use x="127.246094" xlink:href="#DejaVuSans-30"/>
      </g>
     </g>
    </g>
    <g id="xtick_5">
     <g id="line2d_5">
      <g>
       <use style="stroke:#000000;stroke-width:0.8;" x="281.494381" xlink:href="#mf5cdaee375" y="252"/>
      </g>
     </g>
     <g id="text_5">
      <!-- 400 -->
      <g transform="translate(271.950631 266.598437)scale(0.1 -0.1)">
       <defs>
        <path d="M 2419 4116 
L 825 1625 
L 2419 1625 
L 2419 4116 
z
M 2253 4666 
L 3047 4666 
L 3047 1625 
L 3713 1625 
L 3713 1100 
L 3047 1100 
L 3047 0 
L 2419 0 
L 2419 1100 
L 313 1100 
L 313 1709 
L 2253 4666 
z
" id="DejaVuSans-34" transform="scale(0.015625)"/>
       </defs>
       <use xlink:href="#DejaVuSans-34"/>
       <use x="63.623047" xlink:href="#DejaVuSans-30"/>
       <use x="127.246094" xlink:href="#DejaVuSans-30"/>
      </g>
     </g>
    </g>
    <g id="xtick_6">
     <g id="line2d_6">
      <g>
       <use style="stroke:#000000;stroke-width:0.8;" x="334.696436" xlink:href="#mf5cdaee375" y="252"/>
      </g>
     </g>
     <g id="text_6">
      <!-- 500 -->
      <g transform="translate(325.152686 266.598437)scale(0.1 -0.1)">
       <defs>
        <path d="M 691 4666 
L 3169 4666 
L 3169 4134 
L 1269 4134 
L 1269 2991 
Q 1406 3038 1543 3061 
Q 1681 3084 1819 3084 
Q 2600 3084 3056 2656 
Q 3513 2228 3513 1497 
Q 3513 744 3044 326 
Q 2575 -91 1722 -91 
Q 1428 -91 1123 -41 
Q 819 9 494 109 
L 494 744 
Q 775 591 1075 516 
Q 1375 441 1709 441 
Q 2250 441 2565 725 
Q 2881 1009 2881 1497 
Q 2881 1984 2565 2268 
Q 2250 2553 1709 2553 
Q 1456 2553 1204 2497 
Q 953 2441 691 2322 
L 691 4666 
z
" id="DejaVuSans-35" transform="scale(0.015625)"/>
       </defs>
       <use xlink:href="#DejaVuSans-35"/>
       <use x="63.623047" xlink:href="#DejaVuSans-30"/>
       <use x="127.246094" xlink:href="#DejaVuSans-30"/>
      </g>
     </g>
    </g>
    <g id="xtick_7">
     <g id="line2d_7">
      <g>
       <use style="stroke:#000000;stroke-width:0.8;" x="387.898491" xlink:href="#mf5cdaee375" y="252"/>
      </g>
     </g>
     <g id="text_7">
      <!-- 600 -->
      <g transform="translate(378.354741 266.598437)scale(0.1 -0.1)">
       <defs>
        <path d="M 2113 2584 
Q 1688 2584 1439 2293 
Q 1191 2003 1191 1497 
Q 1191 994 1439 701 
Q 1688 409 2113 409 
Q 2538 409 2786 701 
Q 3034 994 3034 1497 
Q 3034 2003 2786 2293 
Q 2538 2584 2113 2584 
z
M 3366 4563 
L 3366 3988 
Q 3128 4100 2886 4159 
Q 2644 4219 2406 4219 
Q 1781 4219 1451 3797 
Q 1122 3375 1075 2522 
Q 1259 2794 1537 2939 
Q 1816 3084 2150 3084 
Q 2853 3084 3261 2657 
Q 3669 2231 3669 1497 
Q 3669 778 3244 343 
Q 2819 -91 2113 -91 
Q 1303 -91 875 529 
Q 447 1150 447 2328 
Q 447 3434 972 4092 
Q 1497 4750 2381 4750 
Q 2619 4750 2861 4703 
Q 3103 4656 3366 4563 
z
" id="DejaVuSans-36" transform="scale(0.015625)"/>
       </defs>
       <use xlink:href="#DejaVuSans-36"/>
       <use x="63.623047" xlink:href="#DejaVuSans-30"/>
       <use x="127.246094" xlink:href="#DejaVuSans-30"/>
      </g>
     </g>
    </g>
    <g id="text_8">
     <!-- bedieningstijd -->
     <g transform="translate(186.091406 280.276563)scale(0.1 -0.1)">
      <defs>
       <path d="M 3116 1747 
Q 3116 2381 2855 2742 
Q 2594 3103 2138 3103 
Q 1681 3103 1420 2742 
Q 1159 2381 1159 1747 
Q 1159 1113 1420 752 
Q 1681 391 2138 391 
Q 2594 391 2855 752 
Q 3116 1113 3116 1747 
z
M 1159 2969 
Q 1341 3281 1617 3432 
Q 1894 3584 2278 3584 
Q 2916 3584 3314 3078 
Q 3713 2572 3713 1747 
Q 3713 922 3314 415 
Q 2916 -91 2278 -91 
Q 1894 -91 1617 61 
Q 1341 213 1159 525 
L 1159 0 
L 581 0 
L 581 4863 
L 1159 4863 
L 1159 2969 
z
" id="DejaVuSans-62" transform="scale(0.015625)"/>
       <path d="M 3597 1894 
L 3597 1613 
L 953 1613 
Q 991 1019 1311 708 
Q 1631 397 2203 397 
Q 2534 397 2845 478 
Q 3156 559 3463 722 
L 3463 178 
Q 3153 47 2828 -22 
Q 2503 -91 2169 -91 
Q 1331 -91 842 396 
Q 353 884 353 1716 
Q 353 2575 817 3079 
Q 1281 3584 2069 3584 
Q 2775 3584 3186 3129 
Q 3597 2675 3597 1894 
z
M 3022 2063 
Q 3016 2534 2758 2815 
Q 2500 3097 2075 3097 
Q 1594 3097 1305 2825 
Q 1016 2553 972 2059 
L 3022 2063 
z
" id="DejaVuSans-65" transform="scale(0.015625)"/>
       <path d="M 2906 2969 
L 2906 4863 
L 3481 4863 
L 3481 0 
L 2906 0 
L 2906 525 
Q 2725 213 2448 61 
Q 2172 -91 1784 -91 
Q 1150 -91 751 415 
Q 353 922 353 1747 
Q 353 2572 751 3078 
Q 1150 3584 1784 3584 
Q 2172 3584 2448 3432 
Q 2725 3281 2906 2969 
z
M 947 1747 
Q 947 1113 1208 752 
Q 1469 391 1925 391 
Q 2381 391 2643 752 
Q 2906 1113 2906 1747 
Q 2906 2381 2643 2742 
Q 2381 3103 1925 3103 
Q 1469 3103 1208 2742 
Q 947 2381 947 1747 
z
" id="DejaVuSans-64" transform="scale(0.015625)"/>
       <path d="M 603 3500 
L 1178 3500 
L 1178 0 
L 603 0 
L 603 3500 
z
M 603 4863 
L 1178 4863 
L 1178 4134 
L 603 4134 
L 603 4863 
z
" id="DejaVuSans-69" transform="scale(0.015625)"/>
       <path d="M 3513 2113 
L 3513 0 
L 2938 0 
L 2938 2094 
Q 2938 2591 2744 2837 
Q 2550 3084 2163 3084 
Q 1697 3084 1428 2787 
Q 1159 2491 1159 1978 
L 1159 0 
L 581 0 
L 581 3500 
L 1159 3500 
L 1159 2956 
Q 1366 3272 1645 3428 
Q 1925 3584 2291 3584 
Q 2894 3584 3203 3211 
Q 3513 2838 3513 2113 
z
" id="DejaVuSans-6e" transform="scale(0.015625)"/>
       <path d="M 2906 1791 
Q 2906 2416 2648 2759 
Q 2391 3103 1925 3103 
Q 1463 3103 1205 2759 
Q 947 2416 947 1791 
Q 947 1169 1205 825 
Q 1463 481 1925 481 
Q 2391 481 2648 825 
Q 2906 1169 2906 1791 
z
M 3481 434 
Q 3481 -459 3084 -895 
Q 2688 -1331 1869 -1331 
Q 1566 -1331 1297 -1286 
Q 1028 -1241 775 -1147 
L 775 -588 
Q 1028 -725 1275 -790 
Q 1522 -856 1778 -856 
Q 2344 -856 2625 -561 
Q 2906 -266 2906 331 
L 2906 616 
Q 2728 306 2450 153 
Q 2172 0 1784 0 
Q 1141 0 747 490 
Q 353 981 353 1791 
Q 353 2603 747 3093 
Q 1141 3584 1784 3584 
Q 2172 3584 2450 3431 
Q 2728 3278 2906 2969 
L 2906 3500 
L 3481 3500 
L 3481 434 
z
" id="DejaVuSans-67" transform="scale(0.015625)"/>
       <path d="M 2834 3397 
L 2834 2853 
Q 2591 2978 2328 3040 
Q 2066 3103 1784 3103 
Q 1356 3103 1142 2972 
Q 928 2841 928 2578 
Q 928 2378 1081 2264 
Q 1234 2150 1697 2047 
L 1894 2003 
Q 2506 1872 2764 1633 
Q 3022 1394 3022 966 
Q 3022 478 2636 193 
Q 2250 -91 1575 -91 
Q 1294 -91 989 -36 
Q 684 19 347 128 
L 347 722 
Q 666 556 975 473 
Q 1284 391 1588 391 
Q 1994 391 2212 530 
Q 2431 669 2431 922 
Q 2431 1156 2273 1281 
Q 2116 1406 1581 1522 
L 1381 1569 
Q 847 1681 609 1914 
Q 372 2147 372 2553 
Q 372 3047 722 3315 
Q 1072 3584 1716 3584 
Q 2034 3584 2315 3537 
Q 2597 3491 2834 3397 
z
" id="DejaVuSans-73" transform="scale(0.015625)"/>
       <path d="M 1172 4494 
L 1172 3500 
L 2356 3500 
L 2356 3053 
L 1172 3053 
L 1172 1153 
Q 1172 725 1289 603 
Q 1406 481 1766 481 
L 2356 481 
L 2356 0 
L 1766 0 
Q 1100 0 847 248 
Q 594 497 594 1153 
L 594 3053 
L 172 3053 
L 172 3500 
L 594 3500 
L 594 4494 
L 1172 4494 
z
" id="DejaVuSans-74" transform="scale(0.015625)"/>
       <path d="M 603 3500 
L 1178 3500 
L 1178 -63 
Q 1178 -731 923 -1031 
Q 669 -1331 103 -1331 
L -116 -1331 
L -116 -844 
L 38 -844 
Q 366 -844 484 -692 
Q 603 -541 603 -63 
L 603 3500 
z
M 603 4863 
L 1178 4863 
L 1178 4134 
L 603 4134 
L 603 4863 
z
" id="DejaVuSans-6a" transform="scale(0.015625)"/>
      </defs>
      <use xlink:href="#DejaVuSans-62"/>
      <use x="63.476562" xlink:href="#DejaVuSans-65"/>
      <use x="125" xlink:href="#DejaVuSans-64"/>
      <use x="188.476562" xlink:href="#DejaVuSans-69"/>
      <use x="216.259766" xlink:href="#DejaVuSans-65"/>
      <use x="277.783203" xlink:href="#DejaVuSans-6e"/>
      <use x="341.162109" xlink:href="#DejaVuSans-69"/>
      <use x="368.945312" xlink:href="#DejaVuSans-6e"/>
      <use x="432.324219" xlink:href="#DejaVuSans-67"/>
      <use x="495.800781" xlink:href="#DejaVuSans-73"/>
      <use x="547.900391" xlink:href="#DejaVuSans-74"/>
      <use x="587.109375" xlink:href="#DejaVuSans-69"/>
      <use x="614.892578" xlink:href="#DejaVuSans-6a"/>
      <use x="642.675781" xlink:href="#DejaVuSans-64"/>
     </g>
    </g>
   </g>
   <g id="matplotlib.axis_2">
    <g id="ytick_1">
     <g id="line2d_8">
      <defs>
       <path d="M 0 0 
L -3.5 0 
" id="mc151da81c7" style="stroke:#000000;stroke-width:0.8;"/>
      </defs>
      <g>
       <use style="stroke:#000000;stroke-width:0.8;" x="54" xlink:href="#mc151da81c7" y="242.116364"/>
      </g>
     </g>
     <g id="text_9">
      <!-- $\mathdefault{10^{0}}$ -->
      <g transform="translate(29.4 245.915582)scale(0.1 -0.1)">
       <use transform="translate(0 0.765625)" xlink:href="#DejaVuSans-31"/>
       <use transform="translate(63.623047 0.765625)" xlink:href="#DejaVuSans-30"/>
       <use transform="translate(128.203125 39.046875)scale(0.7)" xlink:href="#DejaVuSans-30"/>
      </g>
     </g>
    </g>
    <g id="ytick_2">
     <g id="line2d_9">
      <g>
       <use style="stroke:#000000;stroke-width:0.8;" x="54" xlink:href="#mc151da81c7" y="167.059803"/>
      </g>
     </g>
     <g id="text_10">
      <!-- $\mathdefault{10^{1}}$ -->
      <g transform="translate(29.4 170.859022)scale(0.1 -0.1)">
       <use transform="translate(0 0.684375)" xlink:href="#DejaVuSans-31"/>
       <use transform="translate(63.623047 0.684375)" xlink:href="#DejaVuSans-30"/>
       <use transform="translate(128.203125 38.965625)scale(0.7)" xlink:href="#DejaVuSans-31"/>
      </g>
     </g>
    </g>
    <g id="ytick_3">
     <g id="line2d_10">
      <g>
       <use style="stroke:#000000;stroke-width:0.8;" x="54" xlink:href="#mc151da81c7" y="92.003242"/>
      </g>
     </g>
     <g id="text_11">
      <!-- $\mathdefault{10^{2}}$ -->
      <g transform="translate(29.4 95.802461)scale(0.1 -0.1)">
       <use transform="translate(0 0.765625)" xlink:href="#DejaVuSans-31"/>
       <use transform="translate(63.623047 0.765625)" xlink:href="#DejaVuSans-30"/>
       <use transform="translate(128.203125 39.046875)scale(0.7)" xlink:href="#DejaVuSans-32"/>
      </g>
     </g>
    </g>
    <g id="ytick_4">
     <g id="line2d_11">
      <defs>
       <path d="M 0 0 
L -2 0 
" id="m0c2f8a1e73" style="stroke:#000000;stroke-width:0.6;"/>
      </defs>
      <g>
       <use style="stroke:#000000;stroke-width:0.6;" x="54" xlink:href="#m0c2f8a1e73" y="249.390096"/>
      </g>
     </g>
    </g>
    <g id="ytick_5">
     <g id="line2d_12">
      <g>
       <use style="stroke:#000000;stroke-width:0.6;" x="54" xlink:href="#m0c2f8a1e73" y="245.550764"/>
      </g>
     </g>
    </g>
    <g id="ytick_6">
     <g id="line2d_13">
      <g>
       <use style="stroke:#000000;stroke-width:0.6;" x="54" xlink:href="#m0c2f8a1e73" y="219.522087"/>
      </g>
     </g>
    </g>
    <g id="ytick_7">
     <g id="line2d_14">
      <g>
       <use style="stroke:#000000;stroke-width:0.6;" x="54" xlink:href="#m0c2f8a1e73" y="206.305283"/>
      </g>
     </g>
    </g>
    <g id="ytick_8">
     <g id="line2d_15">
      <g>
       <use style="stroke:#000000;stroke-width:0.6;" x="54" xlink:href="#m0c2f8a1e73" y="196.927811"/>
      </g>
     </g>
    </g>
    <g id="ytick_9">
     <g id="line2d_16">
      <g>
       <use style="stroke:#000000;stroke-width:0.6;" x="54" xlink:href="#m0c2f8a1e73" y="189.654079"/>
      </g>
     </g>
    </g>
    <g id="ytick_10">
     <g id="line2d_17">
      <g>
       <use style="stroke:#000000;stroke-width:0.6;" x="54" xlink:href="#m0c2f8a1e73" y="183.711007"/>
      </g>
     </g>
    </g>
    <g id="ytick_11">
     <g id="line2d_18">
      <g>
       <use style="stroke:#000000;stroke-width:0.6;" x="54" xlink:href="#m0c2f8a1e73" y="178.686211"/>
      </g>
     </g>
    </g>
    <g id="ytick_12">
     <g id="line2d_19">
      <g>
       <use style="stroke:#000000;stroke-width:0.6;" x="54" xlink:href="#m0c2f8a1e73" y="174.333535"/>
      </g>
     </g>
    </g>
    <g id="ytick_13">
     <g id="line2d_20">
      <g>
       <use style="stroke:#000000;stroke-width:0.6;" x="54" xlink:href="#m0c2f8a1e73" y="170.494203"/>
      </g>
     </g>
    </g>
    <g id="ytick_14">
     <g id="line2d_21">
      <g>
       <use style="stroke:#000000;stroke-width:0.6;" x="54" xlink:href="#m0c2f8a1e73" y="144.465527"/>
      </g>
     </g>
    </g>
    <g id="ytick_15">
     <g id="line2d_22">
      <g>
       <use style="stroke:#000000;stroke-width:0.6;" x="54" xlink:href="#m0c2f8a1e73" y="131.248723"/>
      </g>
     </g>
    </g>
    <g id="ytick_16">
     <g id="line2d_23">
      <g>
       <use style="stroke:#000000;stroke-width:0.6;" x="54" xlink:href="#m0c2f8a1e73" y="121.871251"/>
      </g>
     </g>
    </g>
    <g id="ytick_17">
     <g id="line2d_24">
      <g>
       <use style="stroke:#000000;stroke-width:0.6;" x="54" xlink:href="#m0c2f8a1e73" y="114.597518"/>
      </g>
     </g>
    </g>
    <g id="ytick_18">
     <g id="line2d_25">
      <g>
       <use style="stroke:#000000;stroke-width:0.6;" x="54" xlink:href="#m0c2f8a1e73" y="108.654446"/>
      </g>
     </g>
    </g>
    <g id="ytick_19">
     <g id="line2d_26">
      <g>
       <use style="stroke:#000000;stroke-width:0.6;" x="54" xlink:href="#m0c2f8a1e73" y="103.629651"/>
      </g>
     </g>
    </g>
    <g id="ytick_20">
     <g id="line2d_27">
      <g>
       <use style="stroke:#000000;stroke-width:0.6;" x="54" xlink:href="#m0c2f8a1e73" y="99.276974"/>
      </g>
     </g>
    </g>
    <g id="ytick_21">
     <g id="line2d_28">
      <g>
       <use style="stroke:#000000;stroke-width:0.6;" x="54" xlink:href="#m0c2f8a1e73" y="95.437642"/>
      </g>
     </g>
    </g>
    <g id="ytick_22">
     <g id="line2d_29">
      <g>
       <use style="stroke:#000000;stroke-width:0.6;" x="54" xlink:href="#m0c2f8a1e73" y="69.408966"/>
      </g>
     </g>
    </g>
    <g id="ytick_23">
     <g id="line2d_30">
      <g>
       <use style="stroke:#000000;stroke-width:0.6;" x="54" xlink:href="#m0c2f8a1e73" y="56.192162"/>
      </g>
     </g>
    </g>
    <g id="ytick_24">
     <g id="line2d_31">
      <g>
       <use style="stroke:#000000;stroke-width:0.6;" x="54" xlink:href="#m0c2f8a1e73" y="46.81469"/>
      </g>
     </g>
    </g>
    <g id="ytick_25">
     <g id="line2d_32">
      <g>
       <use style="stroke:#000000;stroke-width:0.6;" x="54" xlink:href="#m0c2f8a1e73" y="39.540958"/>
      </g>
     </g>
    </g>
    <g id="text_12">
     <!-- genormaliseerde omlooptijd -->
     <g transform="translate(23.320312 213.529219)rotate(-90)scale(0.1 -0.1)">
      <defs>
       <path d="M 1959 3097 
Q 1497 3097 1228 2736 
Q 959 2375 959 1747 
Q 959 1119 1226 758 
Q 1494 397 1959 397 
Q 2419 397 2687 759 
Q 2956 1122 2956 1747 
Q 2956 2369 2687 2733 
Q 2419 3097 1959 3097 
z
M 1959 3584 
Q 2709 3584 3137 3096 
Q 3566 2609 3566 1747 
Q 3566 888 3137 398 
Q 2709 -91 1959 -91 
Q 1206 -91 779 398 
Q 353 888 353 1747 
Q 353 2609 779 3096 
Q 1206 3584 1959 3584 
z
" id="DejaVuSans-6f" transform="scale(0.015625)"/>
       <path d="M 2631 2963 
Q 2534 3019 2420 3045 
Q 2306 3072 2169 3072 
Q 1681 3072 1420 2755 
Q 1159 2438 1159 1844 
L 1159 0 
L 581 0 
L 581 3500 
L 1159 3500 
L 1159 2956 
Q 1341 3275 1631 3429 
Q 1922 3584 2338 3584 
Q 2397 3584 2469 3576 
Q 2541 3569 2628 3553 
L 2631 2963 
z
" id="DejaVuSans-72" transform="scale(0.015625)"/>
       <path d="M 3328 2828 
Q 3544 3216 3844 3400 
Q 4144 3584 4550 3584 
Q 5097 3584 5394 3201 
Q 5691 2819 5691 2113 
L 5691 0 
L 5113 0 
L 5113 2094 
Q 5113 2597 4934 2840 
Q 4756 3084 4391 3084 
Q 3944 3084 3684 2787 
Q 3425 2491 3425 1978 
L 3425 0 
L 2847 0 
L 2847 2094 
Q 2847 2600 2669 2842 
Q 2491 3084 2119 3084 
Q 1678 3084 1418 2786 
Q 1159 2488 1159 1978 
L 1159 0 
L 581 0 
L 581 3500 
L 1159 3500 
L 1159 2956 
Q 1356 3278 1631 3431 
Q 1906 3584 2284 3584 
Q 2666 3584 2933 3390 
Q 3200 3197 3328 2828 
z
" id="DejaVuSans-6d" transform="scale(0.015625)"/>
       <path d="M 2194 1759 
Q 1497 1759 1228 1600 
Q 959 1441 959 1056 
Q 959 750 1161 570 
Q 1363 391 1709 391 
Q 2188 391 2477 730 
Q 2766 1069 2766 1631 
L 2766 1759 
L 2194 1759 
z
M 3341 1997 
L 3341 0 
L 2766 0 
L 2766 531 
Q 2569 213 2275 61 
Q 1981 -91 1556 -91 
Q 1019 -91 701 211 
Q 384 513 384 1019 
Q 384 1609 779 1909 
Q 1175 2209 1959 2209 
L 2766 2209 
L 2766 2266 
Q 2766 2663 2505 2880 
Q 2244 3097 1772 3097 
Q 1472 3097 1187 3025 
Q 903 2953 641 2809 
L 641 3341 
Q 956 3463 1253 3523 
Q 1550 3584 1831 3584 
Q 2591 3584 2966 3190 
Q 3341 2797 3341 1997 
z
" id="DejaVuSans-61" transform="scale(0.015625)"/>
       <path d="M 603 4863 
L 1178 4863 
L 1178 0 
L 603 0 
L 603 4863 
z
" id="DejaVuSans-6c" transform="scale(0.015625)"/>
       <path id="DejaVuSans-20" transform="scale(0.015625)"/>
       <path d="M 1159 525 
L 1159 -1331 
L 581 -1331 
L 581 3500 
L 1159 3500 
L 1159 2969 
Q 1341 3281 1617 3432 
Q 1894 3584 2278 3584 
Q 2916 3584 3314 3078 
Q 3713 2572 3713 1747 
Q 3713 922 3314 415 
Q 2916 -91 2278 -91 
Q 1894 -91 1617 61 
Q 1341 213 1159 525 
z
M 3116 1747 
Q 3116 2381 2855 2742 
Q 2594 3103 2138 3103 
Q 1681 3103 1420 2742 
Q 1159 2381 1159 1747 
Q 1159 1113 1420 752 
Q 1681 391 2138 391 
Q 2594 391 2855 752 
Q 3116 1113 3116 1747 
z
" id="DejaVuSans-70" transform="scale(0.015625)"/>
      </defs>
      <use xlink:href="#DejaVuSans-67"/>
      <use x="63.476562" xlink:href="#DejaVuSans-65"/>
      <use x="125" xlink:href="#DejaVuSans-6e"/>
      <use x="188.378906" xlink:href="#DejaVuSans-6f"/>
      <use x="249.560547" xlink:href="#DejaVuSans-72"/>
      <use x="288.923828" xlink:href="#DejaVuSans-6d"/>
      <use x="386.335938" xlink:href="#DejaVuSans-61"/>
      <use x="447.615234" xlink:href="#DejaVuSans-6c"/>
      <use x="475.398438" xlink:href="#DejaVuSans-69"/>
      <use x="503.181641" xlink:href="#DejaVuSans-73"/>
      <use x="555.28125" xlink:href="#DejaVuSans-65"/>
      <use x="616.804688" xlink:href="#DejaVuSans-65"/>
      <use x="678.328125" xlink:href="#DejaVuSans-72"/>
      <use x="717.691406" xlink:href="#DejaVuSans-64"/>
      <use x="781.167969" xlink:href="#DejaVuSans-65"/>
      <use x="842.691406" xlink:href="#DejaVuSans-20"/>
      <use x="874.478516" xlink:href="#DejaVuSans-6f"/>
      <use x="935.660156" xlink:href="#DejaVuSans-6d"/>
      <use x="1033.072266" xlink:href="#DejaVuSans-6c"/>
      <use x="1060.855469" xlink:href="#DejaVuSans-6f"/>
      <use x="1122.037109" xlink:href="#DejaVuSans-6f"/>
      <use x="1183.21875" xlink:href="#DejaVuSans-70"/>
      <use x="1246.695312" xlink:href="#DejaVuSans-74"/>
      <use x="1285.904297" xlink:href="#DejaVuSans-69"/>
      <use x="1313.6875" xlink:href="#DejaVuSans-6a"/>
      <use x="1341.470703" xlink:href="#DejaVuSans-64"/>
     </g>
    </g>
   </g>
   <g id="line2d_33">
    <path clip-path="url(#pb0b63beb84)" d="M 69.218182 45.843261 
L 69.218182 44.443636 
L 69.665079 57.863008 
L 70.1971 67.093022 
L 70.745081 82.208968 
L 71.218579 94.904008 
L 71.814442 100.290992 
L 72.426266 108.735716 
L 73.022129 116.522972 
L 73.506267 112.326067 
L 74.10213 113.419964 
L 74.724595 123.85805 
L 75.309817 131.758493 
L 75.964202 132.106222 
L 76.512184 132.419541 
L 77.038884 134.575299 
L 77.640067 132.320798 
L 78.294452 141.305851 
L 78.900956 145.749176 
L 79.512779 143.433813 
L 80.087362 145.899686 
L 80.699185 141.403654 
L 81.305689 141.947287 
L 82.11968 148.001608 
L 82.859189 154.701788 
L 83.598697 151.32138 
L 84.343526 155.303753 
L 84.939389 160.114301 
L 85.769341 160.425896 
L 86.455648 159.024728 
L 87.227077 159.502453 
L 88.057029 160.859994 
L 88.759297 157.906574 
L 89.722254 152.435868 
L 90.525605 164.173121 
L 91.312995 160.634139 
L 92.228071 163.709047 
L 92.866495 165.240722 
L 93.552802 167.179584 
L 94.398714 164.142675 
L 95.265908 169.155344 
L 96.149062 164.506764 
L 96.994975 164.883231 
L 97.995173 172.008293 
L 98.777244 176.299717 
L 99.671038 173.869816 
L 100.719119 170.22294 
L 101.831042 168.313878 
L 103.006807 175.469424 
L 104.12937 173.733447 
L 105.257254 175.91807 
L 106.470261 175.67129 
L 107.672627 173.408412 
L 108.757949 179.895752 
L 110.098641 175.85444 
L 111.316968 192.113963 
L 112.577857 188.222974 
L 113.796184 176.831584 
L 115.014511 187.238405 
L 116.397764 184.909679 
L 117.722495 185.264234 
L 119.201512 184.220754 
L 120.68053 187.498306 
L 122.063783 182.412449 
L 123.52684 192.319003 
L 125.122901 186.329907 
L 126.697682 185.945342 
L 128.437389 188.865425 
L 130.560151 192.600846 
L 132.555228 188.29925 
L 134.529025 191.654134 
L 136.396417 197.088561 
L 138.242528 193.107219 
L 140.09928 195.008527 
L 142.046475 196.099077 
L 143.897906 188.041477 
L 146.217516 196.124977 
L 148.611608 201.509104 
L 150.936538 196.181829 
L 153.394473 201.287007 
L 156.230143 200.317219 
L 159.289261 199.818963 
L 162.385621 202.510792 
L 166.104444 198.736693 
L 169.679622 205.459214 
L 173.387805 202.581556 
L 177.3886 205.403617 
L 181.368114 202.651699 
L 185.427431 211.208447 
L 189.949605 203.588895 
L 194.966559 210.744367 
L 200.520854 210.050887 
L 207.16047 209.07941 
L 214.715162 208.863698 
L 222.886997 206.405219 
L 233.213516 210.961871 
L 245.497871 218.49474 
L 263.022628 217.896067 
L 290.613213 219.832838 
L 373.581818 224.111465 
" style="fill:none;stroke:#1f77b4;stroke-linecap:square;stroke-width:1.5;"/>
   </g>
   <g id="line2d_34">
    <path clip-path="url(#pb0b63beb84)" d="M 69.218182 96.411846 
L 69.218182 100.227864 
L 69.665079 117.311937 
L 70.1971 130.337993 
L 70.745081 136.630559 
L 71.218579 150.950267 
L 71.814442 157.841628 
L 72.426266 160.044137 
L 73.022129 164.293092 
L 73.506267 162.247421 
L 74.10213 173.719282 
L 74.724595 172.606724 
L 75.309817 179.235888 
L 75.964202 177.207122 
L 76.512184 182.429558 
L 77.038884 184.180458 
L 77.640067 182.847899 
L 78.294452 192.227832 
L 78.900956 191.054511 
L 79.512779 189.424848 
L 80.087362 190.24329 
L 80.699185 193.077744 
L 81.305689 190.597065 
L 82.11968 192.062592 
L 82.859189 191.756878 
L 83.598697 198.949946 
L 84.343526 195.77912 
L 84.939389 196.552404 
L 85.769341 202.101897 
L 86.455648 200.473526 
L 87.227077 201.355092 
L 88.057029 202.25217 
L 88.759297 202.045574 
L 89.722254 201.381598 
L 90.525605 203.522416 
L 91.312995 204.548003 
L 92.228071 209.568617 
L 92.866495 207.220374 
L 93.552802 210.505992 
L 94.398714 208.031198 
L 95.265908 210.046318 
L 96.149062 207.451923 
L 96.994975 206.857599 
L 97.995173 207.781927 
L 98.777244 208.282187 
L 99.671038 210.280566 
L 100.719119 206.607792 
L 101.831042 210.949449 
L 103.006807 214.472717 
L 104.12937 213.569723 
L 105.257254 212.943288 
L 106.470261 212.164587 
L 107.672627 212.653799 
L 108.757949 209.411631 
L 110.098641 213.496961 
L 111.316968 215.677002 
L 112.577857 214.386531 
L 113.796184 213.255216 
L 115.014511 210.777751 
L 116.397764 211.320474 
L 117.722495 213.159795 
L 119.201512 214.386 
L 120.68053 214.422487 
L 122.063783 213.368309 
L 123.52684 217.247737 
L 125.122901 217.536862 
L 126.697682 213.88471 
L 128.437389 210.961566 
L 130.560151 216.505181 
L 132.555228 214.370482 
L 134.529025 214.687746 
L 136.396417 216.708986 
L 138.242528 212.719976 
L 140.09928 212.100817 
L 142.046475 213.988618 
L 143.897906 212.284017 
L 146.217516 212.766675 
L 148.611608 214.682388 
L 150.936538 218.998103 
L 153.394473 214.02764 
L 156.230143 217.319411 
L 159.289261 214.109596 
L 162.385621 212.681656 
L 166.104444 209.883135 
L 169.679622 212.403541 
L 173.387805 210.373603 
L 177.3886 214.016075 
L 181.368114 211.46572 
L 185.427431 213.488776 
L 189.949605 207.285432 
L 194.966559 214.241656 
L 200.520854 207.474687 
L 207.16047 207.337206 
L 214.715162 204.339175 
L 222.886997 201.966902 
L 233.213516 208.955356 
L 245.497871 196.979813 
L 263.022628 191.257326 
L 290.613213 194.513374 
L 373.581818 197.971819 
" style="fill:none;stroke:#ff7f0e;stroke-linecap:square;stroke-width:1.5;"/>
   </g>
   <g id="line2d_35">
    <path clip-path="url(#pb0b63beb84)" d="M 69.218182 242.116364 
L 69.218182 242.116364 
L 69.665079 242.116364 
L 70.1971 242.116364 
L 70.745081 242.116364 
L 71.218579 242.116364 
L 71.814442 242.116364 
L 72.426266 242.116364 
L 73.022129 242.116364 
L 73.506267 242.116364 
L 74.10213 242.116364 
L 74.724595 242.116364 
L 75.309817 241.953786 
L 75.964202 241.976962 
L 76.512184 242.09464 
L 77.038884 242.116364 
L 77.640067 241.981224 
L 78.294452 242.044007 
L 78.900956 241.860032 
L 79.512779 242.01872 
L 80.087362 241.774557 
L 80.699185 241.695211 
L 81.305689 241.967304 
L 82.11968 242.116364 
L 82.859189 241.979208 
L 83.598697 241.665472 
L 84.343526 241.554355 
L 84.939389 241.716797 
L 85.769341 241.934135 
L 86.455648 242.027585 
L 87.227077 241.865869 
L 88.057029 241.534506 
L 88.759297 241.473452 
L 89.722254 241.670595 
L 90.525605 241.537771 
L 91.312995 241.570108 
L 92.228071 241.609966 
L 92.866495 241.281369 
L 93.552802 241.477664 
L 94.398714 240.559907 
L 95.265908 241.180112 
L 96.149062 241.241033 
L 96.994975 241.663265 
L 97.995173 241.174552 
L 98.777244 241.072834 
L 99.671038 240.725432 
L 100.719119 241.250619 
L 101.831042 240.208853 
L 103.006807 240.774488 
L 104.12937 240.469906 
L 105.257254 239.834652 
L 106.470261 239.736269 
L 107.672627 241.099058 
L 108.757949 240.447001 
L 110.098641 239.300282 
L 111.316968 240.689374 
L 112.577857 238.675969 
L 113.796184 239.947958 
L 115.014511 240.323473 
L 116.397764 240.148488 
L 117.722495 238.659627 
L 119.201512 238.761475 
L 120.68053 239.059826 
L 122.063783 239.643927 
L 123.52684 238.087002 
L 125.122901 239.625205 
L 126.697682 237.470092 
L 128.437389 238.212884 
L 130.560151 238.77499 
L 132.555228 238.624455 
L 134.529025 237.450579 
L 136.396417 237.968028 
L 138.242528 236.906759 
L 140.09928 236.56852 
L 142.046475 235.965432 
L 143.897906 236.740231 
L 146.217516 237.018437 
L 148.611608 236.054486 
L 150.936538 235.022189 
L 153.394473 236.910676 
L 156.230143 236.001894 
L 159.289261 236.0645 
L 162.385621 234.436485 
L 166.104444 235.82568 
L 169.679622 233.922714 
L 173.387805 229.135825 
L 177.3886 233.555512 
L 181.368114 233.095894 
L 185.427431 233.976134 
L 189.949605 231.978292 
L 194.966559 234.657246 
L 200.520854 229.214586 
L 207.16047 226.46915 
L 214.715162 227.020864 
L 222.886997 223.007461 
L 233.213516 227.619007 
L 245.497871 223.629165 
L 263.022628 220.0928 
L 290.613213 215.317443 
L 373.581818 210.90264 
" style="fill:none;stroke:#2ca02c;stroke-linecap:square;stroke-width:1.5;"/>
   </g>
   <g id="line2d_36">
    <path clip-path="url(#pb0b63beb84)" d="M 69.218182 172.704357 
L 69.218182 174.292815 
L 69.665079 184.564155 
L 70.1971 174.702326 
L 70.745081 183.1544 
L 71.218579 187.254244 
L 71.814442 185.925037 
L 72.426266 188.574352 
L 73.022129 193.996409 
L 73.506267 180.511605 
L 74.10213 184.474036 
L 74.724595 187.773817 
L 75.309817 190.68402 
L 75.964202 191.188357 
L 76.512184 189.143995 
L 77.038884 188.905945 
L 77.640067 184.650382 
L 78.294452 189.116195 
L 78.900956 190.739758 
L 79.512779 190.104213 
L 80.087362 189.496276 
L 80.699185 182.320002 
L 81.305689 182.827182 
L 82.11968 188.185989 
L 82.859189 191.43623 
L 83.598697 187.597836 
L 84.343526 188.005358 
L 84.939389 189.951394 
L 85.769341 193.944321 
L 86.455648 188.411 
L 87.227077 189.377104 
L 88.057029 189.24731 
L 88.759297 184.751708 
L 89.722254 181.022674 
L 90.525605 189.529579 
L 91.312995 184.994917 
L 92.228071 185.730129 
L 92.866495 188.153882 
L 93.552802 186.995984 
L 94.398714 184.965291 
L 95.265908 185.530295 
L 96.149062 183.449678 
L 96.994975 183.469809 
L 97.995173 189.100379 
L 98.777244 191.545817 
L 99.671038 189.164196 
L 100.719119 183.226371 
L 101.831042 181.881779 
L 103.006807 187.443345 
L 104.12937 184.194091 
L 105.257254 185.130044 
L 106.470261 183.49033 
L 107.672627 183.975276 
L 108.757949 186.618616 
L 110.098641 183.014515 
L 111.316968 196.656137 
L 112.577857 190.191738 
L 113.796184 182.591144 
L 115.014511 191.05303 
L 116.397764 189.486996 
L 117.722495 187.494101 
L 119.201512 185.570487 
L 120.68053 187.206505 
L 122.063783 183.127319 
L 123.52684 190.312698 
L 125.122901 184.788597 
L 126.697682 183.195841 
L 128.437389 186.523747 
L 130.560151 187.093742 
L 132.555228 182.727166 
L 134.529025 186.471557 
L 136.396417 189.423024 
L 138.242528 185.867971 
L 140.09928 187.899757 
L 142.046475 187.651611 
L 143.897906 179.189519 
L 146.217516 185.652235 
L 148.611608 190.177379 
L 150.936538 183.541849 
L 153.394473 190.946884 
L 156.230143 186.113736 
L 159.289261 187.050364 
L 162.385621 186.20849 
L 166.104444 184.561021 
L 169.679622 188.326387 
L 173.387805 183.355214 
L 177.3886 187.259059 
L 181.368114 184.831216 
L 185.427431 192.635208 
L 189.949605 184.061293 
L 194.966559 190.655628 
L 200.520854 189.14737 
L 207.16047 185.239857 
L 214.715162 184.758763 
L 222.886997 182.025012 
L 233.213516 186.481401 
L 245.497871 190.518121 
L 263.022628 187.038519 
L 290.613213 188.420342 
L 373.581818 190.539981 
" style="fill:none;stroke:#d62728;stroke-linecap:square;stroke-width:1.5;"/>
   </g>
   <g id="line2d_37">
    <path clip-path="url(#pb0b63beb84)" d="M 69.218182 151.556417 
L 69.218182 153.176201 
L 69.665079 164.475763 
L 70.1971 172.704357 
L 70.745081 184.830137 
L 71.218579 181.607267 
L 71.814442 178.423396 
L 72.426266 188.881379 
L 73.022129 193.767558 
L 73.506267 175.868089 
L 74.10213 181.117387 
L 74.724595 188.461684 
L 75.309817 189.96354 
L 75.964202 188.27451 
L 76.512184 188.492839 
L 77.038884 189.504208 
L 77.640067 182.749816 
L 78.294452 187.150547 
L 78.900956 191.258598 
L 79.512779 189.858994 
L 80.087362 187.836015 
L 80.699185 181.877541 
L 81.305689 183.287222 
L 82.11968 186.605602 
L 82.859189 191.042349 
L 83.598697 187.812784 
L 84.343526 186.736123 
L 84.939389 189.747024 
L 85.769341 194.22874 
L 86.455648 187.298073 
L 87.227077 189.334258 
L 88.057029 189.078953 
L 88.759297 183.786532 
L 89.722254 181.348737 
L 90.525605 188.804233 
L 91.312995 184.870463 
L 92.228071 185.622432 
L 92.866495 187.373223 
L 93.552802 187.048249 
L 94.398714 184.946405 
L 95.265908 184.89852 
L 96.149062 183.790958 
L 96.994975 183.058671 
L 97.995173 189.280087 
L 98.777244 191.284667 
L 99.671038 188.88934 
L 100.719119 183.207978 
L 101.831042 181.77428 
L 103.006807 187.283915 
L 104.12937 184.206547 
L 105.257254 184.954477 
L 106.470261 183.606459 
L 107.672627 183.549951 
L 108.757949 186.868903 
L 110.098641 182.844232 
L 111.316968 196.861549 
L 112.577857 190.189401 
L 113.796184 182.533197 
L 115.014511 191.1852 
L 116.397764 189.259216 
L 117.722495 187.538316 
L 119.201512 185.621281 
L 120.68053 187.156992 
L 122.063783 183.174546 
L 123.52684 190.435683 
L 125.122901 184.755933 
L 126.697682 183.255375 
L 128.437389 186.575185 
L 130.560151 187.151228 
L 132.555228 182.799132 
L 134.529025 186.59758 
L 136.396417 189.505664 
L 138.242528 186.00751 
L 140.09928 188.003115 
L 142.046475 187.749116 
L 143.897906 179.303561 
L 146.217516 185.793489 
L 148.611608 190.22261 
L 150.936538 183.694684 
L 153.394473 191.005629 
L 156.230143 186.284068 
L 159.289261 187.114364 
L 162.385621 186.310263 
L 166.104444 184.657635 
L 169.679622 188.461978 
L 173.387805 183.492706 
L 177.3886 187.351677 
L 181.368114 184.948768 
L 185.427431 192.728221 
L 189.949605 184.202819 
L 194.966559 190.74069 
L 200.520854 189.26026 
L 207.16047 185.358478 
L 214.715162 184.905911 
L 222.886997 182.14176 
L 233.213516 186.622037 
L 245.497871 190.636661 
L 263.022628 187.173162 
L 290.613213 188.559217 
L 373.581818 190.652867 
" style="fill:none;stroke:#9467bd;stroke-linecap:square;stroke-width:1.5;"/>
   </g>
   <g id="line2d_38">
    <path clip-path="url(#pb0b63beb84)" d="M 69.218182 130.012076 
L 69.218182 130.967435 
L 69.665079 143.83601 
L 70.1971 152.42553 
L 70.745081 165.376407 
L 71.218579 178.763137 
L 71.814442 179.93774 
L 72.426266 190.586594 
L 73.022129 193.940594 
L 73.506267 168.383673 
L 74.10213 173.969969 
L 74.724595 181.558687 
L 75.309817 186.838458 
L 75.964202 189.325476 
L 76.512184 189.711873 
L 77.038884 190.479076 
L 77.640067 179.357332 
L 78.294452 183.05197 
L 78.900956 187.724941 
L 79.512779 187.25857 
L 80.087362 188.759408 
L 80.699185 182.838618 
L 81.305689 184.278386 
L 82.11968 183.806932 
L 82.859189 188.268725 
L 83.598697 185.600053 
L 84.343526 187.63306 
L 84.939389 190.611988 
L 85.769341 194.763564 
L 86.455648 185.133695 
L 87.227077 187.388941 
L 88.057029 188.165739 
L 88.759297 184.651364 
L 89.722254 182.070203 
L 90.525605 187.473289 
L 91.312995 183.158008 
L 92.228071 185.016713 
L 92.866495 188.024953 
L 93.552802 187.854597 
L 94.398714 184.830137 
L 95.265908 183.68991 
L 96.149062 182.502525 
L 96.994975 183.101253 
L 97.995173 189.936455 
L 98.777244 190.910765 
L 99.671038 187.807672 
L 100.719119 182.894657 
L 101.831042 182.542797 
L 103.006807 187.067396 
L 104.12937 183.282184 
L 105.257254 185.102531 
L 106.470261 184.223219 
L 107.672627 182.815912 
L 108.757949 186.187656 
L 110.098641 183.482362 
L 111.316968 197.058676 
L 112.577857 189.479922 
L 113.796184 182.5555 
L 115.014511 191.748641 
L 116.397764 188.761663 
L 117.722495 187.42779 
L 119.201512 186.077997 
L 120.68053 186.72392 
L 122.063783 183.120833 
L 123.52684 190.905206 
L 125.122901 184.309734 
L 126.697682 183.527066 
L 128.437389 186.60796 
L 130.560151 187.213724 
L 132.555228 183.044138 
L 134.529025 186.500771 
L 136.396417 189.906809 
L 138.242528 185.695515 
L 140.09928 188.56518 
L 142.046475 187.64188 
L 143.897906 179.618595 
L 146.217516 185.787507 
L 148.611608 190.742544 
L 150.936538 183.629871 
L 153.394473 191.331978 
L 156.230143 186.519535 
L 159.289261 187.202027 
L 162.385621 186.567552 
L 166.104444 184.923625 
L 169.679622 188.694054 
L 173.387805 183.668198 
L 177.3886 187.617581 
L 181.368114 185.157397 
L 185.427431 192.975415 
L 189.949605 184.479797 
L 194.966559 190.932921 
L 200.520854 189.461983 
L 207.16047 185.667519 
L 214.715162 185.204627 
L 222.886997 182.351689 
L 233.213516 186.91258 
L 245.497871 190.885471 
L 263.022628 187.428971 
L 290.613213 188.841425 
L 373.581818 190.865143 
" style="fill:none;stroke:#8c564b;stroke-linecap:square;stroke-width:1.5;"/>
   </g>
   <g id="line2d_39">
    <path clip-path="url(#pb0b63beb84)" d="M 69.218182 99.452654 
L 69.218182 97.935885 
L 69.665079 117.550168 
L 70.1971 125.905727 
L 70.745081 136.49733 
L 71.218579 146.033887 
L 71.814442 152.049036 
L 72.426266 155.498245 
L 73.022129 160.022345 
L 73.506267 159.783463 
L 74.10213 164.846604 
L 74.724595 162.322017 
L 75.309817 169.138144 
L 75.964202 170.095462 
L 76.512184 172.119206 
L 77.038884 173.590811 
L 77.640067 175.688391 
L 78.294452 178.083386 
L 78.900956 181.069303 
L 79.512779 179.058422 
L 80.087362 178.579846 
L 80.699185 179.328885 
L 81.305689 180.672374 
L 82.11968 181.602331 
L 82.859189 181.790616 
L 83.598697 187.32644 
L 84.343526 185.63606 
L 84.939389 185.058467 
L 85.769341 187.692687 
L 86.455648 186.801825 
L 87.227077 187.297121 
L 88.057029 185.453311 
L 88.759297 185.227047 
L 89.722254 184.321999 
L 90.525605 189.526592 
L 91.312995 189.624925 
L 92.228071 189.340303 
L 92.866495 191.839975 
L 93.552802 191.433404 
L 94.398714 189.797364 
L 95.265908 191.377066 
L 96.149062 189.202273 
L 96.994975 189.373979 
L 97.995173 192.833385 
L 98.777244 195.814063 
L 99.671038 191.803805 
L 100.719119 189.940324 
L 101.831042 191.457346 
L 103.006807 195.537657 
L 104.12937 193.405247 
L 105.257254 193.742381 
L 106.470261 191.804692 
L 107.672627 193.613438 
L 108.757949 194.784525 
L 110.098641 193.346469 
L 111.316968 205.47651 
L 112.577857 198.196398 
L 113.796184 193.345097 
L 115.014511 198.054685 
L 116.397764 196.956565 
L 117.722495 196.685189 
L 119.201512 196.38513 
L 120.68053 197.494567 
L 122.063783 193.72478 
L 123.52684 203.188683 
L 125.122901 195.93285 
L 126.697682 195.879184 
L 128.437389 196.936969 
L 130.560151 200.472576 
L 132.555228 195.666414 
L 134.529025 198.7577 
L 136.396417 203.081931 
L 138.242528 198.181969 
L 140.09928 197.902388 
L 142.046475 200.805907 
L 143.897906 195.280478 
L 146.217516 199.407051 
L 148.611608 203.96779 
L 150.936538 198.983903 
L 153.394473 203.642957 
L 156.230143 200.729986 
L 159.289261 201.398514 
L 162.385621 201.106735 
L 166.104444 200.455347 
L 169.679622 202.728099 
L 173.387805 200.137823 
L 177.3886 204.668206 
L 181.368114 200.009862 
L 185.427431 209.325224 
L 189.949605 200.159673 
L 194.966559 205.599954 
L 200.520854 205.431377 
L 207.16047 203.598853 
L 214.715162 202.528198 
L 222.886997 199.449588 
L 233.213516 205.847246 
L 245.497871 210.191677 
L 263.022628 206.197262 
L 290.613213 211.07268 
L 373.581818 213.284177 
" style="fill:none;stroke:#e377c2;stroke-linecap:square;stroke-width:1.5;"/>
   </g>
   <g id="line2d_40">
    <path clip-path="url(#pb0b63beb84)" d="M 69.218182 239.009571 
L 69.218182 240.525968 
L 69.665079 241.311467 
L 70.1971 242.116364 
L 70.745081 241.711431 
L 71.218579 238.965151 
L 71.814442 239.557427 
L 72.426266 239.910918 
L 73.022129 238.576196 
L 73.506267 237.459966 
L 74.10213 237.775172 
L 74.724595 237.76307 
L 75.309817 154.962778 
L 75.964202 129.17354 
L 76.512184 129.288832 
L 77.038884 131.499228 
L 77.640067 128.798395 
L 78.294452 137.863922 
L 78.900956 142.583802 
L 79.512779 140.090788 
L 80.087362 143.029779 
L 80.699185 137.823894 
L 81.305689 138.586984 
L 82.11968 144.766753 
L 82.859189 151.540433 
L 83.598697 148.291764 
L 84.343526 152.133306 
L 84.939389 156.975552 
L 85.769341 157.623879 
L 86.455648 155.955241 
L 87.227077 156.708866 
L 88.057029 157.682716 
L 88.759297 154.505024 
L 89.722254 149.376722 
L 90.525605 161.082812 
L 91.312995 157.945258 
L 92.228071 160.582486 
L 92.866495 162.253875 
L 93.552802 163.951818 
L 94.398714 161.16768 
L 95.265908 165.985881 
L 96.149062 161.31877 
L 96.994975 161.763616 
L 97.995173 168.569141 
L 98.777244 172.996993 
L 99.671038 170.822241 
L 100.719119 167.136011 
L 101.831042 165.220129 
L 103.006807 172.297514 
L 104.12937 170.598316 
L 105.257254 172.796414 
L 106.470261 172.441826 
L 107.672627 170.412559 
L 108.757949 176.585955 
L 110.098641 172.586097 
L 111.316968 188.991034 
L 112.577857 184.737546 
L 113.796184 173.845238 
L 115.014511 184.146436 
L 116.397764 181.872194 
L 117.722495 182.10208 
L 119.201512 181.235237 
L 120.68053 184.304811 
L 122.063783 179.361362 
L 123.52684 189.125841 
L 125.122901 183.271833 
L 126.697682 182.54957 
L 128.437389 185.913148 
L 130.560151 189.335375 
L 132.555228 185.276816 
L 134.529025 188.394999 
L 136.396417 193.876802 
L 138.242528 189.906078 
L 140.09928 191.836842 
L 142.046475 192.809188 
L 143.897906 184.759226 
L 146.217516 192.914328 
L 148.611608 198.207818 
L 150.936538 192.914317 
L 153.394473 198.33314 
L 156.230143 197.085757 
L 159.289261 196.693356 
L 162.385621 199.225716 
L 166.104444 195.729937 
L 169.679622 202.375185 
L 173.387805 199.281697 
L 177.3886 202.358458 
L 181.368114 199.459329 
L 185.427431 208.178798 
L 189.949605 200.614132 
L 194.966559 207.751867 
L 200.520854 207.008813 
L 207.16047 205.868431 
L 214.715162 205.774978 
L 222.886997 203.332202 
L 233.213516 208.009297 
L 245.497871 215.185296 
L 263.022628 214.663745 
L 290.613213 216.729898 
L 373.581818 221.186031 
" style="fill:none;stroke:#7f7f7f;stroke-linecap:square;stroke-width:1.5;"/>
   </g>
   <g id="line2d_41">
    <path clip-path="url(#pb0b63beb84)" d="M 69.218182 225.792767 
L 69.218182 226.390887 
L 69.665079 235.368395 
L 70.1971 240.525968 
L 70.745081 239.009571 
L 71.218579 238.233598 
L 71.814442 239.207728 
L 72.426266 239.57537 
L 73.022129 240.371114 
L 73.506267 240.107837 
L 74.10213 235.030454 
L 74.724595 224.72248 
L 75.309817 222.728598 
L 75.964202 229.363739 
L 76.512184 225.883203 
L 77.038884 221.143363 
L 77.640067 228.220397 
L 78.294452 228.873705 
L 78.900956 231.156462 
L 79.512779 229.634745 
L 80.087362 230.938014 
L 80.699185 229.468386 
L 81.305689 232.440865 
L 82.11968 233.24555 
L 82.859189 233.392458 
L 83.598697 231.124885 
L 84.343526 229.72855 
L 84.939389 233.062782 
L 85.769341 234.523293 
L 86.455648 234.471259 
L 87.227077 233.642657 
L 88.057029 234.680931 
L 88.759297 234.820753 
L 89.722254 235.128728 
L 90.525605 199.432887 
L 91.312995 193.68638 
L 92.228071 198.13609 
L 92.866495 195.736186 
L 93.552802 199.718781 
L 94.398714 200.849441 
L 95.265908 197.520447 
L 96.149062 202.957875 
L 96.994975 205.878201 
L 97.995173 206.955012 
L 98.777244 204.089596 
L 99.671038 204.318832 
L 100.719119 207.602663 
L 101.831042 203.794084 
L 103.006807 204.749632 
L 104.12937 203.854163 
L 105.257254 206.636921 
L 106.470261 208.720844 
L 107.672627 207.365217 
L 108.757949 203.634122 
L 110.098641 208.900517 
L 111.316968 213.190259 
L 112.577857 212.824934 
L 113.796184 213.36482 
L 115.014511 217.010723 
L 116.397764 212.496315 
L 117.722495 214.617251 
L 119.201512 212.510783 
L 120.68053 213.692001 
L 122.063783 210.971356 
L 123.52684 215.56071 
L 125.122901 213.801708 
L 126.697682 215.732478 
L 128.437389 216.267241 
L 130.560151 214.92636 
L 132.555228 213.854912 
L 134.529025 216.560041 
L 136.396417 215.933204 
L 138.242528 175.73282 
L 140.09928 163.689827 
L 142.046475 163.919977 
L 143.897906 155.510425 
L 146.217516 163.580087 
L 148.611608 168.232741 
L 150.936538 164.578756 
L 153.394473 171.575601 
L 156.230143 168.749162 
L 159.289261 171.707158 
L 162.385621 172.098479 
L 166.104444 170.851764 
L 169.679622 175.941302 
L 173.387805 171.357056 
L 177.3886 175.566806 
L 181.368114 171.965895 
L 185.427431 182.629724 
L 189.949605 174.15476 
L 194.966559 182.50618 
L 200.520854 181.328513 
L 207.16047 178.560847 
L 214.715162 179.285428 
L 222.886997 177.373944 
L 233.213516 182.824184 
L 245.497871 189.234817 
L 263.022628 187.405602 
L 290.613213 189.51614 
L 373.581818 195.926699 
" style="fill:none;stroke:#bcbd22;stroke-linecap:square;stroke-width:1.5;"/>
   </g>
   <g id="patch_3">
    <path d="M 54 252 
L 54 34.56 
" style="fill:none;stroke:#000000;stroke-linecap:square;stroke-linejoin:miter;stroke-width:0.8;"/>
   </g>
   <g id="patch_4">
    <path d="M 388.8 252 
L 388.8 34.56 
" style="fill:none;stroke:#000000;stroke-linecap:square;stroke-linejoin:miter;stroke-width:0.8;"/>
   </g>
   <g id="patch_5">
    <path d="M 54 252 
L 388.8 252 
" style="fill:none;stroke:#000000;stroke-linecap:square;stroke-linejoin:miter;stroke-width:0.8;"/>
   </g>
   <g id="patch_6">
    <path d="M 54 34.56 
L 388.8 34.56 
" style="fill:none;stroke:#000000;stroke-linecap:square;stroke-linejoin:miter;stroke-width:0.8;"/>
   </g>
   <g id="legend_1">
    <g id="patch_7">
     <path d="M 220.735938 174.663125 
L 381.8 174.663125 
Q 383.8 174.663125 383.8 172.663125 
L 383.8 41.56 
Q 383.8 39.56 381.8 39.56 
L 220.735938 39.56 
Q 218.735938 39.56 218.735938 41.56 
L 218.735938 172.663125 
Q 218.735938 174.663125 220.735938 174.663125 
z
" style="fill:#ffffff;opacity:0.8;stroke:#cccccc;stroke-linejoin:miter;"/>
    </g>
    <g id="line2d_42">
     <path d="M 222.735938 47.658437 
L 242.735938 47.658437 
" style="fill:none;stroke:#1f77b4;stroke-linecap:square;stroke-width:1.5;"/>
    </g>
    <g id="line2d_43"/>
    <g id="text_13">
     <!-- FCFS -->
     <g transform="translate(250.735938 51.158437)scale(0.1 -0.1)">
      <defs>
       <path d="M 628 4666 
L 3309 4666 
L 3309 4134 
L 1259 4134 
L 1259 2759 
L 3109 2759 
L 3109 2228 
L 1259 2228 
L 1259 0 
L 628 0 
L 628 4666 
z
" id="DejaVuSans-46" transform="scale(0.015625)"/>
       <path d="M 4122 4306 
L 4122 3641 
Q 3803 3938 3442 4084 
Q 3081 4231 2675 4231 
Q 1875 4231 1450 3742 
Q 1025 3253 1025 2328 
Q 1025 1406 1450 917 
Q 1875 428 2675 428 
Q 3081 428 3442 575 
Q 3803 722 4122 1019 
L 4122 359 
Q 3791 134 3420 21 
Q 3050 -91 2638 -91 
Q 1578 -91 968 557 
Q 359 1206 359 2328 
Q 359 3453 968 4101 
Q 1578 4750 2638 4750 
Q 3056 4750 3426 4639 
Q 3797 4528 4122 4306 
z
" id="DejaVuSans-43" transform="scale(0.015625)"/>
       <path d="M 3425 4513 
L 3425 3897 
Q 3066 4069 2747 4153 
Q 2428 4238 2131 4238 
Q 1616 4238 1336 4038 
Q 1056 3838 1056 3469 
Q 1056 3159 1242 3001 
Q 1428 2844 1947 2747 
L 2328 2669 
Q 3034 2534 3370 2195 
Q 3706 1856 3706 1288 
Q 3706 609 3251 259 
Q 2797 -91 1919 -91 
Q 1588 -91 1214 -16 
Q 841 59 441 206 
L 441 856 
Q 825 641 1194 531 
Q 1563 422 1919 422 
Q 2459 422 2753 634 
Q 3047 847 3047 1241 
Q 3047 1584 2836 1778 
Q 2625 1972 2144 2069 
L 1759 2144 
Q 1053 2284 737 2584 
Q 422 2884 422 3419 
Q 422 4038 858 4394 
Q 1294 4750 2059 4750 
Q 2388 4750 2728 4690 
Q 3069 4631 3425 4513 
z
" id="DejaVuSans-53" transform="scale(0.015625)"/>
      </defs>
      <use xlink:href="#DejaVuSans-46"/>
      <use x="57.519531" xlink:href="#DejaVuSans-43"/>
      <use x="127.34375" xlink:href="#DejaVuSans-46"/>
      <use x="183.113281" xlink:href="#DejaVuSans-53"/>
     </g>
    </g>
    <g id="line2d_44">
     <path d="M 222.735938 62.336563 
L 242.735938 62.336563 
" style="fill:none;stroke:#ff7f0e;stroke-linecap:square;stroke-width:1.5;"/>
    </g>
    <g id="line2d_45"/>
    <g id="text_14">
     <!-- SJF -->
     <g transform="translate(250.735938 65.836563)scale(0.1 -0.1)">
      <defs>
       <path d="M 628 4666 
L 1259 4666 
L 1259 325 
Q 1259 -519 939 -900 
Q 619 -1281 -91 -1281 
L -331 -1281 
L -331 -750 
L -134 -750 
Q 284 -750 456 -515 
Q 628 -281 628 325 
L 628 4666 
z
" id="DejaVuSans-4a" transform="scale(0.015625)"/>
      </defs>
      <use xlink:href="#DejaVuSans-53"/>
      <use x="63.476562" xlink:href="#DejaVuSans-4a"/>
      <use x="92.96875" xlink:href="#DejaVuSans-46"/>
     </g>
    </g>
    <g id="line2d_46">
     <path d="M 222.735938 77.014687 
L 242.735938 77.014687 
" style="fill:none;stroke:#2ca02c;stroke-linecap:square;stroke-width:1.5;"/>
    </g>
    <g id="line2d_47"/>
    <g id="text_15">
     <!-- SRT -->
     <g transform="translate(250.735938 80.514687)scale(0.1 -0.1)">
      <defs>
       <path d="M 2841 2188 
Q 3044 2119 3236 1894 
Q 3428 1669 3622 1275 
L 4263 0 
L 3584 0 
L 2988 1197 
Q 2756 1666 2539 1819 
Q 2322 1972 1947 1972 
L 1259 1972 
L 1259 0 
L 628 0 
L 628 4666 
L 2053 4666 
Q 2853 4666 3247 4331 
Q 3641 3997 3641 3322 
Q 3641 2881 3436 2590 
Q 3231 2300 2841 2188 
z
M 1259 4147 
L 1259 2491 
L 2053 2491 
Q 2509 2491 2742 2702 
Q 2975 2913 2975 3322 
Q 2975 3731 2742 3939 
Q 2509 4147 2053 4147 
L 1259 4147 
z
" id="DejaVuSans-52" transform="scale(0.015625)"/>
       <path d="M -19 4666 
L 3928 4666 
L 3928 4134 
L 2272 4134 
L 2272 0 
L 1638 0 
L 1638 4134 
L -19 4134 
L -19 4666 
z
" id="DejaVuSans-54" transform="scale(0.015625)"/>
      </defs>
      <use xlink:href="#DejaVuSans-53"/>
      <use x="63.476562" xlink:href="#DejaVuSans-52"/>
      <use x="125.708984" xlink:href="#DejaVuSans-54"/>
     </g>
    </g>
    <g id="line2d_48">
     <path d="M 222.735938 91.692813 
L 242.735938 91.692813 
" style="fill:none;stroke:#d62728;stroke-linecap:square;stroke-width:1.5;"/>
    </g>
    <g id="line2d_49"/>
    <g id="text_16">
     <!-- RR met q=2 -->
     <g transform="translate(250.735938 95.192813)scale(0.1 -0.1)">
      <defs>
       <path d="M 947 1747 
Q 947 1113 1208 752 
Q 1469 391 1925 391 
Q 2381 391 2643 752 
Q 2906 1113 2906 1747 
Q 2906 2381 2643 2742 
Q 2381 3103 1925 3103 
Q 1469 3103 1208 2742 
Q 947 2381 947 1747 
z
M 2906 525 
Q 2725 213 2448 61 
Q 2172 -91 1784 -91 
Q 1150 -91 751 415 
Q 353 922 353 1747 
Q 353 2572 751 3078 
Q 1150 3584 1784 3584 
Q 2172 3584 2448 3432 
Q 2725 3281 2906 2969 
L 2906 3500 
L 3481 3500 
L 3481 -1331 
L 2906 -1331 
L 2906 525 
z
" id="DejaVuSans-71" transform="scale(0.015625)"/>
       <path d="M 678 2906 
L 4684 2906 
L 4684 2381 
L 678 2381 
L 678 2906 
z
M 678 1631 
L 4684 1631 
L 4684 1100 
L 678 1100 
L 678 1631 
z
" id="DejaVuSans-3d" transform="scale(0.015625)"/>
      </defs>
      <use xlink:href="#DejaVuSans-52"/>
      <use x="69.482422" xlink:href="#DejaVuSans-52"/>
      <use x="138.964844" xlink:href="#DejaVuSans-20"/>
      <use x="170.751953" xlink:href="#DejaVuSans-6d"/>
      <use x="268.164062" xlink:href="#DejaVuSans-65"/>
      <use x="329.6875" xlink:href="#DejaVuSans-74"/>
      <use x="368.896484" xlink:href="#DejaVuSans-20"/>
      <use x="400.683594" xlink:href="#DejaVuSans-71"/>
      <use x="464.160156" xlink:href="#DejaVuSans-3d"/>
      <use x="547.949219" xlink:href="#DejaVuSans-32"/>
     </g>
    </g>
    <g id="line2d_50">
     <path d="M 222.735938 106.370937 
L 242.735938 106.370937 
" style="fill:none;stroke:#9467bd;stroke-linecap:square;stroke-width:1.5;"/>
    </g>
    <g id="line2d_51"/>
    <g id="text_17">
     <!-- RR met q=4 -->
     <g transform="translate(250.735938 109.870937)scale(0.1 -0.1)">
      <use xlink:href="#DejaVuSans-52"/>
      <use x="69.482422" xlink:href="#DejaVuSans-52"/>
      <use x="138.964844" xlink:href="#DejaVuSans-20"/>
      <use x="170.751953" xlink:href="#DejaVuSans-6d"/>
      <use x="268.164062" xlink:href="#DejaVuSans-65"/>
      <use x="329.6875" xlink:href="#DejaVuSans-74"/>
      <use x="368.896484" xlink:href="#DejaVuSans-20"/>
      <use x="400.683594" xlink:href="#DejaVuSans-71"/>
      <use x="464.160156" xlink:href="#DejaVuSans-3d"/>
      <use x="547.949219" xlink:href="#DejaVuSans-34"/>
     </g>
    </g>
    <g id="line2d_52">
     <path d="M 222.735938 121.049062 
L 242.735938 121.049062 
" style="fill:none;stroke:#8c564b;stroke-linecap:square;stroke-width:1.5;"/>
    </g>
    <g id="line2d_53"/>
    <g id="text_18">
     <!-- RR met q=8 -->
     <g transform="translate(250.735938 124.549062)scale(0.1 -0.1)">
      <defs>
       <path d="M 2034 2216 
Q 1584 2216 1326 1975 
Q 1069 1734 1069 1313 
Q 1069 891 1326 650 
Q 1584 409 2034 409 
Q 2484 409 2743 651 
Q 3003 894 3003 1313 
Q 3003 1734 2745 1975 
Q 2488 2216 2034 2216 
z
M 1403 2484 
Q 997 2584 770 2862 
Q 544 3141 544 3541 
Q 544 4100 942 4425 
Q 1341 4750 2034 4750 
Q 2731 4750 3128 4425 
Q 3525 4100 3525 3541 
Q 3525 3141 3298 2862 
Q 3072 2584 2669 2484 
Q 3125 2378 3379 2068 
Q 3634 1759 3634 1313 
Q 3634 634 3220 271 
Q 2806 -91 2034 -91 
Q 1263 -91 848 271 
Q 434 634 434 1313 
Q 434 1759 690 2068 
Q 947 2378 1403 2484 
z
M 1172 3481 
Q 1172 3119 1398 2916 
Q 1625 2713 2034 2713 
Q 2441 2713 2670 2916 
Q 2900 3119 2900 3481 
Q 2900 3844 2670 4047 
Q 2441 4250 2034 4250 
Q 1625 4250 1398 4047 
Q 1172 3844 1172 3481 
z
" id="DejaVuSans-38" transform="scale(0.015625)"/>
      </defs>
      <use xlink:href="#DejaVuSans-52"/>
      <use x="69.482422" xlink:href="#DejaVuSans-52"/>
      <use x="138.964844" xlink:href="#DejaVuSans-20"/>
      <use x="170.751953" xlink:href="#DejaVuSans-6d"/>
      <use x="268.164062" xlink:href="#DejaVuSans-65"/>
      <use x="329.6875" xlink:href="#DejaVuSans-74"/>
      <use x="368.896484" xlink:href="#DejaVuSans-20"/>
      <use x="400.683594" xlink:href="#DejaVuSans-71"/>
      <use x="464.160156" xlink:href="#DejaVuSans-3d"/>
      <use x="547.949219" xlink:href="#DejaVuSans-38"/>
     </g>
    </g>
    <g id="line2d_54">
     <path d="M 222.735938 135.727187 
L 242.735938 135.727187 
" style="fill:none;stroke:#e377c2;stroke-linecap:square;stroke-width:1.5;"/>
    </g>
    <g id="line2d_55"/>
    <g id="text_19">
     <!-- HRRN -->
     <g transform="translate(250.735938 139.227187)scale(0.1 -0.1)">
      <defs>
       <path d="M 628 4666 
L 1259 4666 
L 1259 2753 
L 3553 2753 
L 3553 4666 
L 4184 4666 
L 4184 0 
L 3553 0 
L 3553 2222 
L 1259 2222 
L 1259 0 
L 628 0 
L 628 4666 
z
" id="DejaVuSans-48" transform="scale(0.015625)"/>
       <path d="M 628 4666 
L 1478 4666 
L 3547 763 
L 3547 4666 
L 4159 4666 
L 4159 0 
L 3309 0 
L 1241 3903 
L 1241 0 
L 628 0 
L 628 4666 
z
" id="DejaVuSans-4e" transform="scale(0.015625)"/>
      </defs>
      <use xlink:href="#DejaVuSans-48"/>
      <use x="75.195312" xlink:href="#DejaVuSans-52"/>
      <use x="144.677734" xlink:href="#DejaVuSans-52"/>
      <use x="214.160156" xlink:href="#DejaVuSans-4e"/>
     </g>
    </g>
    <g id="line2d_56">
     <path d="M 222.735938 150.405312 
L 242.735938 150.405312 
" style="fill:none;stroke:#7f7f7f;stroke-linecap:square;stroke-width:1.5;"/>
    </g>
    <g id="line2d_57"/>
    <g id="text_20">
     <!-- MLFB met q=1 -->
     <g transform="translate(250.735938 153.905312)scale(0.1 -0.1)">
      <defs>
       <path d="M 628 4666 
L 1569 4666 
L 2759 1491 
L 3956 4666 
L 4897 4666 
L 4897 0 
L 4281 0 
L 4281 4097 
L 3078 897 
L 2444 897 
L 1241 4097 
L 1241 0 
L 628 0 
L 628 4666 
z
" id="DejaVuSans-4d" transform="scale(0.015625)"/>
       <path d="M 628 4666 
L 1259 4666 
L 1259 531 
L 3531 531 
L 3531 0 
L 628 0 
L 628 4666 
z
" id="DejaVuSans-4c" transform="scale(0.015625)"/>
       <path d="M 1259 2228 
L 1259 519 
L 2272 519 
Q 2781 519 3026 730 
Q 3272 941 3272 1375 
Q 3272 1813 3026 2020 
Q 2781 2228 2272 2228 
L 1259 2228 
z
M 1259 4147 
L 1259 2741 
L 2194 2741 
Q 2656 2741 2882 2914 
Q 3109 3088 3109 3444 
Q 3109 3797 2882 3972 
Q 2656 4147 2194 4147 
L 1259 4147 
z
M 628 4666 
L 2241 4666 
Q 2963 4666 3353 4366 
Q 3744 4066 3744 3513 
Q 3744 3084 3544 2831 
Q 3344 2578 2956 2516 
Q 3422 2416 3680 2098 
Q 3938 1781 3938 1306 
Q 3938 681 3513 340 
Q 3088 0 2303 0 
L 628 0 
L 628 4666 
z
" id="DejaVuSans-42" transform="scale(0.015625)"/>
      </defs>
      <use xlink:href="#DejaVuSans-4d"/>
      <use x="86.279297" xlink:href="#DejaVuSans-4c"/>
      <use x="141.992188" xlink:href="#DejaVuSans-46"/>
      <use x="199.511719" xlink:href="#DejaVuSans-42"/>
      <use x="268.115234" xlink:href="#DejaVuSans-20"/>
      <use x="299.902344" xlink:href="#DejaVuSans-6d"/>
      <use x="397.314453" xlink:href="#DejaVuSans-65"/>
      <use x="458.837891" xlink:href="#DejaVuSans-74"/>
      <use x="498.046875" xlink:href="#DejaVuSans-20"/>
      <use x="529.833984" xlink:href="#DejaVuSans-71"/>
      <use x="593.310547" xlink:href="#DejaVuSans-3d"/>
      <use x="677.099609" xlink:href="#DejaVuSans-31"/>
     </g>
    </g>
    <g id="line2d_58">
     <path d="M 222.735938 165.083437 
L 242.735938 165.083437 
" style="fill:none;stroke:#bcbd22;stroke-linecap:square;stroke-width:1.5;"/>
    </g>
    <g id="line2d_59"/>
    <g id="text_21">
     <!-- MLFB met verschillende q -->
     <g transform="translate(250.735938 168.583437)scale(0.1 -0.1)">
      <defs>
       <path d="M 191 3500 
L 800 3500 
L 1894 563 
L 2988 3500 
L 3597 3500 
L 2284 0 
L 1503 0 
L 191 3500 
z
" id="DejaVuSans-76" transform="scale(0.015625)"/>
       <path d="M 3122 3366 
L 3122 2828 
Q 2878 2963 2633 3030 
Q 2388 3097 2138 3097 
Q 1578 3097 1268 2742 
Q 959 2388 959 1747 
Q 959 1106 1268 751 
Q 1578 397 2138 397 
Q 2388 397 2633 464 
Q 2878 531 3122 666 
L 3122 134 
Q 2881 22 2623 -34 
Q 2366 -91 2075 -91 
Q 1284 -91 818 406 
Q 353 903 353 1747 
Q 353 2603 823 3093 
Q 1294 3584 2113 3584 
Q 2378 3584 2631 3529 
Q 2884 3475 3122 3366 
z
" id="DejaVuSans-63" transform="scale(0.015625)"/>
       <path d="M 3513 2113 
L 3513 0 
L 2938 0 
L 2938 2094 
Q 2938 2591 2744 2837 
Q 2550 3084 2163 3084 
Q 1697 3084 1428 2787 
Q 1159 2491 1159 1978 
L 1159 0 
L 581 0 
L 581 4863 
L 1159 4863 
L 1159 2956 
Q 1366 3272 1645 3428 
Q 1925 3584 2291 3584 
Q 2894 3584 3203 3211 
Q 3513 2838 3513 2113 
z
" id="DejaVuSans-68" transform="scale(0.015625)"/>
      </defs>
      <use xlink:href="#DejaVuSans-4d"/>
      <use x="86.279297" xlink:href="#DejaVuSans-4c"/>
      <use x="141.992188" xlink:href="#DejaVuSans-46"/>
      <use x="199.511719" xlink:href="#DejaVuSans-42"/>
      <use x="268.115234" xlink:href="#DejaVuSans-20"/>
      <use x="299.902344" xlink:href="#DejaVuSans-6d"/>
      <use x="397.314453" xlink:href="#DejaVuSans-65"/>
      <use x="458.837891" xlink:href="#DejaVuSans-74"/>
      <use x="498.046875" xlink:href="#DejaVuSans-20"/>
      <use x="529.833984" xlink:href="#DejaVuSans-76"/>
      <use x="589.013672" xlink:href="#DejaVuSans-65"/>
      <use x="650.537109" xlink:href="#DejaVuSans-72"/>
      <use x="691.650391" xlink:href="#DejaVuSans-73"/>
      <use x="743.75" xlink:href="#DejaVuSans-63"/>
      <use x="798.730469" xlink:href="#DejaVuSans-68"/>
      <use x="862.109375" xlink:href="#DejaVuSans-69"/>
      <use x="889.892578" xlink:href="#DejaVuSans-6c"/>
      <use x="917.675781" xlink:href="#DejaVuSans-6c"/>
      <use x="945.458984" xlink:href="#DejaVuSans-65"/>
      <use x="1006.982422" xlink:href="#DejaVuSans-6e"/>
      <use x="1070.361328" xlink:href="#DejaVuSans-64"/>
      <use x="1133.837891" xlink:href="#DejaVuSans-65"/>
      <use x="1195.361328" xlink:href="#DejaVuSans-20"/>
      <use x="1227.148438" xlink:href="#DejaVuSans-71"/>
     </g>
    </g>
   </g>
  </g>
 </g>
 <defs>
  <clipPath id="pb0b63beb84">
   <rect height="217.44" width="334.8" x="54" y="34.56"/>
  </clipPath>
 </defs>
</svg>
