<?xml version="1.0" encoding="utf-8" standalone="no"?>
<!DOCTYPE svg PUBLIC "-//W3C//DTD SVG 1.1//EN"
  "http://www.w3.org/Graphics/SVG/1.1/DTD/svg11.dtd">
<svg height="288pt" version="1.1" viewBox="0 0 432 288" width="432pt" xmlns="http://www.w3.org/2000/svg" xmlns:xlink="http://www.w3.org/1999/xlink">
 <metadata>
  <rdf:RDF xmlns:cc="http://creativecommons.org/ns#" xmlns:dc="http://purl.org/dc/elements/1.1/" xmlns:rdf="http://www.w3.org/1999/02/22-rdf-syntax-ns#">
   <cc:Work>
    <dc:type rdf:resource="http://purl.org/dc/dcmitype/StillImage"/>
    <dc:date>2022-03-23T11:03:36.798103</dc:date>
    <dc:format>image/svg+xml</dc:format>
    <dc:creator>
     <cc:Agent>
      <dc:title>Matplotlib v3.4.3, https://matplotlib.org/</dc:title>
     </cc:Agent>
    </dc:creator>
   </cc:Work>
  </rdf:RDF>
 </metadata>
 <defs>
  <style type="text/css">*{stroke-linecap:butt;stroke-linejoin:round;}</style>
 </defs>
 <g id="figure_1">
  <g id="patch_1">
   <path d="M 0 288 
L 432 288 
L 432 0 
L 0 0 
z
" style="fill:none;"/>
  </g>
  <g id="axes_1">
   <g id="patch_2">
    <path d="M 54 252 
L 388.8 252 
L 388.8 34.56 
L 54 34.56 
z
" style="fill:#ffffff;"/>
   </g>
   <g id="matplotlib.axis_1">
    <g id="xtick_1">
     <g id="line2d_1">
      <defs>
       <path d="M 0 0 
L 0 3.5 
" id="m9bc91e9b27" style="stroke:#000000;stroke-width:0.8;"/>
      </defs>
      <g>
       <use style="stroke:#000000;stroke-width:0.8;" x="68.686161" xlink:href="#m9bc91e9b27" y="252"/>
      </g>
     </g>
     <g id="text_1">
      <!-- 0 -->
      <g transform="translate(65.504911 266.598437)scale(0.1 -0.1)">
       <defs>
        <path d="M 2034 4250 
Q 1547 4250 1301 3770 
Q 1056 3291 1056 2328 
Q 1056 1369 1301 889 
Q 1547 409 2034 409 
Q 2525 409 2770 889 
Q 3016 1369 3016 2328 
Q 3016 3291 2770 3770 
Q 2525 4250 2034 4250 
z
M 2034 4750 
Q 2819 4750 3233 4129 
Q 3647 3509 3647 2328 
Q 3647 1150 3233 529 
Q 2819 -91 2034 -91 
Q 1250 -91 836 529 
Q 422 1150 422 2328 
Q 422 3509 836 4129 
Q 1250 4750 2034 4750 
z
" id="DejaVuSans-30" transform="scale(0.015625)"/>
       </defs>
       <use xlink:href="#DejaVuSans-30"/>
      </g>
     </g>
    </g>
    <g id="xtick_2">
     <g id="line2d_2">
      <g>
       <use style="stroke:#000000;stroke-width:0.8;" x="121.888216" xlink:href="#m9bc91e9b27" y="252"/>
      </g>
     </g>
     <g id="text_2">
      <!-- 100 -->
      <g transform="translate(112.344466 266.598437)scale(0.1 -0.1)">
       <defs>
        <path d="M 794 531 
L 1825 531 
L 1825 4091 
L 703 3866 
L 703 4441 
L 1819 4666 
L 2450 4666 
L 2450 531 
L 3481 531 
L 3481 0 
L 794 0 
L 794 531 
z
" id="DejaVuSans-31" transform="scale(0.015625)"/>
       </defs>
       <use xlink:href="#DejaVuSans-31"/>
       <use x="63.623047" xlink:href="#DejaVuSans-30"/>
       <use x="127.246094" xlink:href="#DejaVuSans-30"/>
      </g>
     </g>
    </g>
    <g id="xtick_3">
     <g id="line2d_3">
      <g>
       <use style="stroke:#000000;stroke-width:0.8;" x="175.090271" xlink:href="#m9bc91e9b27" y="252"/>
      </g>
     </g>
     <g id="text_3">
      <!-- 200 -->
      <g transform="translate(165.546521 266.598437)scale(0.1 -0.1)">
       <defs>
        <path d="M 1228 531 
L 3431 531 
L 3431 0 
L 469 0 
L 469 531 
Q 828 903 1448 1529 
Q 2069 2156 2228 2338 
Q 2531 2678 2651 2914 
Q 2772 3150 2772 3378 
Q 2772 3750 2511 3984 
Q 2250 4219 1831 4219 
Q 1534 4219 1204 4116 
Q 875 4013 500 3803 
L 500 4441 
Q 881 4594 1212 4672 
Q 1544 4750 1819 4750 
Q 2544 4750 2975 4387 
Q 3406 4025 3406 3419 
Q 3406 3131 3298 2873 
Q 3191 2616 2906 2266 
Q 2828 2175 2409 1742 
Q 1991 1309 1228 531 
z
" id="DejaVuSans-32" transform="scale(0.015625)"/>
       </defs>
       <use xlink:href="#DejaVuSans-32"/>
       <use x="63.623047" xlink:href="#DejaVuSans-30"/>
       <use x="127.246094" xlink:href="#DejaVuSans-30"/>
      </g>
     </g>
    </g>
    <g id="xtick_4">
     <g id="line2d_4">
      <g>
       <use style="stroke:#000000;stroke-width:0.8;" x="228.292326" xlink:href="#m9bc91e9b27" y="252"/>
      </g>
     </g>
     <g id="text_4">
      <!-- 300 -->
      <g transform="translate(218.748576 266.598437)scale(0.1 -0.1)">
       <defs>
        <path d="M 2597 2516 
Q 3050 2419 3304 2112 
Q 3559 1806 3559 1356 
Q 3559 666 3084 287 
Q 2609 -91 1734 -91 
Q 1441 -91 1130 -33 
Q 819 25 488 141 
L 488 750 
Q 750 597 1062 519 
Q 1375 441 1716 441 
Q 2309 441 2620 675 
Q 2931 909 2931 1356 
Q 2931 1769 2642 2001 
Q 2353 2234 1838 2234 
L 1294 2234 
L 1294 2753 
L 1863 2753 
Q 2328 2753 2575 2939 
Q 2822 3125 2822 3475 
Q 2822 3834 2567 4026 
Q 2313 4219 1838 4219 
Q 1578 4219 1281 4162 
Q 984 4106 628 3988 
L 628 4550 
Q 988 4650 1302 4700 
Q 1616 4750 1894 4750 
Q 2613 4750 3031 4423 
Q 3450 4097 3450 3541 
Q 3450 3153 3228 2886 
Q 3006 2619 2597 2516 
z
" id="DejaVuSans-33" transform="scale(0.015625)"/>
       </defs>
       <use xlink:href="#DejaVuSans-33"/>
       <use x="63.623047" xlink:href="#DejaVuSans-30"/>
       <use x="127.246094" xlink:href="#DejaVuSans-30"/>
      </g>
     </g>
    </g>
    <g id="xtick_5">
     <g id="line2d_5">
      <g>
       <use style="stroke:#000000;stroke-width:0.8;" x="281.494381" xlink:href="#m9bc91e9b27" y="252"/>
      </g>
     </g>
     <g id="text_5">
      <!-- 400 -->
      <g transform="translate(271.950631 266.598437)scale(0.1 -0.1)">
       <defs>
        <path d="M 2419 4116 
L 825 1625 
L 2419 1625 
L 2419 4116 
z
M 2253 4666 
L 3047 4666 
L 3047 1625 
L 3713 1625 
L 3713 1100 
L 3047 1100 
L 3047 0 
L 2419 0 
L 2419 1100 
L 313 1100 
L 313 1709 
L 2253 4666 
z
" id="DejaVuSans-34" transform="scale(0.015625)"/>
       </defs>
       <use xlink:href="#DejaVuSans-34"/>
       <use x="63.623047" xlink:href="#DejaVuSans-30"/>
       <use x="127.246094" xlink:href="#DejaVuSans-30"/>
      </g>
     </g>
    </g>
    <g id="xtick_6">
     <g id="line2d_6">
      <g>
       <use style="stroke:#000000;stroke-width:0.8;" x="334.696436" xlink:href="#m9bc91e9b27" y="252"/>
      </g>
     </g>
     <g id="text_6">
      <!-- 500 -->
      <g transform="translate(325.152686 266.598437)scale(0.1 -0.1)">
       <defs>
        <path d="M 691 4666 
L 3169 4666 
L 3169 4134 
L 1269 4134 
L 1269 2991 
Q 1406 3038 1543 3061 
Q 1681 3084 1819 3084 
Q 2600 3084 3056 2656 
Q 3513 2228 3513 1497 
Q 3513 744 3044 326 
Q 2575 -91 1722 -91 
Q 1428 -91 1123 -41 
Q 819 9 494 109 
L 494 744 
Q 775 591 1075 516 
Q 1375 441 1709 441 
Q 2250 441 2565 725 
Q 2881 1009 2881 1497 
Q 2881 1984 2565 2268 
Q 2250 2553 1709 2553 
Q 1456 2553 1204 2497 
Q 953 2441 691 2322 
L 691 4666 
z
" id="DejaVuSans-35" transform="scale(0.015625)"/>
       </defs>
       <use xlink:href="#DejaVuSans-35"/>
       <use x="63.623047" xlink:href="#DejaVuSans-30"/>
       <use x="127.246094" xlink:href="#DejaVuSans-30"/>
      </g>
     </g>
    </g>
    <g id="xtick_7">
     <g id="line2d_7">
      <g>
       <use style="stroke:#000000;stroke-width:0.8;" x="387.898491" xlink:href="#m9bc91e9b27" y="252"/>
      </g>
     </g>
     <g id="text_7">
      <!-- 600 -->
      <g transform="translate(378.354741 266.598437)scale(0.1 -0.1)">
       <defs>
        <path d="M 2113 2584 
Q 1688 2584 1439 2293 
Q 1191 2003 1191 1497 
Q 1191 994 1439 701 
Q 1688 409 2113 409 
Q 2538 409 2786 701 
Q 3034 994 3034 1497 
Q 3034 2003 2786 2293 
Q 2538 2584 2113 2584 
z
M 3366 4563 
L 3366 3988 
Q 3128 4100 2886 4159 
Q 2644 4219 2406 4219 
Q 1781 4219 1451 3797 
Q 1122 3375 1075 2522 
Q 1259 2794 1537 2939 
Q 1816 3084 2150 3084 
Q 2853 3084 3261 2657 
Q 3669 2231 3669 1497 
Q 3669 778 3244 343 
Q 2819 -91 2113 -91 
Q 1303 -91 875 529 
Q 447 1150 447 2328 
Q 447 3434 972 4092 
Q 1497 4750 2381 4750 
Q 2619 4750 2861 4703 
Q 3103 4656 3366 4563 
z
" id="DejaVuSans-36" transform="scale(0.015625)"/>
       </defs>
       <use xlink:href="#DejaVuSans-36"/>
       <use x="63.623047" xlink:href="#DejaVuSans-30"/>
       <use x="127.246094" xlink:href="#DejaVuSans-30"/>
      </g>
     </g>
    </g>
    <g id="text_8">
     <!-- bedieningstijd -->
     <g transform="translate(186.091406 280.276563)scale(0.1 -0.1)">
      <defs>
       <path d="M 3116 1747 
Q 3116 2381 2855 2742 
Q 2594 3103 2138 3103 
Q 1681 3103 1420 2742 
Q 1159 2381 1159 1747 
Q 1159 1113 1420 752 
Q 1681 391 2138 391 
Q 2594 391 2855 752 
Q 3116 1113 3116 1747 
z
M 1159 2969 
Q 1341 3281 1617 3432 
Q 1894 3584 2278 3584 
Q 2916 3584 3314 3078 
Q 3713 2572 3713 1747 
Q 3713 922 3314 415 
Q 2916 -91 2278 -91 
Q 1894 -91 1617 61 
Q 1341 213 1159 525 
L 1159 0 
L 581 0 
L 581 4863 
L 1159 4863 
L 1159 2969 
z
" id="DejaVuSans-62" transform="scale(0.015625)"/>
       <path d="M 3597 1894 
L 3597 1613 
L 953 1613 
Q 991 1019 1311 708 
Q 1631 397 2203 397 
Q 2534 397 2845 478 
Q 3156 559 3463 722 
L 3463 178 
Q 3153 47 2828 -22 
Q 2503 -91 2169 -91 
Q 1331 -91 842 396 
Q 353 884 353 1716 
Q 353 2575 817 3079 
Q 1281 3584 2069 3584 
Q 2775 3584 3186 3129 
Q 3597 2675 3597 1894 
z
M 3022 2063 
Q 3016 2534 2758 2815 
Q 2500 3097 2075 3097 
Q 1594 3097 1305 2825 
Q 1016 2553 972 2059 
L 3022 2063 
z
" id="DejaVuSans-65" transform="scale(0.015625)"/>
       <path d="M 2906 2969 
L 2906 4863 
L 3481 4863 
L 3481 0 
L 2906 0 
L 2906 525 
Q 2725 213 2448 61 
Q 2172 -91 1784 -91 
Q 1150 -91 751 415 
Q 353 922 353 1747 
Q 353 2572 751 3078 
Q 1150 3584 1784 3584 
Q 2172 3584 2448 3432 
Q 2725 3281 2906 2969 
z
M 947 1747 
Q 947 1113 1208 752 
Q 1469 391 1925 391 
Q 2381 391 2643 752 
Q 2906 1113 2906 1747 
Q 2906 2381 2643 2742 
Q 2381 3103 1925 3103 
Q 1469 3103 1208 2742 
Q 947 2381 947 1747 
z
" id="DejaVuSans-64" transform="scale(0.015625)"/>
       <path d="M 603 3500 
L 1178 3500 
L 1178 0 
L 603 0 
L 603 3500 
z
M 603 4863 
L 1178 4863 
L 1178 4134 
L 603 4134 
L 603 4863 
z
" id="DejaVuSans-69" transform="scale(0.015625)"/>
       <path d="M 3513 2113 
L 3513 0 
L 2938 0 
L 2938 2094 
Q 2938 2591 2744 2837 
Q 2550 3084 2163 3084 
Q 1697 3084 1428 2787 
Q 1159 2491 1159 1978 
L 1159 0 
L 581 0 
L 581 3500 
L 1159 3500 
L 1159 2956 
Q 1366 3272 1645 3428 
Q 1925 3584 2291 3584 
Q 2894 3584 3203 3211 
Q 3513 2838 3513 2113 
z
" id="DejaVuSans-6e" transform="scale(0.015625)"/>
       <path d="M 2906 1791 
Q 2906 2416 2648 2759 
Q 2391 3103 1925 3103 
Q 1463 3103 1205 2759 
Q 947 2416 947 1791 
Q 947 1169 1205 825 
Q 1463 481 1925 481 
Q 2391 481 2648 825 
Q 2906 1169 2906 1791 
z
M 3481 434 
Q 3481 -459 3084 -895 
Q 2688 -1331 1869 -1331 
Q 1566 -1331 1297 -1286 
Q 1028 -1241 775 -1147 
L 775 -588 
Q 1028 -725 1275 -790 
Q 1522 -856 1778 -856 
Q 2344 -856 2625 -561 
Q 2906 -266 2906 331 
L 2906 616 
Q 2728 306 2450 153 
Q 2172 0 1784 0 
Q 1141 0 747 490 
Q 353 981 353 1791 
Q 353 2603 747 3093 
Q 1141 3584 1784 3584 
Q 2172 3584 2450 3431 
Q 2728 3278 2906 2969 
L 2906 3500 
L 3481 3500 
L 3481 434 
z
" id="DejaVuSans-67" transform="scale(0.015625)"/>
       <path d="M 2834 3397 
L 2834 2853 
Q 2591 2978 2328 3040 
Q 2066 3103 1784 3103 
Q 1356 3103 1142 2972 
Q 928 2841 928 2578 
Q 928 2378 1081 2264 
Q 1234 2150 1697 2047 
L 1894 2003 
Q 2506 1872 2764 1633 
Q 3022 1394 3022 966 
Q 3022 478 2636 193 
Q 2250 -91 1575 -91 
Q 1294 -91 989 -36 
Q 684 19 347 128 
L 347 722 
Q 666 556 975 473 
Q 1284 391 1588 391 
Q 1994 391 2212 530 
Q 2431 669 2431 922 
Q 2431 1156 2273 1281 
Q 2116 1406 1581 1522 
L 1381 1569 
Q 847 1681 609 1914 
Q 372 2147 372 2553 
Q 372 3047 722 3315 
Q 1072 3584 1716 3584 
Q 2034 3584 2315 3537 
Q 2597 3491 2834 3397 
z
" id="DejaVuSans-73" transform="scale(0.015625)"/>
       <path d="M 1172 4494 
L 1172 3500 
L 2356 3500 
L 2356 3053 
L 1172 3053 
L 1172 1153 
Q 1172 725 1289 603 
Q 1406 481 1766 481 
L 2356 481 
L 2356 0 
L 1766 0 
Q 1100 0 847 248 
Q 594 497 594 1153 
L 594 3053 
L 172 3053 
L 172 3500 
L 594 3500 
L 594 4494 
L 1172 4494 
z
" id="DejaVuSans-74" transform="scale(0.015625)"/>
       <path d="M 603 3500 
L 1178 3500 
L 1178 -63 
Q 1178 -731 923 -1031 
Q 669 -1331 103 -1331 
L -116 -1331 
L -116 -844 
L 38 -844 
Q 366 -844 484 -692 
Q 603 -541 603 -63 
L 603 3500 
z
M 603 4863 
L 1178 4863 
L 1178 4134 
L 603 4134 
L 603 4863 
z
" id="DejaVuSans-6a" transform="scale(0.015625)"/>
      </defs>
      <use xlink:href="#DejaVuSans-62"/>
      <use x="63.476562" xlink:href="#DejaVuSans-65"/>
      <use x="125" xlink:href="#DejaVuSans-64"/>
      <use x="188.476562" xlink:href="#DejaVuSans-69"/>
      <use x="216.259766" xlink:href="#DejaVuSans-65"/>
      <use x="277.783203" xlink:href="#DejaVuSans-6e"/>
      <use x="341.162109" xlink:href="#DejaVuSans-69"/>
      <use x="368.945312" xlink:href="#DejaVuSans-6e"/>
      <use x="432.324219" xlink:href="#DejaVuSans-67"/>
      <use x="495.800781" xlink:href="#DejaVuSans-73"/>
      <use x="547.900391" xlink:href="#DejaVuSans-74"/>
      <use x="587.109375" xlink:href="#DejaVuSans-69"/>
      <use x="614.892578" xlink:href="#DejaVuSans-6a"/>
      <use x="642.675781" xlink:href="#DejaVuSans-64"/>
     </g>
    </g>
   </g>
   <g id="matplotlib.axis_2">
    <g id="ytick_1">
     <g id="line2d_8">
      <defs>
       <path d="M 0 0 
L -3.5 0 
" id="meb061cf582" style="stroke:#000000;stroke-width:0.8;"/>
      </defs>
      <g>
       <use style="stroke:#000000;stroke-width:0.8;" x="54" xlink:href="#meb061cf582" y="242.116364"/>
      </g>
     </g>
     <g id="text_9">
      <!-- 0 -->
      <g transform="translate(40.6375 245.915582)scale(0.1 -0.1)">
       <use xlink:href="#DejaVuSans-30"/>
      </g>
     </g>
    </g>
    <g id="ytick_2">
     <g id="line2d_9">
      <g>
       <use style="stroke:#000000;stroke-width:0.8;" x="54" xlink:href="#meb061cf582" y="196.930514"/>
      </g>
     </g>
     <g id="text_10">
      <!-- 500 -->
      <g transform="translate(27.9125 200.729733)scale(0.1 -0.1)">
       <use xlink:href="#DejaVuSans-35"/>
       <use x="63.623047" xlink:href="#DejaVuSans-30"/>
       <use x="127.246094" xlink:href="#DejaVuSans-30"/>
      </g>
     </g>
    </g>
    <g id="ytick_3">
     <g id="line2d_10">
      <g>
       <use style="stroke:#000000;stroke-width:0.8;" x="54" xlink:href="#meb061cf582" y="151.744665"/>
      </g>
     </g>
     <g id="text_11">
      <!-- 1000 -->
      <g transform="translate(21.55 155.543884)scale(0.1 -0.1)">
       <use xlink:href="#DejaVuSans-31"/>
       <use x="63.623047" xlink:href="#DejaVuSans-30"/>
       <use x="127.246094" xlink:href="#DejaVuSans-30"/>
       <use x="190.869141" xlink:href="#DejaVuSans-30"/>
      </g>
     </g>
    </g>
    <g id="ytick_4">
     <g id="line2d_11">
      <g>
       <use style="stroke:#000000;stroke-width:0.8;" x="54" xlink:href="#meb061cf582" y="106.558816"/>
      </g>
     </g>
     <g id="text_12">
      <!-- 1500 -->
      <g transform="translate(21.55 110.358035)scale(0.1 -0.1)">
       <use xlink:href="#DejaVuSans-31"/>
       <use x="63.623047" xlink:href="#DejaVuSans-35"/>
       <use x="127.246094" xlink:href="#DejaVuSans-30"/>
       <use x="190.869141" xlink:href="#DejaVuSans-30"/>
      </g>
     </g>
    </g>
    <g id="ytick_5">
     <g id="line2d_12">
      <g>
       <use style="stroke:#000000;stroke-width:0.8;" x="54" xlink:href="#meb061cf582" y="61.372967"/>
      </g>
     </g>
     <g id="text_13">
      <!-- 2000 -->
      <g transform="translate(21.55 65.172185)scale(0.1 -0.1)">
       <use xlink:href="#DejaVuSans-32"/>
       <use x="63.623047" xlink:href="#DejaVuSans-30"/>
       <use x="127.246094" xlink:href="#DejaVuSans-30"/>
       <use x="190.869141" xlink:href="#DejaVuSans-30"/>
      </g>
     </g>
    </g>
    <g id="text_14">
     <!-- wachttijd -->
     <g transform="translate(15.470312 166.22375)rotate(-90)scale(0.1 -0.1)">
      <defs>
       <path d="M 269 3500 
L 844 3500 
L 1563 769 
L 2278 3500 
L 2956 3500 
L 3675 769 
L 4391 3500 
L 4966 3500 
L 4050 0 
L 3372 0 
L 2619 2869 
L 1863 0 
L 1184 0 
L 269 3500 
z
" id="DejaVuSans-77" transform="scale(0.015625)"/>
       <path d="M 2194 1759 
Q 1497 1759 1228 1600 
Q 959 1441 959 1056 
Q 959 750 1161 570 
Q 1363 391 1709 391 
Q 2188 391 2477 730 
Q 2766 1069 2766 1631 
L 2766 1759 
L 2194 1759 
z
M 3341 1997 
L 3341 0 
L 2766 0 
L 2766 531 
Q 2569 213 2275 61 
Q 1981 -91 1556 -91 
Q 1019 -91 701 211 
Q 384 513 384 1019 
Q 384 1609 779 1909 
Q 1175 2209 1959 2209 
L 2766 2209 
L 2766 2266 
Q 2766 2663 2505 2880 
Q 2244 3097 1772 3097 
Q 1472 3097 1187 3025 
Q 903 2953 641 2809 
L 641 3341 
Q 956 3463 1253 3523 
Q 1550 3584 1831 3584 
Q 2591 3584 2966 3190 
Q 3341 2797 3341 1997 
z
" id="DejaVuSans-61" transform="scale(0.015625)"/>
       <path d="M 3122 3366 
L 3122 2828 
Q 2878 2963 2633 3030 
Q 2388 3097 2138 3097 
Q 1578 3097 1268 2742 
Q 959 2388 959 1747 
Q 959 1106 1268 751 
Q 1578 397 2138 397 
Q 2388 397 2633 464 
Q 2878 531 3122 666 
L 3122 134 
Q 2881 22 2623 -34 
Q 2366 -91 2075 -91 
Q 1284 -91 818 406 
Q 353 903 353 1747 
Q 353 2603 823 3093 
Q 1294 3584 2113 3584 
Q 2378 3584 2631 3529 
Q 2884 3475 3122 3366 
z
" id="DejaVuSans-63" transform="scale(0.015625)"/>
       <path d="M 3513 2113 
L 3513 0 
L 2938 0 
L 2938 2094 
Q 2938 2591 2744 2837 
Q 2550 3084 2163 3084 
Q 1697 3084 1428 2787 
Q 1159 2491 1159 1978 
L 1159 0 
L 581 0 
L 581 4863 
L 1159 4863 
L 1159 2956 
Q 1366 3272 1645 3428 
Q 1925 3584 2291 3584 
Q 2894 3584 3203 3211 
Q 3513 2838 3513 2113 
z
" id="DejaVuSans-68" transform="scale(0.015625)"/>
      </defs>
      <use xlink:href="#DejaVuSans-77"/>
      <use x="81.787109" xlink:href="#DejaVuSans-61"/>
      <use x="143.066406" xlink:href="#DejaVuSans-63"/>
      <use x="198.046875" xlink:href="#DejaVuSans-68"/>
      <use x="261.425781" xlink:href="#DejaVuSans-74"/>
      <use x="300.634766" xlink:href="#DejaVuSans-74"/>
      <use x="339.84375" xlink:href="#DejaVuSans-69"/>
      <use x="367.626953" xlink:href="#DejaVuSans-6a"/>
      <use x="395.410156" xlink:href="#DejaVuSans-64"/>
     </g>
    </g>
   </g>
   <g id="line2d_13">
    <path clip-path="url(#p7ab2dd420b)" d="M 69.218182 204.964558 
L 69.218182 203.330638 
L 69.665079 196.978411 
L 70.1971 188.189764 
L 70.745081 196.238267 
L 71.218579 203.41378 
L 71.814442 201.215037 
L 72.426266 204.487396 
L 73.022129 208.114012 
L 73.506267 199.184385 
L 74.10213 195.247793 
L 74.724595 204.915758 
L 75.309817 210.08773 
L 75.964202 207.293437 
L 76.512184 205.140783 
L 77.038884 205.252844 
L 77.640067 199.558523 
L 78.294452 207.758851 
L 78.900956 210.470002 
L 79.512779 206.069804 
L 80.087362 207.156072 
L 80.699185 199.319942 
L 81.305689 197.87038 
L 82.11968 203.407454 
L 82.859189 209.49218 
L 83.598697 203.587294 
L 84.343526 206.599382 
L 84.939389 210.616404 
L 85.769341 209.518388 
L 86.455648 206.440328 
L 87.227077 205.547456 
L 88.057029 205.702895 
L 88.759297 200.459529 
L 89.722254 189.740542 
L 90.525605 205.243807 
L 91.312995 199.109376 
L 92.228071 201.706659 
L 92.866495 202.820942 
L 93.552802 204.220799 
L 94.398714 198.725296 
L 95.265908 204.390698 
L 96.149062 196.293394 
L 96.994975 195.674348 
L 97.995173 204.280445 
L 98.777244 208.691487 
L 99.671038 204.70248 
L 100.719119 198.262593 
L 101.831042 193.545191 
L 103.006807 202.891432 
L 104.12937 199.036175 
L 105.257254 201.003567 
L 106.470261 199.286505 
L 107.672627 194.24286 
L 108.757949 203.05139 
L 110.098641 195.407751 
L 111.316968 215.785666 
L 112.577857 210.659783 
L 113.796184 193.030976 
L 115.014511 207.651309 
L 116.397764 203.353231 
L 117.722495 202.806482 
L 119.201512 200.023938 
L 120.68053 203.711103 
L 122.063783 194.600732 
L 123.52684 208.495381 
L 125.122901 198.621369 
L 126.697682 196.774171 
L 128.437389 200.276978 
L 130.560151 204.637413 
L 132.555228 196.410877 
L 134.529025 200.732452 
L 136.396417 207.828438 
L 138.242528 200.800231 
L 140.09928 202.799252 
L 142.046475 203.521322 
L 143.897906 187.757787 
L 146.217516 201.33975 
L 148.611608 208.532433 
L 150.936538 198.866276 
L 153.394473 206.236088 
L 156.230143 203.306238 
L 159.289261 201.282815 
L 162.385621 204.299423 
L 166.104444 196.025894 
L 169.679622 206.509011 
L 173.387805 200.136902 
L 177.3886 203.620731 
L 181.368114 197.062457 
L 185.427431 210.736599 
L 189.949605 195.503545 
L 194.966559 207.413631 
L 200.520854 204.566923 
L 207.16047 200.928558 
L 214.715162 198.150532 
L 222.886997 189.836336 
L 233.213516 197.49353 
L 245.497871 210.28474 
L 263.022628 205.681206 
L 290.613213 205.880024 
L 373.581818 206.213495 
" style="fill:none;stroke:#1f77b4;stroke-linecap:square;stroke-width:1.5;"/>
   </g>
   <g id="line2d_14">
    <path clip-path="url(#p7ab2dd420b)" d="M 69.218182 234.312767 
L 69.218182 235.184854 
L 69.665079 234.871265 
L 70.1971 234.723959 
L 70.745081 233.816627 
L 71.218579 235.419821 
L 71.814442 235.619542 
L 72.426266 234.932717 
L 73.022129 234.78993 
L 73.506267 233.440681 
L 74.10213 235.50477 
L 74.724595 234.533274 
L 75.309817 235.486696 
L 75.964202 234.333553 
L 76.512184 235.15955 
L 77.038884 235.122498 
L 77.640067 234.283849 
L 78.294452 236.215092 
L 78.900956 235.523748 
L 79.512779 234.654372 
L 80.087362 234.536889 
L 80.699185 234.958925 
L 81.305689 233.836509 
L 82.11968 233.811205 
L 82.859189 233.255419 
L 83.598697 235.145091 
L 84.343526 233.774152 
L 84.939389 233.700951 
L 85.769341 235.113461 
L 86.455648 234.308249 
L 87.227077 234.273908 
L 88.057029 234.211551 
L 88.759297 233.872657 
L 89.722254 233.237344 
L 90.525605 233.69824 
L 91.312995 233.803071 
L 92.228071 235.252633 
L 92.866495 234.250411 
L 93.552802 235.197506 
L 94.398714 234.053401 
L 95.265908 234.557675 
L 96.149062 233.285241 
L 96.994975 232.755663 
L 97.995173 232.81802 
L 98.777244 232.791812 
L 99.671038 233.396398 
L 100.719119 231.402799 
L 101.831042 233.094557 
L 103.006807 234.316382 
L 104.12937 233.681069 
L 105.257254 233.132513 
L 106.470261 232.449303 
L 107.672627 232.37068 
L 108.757949 230.366235 
L 110.098641 232.212529 
L 111.316968 233.07829 
L 112.577857 232.12758 
L 113.796184 231.211211 
L 115.014511 229.418236 
L 116.397764 229.37305 
L 117.722495 230.181877 
L 119.201512 230.599394 
L 120.68053 230.280382 
L 122.063783 229.283582 
L 123.52684 231.457926 
L 125.122901 231.328694 
L 126.697682 228.515423 
L 128.437389 225.855784 
L 130.560151 229.561927 
L 132.555228 227.54935 
L 134.529025 227.351436 
L 136.396417 228.539823 
L 138.242528 224.828258 
L 140.09928 223.804346 
L 142.046475 225.077684 
L 143.897906 222.999135 
L 146.217516 222.859058 
L 148.611608 224.160411 
L 150.936538 227.694848 
L 153.394473 222.469556 
L 156.230143 225.187937 
L 159.289261 221.187182 
L 162.385621 218.75528 
L 166.104444 214.106559 
L 169.679622 216.636063 
L 173.387805 212.864852 
L 177.3886 216.845726 
L 181.368114 212.168086 
L 185.427431 214.19422 
L 189.949605 202.738703 
L 194.966559 213.136871 
L 200.520854 199.752823 
L 207.16047 197.321824 
L 214.715162 187.827373 
L 222.886997 178.751344 
L 233.213516 192.777935 
L 245.497871 152.201946 
L 263.022628 117.785692 
L 290.613213 118.367686 
L 373.581818 98.926926 
" style="fill:none;stroke:#ff7f0e;stroke-linecap:square;stroke-width:1.5;"/>
   </g>
   <g id="line2d_15">
    <path clip-path="url(#p7ab2dd420b)" d="M 69.218182 242.116364 
L 69.218182 242.116364 
L 69.665079 242.116364 
L 70.1971 242.116364 
L 70.745081 242.116364 
L 71.218579 242.116364 
L 71.814442 242.116364 
L 72.426266 242.116364 
L 73.022129 242.116364 
L 73.506267 242.116364 
L 74.10213 242.116364 
L 74.724595 242.116364 
L 75.309817 242.110941 
L 75.964202 242.110941 
L 76.512184 242.11546 
L 77.038884 242.116364 
L 77.640067 242.110038 
L 78.294452 242.112749 
L 78.900956 242.102808 
L 79.512779 242.110941 
L 80.087362 242.095578 
L 80.699185 242.090156 
L 81.305689 242.106423 
L 82.11968 242.116364 
L 82.859189 242.106423 
L 83.598697 242.081119 
L 84.343526 242.070274 
L 84.939389 242.082926 
L 85.769341 242.100097 
L 86.455648 242.10823 
L 87.227077 242.091963 
L 88.057029 242.056718 
L 88.759297 242.047681 
L 89.722254 242.066659 
L 90.525605 242.050392 
L 91.312995 242.0522 
L 92.228071 242.053103 
L 92.866495 242.009725 
L 93.552802 242.032318 
L 94.398714 241.903086 
L 95.265908 241.985325 
L 96.149062 241.98894 
L 96.994975 242.048585 
L 97.995173 241.969961 
L 98.777244 241.949176 
L 99.671038 241.885916 
L 100.719119 241.969961 
L 101.831042 241.778373 
L 103.006807 241.870553 
L 104.12937 241.804581 
L 105.257254 241.666313 
L 106.470261 241.62926 
L 107.672627 241.905798 
L 108.757949 241.757588 
L 110.098641 241.481954 
L 111.316968 241.793737 
L 112.577857 241.286751 
L 113.796184 241.591304 
L 115.014511 241.670831 
L 116.397764 241.611186 
L 117.722495 241.183728 
L 119.201512 241.18915 
L 120.68053 241.248795 
L 122.063783 241.399716 
L 123.52684 240.889116 
L 125.122901 241.35453 
L 126.697682 240.607156 
L 128.437389 240.823145 
L 130.560151 240.979488 
L 132.555228 240.888212 
L 134.529025 240.397494 
L 136.396417 240.55203 
L 138.242528 240.06583 
L 140.09928 239.872434 
L 142.046475 239.529022 
L 143.897906 239.819115 
L 146.217516 239.880568 
L 148.611608 239.338338 
L 150.936538 238.720195 
L 153.394473 239.628431 
L 156.230143 239.050956 
L 159.289261 238.977755 
L 162.385621 237.894198 
L 166.104444 238.590964 
L 169.679622 237.202854 
L 173.387805 233.431643 
L 177.3886 236.544045 
L 181.368114 236.000007 
L 185.427431 236.497955 
L 189.949605 234.604668 
L 194.966559 236.581097 
L 200.520854 231.250974 
L 207.16047 227.645144 
L 214.715162 227.499645 
L 222.886997 221.340814 
L 233.213516 226.4676 
L 245.497871 219.030913 
L 263.022628 210.382342 
L 290.613213 193.775638 
L 373.581818 155.100166 
" style="fill:none;stroke:#2ca02c;stroke-linecap:square;stroke-width:1.5;"/>
   </g>
   <g id="line2d_16">
    <path clip-path="url(#p7ab2dd420b)" d="M 69.218182 241.446709 
L 69.218182 241.482858 
L 69.665079 241.359953 
L 70.1971 240.311641 
L 70.745081 240.374901 
L 71.218579 240.220365 
L 71.814442 239.653735 
L 72.426266 239.441361 
L 73.022129 239.613971 
L 73.506267 237.530904 
L 74.10213 237.615853 
L 74.724595 237.746892 
L 75.309817 237.785752 
L 75.964202 237.464029 
L 76.512184 236.704003 
L 77.038884 236.289197 
L 77.640067 234.772759 
L 78.294452 235.449643 
L 78.900956 235.453258 
L 79.512779 234.889339 
L 80.087362 234.359761 
L 80.699185 231.357613 
L 81.305689 231.032275 
L 82.11968 232.45834 
L 82.859189 233.15601 
L 83.598697 231.146143 
L 84.343526 230.768389 
L 84.939389 231.161506 
L 85.769341 232.32459 
L 86.455648 229.445348 
L 87.227077 229.38028 
L 88.057029 228.770271 
L 88.759297 225.742819 
L 89.722254 222.411718 
L 90.525605 227.18244 
L 91.312995 223.763679 
L 92.228071 223.511542 
L 92.866495 224.739693 
L 93.552802 223.413037 
L 94.398714 221.273035 
L 95.265908 221.059758 
L 96.149062 218.548328 
L 96.994975 217.932897 
L 97.995173 221.740257 
L 98.777244 223.095832 
L 99.671038 220.687426 
L 100.719119 214.458105 
L 101.831042 211.99638 
L 103.006807 216.736376 
L 104.12937 212.504269 
L 105.257254 212.651575 
L 106.470261 209.790407 
L 107.672627 209.319571 
L 108.757949 211.591515 
L 110.098641 206.002929 
L 111.316968 220.152426 
L 112.577857 212.929016 
L 113.796184 202.240755 
L 115.014511 212.314489 
L 116.397764 209.489469 
L 117.722495 205.955032 
L 119.201512 202.078086 
L 120.68053 203.289971 
L 122.063783 195.821654 
L 123.52684 205.775193 
L 125.122901 196.028605 
L 126.697682 191.887774 
L 128.437389 196.425337 
L 130.560151 195.840632 
L 132.555228 185.887093 
L 134.529025 191.6754 
L 136.396417 195.669829 
L 138.242528 187.558969 
L 140.09928 190.251142 
L 142.046475 188.382255 
L 143.897906 166.824087 
L 146.217516 180.892249 
L 148.611608 188.91093 
L 150.936538 171.745729 
L 153.394473 187.450523 
L 156.230143 174.001407 
L 159.289261 174.265292 
L 162.385621 169.457518 
L 166.104444 161.891599 
L 169.679622 170.009689 
L 173.387805 152.17122 
L 177.3886 161.196641 
L 181.368114 150.271606 
L 185.427431 171.441177 
L 189.949605 140.296378 
L 194.966559 159.590736 
L 200.520854 150.71985 
L 207.16047 131.235712 
L 214.715162 122.868196 
L 222.886997 102.54089 
L 233.213516 116.257507 
L 245.497871 125.882092 
L 263.022628 96.095581 
L 290.613213 86.269466 
L 373.581818 44.443636 
" style="fill:none;stroke:#d62728;stroke-linecap:square;stroke-width:1.5;"/>
   </g>
   <g id="line2d_17">
    <path clip-path="url(#p7ab2dd420b)" d="M 69.218182 240.752655 
L 69.218182 240.823145 
L 69.665079 240.581852 
L 70.1971 240.243862 
L 70.745081 240.477925 
L 71.218579 239.756759 
L 71.814442 238.878346 
L 72.426266 239.478414 
L 73.022129 239.57963 
L 73.506267 236.704003 
L 74.10213 237.0438 
L 74.724595 237.858049 
L 75.309817 237.652002 
L 75.964202 236.914569 
L 76.512184 236.57929 
L 77.038884 236.422043 
L 77.640067 234.23324 
L 78.294452 234.939043 
L 78.900956 235.585201 
L 79.512779 234.813427 
L 80.087362 233.853679 
L 80.699185 231.192233 
L 81.305689 231.217537 
L 82.11968 231.865502 
L 82.859189 233.024067 
L 83.598697 231.231996 
L 84.343526 230.2117 
L 84.939389 231.080172 
L 85.769341 232.433036 
L 86.455648 228.899503 
L 87.227077 229.36311 
L 88.057029 228.6799 
L 88.759297 225.149077 
L 89.722254 222.643974 
L 90.525605 226.760405 
L 91.312995 223.683248 
L 92.228071 223.431111 
L 92.866495 224.219152 
L 93.552802 223.4528 
L 94.398714 221.254961 
L 95.265908 220.56181 
L 96.149062 218.842036 
L 96.994975 217.561469 
L 97.995173 221.88214 
L 98.777244 222.898822 
L 99.671038 220.465112 
L 100.719119 214.434609 
L 101.831042 211.883416 
L 103.006807 216.580033 
L 104.12937 212.52144 
L 105.257254 212.455468 
L 106.470261 209.931387 
L 107.672627 208.801741 
L 108.757949 211.877993 
L 110.098641 205.779711 
L 111.316968 220.333169 
L 112.577857 212.929016 
L 113.796184 202.153095 
L 115.014511 212.469024 
L 116.397764 209.204798 
L 117.722495 206.011966 
L 119.201512 202.15671 
L 120.68053 203.219481 
L 122.063783 195.899373 
L 123.52684 205.948706 
L 125.122901 195.976189 
L 126.697682 191.99622 
L 128.437389 196.510286 
L 130.560151 195.938233 
L 132.555228 186.032591 
L 134.529025 191.912174 
L 136.396417 195.817135 
L 138.242528 187.845448 
L 140.09928 190.455382 
L 142.046475 188.580169 
L 143.897906 167.130447 
L 146.217516 181.214876 
L 148.611608 189.00582 
L 150.936538 172.142461 
L 153.394473 187.575236 
L 156.230143 174.434287 
L 159.289261 174.427961 
L 162.385621 169.733152 
L 166.104444 162.177174 
L 169.679622 170.380213 
L 173.387805 152.623982 
L 177.3886 161.479505 
L 181.368114 150.671953 
L 185.427431 171.698736 
L 189.949605 140.82686 
L 194.966559 159.862755 
L 200.520854 151.113871 
L 207.16047 131.720104 
L 214.715162 123.517065 
L 222.886997 103.131017 
L 233.213516 116.91722 
L 245.497871 126.417093 
L 263.022628 96.837532 
L 290.613213 87.091848 
L 373.581818 45.283189 
" style="fill:none;stroke:#9467bd;stroke-linecap:square;stroke-width:1.5;"/>
   </g>
   <g id="line2d_18">
    <path clip-path="url(#p7ab2dd420b)" d="M 69.218182 239.390753 
L 69.218182 239.472088 
L 69.665079 239.079875 
L 70.1971 238.416546 
L 70.745081 238.863886 
L 71.218579 239.575111 
L 71.814442 239.049148 
L 72.426266 239.645601 
L 73.022129 239.575111 
L 73.506267 235.097194 
L 74.10213 235.572549 
L 74.724595 236.614535 
L 75.309817 237.117905 
L 75.964202 237.119712 
L 76.512184 236.831427 
L 77.038884 236.631705 
L 77.640067 233.188544 
L 78.294452 233.758789 
L 78.900956 234.639913 
L 79.512779 234.070571 
L 80.087362 234.139254 
L 80.699185 231.567275 
L 81.305689 231.606135 
L 82.11968 230.741278 
L 82.859189 232.003771 
L 83.598697 230.294842 
L 84.343526 230.60572 
L 84.939389 231.440755 
L 85.769341 232.633661 
L 86.455648 227.78522 
L 87.227077 228.386191 
L 88.057029 228.214485 
L 88.759297 225.68227 
L 89.722254 223.148248 
L 90.525605 225.962423 
L 91.312995 222.482208 
L 92.228071 223.016305 
L 92.866495 224.656551 
L 93.552802 224.011298 
L 94.398714 221.157359 
L 95.265908 219.577662 
L 96.149062 217.716005 
L 96.994975 217.609366 
L 97.995173 222.385511 
L 98.777244 222.612344 
L 99.671038 219.55778 
L 100.719119 214.124634 
L 101.831042 212.720258 
L 103.006807 216.364948 
L 104.12937 211.497528 
L 105.257254 212.62356 
L 106.470261 210.655264 
L 107.672627 207.892601 
L 108.757949 211.096278 
L 110.098641 206.619264 
L 111.316968 220.503972 
L 112.577857 212.122901 
L 113.796184 202.193762 
L 115.014511 213.112471 
L 116.397764 208.5731 
L 117.722495 205.867372 
L 119.201512 202.830883 
L 120.68053 202.579649 
L 122.063783 195.81352 
L 123.52684 206.597575 
L 125.122901 195.20803 
L 126.697682 192.503205 
L 128.437389 196.559087 
L 130.560151 196.054813 
L 132.555228 186.526021 
L 134.529025 191.735045 
L 136.396417 196.521131 
L 138.242528 187.209231 
L 140.09928 191.547976 
L 142.046475 188.359663 
L 143.897906 167.982652 
L 146.217516 181.195898 
L 148.611608 190.062265 
L 150.936538 171.973466 
L 153.394473 188.258446 
L 156.230143 175.036163 
L 159.289261 174.648468 
L 162.385621 170.419073 
L 166.104444 162.957985 
L 169.679622 171.01643 
L 173.387805 153.205072 
L 177.3886 162.291946 
L 181.368114 151.383178 
L 185.427431 172.384657 
L 189.949605 141.86252 
L 194.966559 160.472764 
L 200.520854 151.816059 
L 207.16047 132.97356 
L 214.715162 124.824744 
L 222.886997 104.190174 
L 233.213516 118.271892 
L 245.497871 127.530472 
L 263.022628 98.228353 
L 290.613213 88.751073 
L 373.581818 46.901747 
" style="fill:none;stroke:#8c564b;stroke-linecap:square;stroke-width:1.5;"/>
   </g>
   <g id="line2d_19">
    <path clip-path="url(#p7ab2dd420b)" d="M 69.218182 235.015859 
L 69.218182 234.673351 
L 69.665079 234.723055 
L 70.1971 233.572623 
L 70.745081 233.635883 
L 71.218579 234.391391 
L 71.814442 234.234144 
L 72.426266 233.75427 
L 73.022129 233.692818 
L 73.506267 232.696922 
L 74.10213 233.167758 
L 74.724595 231.348576 
L 75.309817 232.686981 
L 75.964202 232.123965 
L 76.512184 232.101372 
L 77.038884 231.917014 
L 77.640067 231.999252 
L 78.294452 232.148365 
L 78.900956 232.550519 
L 79.512779 231.218441 
L 80.087362 230.48643 
L 80.699185 230.131269 
L 81.305689 230.131269 
L 82.11968 229.804123 
L 82.859189 229.229359 
L 83.598697 231.055771 
L 84.343526 229.731826 
L 84.939389 228.970896 
L 85.769341 229.62338 
L 86.455648 228.654595 
L 87.227077 228.342813 
L 88.057029 226.717026 
L 88.759297 226.006705 
L 89.722254 224.660166 
L 90.525605 227.190574 
L 91.312995 226.719737 
L 92.228071 225.899162 
L 92.866495 227.044172 
L 93.552802 226.336561 
L 94.398714 224.735175 
L 95.265908 225.243968 
L 96.149062 223.119329 
L 96.994975 222.714464 
L 97.995173 224.50292 
L 98.777244 226.068157 
L 99.671038 222.761457 
L 100.719119 220.625974 
L 101.831042 221.094099 
L 103.006807 223.596491 
L 104.12937 221.282072 
L 105.257254 220.923297 
L 106.470261 218.514891 
L 107.672627 219.402341 
L 108.757949 219.853296 
L 110.098641 217.724138 
L 111.316968 227.078513 
L 112.577857 220.903415 
L 113.796184 215.591366 
L 115.014511 219.612907 
L 116.397764 217.82897 
L 117.722495 216.873741 
L 119.201512 215.791088 
L 120.68053 216.209509 
L 122.063783 211.192976 
L 123.52684 220.675678 
L 125.122901 212.165375 
L 126.697682 211.248103 
L 128.437389 211.699057 
L 130.560151 214.925327 
L 132.555228 207.856453 
L 134.529025 211.010425 
L 136.396417 215.525395 
L 138.242528 208.467365 
L 140.09928 207.155168 
L 142.046475 210.361556 
L 143.897906 201.140028 
L 146.217516 206.48461 
L 148.611608 211.944868 
L 150.936538 203.577353 
L 153.394473 209.734377 
L 156.230143 204.003907 
L 159.289261 203.910824 
L 162.385621 201.957892 
L 166.104444 199.239511 
L 169.679622 201.89915 
L 173.387805 195.500834 
L 177.3886 202.309438 
L 181.368114 191.596777 
L 185.427431 207.702821 
L 189.949605 188.050591 
L 194.966559 197.82429 
L 200.520854 195.477337 
L 207.16047 189.043776 
L 214.715162 183.378374 
L 222.886997 171.159217 
L 233.213516 185.161408 
L 245.497871 192.285409 
L 263.022628 175.59466 
L 290.613213 183.283484 
L 373.581818 171.591194 
" style="fill:none;stroke:#e377c2;stroke-linecap:square;stroke-width:1.5;"/>
   </g>
   <g id="line2d_20">
    <path clip-path="url(#p7ab2dd420b)" d="M 69.218182 242.107326 
L 69.218182 242.111845 
L 69.665079 242.112749 
L 70.1971 242.116364 
L 70.745081 242.111845 
L 71.218579 242.071178 
L 71.814442 242.072082 
L 72.426266 242.071178 
L 73.022129 242.029607 
L 73.506267 241.989843 
L 74.10213 241.984421 
L 74.724595 241.970865 
L 75.309817 226.273301 
L 75.964202 203.894557 
L 76.512184 201.285527 
L 77.038884 201.452714 
L 77.640067 194.532953 
L 78.294452 203.756289 
L 78.900956 207.068412 
L 79.512779 201.985003 
L 80.087362 203.762615 
L 80.699185 194.118147 
L 81.305689 192.839388 
L 82.11968 199.13468 
L 82.859189 205.929728 
L 83.598697 199.590153 
L 84.343526 202.699844 
L 84.939389 207.156072 
L 85.769341 206.336401 
L 86.455648 202.62845 
L 87.227077 201.999463 
L 88.057029 201.635265 
L 88.759297 195.502642 
L 89.722254 184.241424 
L 90.525605 201.205999 
L 91.312995 195.078798 
L 92.228071 197.235067 
L 92.866495 198.656614 
L 93.552802 199.839579 
L 94.398714 194.164237 
L 95.265908 200.074546 
L 96.149062 191.105155 
L 96.994975 190.52768 
L 97.995173 199.516049 
L 98.777244 204.582286 
L 99.671038 200.520078 
L 100.719119 193.364447 
L 101.831042 188.143674 
L 103.006807 198.28609 
L 104.12937 194.079287 
L 105.257254 196.250919 
L 106.470261 194.159718 
L 107.672627 188.994072 
L 108.757949 198.149629 
L 110.098641 189.740542 
L 111.316968 212.412994 
L 112.577857 206.270429 
L 113.796184 187.588792 
L 115.014511 203.43818 
L 116.397764 198.775001 
L 117.722495 197.956233 
L 119.201512 195.161037 
L 120.68053 198.849106 
L 122.063783 189.047391 
L 123.52684 204.073493 
L 125.122901 193.398788 
L 126.697682 190.713845 
L 128.437389 195.34901 
L 130.560151 199.584731 
L 132.555228 190.918989 
L 134.529025 195.204415 
L 136.396417 203.083923 
L 138.242528 195.314668 
L 140.09928 197.541427 
L 142.046475 198.098117 
L 143.897906 180.644631 
L 146.217516 195.756586 
L 148.611608 203.505055 
L 150.936538 192.831254 
L 153.394473 201.470789 
L 156.230143 197.713133 
L 159.289261 195.619221 
L 162.385621 198.604198 
L 166.104444 189.972797 
L 169.679622 201.271067 
L 173.387805 193.774735 
L 177.3886 198.038471 
L 181.368114 190.454478 
L 185.427431 205.748081 
L 189.949605 189.079021 
L 194.966559 202.014826 
L 200.520854 198.702703 
L 207.16047 194.232015 
L 214.715162 191.314817 
L 222.886997 182.084252 
L 233.213516 190.618955 
L 245.497871 203.662302 
L 263.022628 198.446048 
L 290.613213 198.502078 
L 373.581818 197.950811 
" style="fill:none;stroke:#7f7f7f;stroke-linecap:square;stroke-width:1.5;"/>
   </g>
   <g id="line2d_21">
    <path clip-path="url(#p7ab2dd420b)" d="M 69.218182 242.057622 
L 69.218182 242.060333 
L 69.665079 242.081119 
L 70.1971 242.102808 
L 70.745081 242.080215 
L 71.218579 242.062141 
L 71.814442 242.065755 
L 72.426266 242.063948 
L 73.022129 242.074793 
L 73.506267 242.063948 
L 74.10213 241.87959 
L 74.724595 241.403331 
L 75.309817 241.209032 
L 75.964202 241.526236 
L 76.512184 241.255121 
L 77.038884 240.837604 
L 77.640067 241.307537 
L 78.294452 241.30573 
L 78.900956 241.423213 
L 79.512779 241.262351 
L 80.087362 241.323804 
L 80.699185 241.151194 
L 81.305689 241.378931 
L 82.11968 241.402427 
L 82.859189 241.380738 
L 83.598697 241.100586 
L 84.343526 240.883694 
L 84.939389 241.232528 
L 85.769341 241.351819 
L 86.455648 241.317478 
L 87.227077 241.182824 
L 88.057029 241.275003 
L 88.759297 241.261447 
L 89.722254 241.262351 
L 90.525605 232.048053 
L 91.312995 228.94017 
L 92.228071 230.688862 
L 92.866495 229.185981 
L 93.552802 230.83165 
L 94.398714 230.993415 
L 95.265908 228.90854 
L 96.149062 231.269049 
L 96.994975 232.299286 
L 97.995173 232.445688 
L 98.777244 230.811768 
L 99.671038 230.58855 
L 100.719119 231.874539 
L 101.831042 229.494149 
L 103.006807 229.595365 
L 104.12937 228.667247 
L 105.257254 229.895399 
L 106.470261 230.660847 
L 107.672627 229.513127 
L 108.757949 226.778479 
L 110.098641 229.668566 
L 111.316968 231.780552 
L 112.577857 231.27176 
L 113.796184 231.272664 
L 115.014511 232.974363 
L 116.397764 230.110483 
L 117.722495 231.087402 
L 119.201512 229.411007 
L 120.68053 229.816775 
L 122.063783 227.602669 
L 123.52684 230.382502 
L 125.122901 228.844376 
L 126.697682 229.824005 
L 128.437389 229.831235 
L 130.560151 228.465719 
L 132.555228 227.12641 
L 134.529025 228.803709 
L 136.396417 227.946081 
L 138.242528 162.975156 
L 140.09928 119.715128 
L 142.046475 117.618504 
L 143.897906 72.752571 
L 146.217516 108.896732 
L 148.611608 124.808477 
L 150.936538 105.230352 
L 153.394473 131.528516 
L 156.230143 115.654727 
L 159.289261 124.287936 
L 162.385621 121.546962 
L 166.104444 111.353938 
L 169.679622 128.717053 
L 173.387805 104.334768 
L 177.3886 118.411064 
L 181.368114 96.612507 
L 185.427431 138.855854 
L 189.949605 96.813132 
L 194.966559 130.077147 
L 200.520854 119.951902 
L 207.16047 100.806657 
L 214.715162 96.488698 
L 222.886997 77.191629 
L 233.213516 98.122618 
L 245.497871 120.155238 
L 263.022628 98.190397 
L 290.613213 92.704835 
L 373.581818 84.912083 
" style="fill:none;stroke:#bcbd22;stroke-linecap:square;stroke-width:1.5;"/>
   </g>
   <g id="patch_3">
    <path d="M 54 252 
L 54 34.56 
" style="fill:none;stroke:#000000;stroke-linecap:square;stroke-linejoin:miter;stroke-width:0.8;"/>
   </g>
   <g id="patch_4">
    <path d="M 388.8 252 
L 388.8 34.56 
" style="fill:none;stroke:#000000;stroke-linecap:square;stroke-linejoin:miter;stroke-width:0.8;"/>
   </g>
   <g id="patch_5">
    <path d="M 54 252 
L 388.8 252 
" style="fill:none;stroke:#000000;stroke-linecap:square;stroke-linejoin:miter;stroke-width:0.8;"/>
   </g>
   <g id="patch_6">
    <path d="M 54 34.56 
L 388.8 34.56 
" style="fill:none;stroke:#000000;stroke-linecap:square;stroke-linejoin:miter;stroke-width:0.8;"/>
   </g>
   <g id="legend_1">
    <g id="patch_7">
     <path d="M 264.56875 247 
L 381.8 247 
Q 383.8 247 383.8 245 
L 383.8 113.896875 
Q 383.8 111.896875 381.8 111.896875 
L 264.56875 111.896875 
Q 262.56875 111.896875 262.56875 113.896875 
L 262.56875 245 
Q 262.56875 247 264.56875 247 
z
" style="fill:#ffffff;opacity:0.8;stroke:#cccccc;stroke-linejoin:miter;"/>
    </g>
    <g id="line2d_22">
     <path d="M 266.56875 119.995313 
L 286.56875 119.995313 
" style="fill:none;stroke:#1f77b4;stroke-linecap:square;stroke-width:1.5;"/>
    </g>
    <g id="line2d_23"/>
    <g id="text_15">
     <!-- FCFS -->
     <g transform="translate(294.56875 123.495313)scale(0.1 -0.1)">
      <defs>
       <path d="M 628 4666 
L 3309 4666 
L 3309 4134 
L 1259 4134 
L 1259 2759 
L 3109 2759 
L 3109 2228 
L 1259 2228 
L 1259 0 
L 628 0 
L 628 4666 
z
" id="DejaVuSans-46" transform="scale(0.015625)"/>
       <path d="M 4122 4306 
L 4122 3641 
Q 3803 3938 3442 4084 
Q 3081 4231 2675 4231 
Q 1875 4231 1450 3742 
Q 1025 3253 1025 2328 
Q 1025 1406 1450 917 
Q 1875 428 2675 428 
Q 3081 428 3442 575 
Q 3803 722 4122 1019 
L 4122 359 
Q 3791 134 3420 21 
Q 3050 -91 2638 -91 
Q 1578 -91 968 557 
Q 359 1206 359 2328 
Q 359 3453 968 4101 
Q 1578 4750 2638 4750 
Q 3056 4750 3426 4639 
Q 3797 4528 4122 4306 
z
" id="DejaVuSans-43" transform="scale(0.015625)"/>
       <path d="M 3425 4513 
L 3425 3897 
Q 3066 4069 2747 4153 
Q 2428 4238 2131 4238 
Q 1616 4238 1336 4038 
Q 1056 3838 1056 3469 
Q 1056 3159 1242 3001 
Q 1428 2844 1947 2747 
L 2328 2669 
Q 3034 2534 3370 2195 
Q 3706 1856 3706 1288 
Q 3706 609 3251 259 
Q 2797 -91 1919 -91 
Q 1588 -91 1214 -16 
Q 841 59 441 206 
L 441 856 
Q 825 641 1194 531 
Q 1563 422 1919 422 
Q 2459 422 2753 634 
Q 3047 847 3047 1241 
Q 3047 1584 2836 1778 
Q 2625 1972 2144 2069 
L 1759 2144 
Q 1053 2284 737 2584 
Q 422 2884 422 3419 
Q 422 4038 858 4394 
Q 1294 4750 2059 4750 
Q 2388 4750 2728 4690 
Q 3069 4631 3425 4513 
z
" id="DejaVuSans-53" transform="scale(0.015625)"/>
      </defs>
      <use xlink:href="#DejaVuSans-46"/>
      <use x="57.519531" xlink:href="#DejaVuSans-43"/>
      <use x="127.34375" xlink:href="#DejaVuSans-46"/>
      <use x="183.113281" xlink:href="#DejaVuSans-53"/>
     </g>
    </g>
    <g id="line2d_24">
     <path d="M 266.56875 134.673438 
L 286.56875 134.673438 
" style="fill:none;stroke:#ff7f0e;stroke-linecap:square;stroke-width:1.5;"/>
    </g>
    <g id="line2d_25"/>
    <g id="text_16">
     <!-- SJF -->
     <g transform="translate(294.56875 138.173438)scale(0.1 -0.1)">
      <defs>
       <path d="M 628 4666 
L 1259 4666 
L 1259 325 
Q 1259 -519 939 -900 
Q 619 -1281 -91 -1281 
L -331 -1281 
L -331 -750 
L -134 -750 
Q 284 -750 456 -515 
Q 628 -281 628 325 
L 628 4666 
z
" id="DejaVuSans-4a" transform="scale(0.015625)"/>
      </defs>
      <use xlink:href="#DejaVuSans-53"/>
      <use x="63.476562" xlink:href="#DejaVuSans-4a"/>
      <use x="92.96875" xlink:href="#DejaVuSans-46"/>
     </g>
    </g>
    <g id="line2d_26">
     <path d="M 266.56875 149.351562 
L 286.56875 149.351562 
" style="fill:none;stroke:#2ca02c;stroke-linecap:square;stroke-width:1.5;"/>
    </g>
    <g id="line2d_27"/>
    <g id="text_17">
     <!-- SRT -->
     <g transform="translate(294.56875 152.851562)scale(0.1 -0.1)">
      <defs>
       <path d="M 2841 2188 
Q 3044 2119 3236 1894 
Q 3428 1669 3622 1275 
L 4263 0 
L 3584 0 
L 2988 1197 
Q 2756 1666 2539 1819 
Q 2322 1972 1947 1972 
L 1259 1972 
L 1259 0 
L 628 0 
L 628 4666 
L 2053 4666 
Q 2853 4666 3247 4331 
Q 3641 3997 3641 3322 
Q 3641 2881 3436 2590 
Q 3231 2300 2841 2188 
z
M 1259 4147 
L 1259 2491 
L 2053 2491 
Q 2509 2491 2742 2702 
Q 2975 2913 2975 3322 
Q 2975 3731 2742 3939 
Q 2509 4147 2053 4147 
L 1259 4147 
z
" id="DejaVuSans-52" transform="scale(0.015625)"/>
       <path d="M -19 4666 
L 3928 4666 
L 3928 4134 
L 2272 4134 
L 2272 0 
L 1638 0 
L 1638 4134 
L -19 4134 
L -19 4666 
z
" id="DejaVuSans-54" transform="scale(0.015625)"/>
      </defs>
      <use xlink:href="#DejaVuSans-53"/>
      <use x="63.476562" xlink:href="#DejaVuSans-52"/>
      <use x="125.708984" xlink:href="#DejaVuSans-54"/>
     </g>
    </g>
    <g id="line2d_28">
     <path d="M 266.56875 164.029688 
L 286.56875 164.029688 
" style="fill:none;stroke:#d62728;stroke-linecap:square;stroke-width:1.5;"/>
    </g>
    <g id="line2d_29"/>
    <g id="text_18">
     <!-- RR met q=2 -->
     <g transform="translate(294.56875 167.529688)scale(0.1 -0.1)">
      <defs>
       <path id="DejaVuSans-20" transform="scale(0.015625)"/>
       <path d="M 3328 2828 
Q 3544 3216 3844 3400 
Q 4144 3584 4550 3584 
Q 5097 3584 5394 3201 
Q 5691 2819 5691 2113 
L 5691 0 
L 5113 0 
L 5113 2094 
Q 5113 2597 4934 2840 
Q 4756 3084 4391 3084 
Q 3944 3084 3684 2787 
Q 3425 2491 3425 1978 
L 3425 0 
L 2847 0 
L 2847 2094 
Q 2847 2600 2669 2842 
Q 2491 3084 2119 3084 
Q 1678 3084 1418 2786 
Q 1159 2488 1159 1978 
L 1159 0 
L 581 0 
L 581 3500 
L 1159 3500 
L 1159 2956 
Q 1356 3278 1631 3431 
Q 1906 3584 2284 3584 
Q 2666 3584 2933 3390 
Q 3200 3197 3328 2828 
z
" id="DejaVuSans-6d" transform="scale(0.015625)"/>
       <path d="M 947 1747 
Q 947 1113 1208 752 
Q 1469 391 1925 391 
Q 2381 391 2643 752 
Q 2906 1113 2906 1747 
Q 2906 2381 2643 2742 
Q 2381 3103 1925 3103 
Q 1469 3103 1208 2742 
Q 947 2381 947 1747 
z
M 2906 525 
Q 2725 213 2448 61 
Q 2172 -91 1784 -91 
Q 1150 -91 751 415 
Q 353 922 353 1747 
Q 353 2572 751 3078 
Q 1150 3584 1784 3584 
Q 2172 3584 2448 3432 
Q 2725 3281 2906 2969 
L 2906 3500 
L 3481 3500 
L 3481 -1331 
L 2906 -1331 
L 2906 525 
z
" id="DejaVuSans-71" transform="scale(0.015625)"/>
       <path d="M 678 2906 
L 4684 2906 
L 4684 2381 
L 678 2381 
L 678 2906 
z
M 678 1631 
L 4684 1631 
L 4684 1100 
L 678 1100 
L 678 1631 
z
" id="DejaVuSans-3d" transform="scale(0.015625)"/>
      </defs>
      <use xlink:href="#DejaVuSans-52"/>
      <use x="69.482422" xlink:href="#DejaVuSans-52"/>
      <use x="138.964844" xlink:href="#DejaVuSans-20"/>
      <use x="170.751953" xlink:href="#DejaVuSans-6d"/>
      <use x="268.164062" xlink:href="#DejaVuSans-65"/>
      <use x="329.6875" xlink:href="#DejaVuSans-74"/>
      <use x="368.896484" xlink:href="#DejaVuSans-20"/>
      <use x="400.683594" xlink:href="#DejaVuSans-71"/>
      <use x="464.160156" xlink:href="#DejaVuSans-3d"/>
      <use x="547.949219" xlink:href="#DejaVuSans-32"/>
     </g>
    </g>
    <g id="line2d_30">
     <path d="M 266.56875 178.707813 
L 286.56875 178.707813 
" style="fill:none;stroke:#9467bd;stroke-linecap:square;stroke-width:1.5;"/>
    </g>
    <g id="line2d_31"/>
    <g id="text_19">
     <!-- RR met q=4 -->
     <g transform="translate(294.56875 182.207813)scale(0.1 -0.1)">
      <use xlink:href="#DejaVuSans-52"/>
      <use x="69.482422" xlink:href="#DejaVuSans-52"/>
      <use x="138.964844" xlink:href="#DejaVuSans-20"/>
      <use x="170.751953" xlink:href="#DejaVuSans-6d"/>
      <use x="268.164062" xlink:href="#DejaVuSans-65"/>
      <use x="329.6875" xlink:href="#DejaVuSans-74"/>
      <use x="368.896484" xlink:href="#DejaVuSans-20"/>
      <use x="400.683594" xlink:href="#DejaVuSans-71"/>
      <use x="464.160156" xlink:href="#DejaVuSans-3d"/>
      <use x="547.949219" xlink:href="#DejaVuSans-34"/>
     </g>
    </g>
    <g id="line2d_32">
     <path d="M 266.56875 193.385938 
L 286.56875 193.385938 
" style="fill:none;stroke:#8c564b;stroke-linecap:square;stroke-width:1.5;"/>
    </g>
    <g id="line2d_33"/>
    <g id="text_20">
     <!-- RR met q=8 -->
     <g transform="translate(294.56875 196.885938)scale(0.1 -0.1)">
      <defs>
       <path d="M 2034 2216 
Q 1584 2216 1326 1975 
Q 1069 1734 1069 1313 
Q 1069 891 1326 650 
Q 1584 409 2034 409 
Q 2484 409 2743 651 
Q 3003 894 3003 1313 
Q 3003 1734 2745 1975 
Q 2488 2216 2034 2216 
z
M 1403 2484 
Q 997 2584 770 2862 
Q 544 3141 544 3541 
Q 544 4100 942 4425 
Q 1341 4750 2034 4750 
Q 2731 4750 3128 4425 
Q 3525 4100 3525 3541 
Q 3525 3141 3298 2862 
Q 3072 2584 2669 2484 
Q 3125 2378 3379 2068 
Q 3634 1759 3634 1313 
Q 3634 634 3220 271 
Q 2806 -91 2034 -91 
Q 1263 -91 848 271 
Q 434 634 434 1313 
Q 434 1759 690 2068 
Q 947 2378 1403 2484 
z
M 1172 3481 
Q 1172 3119 1398 2916 
Q 1625 2713 2034 2713 
Q 2441 2713 2670 2916 
Q 2900 3119 2900 3481 
Q 2900 3844 2670 4047 
Q 2441 4250 2034 4250 
Q 1625 4250 1398 4047 
Q 1172 3844 1172 3481 
z
" id="DejaVuSans-38" transform="scale(0.015625)"/>
      </defs>
      <use xlink:href="#DejaVuSans-52"/>
      <use x="69.482422" xlink:href="#DejaVuSans-52"/>
      <use x="138.964844" xlink:href="#DejaVuSans-20"/>
      <use x="170.751953" xlink:href="#DejaVuSans-6d"/>
      <use x="268.164062" xlink:href="#DejaVuSans-65"/>
      <use x="329.6875" xlink:href="#DejaVuSans-74"/>
      <use x="368.896484" xlink:href="#DejaVuSans-20"/>
      <use x="400.683594" xlink:href="#DejaVuSans-71"/>
      <use x="464.160156" xlink:href="#DejaVuSans-3d"/>
      <use x="547.949219" xlink:href="#DejaVuSans-38"/>
     </g>
    </g>
    <g id="line2d_34">
     <path d="M 266.56875 208.064063 
L 286.56875 208.064063 
" style="fill:none;stroke:#e377c2;stroke-linecap:square;stroke-width:1.5;"/>
    </g>
    <g id="line2d_35"/>
    <g id="text_21">
     <!-- HRRN -->
     <g transform="translate(294.56875 211.564063)scale(0.1 -0.1)">
      <defs>
       <path d="M 628 4666 
L 1259 4666 
L 1259 2753 
L 3553 2753 
L 3553 4666 
L 4184 4666 
L 4184 0 
L 3553 0 
L 3553 2222 
L 1259 2222 
L 1259 0 
L 628 0 
L 628 4666 
z
" id="DejaVuSans-48" transform="scale(0.015625)"/>
       <path d="M 628 4666 
L 1478 4666 
L 3547 763 
L 3547 4666 
L 4159 4666 
L 4159 0 
L 3309 0 
L 1241 3903 
L 1241 0 
L 628 0 
L 628 4666 
z
" id="DejaVuSans-4e" transform="scale(0.015625)"/>
      </defs>
      <use xlink:href="#DejaVuSans-48"/>
      <use x="75.195312" xlink:href="#DejaVuSans-52"/>
      <use x="144.677734" xlink:href="#DejaVuSans-52"/>
      <use x="214.160156" xlink:href="#DejaVuSans-4e"/>
     </g>
    </g>
    <g id="line2d_36">
     <path d="M 266.56875 222.742188 
L 286.56875 222.742188 
" style="fill:none;stroke:#7f7f7f;stroke-linecap:square;stroke-width:1.5;"/>
    </g>
    <g id="line2d_37"/>
    <g id="text_22">
     <!-- MLFB met q=1 -->
     <g transform="translate(294.56875 226.242188)scale(0.1 -0.1)">
      <defs>
       <path d="M 628 4666 
L 1569 4666 
L 2759 1491 
L 3956 4666 
L 4897 4666 
L 4897 0 
L 4281 0 
L 4281 4097 
L 3078 897 
L 2444 897 
L 1241 4097 
L 1241 0 
L 628 0 
L 628 4666 
z
" id="DejaVuSans-4d" transform="scale(0.015625)"/>
       <path d="M 628 4666 
L 1259 4666 
L 1259 531 
L 3531 531 
L 3531 0 
L 628 0 
L 628 4666 
z
" id="DejaVuSans-4c" transform="scale(0.015625)"/>
       <path d="M 1259 2228 
L 1259 519 
L 2272 519 
Q 2781 519 3026 730 
Q 3272 941 3272 1375 
Q 3272 1813 3026 2020 
Q 2781 2228 2272 2228 
L 1259 2228 
z
M 1259 4147 
L 1259 2741 
L 2194 2741 
Q 2656 2741 2882 2914 
Q 3109 3088 3109 3444 
Q 3109 3797 2882 3972 
Q 2656 4147 2194 4147 
L 1259 4147 
z
M 628 4666 
L 2241 4666 
Q 2963 4666 3353 4366 
Q 3744 4066 3744 3513 
Q 3744 3084 3544 2831 
Q 3344 2578 2956 2516 
Q 3422 2416 3680 2098 
Q 3938 1781 3938 1306 
Q 3938 681 3513 340 
Q 3088 0 2303 0 
L 628 0 
L 628 4666 
z
" id="DejaVuSans-42" transform="scale(0.015625)"/>
      </defs>
      <use xlink:href="#DejaVuSans-4d"/>
      <use x="86.279297" xlink:href="#DejaVuSans-4c"/>
      <use x="141.992188" xlink:href="#DejaVuSans-46"/>
      <use x="199.511719" xlink:href="#DejaVuSans-42"/>
      <use x="268.115234" xlink:href="#DejaVuSans-20"/>
      <use x="299.902344" xlink:href="#DejaVuSans-6d"/>
      <use x="397.314453" xlink:href="#DejaVuSans-65"/>
      <use x="458.837891" xlink:href="#DejaVuSans-74"/>
      <use x="498.046875" xlink:href="#DejaVuSans-20"/>
      <use x="529.833984" xlink:href="#DejaVuSans-71"/>
      <use x="593.310547" xlink:href="#DejaVuSans-3d"/>
      <use x="677.099609" xlink:href="#DejaVuSans-31"/>
     </g>
    </g>
    <g id="line2d_38">
     <path d="M 266.56875 237.420312 
L 286.56875 237.420312 
" style="fill:none;stroke:#bcbd22;stroke-linecap:square;stroke-width:1.5;"/>
    </g>
    <g id="line2d_39"/>
    <g id="text_23">
     <!-- MLFB met q=2^i -->
     <g transform="translate(294.56875 240.920312)scale(0.1 -0.1)">
      <defs>
       <path d="M 2988 4666 
L 4684 2925 
L 4056 2925 
L 2681 4159 
L 1306 2925 
L 678 2925 
L 2375 4666 
L 2988 4666 
z
" id="DejaVuSans-5e" transform="scale(0.015625)"/>
      </defs>
      <use xlink:href="#DejaVuSans-4d"/>
      <use x="86.279297" xlink:href="#DejaVuSans-4c"/>
      <use x="141.992188" xlink:href="#DejaVuSans-46"/>
      <use x="199.511719" xlink:href="#DejaVuSans-42"/>
      <use x="268.115234" xlink:href="#DejaVuSans-20"/>
      <use x="299.902344" xlink:href="#DejaVuSans-6d"/>
      <use x="397.314453" xlink:href="#DejaVuSans-65"/>
      <use x="458.837891" xlink:href="#DejaVuSans-74"/>
      <use x="498.046875" xlink:href="#DejaVuSans-20"/>
      <use x="529.833984" xlink:href="#DejaVuSans-71"/>
      <use x="593.310547" xlink:href="#DejaVuSans-3d"/>
      <use x="677.099609" xlink:href="#DejaVuSans-32"/>
      <use x="740.722656" xlink:href="#DejaVuSans-5e"/>
      <use x="824.511719" xlink:href="#DejaVuSans-69"/>
     </g>
    </g>
   </g>
  </g>
 </g>
 <defs>
  <clipPath id="p7ab2dd420b">
   <rect height="217.44" width="334.8" x="54" y="34.56"/>
  </clipPath>
 </defs>
</svg>
