<?xml version="1.0" encoding="utf-8" standalone="no"?>
<!DOCTYPE svg PUBLIC "-//W3C//DTD SVG 1.1//EN"
  "http://www.w3.org/Graphics/SVG/1.1/DTD/svg11.dtd">
<svg height="288pt" version="1.1" viewBox="0 0 432 288" width="432pt" xmlns="http://www.w3.org/2000/svg" xmlns:xlink="http://www.w3.org/1999/xlink">
 <metadata>
  <rdf:RDF xmlns:cc="http://creativecommons.org/ns#" xmlns:dc="http://purl.org/dc/elements/1.1/" xmlns:rdf="http://www.w3.org/1999/02/22-rdf-syntax-ns#">
   <cc:Work>
    <dc:type rdf:resource="http://purl.org/dc/dcmitype/StillImage"/>
    <dc:date>2022-03-29T19:55:46.941986</dc:date>
    <dc:format>image/svg+xml</dc:format>
    <dc:creator>
     <cc:Agent>
      <dc:title>Matplotlib v3.4.3, https://matplotlib.org/</dc:title>
     </cc:Agent>
    </dc:creator>
   </cc:Work>
  </rdf:RDF>
 </metadata>
 <defs>
  <style type="text/css">*{stroke-linecap:butt;stroke-linejoin:round;}</style>
 </defs>
 <g id="figure_1">
  <g id="patch_1">
   <path d="M 0 288 
L 432 288 
L 432 0 
L 0 0 
z
" style="fill:none;"/>
  </g>
  <g id="axes_1">
   <g id="patch_2">
    <path d="M 54 252 
L 388.8 252 
L 388.8 34.56 
L 54 34.56 
z
" style="fill:#ffffff;"/>
   </g>
   <g id="matplotlib.axis_1">
    <g id="xtick_1">
     <g id="line2d_1">
      <defs>
       <path d="M 0 0 
L 0 3.5 
" id="m200b8bfb63" style="stroke:#000000;stroke-width:0.8;"/>
      </defs>
      <g>
       <use style="stroke:#000000;stroke-width:0.8;" x="68.655858" xlink:href="#m200b8bfb63" y="252"/>
      </g>
     </g>
     <g id="text_1">
      <!-- 0 -->
      <g transform="translate(65.474608 266.598437)scale(0.1 -0.1)">
       <defs>
        <path d="M 2034 4250 
Q 1547 4250 1301 3770 
Q 1056 3291 1056 2328 
Q 1056 1369 1301 889 
Q 1547 409 2034 409 
Q 2525 409 2770 889 
Q 3016 1369 3016 2328 
Q 3016 3291 2770 3770 
Q 2525 4250 2034 4250 
z
M 2034 4750 
Q 2819 4750 3233 4129 
Q 3647 3509 3647 2328 
Q 3647 1150 3233 529 
Q 2819 -91 2034 -91 
Q 1250 -91 836 529 
Q 422 1150 422 2328 
Q 422 3509 836 4129 
Q 1250 4750 2034 4750 
z
" id="DejaVuSans-30" transform="scale(0.015625)"/>
       </defs>
       <use xlink:href="#DejaVuSans-30"/>
      </g>
     </g>
    </g>
    <g id="xtick_2">
     <g id="line2d_2">
      <g>
       <use style="stroke:#000000;stroke-width:0.8;" x="124.888285" xlink:href="#m200b8bfb63" y="252"/>
      </g>
     </g>
     <g id="text_2">
      <!-- 100 -->
      <g transform="translate(115.344535 266.598437)scale(0.1 -0.1)">
       <defs>
        <path d="M 794 531 
L 1825 531 
L 1825 4091 
L 703 3866 
L 703 4441 
L 1819 4666 
L 2450 4666 
L 2450 531 
L 3481 531 
L 3481 0 
L 794 0 
L 794 531 
z
" id="DejaVuSans-31" transform="scale(0.015625)"/>
       </defs>
       <use xlink:href="#DejaVuSans-31"/>
       <use x="63.623047" xlink:href="#DejaVuSans-30"/>
       <use x="127.246094" xlink:href="#DejaVuSans-30"/>
      </g>
     </g>
    </g>
    <g id="xtick_3">
     <g id="line2d_3">
      <g>
       <use style="stroke:#000000;stroke-width:0.8;" x="181.120712" xlink:href="#m200b8bfb63" y="252"/>
      </g>
     </g>
     <g id="text_3">
      <!-- 200 -->
      <g transform="translate(171.576962 266.598437)scale(0.1 -0.1)">
       <defs>
        <path d="M 1228 531 
L 3431 531 
L 3431 0 
L 469 0 
L 469 531 
Q 828 903 1448 1529 
Q 2069 2156 2228 2338 
Q 2531 2678 2651 2914 
Q 2772 3150 2772 3378 
Q 2772 3750 2511 3984 
Q 2250 4219 1831 4219 
Q 1534 4219 1204 4116 
Q 875 4013 500 3803 
L 500 4441 
Q 881 4594 1212 4672 
Q 1544 4750 1819 4750 
Q 2544 4750 2975 4387 
Q 3406 4025 3406 3419 
Q 3406 3131 3298 2873 
Q 3191 2616 2906 2266 
Q 2828 2175 2409 1742 
Q 1991 1309 1228 531 
z
" id="DejaVuSans-32" transform="scale(0.015625)"/>
       </defs>
       <use xlink:href="#DejaVuSans-32"/>
       <use x="63.623047" xlink:href="#DejaVuSans-30"/>
       <use x="127.246094" xlink:href="#DejaVuSans-30"/>
      </g>
     </g>
    </g>
    <g id="xtick_4">
     <g id="line2d_4">
      <g>
       <use style="stroke:#000000;stroke-width:0.8;" x="237.35314" xlink:href="#m200b8bfb63" y="252"/>
      </g>
     </g>
     <g id="text_4">
      <!-- 300 -->
      <g transform="translate(227.80939 266.598437)scale(0.1 -0.1)">
       <defs>
        <path d="M 2597 2516 
Q 3050 2419 3304 2112 
Q 3559 1806 3559 1356 
Q 3559 666 3084 287 
Q 2609 -91 1734 -91 
Q 1441 -91 1130 -33 
Q 819 25 488 141 
L 488 750 
Q 750 597 1062 519 
Q 1375 441 1716 441 
Q 2309 441 2620 675 
Q 2931 909 2931 1356 
Q 2931 1769 2642 2001 
Q 2353 2234 1838 2234 
L 1294 2234 
L 1294 2753 
L 1863 2753 
Q 2328 2753 2575 2939 
Q 2822 3125 2822 3475 
Q 2822 3834 2567 4026 
Q 2313 4219 1838 4219 
Q 1578 4219 1281 4162 
Q 984 4106 628 3988 
L 628 4550 
Q 988 4650 1302 4700 
Q 1616 4750 1894 4750 
Q 2613 4750 3031 4423 
Q 3450 4097 3450 3541 
Q 3450 3153 3228 2886 
Q 3006 2619 2597 2516 
z
" id="DejaVuSans-33" transform="scale(0.015625)"/>
       </defs>
       <use xlink:href="#DejaVuSans-33"/>
       <use x="63.623047" xlink:href="#DejaVuSans-30"/>
       <use x="127.246094" xlink:href="#DejaVuSans-30"/>
      </g>
     </g>
    </g>
    <g id="xtick_5">
     <g id="line2d_5">
      <g>
       <use style="stroke:#000000;stroke-width:0.8;" x="293.585567" xlink:href="#m200b8bfb63" y="252"/>
      </g>
     </g>
     <g id="text_5">
      <!-- 400 -->
      <g transform="translate(284.041817 266.598437)scale(0.1 -0.1)">
       <defs>
        <path d="M 2419 4116 
L 825 1625 
L 2419 1625 
L 2419 4116 
z
M 2253 4666 
L 3047 4666 
L 3047 1625 
L 3713 1625 
L 3713 1100 
L 3047 1100 
L 3047 0 
L 2419 0 
L 2419 1100 
L 313 1100 
L 313 1709 
L 2253 4666 
z
" id="DejaVuSans-34" transform="scale(0.015625)"/>
       </defs>
       <use xlink:href="#DejaVuSans-34"/>
       <use x="63.623047" xlink:href="#DejaVuSans-30"/>
       <use x="127.246094" xlink:href="#DejaVuSans-30"/>
      </g>
     </g>
    </g>
    <g id="xtick_6">
     <g id="line2d_6">
      <g>
       <use style="stroke:#000000;stroke-width:0.8;" x="349.817994" xlink:href="#m200b8bfb63" y="252"/>
      </g>
     </g>
     <g id="text_6">
      <!-- 500 -->
      <g transform="translate(340.274244 266.598437)scale(0.1 -0.1)">
       <defs>
        <path d="M 691 4666 
L 3169 4666 
L 3169 4134 
L 1269 4134 
L 1269 2991 
Q 1406 3038 1543 3061 
Q 1681 3084 1819 3084 
Q 2600 3084 3056 2656 
Q 3513 2228 3513 1497 
Q 3513 744 3044 326 
Q 2575 -91 1722 -91 
Q 1428 -91 1123 -41 
Q 819 9 494 109 
L 494 744 
Q 775 591 1075 516 
Q 1375 441 1709 441 
Q 2250 441 2565 725 
Q 2881 1009 2881 1497 
Q 2881 1984 2565 2268 
Q 2250 2553 1709 2553 
Q 1456 2553 1204 2497 
Q 953 2441 691 2322 
L 691 4666 
z
" id="DejaVuSans-35" transform="scale(0.015625)"/>
       </defs>
       <use xlink:href="#DejaVuSans-35"/>
       <use x="63.623047" xlink:href="#DejaVuSans-30"/>
       <use x="127.246094" xlink:href="#DejaVuSans-30"/>
      </g>
     </g>
    </g>
    <g id="text_7">
     <!-- bedieningstijd -->
     <g transform="translate(186.091406 280.276563)scale(0.1 -0.1)">
      <defs>
       <path d="M 3116 1747 
Q 3116 2381 2855 2742 
Q 2594 3103 2138 3103 
Q 1681 3103 1420 2742 
Q 1159 2381 1159 1747 
Q 1159 1113 1420 752 
Q 1681 391 2138 391 
Q 2594 391 2855 752 
Q 3116 1113 3116 1747 
z
M 1159 2969 
Q 1341 3281 1617 3432 
Q 1894 3584 2278 3584 
Q 2916 3584 3314 3078 
Q 3713 2572 3713 1747 
Q 3713 922 3314 415 
Q 2916 -91 2278 -91 
Q 1894 -91 1617 61 
Q 1341 213 1159 525 
L 1159 0 
L 581 0 
L 581 4863 
L 1159 4863 
L 1159 2969 
z
" id="DejaVuSans-62" transform="scale(0.015625)"/>
       <path d="M 3597 1894 
L 3597 1613 
L 953 1613 
Q 991 1019 1311 708 
Q 1631 397 2203 397 
Q 2534 397 2845 478 
Q 3156 559 3463 722 
L 3463 178 
Q 3153 47 2828 -22 
Q 2503 -91 2169 -91 
Q 1331 -91 842 396 
Q 353 884 353 1716 
Q 353 2575 817 3079 
Q 1281 3584 2069 3584 
Q 2775 3584 3186 3129 
Q 3597 2675 3597 1894 
z
M 3022 2063 
Q 3016 2534 2758 2815 
Q 2500 3097 2075 3097 
Q 1594 3097 1305 2825 
Q 1016 2553 972 2059 
L 3022 2063 
z
" id="DejaVuSans-65" transform="scale(0.015625)"/>
       <path d="M 2906 2969 
L 2906 4863 
L 3481 4863 
L 3481 0 
L 2906 0 
L 2906 525 
Q 2725 213 2448 61 
Q 2172 -91 1784 -91 
Q 1150 -91 751 415 
Q 353 922 353 1747 
Q 353 2572 751 3078 
Q 1150 3584 1784 3584 
Q 2172 3584 2448 3432 
Q 2725 3281 2906 2969 
z
M 947 1747 
Q 947 1113 1208 752 
Q 1469 391 1925 391 
Q 2381 391 2643 752 
Q 2906 1113 2906 1747 
Q 2906 2381 2643 2742 
Q 2381 3103 1925 3103 
Q 1469 3103 1208 2742 
Q 947 2381 947 1747 
z
" id="DejaVuSans-64" transform="scale(0.015625)"/>
       <path d="M 603 3500 
L 1178 3500 
L 1178 0 
L 603 0 
L 603 3500 
z
M 603 4863 
L 1178 4863 
L 1178 4134 
L 603 4134 
L 603 4863 
z
" id="DejaVuSans-69" transform="scale(0.015625)"/>
       <path d="M 3513 2113 
L 3513 0 
L 2938 0 
L 2938 2094 
Q 2938 2591 2744 2837 
Q 2550 3084 2163 3084 
Q 1697 3084 1428 2787 
Q 1159 2491 1159 1978 
L 1159 0 
L 581 0 
L 581 3500 
L 1159 3500 
L 1159 2956 
Q 1366 3272 1645 3428 
Q 1925 3584 2291 3584 
Q 2894 3584 3203 3211 
Q 3513 2838 3513 2113 
z
" id="DejaVuSans-6e" transform="scale(0.015625)"/>
       <path d="M 2906 1791 
Q 2906 2416 2648 2759 
Q 2391 3103 1925 3103 
Q 1463 3103 1205 2759 
Q 947 2416 947 1791 
Q 947 1169 1205 825 
Q 1463 481 1925 481 
Q 2391 481 2648 825 
Q 2906 1169 2906 1791 
z
M 3481 434 
Q 3481 -459 3084 -895 
Q 2688 -1331 1869 -1331 
Q 1566 -1331 1297 -1286 
Q 1028 -1241 775 -1147 
L 775 -588 
Q 1028 -725 1275 -790 
Q 1522 -856 1778 -856 
Q 2344 -856 2625 -561 
Q 2906 -266 2906 331 
L 2906 616 
Q 2728 306 2450 153 
Q 2172 0 1784 0 
Q 1141 0 747 490 
Q 353 981 353 1791 
Q 353 2603 747 3093 
Q 1141 3584 1784 3584 
Q 2172 3584 2450 3431 
Q 2728 3278 2906 2969 
L 2906 3500 
L 3481 3500 
L 3481 434 
z
" id="DejaVuSans-67" transform="scale(0.015625)"/>
       <path d="M 2834 3397 
L 2834 2853 
Q 2591 2978 2328 3040 
Q 2066 3103 1784 3103 
Q 1356 3103 1142 2972 
Q 928 2841 928 2578 
Q 928 2378 1081 2264 
Q 1234 2150 1697 2047 
L 1894 2003 
Q 2506 1872 2764 1633 
Q 3022 1394 3022 966 
Q 3022 478 2636 193 
Q 2250 -91 1575 -91 
Q 1294 -91 989 -36 
Q 684 19 347 128 
L 347 722 
Q 666 556 975 473 
Q 1284 391 1588 391 
Q 1994 391 2212 530 
Q 2431 669 2431 922 
Q 2431 1156 2273 1281 
Q 2116 1406 1581 1522 
L 1381 1569 
Q 847 1681 609 1914 
Q 372 2147 372 2553 
Q 372 3047 722 3315 
Q 1072 3584 1716 3584 
Q 2034 3584 2315 3537 
Q 2597 3491 2834 3397 
z
" id="DejaVuSans-73" transform="scale(0.015625)"/>
       <path d="M 1172 4494 
L 1172 3500 
L 2356 3500 
L 2356 3053 
L 1172 3053 
L 1172 1153 
Q 1172 725 1289 603 
Q 1406 481 1766 481 
L 2356 481 
L 2356 0 
L 1766 0 
Q 1100 0 847 248 
Q 594 497 594 1153 
L 594 3053 
L 172 3053 
L 172 3500 
L 594 3500 
L 594 4494 
L 1172 4494 
z
" id="DejaVuSans-74" transform="scale(0.015625)"/>
       <path d="M 603 3500 
L 1178 3500 
L 1178 -63 
Q 1178 -731 923 -1031 
Q 669 -1331 103 -1331 
L -116 -1331 
L -116 -844 
L 38 -844 
Q 366 -844 484 -692 
Q 603 -541 603 -63 
L 603 3500 
z
M 603 4863 
L 1178 4863 
L 1178 4134 
L 603 4134 
L 603 4863 
z
" id="DejaVuSans-6a" transform="scale(0.015625)"/>
      </defs>
      <use xlink:href="#DejaVuSans-62"/>
      <use x="63.476562" xlink:href="#DejaVuSans-65"/>
      <use x="125" xlink:href="#DejaVuSans-64"/>
      <use x="188.476562" xlink:href="#DejaVuSans-69"/>
      <use x="216.259766" xlink:href="#DejaVuSans-65"/>
      <use x="277.783203" xlink:href="#DejaVuSans-6e"/>
      <use x="341.162109" xlink:href="#DejaVuSans-69"/>
      <use x="368.945312" xlink:href="#DejaVuSans-6e"/>
      <use x="432.324219" xlink:href="#DejaVuSans-67"/>
      <use x="495.800781" xlink:href="#DejaVuSans-73"/>
      <use x="547.900391" xlink:href="#DejaVuSans-74"/>
      <use x="587.109375" xlink:href="#DejaVuSans-69"/>
      <use x="614.892578" xlink:href="#DejaVuSans-6a"/>
      <use x="642.675781" xlink:href="#DejaVuSans-64"/>
     </g>
    </g>
   </g>
   <g id="matplotlib.axis_2">
    <g id="ytick_1">
     <g id="line2d_7">
      <defs>
       <path d="M 0 0 
L -3.5 0 
" id="m5eac7b73fc" style="stroke:#000000;stroke-width:0.8;"/>
      </defs>
      <g>
       <use style="stroke:#000000;stroke-width:0.8;" x="54" xlink:href="#m5eac7b73fc" y="242.116364"/>
      </g>
     </g>
     <g id="text_8">
      <!-- $\mathdefault{10^{0}}$ -->
      <g transform="translate(29.4 245.915582)scale(0.1 -0.1)">
       <use transform="translate(0 0.765625)" xlink:href="#DejaVuSans-31"/>
       <use transform="translate(63.623047 0.765625)" xlink:href="#DejaVuSans-30"/>
       <use transform="translate(128.203125 39.046875)scale(0.7)" xlink:href="#DejaVuSans-30"/>
      </g>
     </g>
    </g>
    <g id="ytick_2">
     <g id="line2d_8">
      <g>
       <use style="stroke:#000000;stroke-width:0.8;" x="54" xlink:href="#m5eac7b73fc" y="165.488526"/>
      </g>
     </g>
     <g id="text_9">
      <!-- $\mathdefault{10^{1}}$ -->
      <g transform="translate(29.4 169.287745)scale(0.1 -0.1)">
       <use transform="translate(0 0.684375)" xlink:href="#DejaVuSans-31"/>
       <use transform="translate(63.623047 0.684375)" xlink:href="#DejaVuSans-30"/>
       <use transform="translate(128.203125 38.965625)scale(0.7)" xlink:href="#DejaVuSans-31"/>
      </g>
     </g>
    </g>
    <g id="ytick_3">
     <g id="line2d_9">
      <g>
       <use style="stroke:#000000;stroke-width:0.8;" x="54" xlink:href="#m5eac7b73fc" y="88.860689"/>
      </g>
     </g>
     <g id="text_10">
      <!-- $\mathdefault{10^{2}}$ -->
      <g transform="translate(29.4 92.659907)scale(0.1 -0.1)">
       <use transform="translate(0 0.765625)" xlink:href="#DejaVuSans-31"/>
       <use transform="translate(63.623047 0.765625)" xlink:href="#DejaVuSans-30"/>
       <use transform="translate(128.203125 39.046875)scale(0.7)" xlink:href="#DejaVuSans-32"/>
      </g>
     </g>
    </g>
    <g id="ytick_4">
     <g id="line2d_10">
      <defs>
       <path d="M 0 0 
L -2 0 
" id="m0ee0d2f1c3" style="stroke:#000000;stroke-width:0.6;"/>
      </defs>
      <g>
       <use style="stroke:#000000;stroke-width:0.6;" x="54" xlink:href="#m0ee0d2f1c3" y="249.542368"/>
      </g>
     </g>
    </g>
    <g id="ytick_5">
     <g id="line2d_11">
      <g>
       <use style="stroke:#000000;stroke-width:0.6;" x="54" xlink:href="#m0ee0d2f1c3" y="245.622661"/>
      </g>
     </g>
    </g>
    <g id="ytick_6">
     <g id="line2d_12">
      <g>
       <use style="stroke:#000000;stroke-width:0.6;" x="54" xlink:href="#m0ee0d2f1c3" y="219.049086"/>
      </g>
     </g>
    </g>
    <g id="ytick_7">
     <g id="line2d_13">
      <g>
       <use style="stroke:#000000;stroke-width:0.6;" x="54" xlink:href="#m0ee0d2f1c3" y="205.555594"/>
      </g>
     </g>
    </g>
    <g id="ytick_8">
     <g id="line2d_14">
      <g>
       <use style="stroke:#000000;stroke-width:0.6;" x="54" xlink:href="#m0ee0d2f1c3" y="195.981808"/>
      </g>
     </g>
    </g>
    <g id="ytick_9">
     <g id="line2d_15">
      <g>
       <use style="stroke:#000000;stroke-width:0.6;" x="54" xlink:href="#m0ee0d2f1c3" y="188.555804"/>
      </g>
     </g>
    </g>
    <g id="ytick_10">
     <g id="line2d_16">
      <g>
       <use style="stroke:#000000;stroke-width:0.6;" x="54" xlink:href="#m0ee0d2f1c3" y="182.488316"/>
      </g>
     </g>
    </g>
    <g id="ytick_11">
     <g id="line2d_17">
      <g>
       <use style="stroke:#000000;stroke-width:0.6;" x="54" xlink:href="#m0ee0d2f1c3" y="177.358328"/>
      </g>
     </g>
    </g>
    <g id="ytick_12">
     <g id="line2d_18">
      <g>
       <use style="stroke:#000000;stroke-width:0.6;" x="54" xlink:href="#m0ee0d2f1c3" y="172.914531"/>
      </g>
     </g>
    </g>
    <g id="ytick_13">
     <g id="line2d_19">
      <g>
       <use style="stroke:#000000;stroke-width:0.6;" x="54" xlink:href="#m0ee0d2f1c3" y="168.994824"/>
      </g>
     </g>
    </g>
    <g id="ytick_14">
     <g id="line2d_20">
      <g>
       <use style="stroke:#000000;stroke-width:0.6;" x="54" xlink:href="#m0ee0d2f1c3" y="142.421249"/>
      </g>
     </g>
    </g>
    <g id="ytick_15">
     <g id="line2d_21">
      <g>
       <use style="stroke:#000000;stroke-width:0.6;" x="54" xlink:href="#m0ee0d2f1c3" y="128.927756"/>
      </g>
     </g>
    </g>
    <g id="ytick_16">
     <g id="line2d_22">
      <g>
       <use style="stroke:#000000;stroke-width:0.6;" x="54" xlink:href="#m0ee0d2f1c3" y="119.353971"/>
      </g>
     </g>
    </g>
    <g id="ytick_17">
     <g id="line2d_23">
      <g>
       <use style="stroke:#000000;stroke-width:0.6;" x="54" xlink:href="#m0ee0d2f1c3" y="111.927966"/>
      </g>
     </g>
    </g>
    <g id="ytick_18">
     <g id="line2d_24">
      <g>
       <use style="stroke:#000000;stroke-width:0.6;" x="54" xlink:href="#m0ee0d2f1c3" y="105.860479"/>
      </g>
     </g>
    </g>
    <g id="ytick_19">
     <g id="line2d_25">
      <g>
       <use style="stroke:#000000;stroke-width:0.6;" x="54" xlink:href="#m0ee0d2f1c3" y="100.730491"/>
      </g>
     </g>
    </g>
    <g id="ytick_20">
     <g id="line2d_26">
      <g>
       <use style="stroke:#000000;stroke-width:0.6;" x="54" xlink:href="#m0ee0d2f1c3" y="96.286693"/>
      </g>
     </g>
    </g>
    <g id="ytick_21">
     <g id="line2d_27">
      <g>
       <use style="stroke:#000000;stroke-width:0.6;" x="54" xlink:href="#m0ee0d2f1c3" y="92.366986"/>
      </g>
     </g>
    </g>
    <g id="ytick_22">
     <g id="line2d_28">
      <g>
       <use style="stroke:#000000;stroke-width:0.6;" x="54" xlink:href="#m0ee0d2f1c3" y="65.793411"/>
      </g>
     </g>
    </g>
    <g id="ytick_23">
     <g id="line2d_29">
      <g>
       <use style="stroke:#000000;stroke-width:0.6;" x="54" xlink:href="#m0ee0d2f1c3" y="52.299919"/>
      </g>
     </g>
    </g>
    <g id="ytick_24">
     <g id="line2d_30">
      <g>
       <use style="stroke:#000000;stroke-width:0.6;" x="54" xlink:href="#m0ee0d2f1c3" y="42.726134"/>
      </g>
     </g>
    </g>
    <g id="ytick_25">
     <g id="line2d_31">
      <g>
       <use style="stroke:#000000;stroke-width:0.6;" x="54" xlink:href="#m0ee0d2f1c3" y="35.300129"/>
      </g>
     </g>
    </g>
    <g id="text_11">
     <!-- genormaliseerde omlooptijd -->
     <g transform="translate(23.320312 213.529219)rotate(-90)scale(0.1 -0.1)">
      <defs>
       <path d="M 1959 3097 
Q 1497 3097 1228 2736 
Q 959 2375 959 1747 
Q 959 1119 1226 758 
Q 1494 397 1959 397 
Q 2419 397 2687 759 
Q 2956 1122 2956 1747 
Q 2956 2369 2687 2733 
Q 2419 3097 1959 3097 
z
M 1959 3584 
Q 2709 3584 3137 3096 
Q 3566 2609 3566 1747 
Q 3566 888 3137 398 
Q 2709 -91 1959 -91 
Q 1206 -91 779 398 
Q 353 888 353 1747 
Q 353 2609 779 3096 
Q 1206 3584 1959 3584 
z
" id="DejaVuSans-6f" transform="scale(0.015625)"/>
       <path d="M 2631 2963 
Q 2534 3019 2420 3045 
Q 2306 3072 2169 3072 
Q 1681 3072 1420 2755 
Q 1159 2438 1159 1844 
L 1159 0 
L 581 0 
L 581 3500 
L 1159 3500 
L 1159 2956 
Q 1341 3275 1631 3429 
Q 1922 3584 2338 3584 
Q 2397 3584 2469 3576 
Q 2541 3569 2628 3553 
L 2631 2963 
z
" id="DejaVuSans-72" transform="scale(0.015625)"/>
       <path d="M 3328 2828 
Q 3544 3216 3844 3400 
Q 4144 3584 4550 3584 
Q 5097 3584 5394 3201 
Q 5691 2819 5691 2113 
L 5691 0 
L 5113 0 
L 5113 2094 
Q 5113 2597 4934 2840 
Q 4756 3084 4391 3084 
Q 3944 3084 3684 2787 
Q 3425 2491 3425 1978 
L 3425 0 
L 2847 0 
L 2847 2094 
Q 2847 2600 2669 2842 
Q 2491 3084 2119 3084 
Q 1678 3084 1418 2786 
Q 1159 2488 1159 1978 
L 1159 0 
L 581 0 
L 581 3500 
L 1159 3500 
L 1159 2956 
Q 1356 3278 1631 3431 
Q 1906 3584 2284 3584 
Q 2666 3584 2933 3390 
Q 3200 3197 3328 2828 
z
" id="DejaVuSans-6d" transform="scale(0.015625)"/>
       <path d="M 2194 1759 
Q 1497 1759 1228 1600 
Q 959 1441 959 1056 
Q 959 750 1161 570 
Q 1363 391 1709 391 
Q 2188 391 2477 730 
Q 2766 1069 2766 1631 
L 2766 1759 
L 2194 1759 
z
M 3341 1997 
L 3341 0 
L 2766 0 
L 2766 531 
Q 2569 213 2275 61 
Q 1981 -91 1556 -91 
Q 1019 -91 701 211 
Q 384 513 384 1019 
Q 384 1609 779 1909 
Q 1175 2209 1959 2209 
L 2766 2209 
L 2766 2266 
Q 2766 2663 2505 2880 
Q 2244 3097 1772 3097 
Q 1472 3097 1187 3025 
Q 903 2953 641 2809 
L 641 3341 
Q 956 3463 1253 3523 
Q 1550 3584 1831 3584 
Q 2591 3584 2966 3190 
Q 3341 2797 3341 1997 
z
" id="DejaVuSans-61" transform="scale(0.015625)"/>
       <path d="M 603 4863 
L 1178 4863 
L 1178 0 
L 603 0 
L 603 4863 
z
" id="DejaVuSans-6c" transform="scale(0.015625)"/>
       <path id="DejaVuSans-20" transform="scale(0.015625)"/>
       <path d="M 1159 525 
L 1159 -1331 
L 581 -1331 
L 581 3500 
L 1159 3500 
L 1159 2969 
Q 1341 3281 1617 3432 
Q 1894 3584 2278 3584 
Q 2916 3584 3314 3078 
Q 3713 2572 3713 1747 
Q 3713 922 3314 415 
Q 2916 -91 2278 -91 
Q 1894 -91 1617 61 
Q 1341 213 1159 525 
z
M 3116 1747 
Q 3116 2381 2855 2742 
Q 2594 3103 2138 3103 
Q 1681 3103 1420 2742 
Q 1159 2381 1159 1747 
Q 1159 1113 1420 752 
Q 1681 391 2138 391 
Q 2594 391 2855 752 
Q 3116 1113 3116 1747 
z
" id="DejaVuSans-70" transform="scale(0.015625)"/>
      </defs>
      <use xlink:href="#DejaVuSans-67"/>
      <use x="63.476562" xlink:href="#DejaVuSans-65"/>
      <use x="125" xlink:href="#DejaVuSans-6e"/>
      <use x="188.378906" xlink:href="#DejaVuSans-6f"/>
      <use x="249.560547" xlink:href="#DejaVuSans-72"/>
      <use x="288.923828" xlink:href="#DejaVuSans-6d"/>
      <use x="386.335938" xlink:href="#DejaVuSans-61"/>
      <use x="447.615234" xlink:href="#DejaVuSans-6c"/>
      <use x="475.398438" xlink:href="#DejaVuSans-69"/>
      <use x="503.181641" xlink:href="#DejaVuSans-73"/>
      <use x="555.28125" xlink:href="#DejaVuSans-65"/>
      <use x="616.804688" xlink:href="#DejaVuSans-65"/>
      <use x="678.328125" xlink:href="#DejaVuSans-72"/>
      <use x="717.691406" xlink:href="#DejaVuSans-64"/>
      <use x="781.167969" xlink:href="#DejaVuSans-65"/>
      <use x="842.691406" xlink:href="#DejaVuSans-20"/>
      <use x="874.478516" xlink:href="#DejaVuSans-6f"/>
      <use x="935.660156" xlink:href="#DejaVuSans-6d"/>
      <use x="1033.072266" xlink:href="#DejaVuSans-6c"/>
      <use x="1060.855469" xlink:href="#DejaVuSans-6f"/>
      <use x="1122.037109" xlink:href="#DejaVuSans-6f"/>
      <use x="1183.21875" xlink:href="#DejaVuSans-70"/>
      <use x="1246.695312" xlink:href="#DejaVuSans-74"/>
      <use x="1285.904297" xlink:href="#DejaVuSans-69"/>
      <use x="1313.6875" xlink:href="#DejaVuSans-6a"/>
      <use x="1341.470703" xlink:href="#DejaVuSans-64"/>
     </g>
    </g>
   </g>
   <g id="line2d_32">
    <path clip-path="url(#pa9d4cd5275)" d="M 69.218182 44.443636 
L 69.274414 45.721473 
L 69.85642 68.542207 
L 70.458107 78.827715 
L 71.056982 90.126172 
L 71.720525 97.180128 
L 72.294096 109.460009 
L 72.909841 107.669591 
L 73.590253 107.665286 
L 74.169447 118.149247 
L 74.875164 121.594497 
L 75.578069 129.681959 
L 76.174133 124.879003 
L 76.829241 131.453699 
L 77.450609 131.178318 
L 78.057919 128.84273 
L 78.819869 140.839312 
L 79.553702 135.477626 
L 80.259419 140.285114 
L 81.015745 139.93898 
L 81.833927 140.812792 
L 82.486223 145.411779 
L 83.138519 148.241577 
L 83.987629 143.78622 
L 84.710216 149.477753 
L 85.472165 150.352601 
L 86.301593 151.329115 
L 87.069166 152.673414 
L 87.982943 153.990474 
L 88.722399 157.981764 
L 89.594002 157.931246 
L 90.378444 155.854292 
L 91.286598 157.884206 
L 92.009185 161.121462 
L 92.922962 158.578349 
L 93.738332 165.54791 
L 94.542455 163.184208 
L 95.380319 162.354298 
L 96.403749 165.797837 
L 97.2388 167.81497 
L 98.158201 171.574888 
L 99.097282 170.230696 
L 99.923899 166.31451 
L 100.922024 165.604526 
L 101.942643 170.301232 
L 103.067291 172.890801 
L 104.045736 173.27966 
L 105.097282 176.91999 
L 106.224742 170.695006 
L 107.430928 177.499974 
L 108.656795 180.501605 
L 109.68866 178.451026 
L 110.92015 180.79128 
L 112.264105 181.477289 
L 113.543393 175.053138 
L 114.721462 181.746462 
L 115.927648 184.759876 
L 117.190066 183.71837 
L 118.652109 178.475589 
L 120.080412 184.707496 
L 121.424367 185.102137 
L 123.001687 186.438669 
L 124.413121 185.170887 
L 126.139456 184.482072 
L 127.756139 186.625567 
L 129.395314 185.749703 
L 131.189128 190.413787 
L 132.957638 192.543711 
L 134.672727 192.086122 
L 136.576195 192.780937 
L 138.265979 194.764097 
L 140.121649 190.326182 
L 142.396251 193.853006 
L 144.533083 197.4171 
L 146.757076 197.12037 
L 149.189128 191.304933 
L 151.632427 192.171809 
L 153.895783 194.427518 
L 156.507779 201.353268 
L 159.392502 197.427817 
L 162.274414 198.621365 
L 165.035426 201.59278 
L 168.080412 196.433346 
L 171.333458 202.068704 
L 174.760825 201.637462 
L 178.750515 202.082216 
L 183.30253 202.411585 
L 187.79269 202.869439 
L 192.372821 208.439824 
L 197.402812 205.511887 
L 203.357826 207.345375 
L 208.817994 209.411295 
L 215.523711 209.376824 
L 223.609934 206.993111 
L 231.937957 212.351115 
L 242.48716 213.510975 
L 257.138519 217.015992 
L 276.091659 214.800978 
L 303.069166 218.679816 
L 373.581818 217.849606 
" style="fill:none;stroke:#1f77b4;stroke-linecap:square;stroke-width:1.5;"/>
   </g>
   <g id="line2d_33">
    <path clip-path="url(#pa9d4cd5275)" d="M 69.218182 97.91496 
L 69.274414 100.305345 
L 69.85642 120.309779 
L 70.458107 137.526829 
L 71.056982 147.032337 
L 71.720525 152.155158 
L 72.294096 158.598648 
L 72.909841 157.573601 
L 73.590253 162.43055 
L 74.169447 166.890982 
L 74.875164 174.225908 
L 75.578069 178.639161 
L 76.174133 180.203963 
L 76.829241 181.659871 
L 77.450609 180.937448 
L 78.057919 179.374001 
L 78.819869 186.033061 
L 79.553702 188.072752 
L 80.259419 187.039141 
L 81.015745 188.906638 
L 81.833927 195.59811 
L 82.486223 190.879168 
L 83.138519 190.338094 
L 83.987629 196.674242 
L 84.710216 191.910986 
L 85.472165 202.590617 
L 86.301593 198.933673 
L 87.069166 199.087072 
L 87.982943 199.172701 
L 88.722399 199.977708 
L 89.594002 204.692846 
L 90.378444 199.065272 
L 91.286598 202.978375 
L 92.009185 201.962183 
L 92.922962 206.58777 
L 93.738332 208.11509 
L 94.542455 203.126572 
L 95.380319 204.070644 
L 96.403749 208.576439 
L 97.2388 205.140994 
L 98.158201 206.250271 
L 99.097282 208.049595 
L 99.923899 206.137397 
L 100.922024 207.724521 
L 101.942643 208.006577 
L 103.067291 210.505869 
L 104.045736 208.767959 
L 105.097282 211.18875 
L 106.224742 208.426907 
L 107.430928 212.594068 
L 108.656795 211.891003 
L 109.68866 212.883702 
L 110.92015 213.210662 
L 112.264105 213.723042 
L 113.543393 212.587831 
L 114.721462 215.133557 
L 115.927648 216.372941 
L 117.190066 214.090441 
L 118.652109 212.317949 
L 120.080412 214.375175 
L 121.424367 212.916858 
L 123.001687 213.274579 
L 124.413121 213.573364 
L 126.139456 212.797868 
L 127.756139 216.485997 
L 129.395314 216.690718 
L 131.189128 216.625198 
L 132.957638 216.072251 
L 134.672727 215.115381 
L 136.576195 216.591646 
L 138.265979 216.911482 
L 140.121649 216.655281 
L 142.396251 212.984821 
L 144.533083 215.739912 
L 146.757076 213.121073 
L 149.189128 214.799403 
L 151.632427 213.013722 
L 153.895783 211.248759 
L 156.507779 213.630122 
L 159.392502 216.746863 
L 162.274414 212.129349 
L 165.035426 214.225024 
L 168.080412 213.821052 
L 171.333458 213.918354 
L 174.760825 214.478181 
L 178.750515 214.007462 
L 183.30253 211.511939 
L 187.79269 210.538504 
L 192.372821 213.981437 
L 197.402812 212.793087 
L 203.357826 208.584518 
L 208.817994 210.983783 
L 215.523711 206.78333 
L 223.609934 207.051483 
L 231.937957 205.300352 
L 242.48716 203.819786 
L 257.138519 204.430149 
L 276.091659 197.123684 
L 303.069166 202.969226 
L 373.581818 185.493999 
" style="fill:none;stroke:#ff7f0e;stroke-linecap:square;stroke-width:1.5;"/>
   </g>
   <g id="line2d_34">
    <path clip-path="url(#pa9d4cd5275)" d="M 69.218182 242.116364 
L 69.274414 242.116364 
L 69.85642 242.116364 
L 70.458107 242.116364 
L 71.056982 242.074791 
L 71.720525 242.116364 
L 72.294096 242.092601 
L 72.909841 242.116364 
L 73.590253 242.116364 
L 74.169447 242.116364 
L 74.875164 242.116364 
L 75.578069 242.060945 
L 76.174133 242.116364 
L 76.829241 242.021416 
L 77.450609 242.054024 
L 78.057919 242.038152 
L 78.819869 242.107607 
L 79.553702 241.793898 
L 80.259419 241.90075 
L 81.015745 242.093681 
L 81.833927 242.109431 
L 82.486223 241.785775 
L 83.138519 242.018207 
L 83.987629 241.723394 
L 84.710216 242.030408 
L 85.472165 241.693766 
L 86.301593 241.941371 
L 87.069166 241.945209 
L 87.982943 241.801982 
L 88.722399 241.713725 
L 89.594002 241.687412 
L 90.378444 241.740456 
L 91.286598 241.683419 
L 92.009185 241.693698 
L 92.922962 241.118646 
L 93.738332 241.069991 
L 94.542455 241.400581 
L 95.380319 241.706815 
L 96.403749 241.468561 
L 97.2388 241.417871 
L 98.158201 241.229652 
L 99.097282 241.567357 
L 99.923899 241.539761 
L 100.922024 241.163963 
L 101.942643 241.175954 
L 103.067291 240.97346 
L 104.045736 240.895829 
L 105.097282 240.9558 
L 106.224742 241.063002 
L 107.430928 240.388231 
L 108.656795 240.693725 
L 109.68866 240.05133 
L 110.92015 240.759308 
L 112.264105 239.676918 
L 113.543393 240.414034 
L 114.721462 240.885445 
L 115.927648 239.843963 
L 117.190066 240.149416 
L 118.652109 240.339109 
L 120.080412 239.132282 
L 121.424367 238.816513 
L 123.001687 239.807102 
L 124.413121 239.495195 
L 126.139456 238.765936 
L 127.756139 239.321138 
L 129.395314 239.888597 
L 131.189128 239.274747 
L 132.957638 238.676513 
L 134.672727 237.880976 
L 136.576195 237.253911 
L 138.265979 238.467062 
L 140.121649 237.548039 
L 142.396251 236.588448 
L 144.533083 236.894191 
L 146.757076 236.037155 
L 149.189128 236.784022 
L 151.632427 236.332132 
L 153.895783 236.018816 
L 156.507779 234.505319 
L 159.392502 234.262825 
L 162.274414 234.218487 
L 165.035426 232.96631 
L 168.080412 234.980474 
L 171.333458 234.697821 
L 174.760825 233.842887 
L 178.750515 232.981192 
L 183.30253 232.719466 
L 187.79269 232.486454 
L 192.372821 231.857917 
L 197.402812 231.521623 
L 203.357826 230.124632 
L 208.817994 228.715848 
L 215.523711 229.305419 
L 223.609934 228.205768 
L 231.937957 226.300924 
L 242.48716 223.147506 
L 257.138519 221.310979 
L 276.091659 219.297087 
L 303.069166 218.296721 
L 373.581818 211.134012 
" style="fill:none;stroke:#2ca02c;stroke-linecap:square;stroke-width:1.5;"/>
   </g>
   <g id="line2d_35">
    <path clip-path="url(#pa9d4cd5275)" d="M 69.218182 175.464075 
L 69.274414 176.0531 
L 69.85642 191.102354 
L 70.458107 185.416763 
L 71.056982 188.444505 
L 71.720525 186.654366 
L 72.294096 192.532907 
L 72.909841 187.820556 
L 73.590253 180.684632 
L 74.169447 189.841987 
L 74.875164 186.347901 
L 75.578069 190.878574 
L 76.174133 184.916674 
L 76.829241 189.644857 
L 77.450609 188.723313 
L 78.057919 183.821247 
L 78.819869 192.448618 
L 79.553702 184.19093 
L 80.259419 186.926228 
L 81.015745 184.684839 
L 81.833927 183.486901 
L 82.486223 185.651936 
L 83.138519 190.147988 
L 83.987629 183.488887 
L 84.710216 186.881332 
L 85.472165 186.284507 
L 86.301593 186.129823 
L 87.069166 185.091083 
L 87.982943 184.476814 
L 88.722399 187.462564 
L 89.594002 187.074999 
L 90.378444 184.543509 
L 91.286598 184.68373 
L 92.009185 185.916597 
L 92.922962 183.536681 
L 93.738332 188.380526 
L 94.542455 185.218183 
L 95.380319 185.217137 
L 96.403749 184.698987 
L 97.2388 186.231571 
L 98.158201 189.214099 
L 99.097282 188.063743 
L 99.923899 183.538535 
L 100.922024 182.004183 
L 101.942643 186.026513 
L 103.067291 186.795249 
L 104.045736 185.962329 
L 105.097282 189.404312 
L 106.224742 183.290303 
L 107.430928 187.483787 
L 108.656795 188.975696 
L 109.68866 187.92675 
L 110.92015 189.427892 
L 112.264105 187.557787 
L 113.543393 182.233363 
L 114.721462 187.255766 
L 115.927648 189.430623 
L 117.190066 187.911501 
L 118.652109 182.418553 
L 120.080412 186.527782 
L 121.424367 186.78394 
L 123.001687 187.72159 
L 124.413121 185.791745 
L 126.139456 184.959021 
L 127.756139 186.20194 
L 129.395314 185.120713 
L 131.189128 187.352623 
L 132.957638 188.389185 
L 134.672727 186.631547 
L 136.576195 187.631147 
L 138.265979 188.847479 
L 140.121649 184.944725 
L 142.396251 185.617328 
L 144.533083 188.51089 
L 146.757076 188.45342 
L 149.189128 181.747399 
L 151.632427 180.872785 
L 153.895783 183.805201 
L 156.507779 188.400313 
L 159.392502 184.918905 
L 162.274414 184.838777 
L 165.035426 187.983772 
L 168.080412 182.901893 
L 171.333458 187.073282 
L 174.760825 186.006168 
L 178.750515 186.255533 
L 183.30253 183.941748 
L 187.79269 183.599771 
L 192.372821 190.124512 
L 197.402812 186.850788 
L 203.357826 185.800657 
L 208.817994 186.325711 
L 215.523711 185.979532 
L 223.609934 184.219773 
L 231.937957 188.170958 
L 242.48716 186.793056 
L 257.138519 188.874555 
L 276.091659 185.614565 
L 303.069166 188.853616 
L 373.581818 181.574242 
" style="fill:none;stroke:#d62728;stroke-linecap:square;stroke-width:1.5;"/>
   </g>
   <g id="line2d_36">
    <path clip-path="url(#pa9d4cd5275)" d="M 69.218182 154.338626 
L 69.274414 154.243543 
L 69.85642 175.173427 
L 70.458107 187.325324 
L 71.056982 187.409349 
L 71.720525 179.317325 
L 72.294096 189.280727 
L 72.909841 188.820711 
L 73.590253 177.065131 
L 74.169447 185.476542 
L 74.875164 186.778798 
L 75.578069 190.264592 
L 76.174133 181.648438 
L 76.829241 188.462753 
L 77.450609 189.372625 
L 78.057919 182.282996 
L 78.819869 190.610318 
L 79.553702 184.795438 
L 80.259419 185.839074 
L 81.015745 182.965907 
L 81.833927 183.963322 
L 82.486223 184.624907 
L 83.138519 188.584563 
L 83.987629 183.93361 
L 84.710216 186.519687 
L 85.472165 185.056683 
L 86.301593 186.591045 
L 87.069166 184.312083 
L 87.982943 183.992661 
L 88.722399 187.894963 
L 89.594002 186.029851 
L 90.378444 184.31845 
L 91.286598 184.775459 
L 92.009185 185.011408 
L 92.922962 183.790689 
L 93.738332 188.080682 
L 94.542455 184.631818 
L 95.380319 185.503511 
L 96.403749 183.999784 
L 97.2388 186.350074 
L 98.158201 189.120823 
L 99.097282 187.64848 
L 99.923899 183.859516 
L 100.922024 181.449453 
L 101.942643 186.20141 
L 103.067291 186.302256 
L 104.045736 186.033118 
L 105.097282 189.216615 
L 106.224742 183.358235 
L 107.430928 187.284886 
L 108.656795 189.1935 
L 109.68866 187.684336 
L 110.92015 189.552861 
L 112.264105 187.246104 
L 113.543393 182.465582 
L 114.721462 187.059744 
L 115.927648 189.537869 
L 117.190066 187.79981 
L 118.652109 182.314536 
L 120.080412 186.660141 
L 121.424367 186.675991 
L 123.001687 187.708722 
L 124.413121 185.953261 
L 126.139456 184.937725 
L 127.756139 186.094159 
L 129.395314 185.210446 
L 131.189128 187.462798 
L 132.957638 188.375378 
L 134.672727 186.562686 
L 136.576195 187.63711 
L 138.265979 188.989548 
L 140.121649 184.981058 
L 142.396251 185.703609 
L 144.533083 188.59798 
L 146.757076 188.499283 
L 149.189128 181.797319 
L 151.632427 181.002705 
L 153.895783 183.902173 
L 156.507779 188.490678 
L 159.392502 185.008018 
L 162.274414 184.971403 
L 165.035426 188.078895 
L 168.080412 183.009659 
L 171.333458 187.17793 
L 174.760825 186.140649 
L 178.750515 186.374257 
L 183.30253 184.076353 
L 187.79269 183.746344 
L 192.372821 190.217818 
L 197.402812 186.949423 
L 203.357826 185.939234 
L 208.817994 186.434599 
L 215.523711 186.095704 
L 223.609934 184.335317 
L 231.937957 188.280307 
L 242.48716 186.940189 
L 257.138519 189.039801 
L 276.091659 185.740209 
L 303.069166 188.96697 
L 373.581818 181.730647 
" style="fill:none;stroke:#9467bd;stroke-linecap:square;stroke-width:1.5;"/>
   </g>
   <g id="line2d_37">
    <path clip-path="url(#pa9d4cd5275)" d="M 69.218182 132.397098 
L 69.274414 132.060231 
L 69.85642 154.449901 
L 70.458107 168.161054 
L 71.056982 173.778423 
L 71.720525 181.038518 
L 72.294096 191.37893 
L 72.909841 190.481201 
L 73.590253 171.15274 
L 74.169447 178.437941 
L 74.875164 179.93448 
L 75.578069 186.431631 
L 76.174133 182.810778 
L 76.829241 189.910854 
L 77.450609 190.556152 
L 78.057919 179.401031 
L 78.819869 186.741692 
L 79.553702 180.749516 
L 80.259419 185.126732 
L 81.015745 183.958696 
L 81.833927 184.864311 
L 82.486223 182.767596 
L 83.138519 185.750135 
L 83.987629 180.982325 
L 84.710216 185.343646 
L 85.472165 185.95855 
L 86.301593 187.479484 
L 87.069166 182.996477 
L 87.982943 181.794753 
L 88.722399 185.841143 
L 89.594002 186.762892 
L 90.378444 185.182889 
L 91.286598 184.742294 
L 92.009185 183.41313 
L 92.922962 182.13957 
L 93.738332 187.923892 
L 94.542455 185.473037 
L 95.380319 186.193352 
L 96.403749 182.713007 
L 97.2388 184.955649 
L 98.158201 188.859754 
L 99.097282 188.26868 
L 99.923899 184.556073 
L 100.922024 180.33256 
L 101.942643 185.041029 
L 103.067291 186.805708 
L 104.045736 186.639097 
L 105.097282 188.913233 
L 106.224742 182.386821 
L 107.430928 187.435032 
L 108.656795 189.878671 
L 109.68866 187.115174 
L 110.92015 188.783782 
L 112.264105 187.768214 
L 113.543393 182.900838 
L 114.721462 186.388512 
L 115.927648 189.275785 
L 117.190066 188.393163 
L 118.652109 182.132746 
L 120.080412 186.216341 
L 121.424367 187.248134 
L 123.001687 187.62373 
L 124.413121 185.474424 
L 126.139456 185.535669 
L 127.756139 185.952692 
L 129.395314 185.140535 
L 131.189128 187.992794 
L 132.957638 188.039021 
L 134.672727 186.970654 
L 136.576195 187.667935 
L 138.265979 188.85866 
L 140.121649 185.419 
L 142.396251 185.536265 
L 144.533083 189.03754 
L 146.757076 188.395315 
L 149.189128 182.19933 
L 151.632427 181.008027 
L 153.895783 184.232088 
L 156.507779 188.614398 
L 159.392502 185.050937 
L 162.274414 185.389663 
L 165.035426 188.146298 
L 168.080412 183.16264 
L 171.333458 187.493862 
L 174.760825 186.382082 
L 178.750515 186.605666 
L 183.30253 184.312151 
L 187.79269 183.970761 
L 192.372821 190.40158 
L 197.402812 187.172923 
L 203.357826 186.139305 
L 208.817994 186.692442 
L 215.523711 186.354233 
L 223.609934 184.629721 
L 231.937957 188.51458 
L 242.48716 187.239632 
L 257.138519 189.337889 
L 276.091659 186.017516 
L 303.069166 189.193262 
L 373.581818 182.011282 
" style="fill:none;stroke:#8c564b;stroke-linecap:square;stroke-width:1.5;"/>
   </g>
   <g id="line2d_38">
    <path clip-path="url(#pa9d4cd5275)" d="M 69.218182 96.906003 
L 69.274414 102.177027 
L 69.85642 120.04045 
L 70.458107 135.481886 
L 71.056982 141.122021 
L 71.720525 145.88782 
L 72.294096 154.796029 
L 72.909841 150.903245 
L 73.590253 157.875576 
L 74.169447 162.455647 
L 74.875164 164.853028 
L 75.578069 166.446805 
L 76.174133 170.035088 
L 76.829241 173.247696 
L 77.450609 169.815656 
L 78.057919 170.227336 
L 78.819869 176.400936 
L 79.553702 174.749214 
L 80.259419 177.609717 
L 81.015745 177.827503 
L 81.833927 181.873761 
L 82.486223 179.824486 
L 83.138519 183.174135 
L 83.987629 180.565798 
L 84.710216 181.362152 
L 85.472165 185.684384 
L 86.301593 183.581581 
L 87.069166 185.84797 
L 87.982943 184.518526 
L 88.722399 185.765814 
L 89.594002 189.660085 
L 90.378444 185.124988 
L 91.286598 187.07291 
L 92.009185 188.026451 
L 92.922962 186.658031 
L 93.738332 191.875315 
L 94.542455 188.47131 
L 95.380319 189.177758 
L 96.403749 191.165247 
L 97.2388 190.29804 
L 98.158201 193.3333 
L 99.097282 191.559463 
L 99.923899 188.577172 
L 100.922024 190.15249 
L 101.942643 193.120602 
L 103.067291 193.028549 
L 104.045736 191.72012 
L 105.097282 197.37748 
L 106.224742 190.76504 
L 107.430928 195.720026 
L 108.656795 196.347857 
L 109.68866 197.107703 
L 110.92015 198.092601 
L 112.264105 196.965993 
L 113.543393 193.471201 
L 114.721462 197.574434 
L 115.927648 200.484285 
L 117.190066 197.265186 
L 118.652109 194.593977 
L 120.080412 197.429429 
L 121.424367 197.930892 
L 123.001687 197.431611 
L 124.413121 196.84919 
L 126.139456 197.218114 
L 127.756139 198.342744 
L 129.395314 197.110104 
L 131.189128 199.341078 
L 132.957638 199.858882 
L 134.672727 199.375582 
L 136.576195 199.833631 
L 138.265979 201.464489 
L 140.121649 197.802034 
L 142.396251 199.320959 
L 144.533083 200.757528 
L 146.757076 201.828835 
L 149.189128 197.72502 
L 151.632427 197.781346 
L 153.895783 198.87711 
L 156.507779 203.685449 
L 159.392502 201.120388 
L 162.274414 199.118573 
L 165.035426 202.985141 
L 168.080412 199.223543 
L 171.333458 202.030395 
L 174.760825 201.826054 
L 178.750515 203.591334 
L 183.30253 200.728307 
L 187.79269 201.52079 
L 192.372821 206.364316 
L 197.402812 204.197859 
L 203.357826 203.479376 
L 208.817994 204.814124 
L 215.523711 203.188641 
L 223.609934 201.493376 
L 231.937957 206.606586 
L 242.48716 206.438816 
L 257.138519 208.834094 
L 276.091659 204.814158 
L 303.069166 209.651817 
L 373.581818 203.736455 
" style="fill:none;stroke:#e377c2;stroke-linecap:square;stroke-width:1.5;"/>
   </g>
   <g id="line2d_39">
    <path clip-path="url(#pa9d4cd5275)" d="M 69.218182 239.096145 
L 69.274414 240.651524 
L 69.85642 241.375885 
L 70.458107 241.240549 
L 71.056982 240.931349 
L 71.720525 238.93949 
L 72.294096 240.375911 
L 72.909841 240.492673 
L 73.590253 238.574726 
L 74.169447 237.94616 
L 74.875164 237.782638 
L 75.578069 158.408539 
L 76.174133 121.528288 
L 76.829241 128.434411 
L 77.450609 128.211153 
L 78.057919 125.7115 
L 78.819869 137.713169 
L 79.553702 132.260215 
L 80.259419 137.176037 
L 81.015745 136.755159 
L 81.833927 137.66968 
L 82.486223 142.229877 
L 83.138519 145.267464 
L 83.987629 140.749611 
L 84.710216 146.393087 
L 85.472165 147.18375 
L 86.301593 148.164269 
L 87.069166 149.615388 
L 87.982943 150.845351 
L 88.722399 154.921068 
L 89.594002 154.865945 
L 90.378444 152.674067 
L 91.286598 154.677744 
L 92.009185 157.736497 
L 92.922962 155.227416 
L 93.738332 162.166575 
L 94.542455 160.002665 
L 95.380319 159.337001 
L 96.403749 162.836905 
L 97.2388 164.685365 
L 98.158201 168.356416 
L 99.097282 167.088123 
L 99.923899 163.176857 
L 100.922024 162.355233 
L 101.942643 167.296843 
L 103.067291 169.804891 
L 104.045736 170.059269 
L 105.097282 173.863407 
L 106.224742 167.495004 
L 107.430928 174.386803 
L 108.656795 177.255685 
L 109.68866 175.330913 
L 110.92015 177.732671 
L 112.264105 178.471033 
L 113.543393 171.832794 
L 114.721462 178.578142 
L 115.927648 181.578344 
L 117.190066 180.494711 
L 118.652109 175.195628 
L 120.080412 181.464667 
L 121.424367 182.065188 
L 123.001687 183.325857 
L 124.413121 182.054607 
L 126.139456 181.275698 
L 127.756139 183.492017 
L 129.395314 182.704196 
L 131.189128 187.194177 
L 132.957638 189.473003 
L 134.672727 188.857246 
L 136.576195 189.605829 
L 138.265979 191.538627 
L 140.121649 187.263939 
L 142.396251 190.576335 
L 144.533083 194.102501 
L 146.757076 193.97052 
L 149.189128 188.247867 
L 151.632427 188.845443 
L 153.895783 191.192231 
L 156.507779 198.092067 
L 159.392502 194.192961 
L 162.274414 195.525474 
L 165.035426 198.5287 
L 168.080412 193.34673 
L 171.333458 198.874725 
L 174.760825 198.598212 
L 178.750515 198.974163 
L 183.30253 199.21691 
L 187.79269 199.735842 
L 192.372821 205.420436 
L 197.402812 202.554371 
L 203.357826 204.168069 
L 208.817994 206.237871 
L 215.523711 206.086445 
L 223.609934 203.949025 
L 231.937957 209.326664 
L 242.48716 210.346509 
L 257.138519 213.907422 
L 276.091659 211.60455 
L 303.069166 215.653003 
L 373.581818 214.723197 
" style="fill:none;stroke:#7f7f7f;stroke-linecap:square;stroke-width:1.5;"/>
   </g>
   <g id="line2d_40">
    <path clip-path="url(#pa9d4cd5275)" d="M 69.218182 228.512126 
L 69.274414 229.981388 
L 69.85642 236.56123 
L 70.458107 238.036809 
L 71.056982 238.493793 
L 71.720525 239.258631 
L 72.294096 240.803518 
L 72.909841 240.631626 
L 73.590253 240.951427 
L 74.169447 241.218946 
L 74.875164 228.188718 
L 75.578069 225.837915 
L 76.174133 228.641161 
L 76.829241 231.38912 
L 77.450609 229.016216 
L 78.057919 229.689543 
L 78.819869 230.326489 
L 79.553702 230.632994 
L 80.259419 231.931666 
L 81.015745 232.121155 
L 81.833927 229.638596 
L 82.486223 232.090981 
L 83.138519 233.543435 
L 83.987629 233.161383 
L 84.710216 235.00529 
L 85.472165 233.587335 
L 86.301593 233.40901 
L 87.069166 235.103938 
L 87.982943 235.488139 
L 88.722399 234.699717 
L 89.594002 215.121753 
L 90.378444 213.44477 
L 91.286598 215.28025 
L 92.009185 215.391868 
L 92.922962 215.810387 
L 93.738332 214.109122 
L 94.542455 217.149107 
L 95.380319 219.044403 
L 96.403749 213.16931 
L 97.2388 217.673737 
L 98.158201 216.301784 
L 99.097282 220.713946 
L 99.923899 220.779089 
L 100.922024 219.478345 
L 101.942643 218.970941 
L 103.067291 221.481109 
L 104.045736 221.13983 
L 105.097282 222.025383 
L 106.224742 221.197426 
L 107.430928 220.985951 
L 108.656795 220.927303 
L 109.68866 221.397129 
L 110.92015 223.858268 
L 112.264105 221.950282 
L 113.543393 201.077694 
L 114.721462 162.092557 
L 115.927648 165.205357 
L 117.190066 163.160664 
L 118.652109 157.727819 
L 120.080412 164.76526 
L 121.424367 166.385278 
L 123.001687 166.75752 
L 124.413121 165.34227 
L 126.139456 164.470548 
L 127.756139 166.336239 
L 129.395314 167.03597 
L 131.189128 169.78932 
L 132.957638 173.24172 
L 134.672727 171.886416 
L 136.576195 172.623178 
L 138.265979 175.407795 
L 140.121649 170.32346 
L 142.396251 173.945561 
L 144.533083 177.313521 
L 146.757076 178.044284 
L 149.189128 171.550449 
L 151.632427 171.081374 
L 153.895783 174.932286 
L 156.507779 181.439032 
L 159.392502 177.450089 
L 162.274414 178.659053 
L 165.035426 181.286272 
L 168.080412 177.234814 
L 171.333458 182.685505 
L 174.760825 182.318608 
L 178.750515 182.189251 
L 183.30253 183.050317 
L 187.79269 182.692633 
L 192.372821 190.174345 
L 197.402812 186.430275 
L 203.357826 187.718134 
L 208.817994 189.530589 
L 215.523711 189.355602 
L 223.609934 187.876249 
L 231.937957 193.910427 
L 242.48716 193.919385 
L 257.138519 197.214886 
L 276.091659 195.706235 
L 303.069166 199.941671 
L 373.581818 198.486715 
" style="fill:none;stroke:#bcbd22;stroke-linecap:square;stroke-width:1.5;"/>
   </g>
   <g id="patch_3">
    <path d="M 54 252 
L 54 34.56 
" style="fill:none;stroke:#000000;stroke-linecap:square;stroke-linejoin:miter;stroke-width:0.8;"/>
   </g>
   <g id="patch_4">
    <path d="M 388.8 252 
L 388.8 34.56 
" style="fill:none;stroke:#000000;stroke-linecap:square;stroke-linejoin:miter;stroke-width:0.8;"/>
   </g>
   <g id="patch_5">
    <path d="M 54 252 
L 388.8 252 
" style="fill:none;stroke:#000000;stroke-linecap:square;stroke-linejoin:miter;stroke-width:0.8;"/>
   </g>
   <g id="patch_6">
    <path d="M 54 34.56 
L 388.8 34.56 
" style="fill:none;stroke:#000000;stroke-linecap:square;stroke-linejoin:miter;stroke-width:0.8;"/>
   </g>
   <g id="legend_1">
    <g id="patch_7">
     <path d="M 220.735938 174.663125 
L 381.8 174.663125 
Q 383.8 174.663125 383.8 172.663125 
L 383.8 41.56 
Q 383.8 39.56 381.8 39.56 
L 220.735938 39.56 
Q 218.735938 39.56 218.735938 41.56 
L 218.735938 172.663125 
Q 218.735938 174.663125 220.735938 174.663125 
z
" style="fill:#ffffff;opacity:0.8;stroke:#cccccc;stroke-linejoin:miter;"/>
    </g>
    <g id="line2d_41">
     <path d="M 222.735938 47.658437 
L 242.735938 47.658437 
" style="fill:none;stroke:#1f77b4;stroke-linecap:square;stroke-width:1.5;"/>
    </g>
    <g id="line2d_42"/>
    <g id="text_12">
     <!-- FCFS -->
     <g transform="translate(250.735938 51.158437)scale(0.1 -0.1)">
      <defs>
       <path d="M 628 4666 
L 3309 4666 
L 3309 4134 
L 1259 4134 
L 1259 2759 
L 3109 2759 
L 3109 2228 
L 1259 2228 
L 1259 0 
L 628 0 
L 628 4666 
z
" id="DejaVuSans-46" transform="scale(0.015625)"/>
       <path d="M 4122 4306 
L 4122 3641 
Q 3803 3938 3442 4084 
Q 3081 4231 2675 4231 
Q 1875 4231 1450 3742 
Q 1025 3253 1025 2328 
Q 1025 1406 1450 917 
Q 1875 428 2675 428 
Q 3081 428 3442 575 
Q 3803 722 4122 1019 
L 4122 359 
Q 3791 134 3420 21 
Q 3050 -91 2638 -91 
Q 1578 -91 968 557 
Q 359 1206 359 2328 
Q 359 3453 968 4101 
Q 1578 4750 2638 4750 
Q 3056 4750 3426 4639 
Q 3797 4528 4122 4306 
z
" id="DejaVuSans-43" transform="scale(0.015625)"/>
       <path d="M 3425 4513 
L 3425 3897 
Q 3066 4069 2747 4153 
Q 2428 4238 2131 4238 
Q 1616 4238 1336 4038 
Q 1056 3838 1056 3469 
Q 1056 3159 1242 3001 
Q 1428 2844 1947 2747 
L 2328 2669 
Q 3034 2534 3370 2195 
Q 3706 1856 3706 1288 
Q 3706 609 3251 259 
Q 2797 -91 1919 -91 
Q 1588 -91 1214 -16 
Q 841 59 441 206 
L 441 856 
Q 825 641 1194 531 
Q 1563 422 1919 422 
Q 2459 422 2753 634 
Q 3047 847 3047 1241 
Q 3047 1584 2836 1778 
Q 2625 1972 2144 2069 
L 1759 2144 
Q 1053 2284 737 2584 
Q 422 2884 422 3419 
Q 422 4038 858 4394 
Q 1294 4750 2059 4750 
Q 2388 4750 2728 4690 
Q 3069 4631 3425 4513 
z
" id="DejaVuSans-53" transform="scale(0.015625)"/>
      </defs>
      <use xlink:href="#DejaVuSans-46"/>
      <use x="57.519531" xlink:href="#DejaVuSans-43"/>
      <use x="127.34375" xlink:href="#DejaVuSans-46"/>
      <use x="183.113281" xlink:href="#DejaVuSans-53"/>
     </g>
    </g>
    <g id="line2d_43">
     <path d="M 222.735938 62.336563 
L 242.735938 62.336563 
" style="fill:none;stroke:#ff7f0e;stroke-linecap:square;stroke-width:1.5;"/>
    </g>
    <g id="line2d_44"/>
    <g id="text_13">
     <!-- SJF -->
     <g transform="translate(250.735938 65.836563)scale(0.1 -0.1)">
      <defs>
       <path d="M 628 4666 
L 1259 4666 
L 1259 325 
Q 1259 -519 939 -900 
Q 619 -1281 -91 -1281 
L -331 -1281 
L -331 -750 
L -134 -750 
Q 284 -750 456 -515 
Q 628 -281 628 325 
L 628 4666 
z
" id="DejaVuSans-4a" transform="scale(0.015625)"/>
      </defs>
      <use xlink:href="#DejaVuSans-53"/>
      <use x="63.476562" xlink:href="#DejaVuSans-4a"/>
      <use x="92.96875" xlink:href="#DejaVuSans-46"/>
     </g>
    </g>
    <g id="line2d_45">
     <path d="M 222.735938 77.014687 
L 242.735938 77.014687 
" style="fill:none;stroke:#2ca02c;stroke-linecap:square;stroke-width:1.5;"/>
    </g>
    <g id="line2d_46"/>
    <g id="text_14">
     <!-- SRT -->
     <g transform="translate(250.735938 80.514687)scale(0.1 -0.1)">
      <defs>
       <path d="M 2841 2188 
Q 3044 2119 3236 1894 
Q 3428 1669 3622 1275 
L 4263 0 
L 3584 0 
L 2988 1197 
Q 2756 1666 2539 1819 
Q 2322 1972 1947 1972 
L 1259 1972 
L 1259 0 
L 628 0 
L 628 4666 
L 2053 4666 
Q 2853 4666 3247 4331 
Q 3641 3997 3641 3322 
Q 3641 2881 3436 2590 
Q 3231 2300 2841 2188 
z
M 1259 4147 
L 1259 2491 
L 2053 2491 
Q 2509 2491 2742 2702 
Q 2975 2913 2975 3322 
Q 2975 3731 2742 3939 
Q 2509 4147 2053 4147 
L 1259 4147 
z
" id="DejaVuSans-52" transform="scale(0.015625)"/>
       <path d="M -19 4666 
L 3928 4666 
L 3928 4134 
L 2272 4134 
L 2272 0 
L 1638 0 
L 1638 4134 
L -19 4134 
L -19 4666 
z
" id="DejaVuSans-54" transform="scale(0.015625)"/>
      </defs>
      <use xlink:href="#DejaVuSans-53"/>
      <use x="63.476562" xlink:href="#DejaVuSans-52"/>
      <use x="125.708984" xlink:href="#DejaVuSans-54"/>
     </g>
    </g>
    <g id="line2d_47">
     <path d="M 222.735938 91.692813 
L 242.735938 91.692813 
" style="fill:none;stroke:#d62728;stroke-linecap:square;stroke-width:1.5;"/>
    </g>
    <g id="line2d_48"/>
    <g id="text_15">
     <!-- RR met q=2 -->
     <g transform="translate(250.735938 95.192813)scale(0.1 -0.1)">
      <defs>
       <path d="M 947 1747 
Q 947 1113 1208 752 
Q 1469 391 1925 391 
Q 2381 391 2643 752 
Q 2906 1113 2906 1747 
Q 2906 2381 2643 2742 
Q 2381 3103 1925 3103 
Q 1469 3103 1208 2742 
Q 947 2381 947 1747 
z
M 2906 525 
Q 2725 213 2448 61 
Q 2172 -91 1784 -91 
Q 1150 -91 751 415 
Q 353 922 353 1747 
Q 353 2572 751 3078 
Q 1150 3584 1784 3584 
Q 2172 3584 2448 3432 
Q 2725 3281 2906 2969 
L 2906 3500 
L 3481 3500 
L 3481 -1331 
L 2906 -1331 
L 2906 525 
z
" id="DejaVuSans-71" transform="scale(0.015625)"/>
       <path d="M 678 2906 
L 4684 2906 
L 4684 2381 
L 678 2381 
L 678 2906 
z
M 678 1631 
L 4684 1631 
L 4684 1100 
L 678 1100 
L 678 1631 
z
" id="DejaVuSans-3d" transform="scale(0.015625)"/>
      </defs>
      <use xlink:href="#DejaVuSans-52"/>
      <use x="69.482422" xlink:href="#DejaVuSans-52"/>
      <use x="138.964844" xlink:href="#DejaVuSans-20"/>
      <use x="170.751953" xlink:href="#DejaVuSans-6d"/>
      <use x="268.164062" xlink:href="#DejaVuSans-65"/>
      <use x="329.6875" xlink:href="#DejaVuSans-74"/>
      <use x="368.896484" xlink:href="#DejaVuSans-20"/>
      <use x="400.683594" xlink:href="#DejaVuSans-71"/>
      <use x="464.160156" xlink:href="#DejaVuSans-3d"/>
      <use x="547.949219" xlink:href="#DejaVuSans-32"/>
     </g>
    </g>
    <g id="line2d_49">
     <path d="M 222.735938 106.370937 
L 242.735938 106.370937 
" style="fill:none;stroke:#9467bd;stroke-linecap:square;stroke-width:1.5;"/>
    </g>
    <g id="line2d_50"/>
    <g id="text_16">
     <!-- RR met q=4 -->
     <g transform="translate(250.735938 109.870937)scale(0.1 -0.1)">
      <use xlink:href="#DejaVuSans-52"/>
      <use x="69.482422" xlink:href="#DejaVuSans-52"/>
      <use x="138.964844" xlink:href="#DejaVuSans-20"/>
      <use x="170.751953" xlink:href="#DejaVuSans-6d"/>
      <use x="268.164062" xlink:href="#DejaVuSans-65"/>
      <use x="329.6875" xlink:href="#DejaVuSans-74"/>
      <use x="368.896484" xlink:href="#DejaVuSans-20"/>
      <use x="400.683594" xlink:href="#DejaVuSans-71"/>
      <use x="464.160156" xlink:href="#DejaVuSans-3d"/>
      <use x="547.949219" xlink:href="#DejaVuSans-34"/>
     </g>
    </g>
    <g id="line2d_51">
     <path d="M 222.735938 121.049062 
L 242.735938 121.049062 
" style="fill:none;stroke:#8c564b;stroke-linecap:square;stroke-width:1.5;"/>
    </g>
    <g id="line2d_52"/>
    <g id="text_17">
     <!-- RR met q=8 -->
     <g transform="translate(250.735938 124.549062)scale(0.1 -0.1)">
      <defs>
       <path d="M 2034 2216 
Q 1584 2216 1326 1975 
Q 1069 1734 1069 1313 
Q 1069 891 1326 650 
Q 1584 409 2034 409 
Q 2484 409 2743 651 
Q 3003 894 3003 1313 
Q 3003 1734 2745 1975 
Q 2488 2216 2034 2216 
z
M 1403 2484 
Q 997 2584 770 2862 
Q 544 3141 544 3541 
Q 544 4100 942 4425 
Q 1341 4750 2034 4750 
Q 2731 4750 3128 4425 
Q 3525 4100 3525 3541 
Q 3525 3141 3298 2862 
Q 3072 2584 2669 2484 
Q 3125 2378 3379 2068 
Q 3634 1759 3634 1313 
Q 3634 634 3220 271 
Q 2806 -91 2034 -91 
Q 1263 -91 848 271 
Q 434 634 434 1313 
Q 434 1759 690 2068 
Q 947 2378 1403 2484 
z
M 1172 3481 
Q 1172 3119 1398 2916 
Q 1625 2713 2034 2713 
Q 2441 2713 2670 2916 
Q 2900 3119 2900 3481 
Q 2900 3844 2670 4047 
Q 2441 4250 2034 4250 
Q 1625 4250 1398 4047 
Q 1172 3844 1172 3481 
z
" id="DejaVuSans-38" transform="scale(0.015625)"/>
      </defs>
      <use xlink:href="#DejaVuSans-52"/>
      <use x="69.482422" xlink:href="#DejaVuSans-52"/>
      <use x="138.964844" xlink:href="#DejaVuSans-20"/>
      <use x="170.751953" xlink:href="#DejaVuSans-6d"/>
      <use x="268.164062" xlink:href="#DejaVuSans-65"/>
      <use x="329.6875" xlink:href="#DejaVuSans-74"/>
      <use x="368.896484" xlink:href="#DejaVuSans-20"/>
      <use x="400.683594" xlink:href="#DejaVuSans-71"/>
      <use x="464.160156" xlink:href="#DejaVuSans-3d"/>
      <use x="547.949219" xlink:href="#DejaVuSans-38"/>
     </g>
    </g>
    <g id="line2d_53">
     <path d="M 222.735938 135.727187 
L 242.735938 135.727187 
" style="fill:none;stroke:#e377c2;stroke-linecap:square;stroke-width:1.5;"/>
    </g>
    <g id="line2d_54"/>
    <g id="text_18">
     <!-- HRRN -->
     <g transform="translate(250.735938 139.227187)scale(0.1 -0.1)">
      <defs>
       <path d="M 628 4666 
L 1259 4666 
L 1259 2753 
L 3553 2753 
L 3553 4666 
L 4184 4666 
L 4184 0 
L 3553 0 
L 3553 2222 
L 1259 2222 
L 1259 0 
L 628 0 
L 628 4666 
z
" id="DejaVuSans-48" transform="scale(0.015625)"/>
       <path d="M 628 4666 
L 1478 4666 
L 3547 763 
L 3547 4666 
L 4159 4666 
L 4159 0 
L 3309 0 
L 1241 3903 
L 1241 0 
L 628 0 
L 628 4666 
z
" id="DejaVuSans-4e" transform="scale(0.015625)"/>
      </defs>
      <use xlink:href="#DejaVuSans-48"/>
      <use x="75.195312" xlink:href="#DejaVuSans-52"/>
      <use x="144.677734" xlink:href="#DejaVuSans-52"/>
      <use x="214.160156" xlink:href="#DejaVuSans-4e"/>
     </g>
    </g>
    <g id="line2d_55">
     <path d="M 222.735938 150.405312 
L 242.735938 150.405312 
" style="fill:none;stroke:#7f7f7f;stroke-linecap:square;stroke-width:1.5;"/>
    </g>
    <g id="line2d_56"/>
    <g id="text_19">
     <!-- MLFB met q=1 -->
     <g transform="translate(250.735938 153.905312)scale(0.1 -0.1)">
      <defs>
       <path d="M 628 4666 
L 1569 4666 
L 2759 1491 
L 3956 4666 
L 4897 4666 
L 4897 0 
L 4281 0 
L 4281 4097 
L 3078 897 
L 2444 897 
L 1241 4097 
L 1241 0 
L 628 0 
L 628 4666 
z
" id="DejaVuSans-4d" transform="scale(0.015625)"/>
       <path d="M 628 4666 
L 1259 4666 
L 1259 531 
L 3531 531 
L 3531 0 
L 628 0 
L 628 4666 
z
" id="DejaVuSans-4c" transform="scale(0.015625)"/>
       <path d="M 1259 2228 
L 1259 519 
L 2272 519 
Q 2781 519 3026 730 
Q 3272 941 3272 1375 
Q 3272 1813 3026 2020 
Q 2781 2228 2272 2228 
L 1259 2228 
z
M 1259 4147 
L 1259 2741 
L 2194 2741 
Q 2656 2741 2882 2914 
Q 3109 3088 3109 3444 
Q 3109 3797 2882 3972 
Q 2656 4147 2194 4147 
L 1259 4147 
z
M 628 4666 
L 2241 4666 
Q 2963 4666 3353 4366 
Q 3744 4066 3744 3513 
Q 3744 3084 3544 2831 
Q 3344 2578 2956 2516 
Q 3422 2416 3680 2098 
Q 3938 1781 3938 1306 
Q 3938 681 3513 340 
Q 3088 0 2303 0 
L 628 0 
L 628 4666 
z
" id="DejaVuSans-42" transform="scale(0.015625)"/>
      </defs>
      <use xlink:href="#DejaVuSans-4d"/>
      <use x="86.279297" xlink:href="#DejaVuSans-4c"/>
      <use x="141.992188" xlink:href="#DejaVuSans-46"/>
      <use x="199.511719" xlink:href="#DejaVuSans-42"/>
      <use x="268.115234" xlink:href="#DejaVuSans-20"/>
      <use x="299.902344" xlink:href="#DejaVuSans-6d"/>
      <use x="397.314453" xlink:href="#DejaVuSans-65"/>
      <use x="458.837891" xlink:href="#DejaVuSans-74"/>
      <use x="498.046875" xlink:href="#DejaVuSans-20"/>
      <use x="529.833984" xlink:href="#DejaVuSans-71"/>
      <use x="593.310547" xlink:href="#DejaVuSans-3d"/>
      <use x="677.099609" xlink:href="#DejaVuSans-31"/>
     </g>
    </g>
    <g id="line2d_57">
     <path d="M 222.735938 165.083437 
L 242.735938 165.083437 
" style="fill:none;stroke:#bcbd22;stroke-linecap:square;stroke-width:1.5;"/>
    </g>
    <g id="line2d_58"/>
    <g id="text_20">
     <!-- MLFB met verschillende q -->
     <g transform="translate(250.735938 168.583437)scale(0.1 -0.1)">
      <defs>
       <path d="M 191 3500 
L 800 3500 
L 1894 563 
L 2988 3500 
L 3597 3500 
L 2284 0 
L 1503 0 
L 191 3500 
z
" id="DejaVuSans-76" transform="scale(0.015625)"/>
       <path d="M 3122 3366 
L 3122 2828 
Q 2878 2963 2633 3030 
Q 2388 3097 2138 3097 
Q 1578 3097 1268 2742 
Q 959 2388 959 1747 
Q 959 1106 1268 751 
Q 1578 397 2138 397 
Q 2388 397 2633 464 
Q 2878 531 3122 666 
L 3122 134 
Q 2881 22 2623 -34 
Q 2366 -91 2075 -91 
Q 1284 -91 818 406 
Q 353 903 353 1747 
Q 353 2603 823 3093 
Q 1294 3584 2113 3584 
Q 2378 3584 2631 3529 
Q 2884 3475 3122 3366 
z
" id="DejaVuSans-63" transform="scale(0.015625)"/>
       <path d="M 3513 2113 
L 3513 0 
L 2938 0 
L 2938 2094 
Q 2938 2591 2744 2837 
Q 2550 3084 2163 3084 
Q 1697 3084 1428 2787 
Q 1159 2491 1159 1978 
L 1159 0 
L 581 0 
L 581 4863 
L 1159 4863 
L 1159 2956 
Q 1366 3272 1645 3428 
Q 1925 3584 2291 3584 
Q 2894 3584 3203 3211 
Q 3513 2838 3513 2113 
z
" id="DejaVuSans-68" transform="scale(0.015625)"/>
      </defs>
      <use xlink:href="#DejaVuSans-4d"/>
      <use x="86.279297" xlink:href="#DejaVuSans-4c"/>
      <use x="141.992188" xlink:href="#DejaVuSans-46"/>
      <use x="199.511719" xlink:href="#DejaVuSans-42"/>
      <use x="268.115234" xlink:href="#DejaVuSans-20"/>
      <use x="299.902344" xlink:href="#DejaVuSans-6d"/>
      <use x="397.314453" xlink:href="#DejaVuSans-65"/>
      <use x="458.837891" xlink:href="#DejaVuSans-74"/>
      <use x="498.046875" xlink:href="#DejaVuSans-20"/>
      <use x="529.833984" xlink:href="#DejaVuSans-76"/>
      <use x="589.013672" xlink:href="#DejaVuSans-65"/>
      <use x="650.537109" xlink:href="#DejaVuSans-72"/>
      <use x="691.650391" xlink:href="#DejaVuSans-73"/>
      <use x="743.75" xlink:href="#DejaVuSans-63"/>
      <use x="798.730469" xlink:href="#DejaVuSans-68"/>
      <use x="862.109375" xlink:href="#DejaVuSans-69"/>
      <use x="889.892578" xlink:href="#DejaVuSans-6c"/>
      <use x="917.675781" xlink:href="#DejaVuSans-6c"/>
      <use x="945.458984" xlink:href="#DejaVuSans-65"/>
      <use x="1006.982422" xlink:href="#DejaVuSans-6e"/>
      <use x="1070.361328" xlink:href="#DejaVuSans-64"/>
      <use x="1133.837891" xlink:href="#DejaVuSans-65"/>
      <use x="1195.361328" xlink:href="#DejaVuSans-20"/>
      <use x="1227.148438" xlink:href="#DejaVuSans-71"/>
     </g>
    </g>
   </g>
  </g>
 </g>
 <defs>
  <clipPath id="pa9d4cd5275">
   <rect height="217.44" width="334.8" x="54" y="34.56"/>
  </clipPath>
 </defs>
</svg>
