<?xml version="1.0" encoding="utf-8" standalone="no"?>
<!DOCTYPE svg PUBLIC "-//W3C//DTD SVG 1.1//EN"
  "http://www.w3.org/Graphics/SVG/1.1/DTD/svg11.dtd">
<svg height="288pt" version="1.1" viewBox="0 0 432 288" width="432pt" xmlns="http://www.w3.org/2000/svg" xmlns:xlink="http://www.w3.org/1999/xlink">
 <metadata>
  <rdf:RDF xmlns:cc="http://creativecommons.org/ns#" xmlns:dc="http://purl.org/dc/elements/1.1/" xmlns:rdf="http://www.w3.org/1999/02/22-rdf-syntax-ns#">
   <cc:Work>
    <dc:type rdf:resource="http://purl.org/dc/dcmitype/StillImage"/>
    <dc:date>2022-03-29T19:43:26.968174</dc:date>
    <dc:format>image/svg+xml</dc:format>
    <dc:creator>
     <cc:Agent>
      <dc:title>Matplotlib v3.4.3, https://matplotlib.org/</dc:title>
     </cc:Agent>
    </dc:creator>
   </cc:Work>
  </rdf:RDF>
 </metadata>
 <defs>
  <style type="text/css">*{stroke-linecap:butt;stroke-linejoin:round;}</style>
 </defs>
 <g id="figure_1">
  <g id="patch_1">
   <path d="M 0 288 
L 432 288 
L 432 0 
L 0 0 
z
" style="fill:none;"/>
  </g>
  <g id="axes_1">
   <g id="patch_2">
    <path d="M 54 252 
L 388.8 252 
L 388.8 34.56 
L 54 34.56 
z
" style="fill:#ffffff;"/>
   </g>
   <g id="matplotlib.axis_1">
    <g id="xtick_1">
     <g id="line2d_1">
      <defs>
       <path d="M 0 0 
L 0 3.5 
" id="m32e35d664b" style="stroke:#000000;stroke-width:0.8;"/>
      </defs>
      <g>
       <use style="stroke:#000000;stroke-width:0.8;" x="68.655858" xlink:href="#m32e35d664b" y="252"/>
      </g>
     </g>
     <g id="text_1">
      <!-- 0 -->
      <g transform="translate(65.474608 266.598437)scale(0.1 -0.1)">
       <defs>
        <path d="M 2034 4250 
Q 1547 4250 1301 3770 
Q 1056 3291 1056 2328 
Q 1056 1369 1301 889 
Q 1547 409 2034 409 
Q 2525 409 2770 889 
Q 3016 1369 3016 2328 
Q 3016 3291 2770 3770 
Q 2525 4250 2034 4250 
z
M 2034 4750 
Q 2819 4750 3233 4129 
Q 3647 3509 3647 2328 
Q 3647 1150 3233 529 
Q 2819 -91 2034 -91 
Q 1250 -91 836 529 
Q 422 1150 422 2328 
Q 422 3509 836 4129 
Q 1250 4750 2034 4750 
z
" id="DejaVuSans-30" transform="scale(0.015625)"/>
       </defs>
       <use xlink:href="#DejaVuSans-30"/>
      </g>
     </g>
    </g>
    <g id="xtick_2">
     <g id="line2d_2">
      <g>
       <use style="stroke:#000000;stroke-width:0.8;" x="124.888285" xlink:href="#m32e35d664b" y="252"/>
      </g>
     </g>
     <g id="text_2">
      <!-- 100 -->
      <g transform="translate(115.344535 266.598437)scale(0.1 -0.1)">
       <defs>
        <path d="M 794 531 
L 1825 531 
L 1825 4091 
L 703 3866 
L 703 4441 
L 1819 4666 
L 2450 4666 
L 2450 531 
L 3481 531 
L 3481 0 
L 794 0 
L 794 531 
z
" id="DejaVuSans-31" transform="scale(0.015625)"/>
       </defs>
       <use xlink:href="#DejaVuSans-31"/>
       <use x="63.623047" xlink:href="#DejaVuSans-30"/>
       <use x="127.246094" xlink:href="#DejaVuSans-30"/>
      </g>
     </g>
    </g>
    <g id="xtick_3">
     <g id="line2d_3">
      <g>
       <use style="stroke:#000000;stroke-width:0.8;" x="181.120712" xlink:href="#m32e35d664b" y="252"/>
      </g>
     </g>
     <g id="text_3">
      <!-- 200 -->
      <g transform="translate(171.576962 266.598437)scale(0.1 -0.1)">
       <defs>
        <path d="M 1228 531 
L 3431 531 
L 3431 0 
L 469 0 
L 469 531 
Q 828 903 1448 1529 
Q 2069 2156 2228 2338 
Q 2531 2678 2651 2914 
Q 2772 3150 2772 3378 
Q 2772 3750 2511 3984 
Q 2250 4219 1831 4219 
Q 1534 4219 1204 4116 
Q 875 4013 500 3803 
L 500 4441 
Q 881 4594 1212 4672 
Q 1544 4750 1819 4750 
Q 2544 4750 2975 4387 
Q 3406 4025 3406 3419 
Q 3406 3131 3298 2873 
Q 3191 2616 2906 2266 
Q 2828 2175 2409 1742 
Q 1991 1309 1228 531 
z
" id="DejaVuSans-32" transform="scale(0.015625)"/>
       </defs>
       <use xlink:href="#DejaVuSans-32"/>
       <use x="63.623047" xlink:href="#DejaVuSans-30"/>
       <use x="127.246094" xlink:href="#DejaVuSans-30"/>
      </g>
     </g>
    </g>
    <g id="xtick_4">
     <g id="line2d_4">
      <g>
       <use style="stroke:#000000;stroke-width:0.8;" x="237.35314" xlink:href="#m32e35d664b" y="252"/>
      </g>
     </g>
     <g id="text_4">
      <!-- 300 -->
      <g transform="translate(227.80939 266.598437)scale(0.1 -0.1)">
       <defs>
        <path d="M 2597 2516 
Q 3050 2419 3304 2112 
Q 3559 1806 3559 1356 
Q 3559 666 3084 287 
Q 2609 -91 1734 -91 
Q 1441 -91 1130 -33 
Q 819 25 488 141 
L 488 750 
Q 750 597 1062 519 
Q 1375 441 1716 441 
Q 2309 441 2620 675 
Q 2931 909 2931 1356 
Q 2931 1769 2642 2001 
Q 2353 2234 1838 2234 
L 1294 2234 
L 1294 2753 
L 1863 2753 
Q 2328 2753 2575 2939 
Q 2822 3125 2822 3475 
Q 2822 3834 2567 4026 
Q 2313 4219 1838 4219 
Q 1578 4219 1281 4162 
Q 984 4106 628 3988 
L 628 4550 
Q 988 4650 1302 4700 
Q 1616 4750 1894 4750 
Q 2613 4750 3031 4423 
Q 3450 4097 3450 3541 
Q 3450 3153 3228 2886 
Q 3006 2619 2597 2516 
z
" id="DejaVuSans-33" transform="scale(0.015625)"/>
       </defs>
       <use xlink:href="#DejaVuSans-33"/>
       <use x="63.623047" xlink:href="#DejaVuSans-30"/>
       <use x="127.246094" xlink:href="#DejaVuSans-30"/>
      </g>
     </g>
    </g>
    <g id="xtick_5">
     <g id="line2d_5">
      <g>
       <use style="stroke:#000000;stroke-width:0.8;" x="293.585567" xlink:href="#m32e35d664b" y="252"/>
      </g>
     </g>
     <g id="text_5">
      <!-- 400 -->
      <g transform="translate(284.041817 266.598437)scale(0.1 -0.1)">
       <defs>
        <path d="M 2419 4116 
L 825 1625 
L 2419 1625 
L 2419 4116 
z
M 2253 4666 
L 3047 4666 
L 3047 1625 
L 3713 1625 
L 3713 1100 
L 3047 1100 
L 3047 0 
L 2419 0 
L 2419 1100 
L 313 1100 
L 313 1709 
L 2253 4666 
z
" id="DejaVuSans-34" transform="scale(0.015625)"/>
       </defs>
       <use xlink:href="#DejaVuSans-34"/>
       <use x="63.623047" xlink:href="#DejaVuSans-30"/>
       <use x="127.246094" xlink:href="#DejaVuSans-30"/>
      </g>
     </g>
    </g>
    <g id="xtick_6">
     <g id="line2d_6">
      <g>
       <use style="stroke:#000000;stroke-width:0.8;" x="349.817994" xlink:href="#m32e35d664b" y="252"/>
      </g>
     </g>
     <g id="text_6">
      <!-- 500 -->
      <g transform="translate(340.274244 266.598437)scale(0.1 -0.1)">
       <defs>
        <path d="M 691 4666 
L 3169 4666 
L 3169 4134 
L 1269 4134 
L 1269 2991 
Q 1406 3038 1543 3061 
Q 1681 3084 1819 3084 
Q 2600 3084 3056 2656 
Q 3513 2228 3513 1497 
Q 3513 744 3044 326 
Q 2575 -91 1722 -91 
Q 1428 -91 1123 -41 
Q 819 9 494 109 
L 494 744 
Q 775 591 1075 516 
Q 1375 441 1709 441 
Q 2250 441 2565 725 
Q 2881 1009 2881 1497 
Q 2881 1984 2565 2268 
Q 2250 2553 1709 2553 
Q 1456 2553 1204 2497 
Q 953 2441 691 2322 
L 691 4666 
z
" id="DejaVuSans-35" transform="scale(0.015625)"/>
       </defs>
       <use xlink:href="#DejaVuSans-35"/>
       <use x="63.623047" xlink:href="#DejaVuSans-30"/>
       <use x="127.246094" xlink:href="#DejaVuSans-30"/>
      </g>
     </g>
    </g>
    <g id="text_7">
     <!-- bedieningstijd -->
     <g transform="translate(186.091406 280.276563)scale(0.1 -0.1)">
      <defs>
       <path d="M 3116 1747 
Q 3116 2381 2855 2742 
Q 2594 3103 2138 3103 
Q 1681 3103 1420 2742 
Q 1159 2381 1159 1747 
Q 1159 1113 1420 752 
Q 1681 391 2138 391 
Q 2594 391 2855 752 
Q 3116 1113 3116 1747 
z
M 1159 2969 
Q 1341 3281 1617 3432 
Q 1894 3584 2278 3584 
Q 2916 3584 3314 3078 
Q 3713 2572 3713 1747 
Q 3713 922 3314 415 
Q 2916 -91 2278 -91 
Q 1894 -91 1617 61 
Q 1341 213 1159 525 
L 1159 0 
L 581 0 
L 581 4863 
L 1159 4863 
L 1159 2969 
z
" id="DejaVuSans-62" transform="scale(0.015625)"/>
       <path d="M 3597 1894 
L 3597 1613 
L 953 1613 
Q 991 1019 1311 708 
Q 1631 397 2203 397 
Q 2534 397 2845 478 
Q 3156 559 3463 722 
L 3463 178 
Q 3153 47 2828 -22 
Q 2503 -91 2169 -91 
Q 1331 -91 842 396 
Q 353 884 353 1716 
Q 353 2575 817 3079 
Q 1281 3584 2069 3584 
Q 2775 3584 3186 3129 
Q 3597 2675 3597 1894 
z
M 3022 2063 
Q 3016 2534 2758 2815 
Q 2500 3097 2075 3097 
Q 1594 3097 1305 2825 
Q 1016 2553 972 2059 
L 3022 2063 
z
" id="DejaVuSans-65" transform="scale(0.015625)"/>
       <path d="M 2906 2969 
L 2906 4863 
L 3481 4863 
L 3481 0 
L 2906 0 
L 2906 525 
Q 2725 213 2448 61 
Q 2172 -91 1784 -91 
Q 1150 -91 751 415 
Q 353 922 353 1747 
Q 353 2572 751 3078 
Q 1150 3584 1784 3584 
Q 2172 3584 2448 3432 
Q 2725 3281 2906 2969 
z
M 947 1747 
Q 947 1113 1208 752 
Q 1469 391 1925 391 
Q 2381 391 2643 752 
Q 2906 1113 2906 1747 
Q 2906 2381 2643 2742 
Q 2381 3103 1925 3103 
Q 1469 3103 1208 2742 
Q 947 2381 947 1747 
z
" id="DejaVuSans-64" transform="scale(0.015625)"/>
       <path d="M 603 3500 
L 1178 3500 
L 1178 0 
L 603 0 
L 603 3500 
z
M 603 4863 
L 1178 4863 
L 1178 4134 
L 603 4134 
L 603 4863 
z
" id="DejaVuSans-69" transform="scale(0.015625)"/>
       <path d="M 3513 2113 
L 3513 0 
L 2938 0 
L 2938 2094 
Q 2938 2591 2744 2837 
Q 2550 3084 2163 3084 
Q 1697 3084 1428 2787 
Q 1159 2491 1159 1978 
L 1159 0 
L 581 0 
L 581 3500 
L 1159 3500 
L 1159 2956 
Q 1366 3272 1645 3428 
Q 1925 3584 2291 3584 
Q 2894 3584 3203 3211 
Q 3513 2838 3513 2113 
z
" id="DejaVuSans-6e" transform="scale(0.015625)"/>
       <path d="M 2906 1791 
Q 2906 2416 2648 2759 
Q 2391 3103 1925 3103 
Q 1463 3103 1205 2759 
Q 947 2416 947 1791 
Q 947 1169 1205 825 
Q 1463 481 1925 481 
Q 2391 481 2648 825 
Q 2906 1169 2906 1791 
z
M 3481 434 
Q 3481 -459 3084 -895 
Q 2688 -1331 1869 -1331 
Q 1566 -1331 1297 -1286 
Q 1028 -1241 775 -1147 
L 775 -588 
Q 1028 -725 1275 -790 
Q 1522 -856 1778 -856 
Q 2344 -856 2625 -561 
Q 2906 -266 2906 331 
L 2906 616 
Q 2728 306 2450 153 
Q 2172 0 1784 0 
Q 1141 0 747 490 
Q 353 981 353 1791 
Q 353 2603 747 3093 
Q 1141 3584 1784 3584 
Q 2172 3584 2450 3431 
Q 2728 3278 2906 2969 
L 2906 3500 
L 3481 3500 
L 3481 434 
z
" id="DejaVuSans-67" transform="scale(0.015625)"/>
       <path d="M 2834 3397 
L 2834 2853 
Q 2591 2978 2328 3040 
Q 2066 3103 1784 3103 
Q 1356 3103 1142 2972 
Q 928 2841 928 2578 
Q 928 2378 1081 2264 
Q 1234 2150 1697 2047 
L 1894 2003 
Q 2506 1872 2764 1633 
Q 3022 1394 3022 966 
Q 3022 478 2636 193 
Q 2250 -91 1575 -91 
Q 1294 -91 989 -36 
Q 684 19 347 128 
L 347 722 
Q 666 556 975 473 
Q 1284 391 1588 391 
Q 1994 391 2212 530 
Q 2431 669 2431 922 
Q 2431 1156 2273 1281 
Q 2116 1406 1581 1522 
L 1381 1569 
Q 847 1681 609 1914 
Q 372 2147 372 2553 
Q 372 3047 722 3315 
Q 1072 3584 1716 3584 
Q 2034 3584 2315 3537 
Q 2597 3491 2834 3397 
z
" id="DejaVuSans-73" transform="scale(0.015625)"/>
       <path d="M 1172 4494 
L 1172 3500 
L 2356 3500 
L 2356 3053 
L 1172 3053 
L 1172 1153 
Q 1172 725 1289 603 
Q 1406 481 1766 481 
L 2356 481 
L 2356 0 
L 1766 0 
Q 1100 0 847 248 
Q 594 497 594 1153 
L 594 3053 
L 172 3053 
L 172 3500 
L 594 3500 
L 594 4494 
L 1172 4494 
z
" id="DejaVuSans-74" transform="scale(0.015625)"/>
       <path d="M 603 3500 
L 1178 3500 
L 1178 -63 
Q 1178 -731 923 -1031 
Q 669 -1331 103 -1331 
L -116 -1331 
L -116 -844 
L 38 -844 
Q 366 -844 484 -692 
Q 603 -541 603 -63 
L 603 3500 
z
M 603 4863 
L 1178 4863 
L 1178 4134 
L 603 4134 
L 603 4863 
z
" id="DejaVuSans-6a" transform="scale(0.015625)"/>
      </defs>
      <use xlink:href="#DejaVuSans-62"/>
      <use x="63.476562" xlink:href="#DejaVuSans-65"/>
      <use x="125" xlink:href="#DejaVuSans-64"/>
      <use x="188.476562" xlink:href="#DejaVuSans-69"/>
      <use x="216.259766" xlink:href="#DejaVuSans-65"/>
      <use x="277.783203" xlink:href="#DejaVuSans-6e"/>
      <use x="341.162109" xlink:href="#DejaVuSans-69"/>
      <use x="368.945312" xlink:href="#DejaVuSans-6e"/>
      <use x="432.324219" xlink:href="#DejaVuSans-67"/>
      <use x="495.800781" xlink:href="#DejaVuSans-73"/>
      <use x="547.900391" xlink:href="#DejaVuSans-74"/>
      <use x="587.109375" xlink:href="#DejaVuSans-69"/>
      <use x="614.892578" xlink:href="#DejaVuSans-6a"/>
      <use x="642.675781" xlink:href="#DejaVuSans-64"/>
     </g>
    </g>
   </g>
   <g id="matplotlib.axis_2">
    <g id="ytick_1">
     <g id="line2d_7">
      <defs>
       <path d="M 0 0 
L -3.5 0 
" id="md388f3d5f5" style="stroke:#000000;stroke-width:0.8;"/>
      </defs>
      <g>
       <use style="stroke:#000000;stroke-width:0.8;" x="54" xlink:href="#md388f3d5f5" y="242.116364"/>
      </g>
     </g>
     <g id="text_8">
      <!-- 0 -->
      <g transform="translate(40.6375 245.915582)scale(0.1 -0.1)">
       <use xlink:href="#DejaVuSans-30"/>
      </g>
     </g>
    </g>
    <g id="ytick_2">
     <g id="line2d_8">
      <g>
       <use style="stroke:#000000;stroke-width:0.8;" x="54" xlink:href="#md388f3d5f5" y="206.88096"/>
      </g>
     </g>
     <g id="text_9">
      <!-- 500 -->
      <g transform="translate(27.9125 210.680179)scale(0.1 -0.1)">
       <use xlink:href="#DejaVuSans-35"/>
       <use x="63.623047" xlink:href="#DejaVuSans-30"/>
       <use x="127.246094" xlink:href="#DejaVuSans-30"/>
      </g>
     </g>
    </g>
    <g id="ytick_3">
     <g id="line2d_9">
      <g>
       <use style="stroke:#000000;stroke-width:0.8;" x="54" xlink:href="#md388f3d5f5" y="171.645557"/>
      </g>
     </g>
     <g id="text_10">
      <!-- 1000 -->
      <g transform="translate(21.55 175.444776)scale(0.1 -0.1)">
       <use xlink:href="#DejaVuSans-31"/>
       <use x="63.623047" xlink:href="#DejaVuSans-30"/>
       <use x="127.246094" xlink:href="#DejaVuSans-30"/>
       <use x="190.869141" xlink:href="#DejaVuSans-30"/>
      </g>
     </g>
    </g>
    <g id="ytick_4">
     <g id="line2d_10">
      <g>
       <use style="stroke:#000000;stroke-width:0.8;" x="54" xlink:href="#md388f3d5f5" y="136.410153"/>
      </g>
     </g>
     <g id="text_11">
      <!-- 1500 -->
      <g transform="translate(21.55 140.209372)scale(0.1 -0.1)">
       <use xlink:href="#DejaVuSans-31"/>
       <use x="63.623047" xlink:href="#DejaVuSans-35"/>
       <use x="127.246094" xlink:href="#DejaVuSans-30"/>
       <use x="190.869141" xlink:href="#DejaVuSans-30"/>
      </g>
     </g>
    </g>
    <g id="ytick_5">
     <g id="line2d_11">
      <g>
       <use style="stroke:#000000;stroke-width:0.8;" x="54" xlink:href="#md388f3d5f5" y="101.17475"/>
      </g>
     </g>
     <g id="text_12">
      <!-- 2000 -->
      <g transform="translate(21.55 104.973969)scale(0.1 -0.1)">
       <use xlink:href="#DejaVuSans-32"/>
       <use x="63.623047" xlink:href="#DejaVuSans-30"/>
       <use x="127.246094" xlink:href="#DejaVuSans-30"/>
       <use x="190.869141" xlink:href="#DejaVuSans-30"/>
      </g>
     </g>
    </g>
    <g id="ytick_6">
     <g id="line2d_12">
      <g>
       <use style="stroke:#000000;stroke-width:0.8;" x="54" xlink:href="#md388f3d5f5" y="65.939347"/>
      </g>
     </g>
     <g id="text_13">
      <!-- 2500 -->
      <g transform="translate(21.55 69.738565)scale(0.1 -0.1)">
       <use xlink:href="#DejaVuSans-32"/>
       <use x="63.623047" xlink:href="#DejaVuSans-35"/>
       <use x="127.246094" xlink:href="#DejaVuSans-30"/>
       <use x="190.869141" xlink:href="#DejaVuSans-30"/>
      </g>
     </g>
    </g>
    <g id="text_14">
     <!-- wachttijd -->
     <g transform="translate(15.470312 166.22375)rotate(-90)scale(0.1 -0.1)">
      <defs>
       <path d="M 269 3500 
L 844 3500 
L 1563 769 
L 2278 3500 
L 2956 3500 
L 3675 769 
L 4391 3500 
L 4966 3500 
L 4050 0 
L 3372 0 
L 2619 2869 
L 1863 0 
L 1184 0 
L 269 3500 
z
" id="DejaVuSans-77" transform="scale(0.015625)"/>
       <path d="M 2194 1759 
Q 1497 1759 1228 1600 
Q 959 1441 959 1056 
Q 959 750 1161 570 
Q 1363 391 1709 391 
Q 2188 391 2477 730 
Q 2766 1069 2766 1631 
L 2766 1759 
L 2194 1759 
z
M 3341 1997 
L 3341 0 
L 2766 0 
L 2766 531 
Q 2569 213 2275 61 
Q 1981 -91 1556 -91 
Q 1019 -91 701 211 
Q 384 513 384 1019 
Q 384 1609 779 1909 
Q 1175 2209 1959 2209 
L 2766 2209 
L 2766 2266 
Q 2766 2663 2505 2880 
Q 2244 3097 1772 3097 
Q 1472 3097 1187 3025 
Q 903 2953 641 2809 
L 641 3341 
Q 956 3463 1253 3523 
Q 1550 3584 1831 3584 
Q 2591 3584 2966 3190 
Q 3341 2797 3341 1997 
z
" id="DejaVuSans-61" transform="scale(0.015625)"/>
       <path d="M 3122 3366 
L 3122 2828 
Q 2878 2963 2633 3030 
Q 2388 3097 2138 3097 
Q 1578 3097 1268 2742 
Q 959 2388 959 1747 
Q 959 1106 1268 751 
Q 1578 397 2138 397 
Q 2388 397 2633 464 
Q 2878 531 3122 666 
L 3122 134 
Q 2881 22 2623 -34 
Q 2366 -91 2075 -91 
Q 1284 -91 818 406 
Q 353 903 353 1747 
Q 353 2603 823 3093 
Q 1294 3584 2113 3584 
Q 2378 3584 2631 3529 
Q 2884 3475 3122 3366 
z
" id="DejaVuSans-63" transform="scale(0.015625)"/>
       <path d="M 3513 2113 
L 3513 0 
L 2938 0 
L 2938 2094 
Q 2938 2591 2744 2837 
Q 2550 3084 2163 3084 
Q 1697 3084 1428 2787 
Q 1159 2491 1159 1978 
L 1159 0 
L 581 0 
L 581 4863 
L 1159 4863 
L 1159 2956 
Q 1366 3272 1645 3428 
Q 1925 3584 2291 3584 
Q 2894 3584 3203 3211 
Q 3513 2838 3513 2113 
z
" id="DejaVuSans-68" transform="scale(0.015625)"/>
      </defs>
      <use xlink:href="#DejaVuSans-77"/>
      <use x="81.787109" xlink:href="#DejaVuSans-61"/>
      <use x="143.066406" xlink:href="#DejaVuSans-63"/>
      <use x="198.046875" xlink:href="#DejaVuSans-68"/>
      <use x="261.425781" xlink:href="#DejaVuSans-74"/>
      <use x="300.634766" xlink:href="#DejaVuSans-74"/>
      <use x="339.84375" xlink:href="#DejaVuSans-69"/>
      <use x="367.626953" xlink:href="#DejaVuSans-6a"/>
      <use x="395.410156" xlink:href="#DejaVuSans-64"/>
     </g>
    </g>
   </g>
   <g id="line2d_13">
    <path clip-path="url(#pfde23a743c)" d="M 69.218182 215.416384 
L 69.274414 215.572125 
L 69.85642 214.447058 
L 70.458107 211.943583 
L 71.056982 213.840657 
L 71.720525 212.492551 
L 72.294096 218.235921 
L 72.909841 212.686698 
L 73.590253 207.664596 
L 74.169447 214.127473 
L 74.875164 213.769834 
L 75.578069 217.448762 
L 76.174133 211.13634 
L 76.829241 214.723656 
L 77.450609 212.575001 
L 78.057919 207.916176 
L 78.819869 216.780699 
L 79.553702 209.90592 
L 80.259419 212.563374 
L 81.015745 210.291747 
L 81.833927 209.050756 
L 82.486223 212.042242 
L 83.138519 213.408319 
L 83.987629 207.209354 
L 84.710216 211.702925 
L 85.472165 211.090886 
L 86.301593 210.455944 
L 87.069166 210.560593 
L 87.982943 210.255455 
L 88.722399 213.130664 
L 89.594002 211.807927 
L 90.378444 208.494742 
L 91.286598 209.315374 
L 92.009185 211.708563 
L 92.922962 207.618085 
L 93.738332 213.880825 
L 94.542455 210.58702 
L 95.380319 208.682194 
L 96.403749 211.11097 
L 97.2388 212.307565 
L 98.158201 214.99356 
L 99.097282 212.84279 
L 99.923899 207.7999 
L 100.922024 205.876047 
L 101.942643 210.14693 
L 103.067291 211.891435 
L 104.045736 211.502436 
L 105.097282 214.336067 
L 106.224742 206.570889 
L 107.430928 213.07922 
L 108.656795 215.201448 
L 109.68866 212.417499 
L 110.92015 214.014368 
L 112.264105 213.801546 
L 113.543393 205.591697 
L 114.721462 212.45203 
L 115.927648 214.842047 
L 117.190066 213.082391 
L 118.652109 205.955326 
L 120.080412 212.389663 
L 121.424367 212.023567 
L 123.001687 212.620103 
L 124.413121 210.441145 
L 126.139456 208.63815 
L 127.756139 210.260035 
L 129.395314 208.297776 
L 131.189128 212.92806 
L 132.957638 214.451991 
L 134.672727 213.166251 
L 136.576195 213.137006 
L 138.265979 214.672565 
L 140.121649 208.664576 
L 142.396251 211.965429 
L 144.533083 215.201448 
L 146.757076 214.097876 
L 149.189128 205.755189 
L 151.632427 205.896483 
L 153.895783 208.007436 
L 156.507779 215.682059 
L 159.392502 209.966877 
L 162.274414 210.479552 
L 165.035426 213.399158 
L 168.080412 205.413053 
L 171.333458 212.114827 
L 174.760825 210.541566 
L 178.750515 210.002112 
L 183.30253 209.130036 
L 187.79269 208.478886 
L 192.372821 214.96819 
L 197.402812 209.77132 
L 203.357826 211.039795 
L 208.817994 212.752588 
L 215.523711 211.311812 
L 223.609934 205.701279 
L 231.937957 212.517215 
L 242.48716 212.370636 
L 257.138519 215.50553 
L 276.091659 209.138845 
L 303.069166 212.112008 
L 373.581818 202.285559 
" style="fill:none;stroke:#1f77b4;stroke-linecap:square;stroke-width:1.5;"/>
   </g>
   <g id="line2d_14">
    <path clip-path="url(#pfde23a743c)" d="M 69.218182 236.818368 
L 69.274414 236.973757 
L 69.85642 236.567845 
L 70.458107 237.112584 
L 71.056982 237.283123 
L 71.720525 236.824358 
L 72.294096 237.008992 
L 72.909841 235.928322 
L 73.590253 236.003021 
L 74.169447 236.182017 
L 74.875164 236.895534 
L 75.578069 237.160152 
L 76.174133 237.006878 
L 76.829241 236.859241 
L 77.450609 236.302522 
L 78.057919 235.55236 
L 78.819869 236.528381 
L 79.553702 236.562912 
L 80.259419 235.967786 
L 81.015745 236.007249 
L 81.833927 237.089329 
L 82.486223 235.767649 
L 83.138519 235.357509 
L 83.987629 236.502307 
L 84.710216 235.029115 
L 85.472165 237.313073 
L 86.301593 236.245793 
L 87.069166 236.030505 
L 87.982943 235.735232 
L 88.722399 235.71691 
L 89.594002 236.655933 
L 90.378444 234.907905 
L 91.286598 235.759192 
L 92.009185 235.267306 
L 92.922962 236.316616 
L 93.738332 236.529438 
L 94.542455 234.894868 
L 95.380319 234.96252 
L 96.403749 236.06715 
L 97.2388 234.827568 
L 98.158201 234.937503 
L 99.097282 235.325444 
L 99.923899 234.476623 
L 100.922024 234.799027 
L 101.942643 234.662314 
L 103.067291 235.286685 
L 104.045736 234.475566 
L 105.097282 235.123545 
L 106.224742 233.886078 
L 107.430928 235.186617 
L 108.656795 234.704949 
L 109.68866 234.870555 
L 110.92015 234.793037 
L 112.264105 234.749698 
L 113.543393 234.084101 
L 114.721462 234.906143 
L 115.927648 235.204235 
L 117.190066 234.078463 
L 118.652109 233.042895 
L 120.080412 233.735975 
L 121.424367 232.822674 
L 123.001687 232.726129 
L 124.413121 232.629584 
L 126.139456 231.938617 
L 127.756139 233.523506 
L 129.395314 233.386792 
L 131.189128 233.093634 
L 132.957638 232.550656 
L 134.672727 231.75786 
L 136.576195 232.306475 
L 138.265979 232.232481 
L 140.121649 231.835025 
L 142.396251 229.175457 
L 144.533083 230.606719 
L 146.757076 228.514793 
L 149.189128 229.265307 
L 151.632427 227.582112 
L 153.895783 225.794972 
L 156.507779 227.199456 
L 159.392502 229.127537 
L 162.274414 224.957427 
L 165.035426 226.263251 
L 168.080412 225.454246 
L 171.333458 224.943333 
L 174.760825 224.892946 
L 178.750515 223.794306 
L 183.30253 220.411707 
L 187.79269 218.5097 
L 192.372821 221.495901 
L 197.402812 219.290869 
L 203.357826 212.72898 
L 208.817994 214.938945 
L 215.523711 207.28652 
L 223.609934 205.756246 
L 231.937957 200.67072 
L 242.48716 194.938273 
L 257.138519 192.452063 
L 276.091659 167.489541 
L 303.069166 176.182467 
L 373.581818 65.391788 
" style="fill:none;stroke:#ff7f0e;stroke-linecap:square;stroke-width:1.5;"/>
   </g>
   <g id="line2d_15">
    <path clip-path="url(#pfde23a743c)" d="M 69.218182 242.116364 
L 69.274414 242.116364 
L 69.85642 242.116364 
L 70.458107 242.116364 
L 71.056982 242.116011 
L 71.720525 242.116364 
L 72.294096 242.116011 
L 72.909841 242.116364 
L 73.590253 242.116364 
L 74.169447 242.116364 
L 74.875164 242.116364 
L 75.578069 242.114954 
L 76.174133 242.116364 
L 76.829241 242.113545 
L 77.450609 242.11425 
L 78.057919 242.113545 
L 78.819869 242.116011 
L 79.553702 242.103327 
L 80.259419 242.10685 
L 81.015745 242.115307 
L 81.833927 242.116011 
L 82.486223 242.099098 
L 83.138519 242.111078 
L 83.987629 242.093461 
L 84.710216 242.111078 
L 85.472165 242.089232 
L 86.301593 242.104736 
L 87.069166 242.104384 
L 87.982943 242.093461 
L 88.722399 242.085356 
L 89.594002 242.082538 
L 90.378444 242.085709 
L 91.286598 242.079014 
L 92.009185 242.078662 
L 92.922962 242.024047 
L 93.738332 242.015943 
L 94.542455 242.045893 
L 95.380319 242.074786 
L 96.403749 242.047655 
L 97.2388 242.040608 
L 98.158201 242.015943 
L 99.097282 242.052588 
L 99.923899 242.048007 
L 100.922024 241.998677 
L 101.942643 241.996563 
L 103.067291 241.965556 
L 104.045736 241.950757 
L 105.097282 241.954281 
L 106.224742 241.964499 
L 107.430928 241.857383 
L 108.656795 241.898961 
L 109.68866 241.787617 
L 110.92015 241.89579 
L 112.264105 241.700586 
L 113.543393 241.820739 
L 114.721462 241.899314 
L 115.927648 241.697415 
L 117.190066 241.745687 
L 118.652109 241.772466 
L 120.080412 241.511724 
L 121.424367 241.427159 
L 123.001687 241.625534 
L 124.413121 241.543788 
L 126.139456 241.353517 
L 127.756139 241.46768 
L 129.395314 241.589594 
L 131.189128 241.416941 
L 132.957638 241.239707 
L 134.672727 240.993764 
L 136.576195 240.776714 
L 138.265979 241.102641 
L 140.121649 240.797502 
L 142.396251 240.444444 
L 144.533083 240.501525 
L 146.757076 240.153399 
L 149.189128 240.360231 
L 151.632427 240.14459 
L 153.895783 239.968413 
L 156.507779 239.286961 
L 159.392502 239.08471 
L 162.274414 238.973013 
L 165.035426 238.28698 
L 168.080412 239.131573 
L 171.333458 238.9036 
L 174.760825 238.362031 
L 178.750515 237.745412 
L 183.30253 237.427236 
L 187.79269 237.10906 
L 192.372821 236.50724 
L 197.402812 236.052703 
L 203.357826 234.774715 
L 208.817994 233.401944 
L 215.523711 233.485099 
L 223.609934 232.01684 
L 231.937957 229.610614 
L 242.48716 225.350654 
L 257.138519 221.481454 
L 276.091659 216.607341 
L 303.069166 211.145501 
L 373.581818 182.993471 
" style="fill:none;stroke:#2ca02c;stroke-linecap:square;stroke-width:1.5;"/>
   </g>
   <g id="line2d_16">
    <path clip-path="url(#pfde23a743c)" d="M 69.218182 241.664646 
L 69.274414 241.659008 
L 69.85642 241.53956 
L 70.458107 241.100879 
L 71.056982 240.903561 
L 71.720525 240.468404 
L 72.294096 240.543103 
L 72.909841 239.957138 
L 73.590253 238.807759 
L 74.169447 239.475823 
L 74.875164 238.730946 
L 75.578069 238.921922 
L 76.174133 237.799322 
L 76.829241 238.184445 
L 77.450609 237.7736 
L 78.057919 236.504069 
L 78.819869 237.737308 
L 79.553702 235.71092 
L 80.259419 235.92797 
L 81.015745 234.97309 
L 81.833927 234.141182 
L 82.486223 234.358937 
L 83.138519 235.26343 
L 83.987629 232.855443 
L 84.710216 233.575654 
L 85.472165 232.960796 
L 86.301593 232.426628 
L 87.069166 231.628193 
L 87.982943 230.823417 
L 88.722399 231.63665 
L 89.594002 231.019678 
L 90.378444 229.484824 
L 91.286598 229.01725 
L 92.009185 229.206817 
L 92.922962 227.432009 
L 93.738332 229.447474 
L 94.542455 227.420734 
L 95.380319 226.964083 
L 96.403749 226.058886 
L 97.2388 226.491929 
L 98.158201 227.669496 
L 99.097282 226.562752 
L 99.923899 223.245339 
L 100.922024 221.544526 
L 101.942643 223.758366 
L 103.067291 223.687895 
L 104.045736 222.601588 
L 105.097282 224.445104 
L 106.224742 219.246473 
L 107.430928 221.8775 
L 108.656795 222.369387 
L 109.68866 221.051935 
L 110.92015 221.641423 
L 112.264105 219.423354 
L 113.543393 213.757149 
L 114.721462 217.860312 
L 115.927648 219.190801 
L 117.190066 217.214799 
L 118.652109 210.687793 
L 120.080412 214.32162 
L 121.424367 213.835372 
L 123.001687 213.98336 
L 124.413121 211.155015 
L 126.139456 209.192755 
L 127.756139 209.768149 
L 129.395314 207.506741 
L 131.189128 209.3492 
L 132.957638 209.711773 
L 134.672727 206.545167 
L 136.576195 206.876027 
L 138.265979 207.622313 
L 140.121649 201.218631 
L 142.396251 200.899398 
L 144.533083 204.024074 
L 146.757076 202.830651 
L 149.189128 190.287904 
L 151.632427 187.040962 
L 153.895783 191.161037 
L 156.507779 197.86563 
L 159.392502 190.094109 
L 162.274414 188.246012 
L 165.035426 192.811464 
L 168.080412 180.724663 
L 171.333458 187.696692 
L 174.760825 183.606567 
L 178.750515 181.993138 
L 183.30253 173.968275 
L 187.79269 170.38272 
L 192.372821 183.648145 
L 197.402812 173.309725 
L 203.357826 167.353885 
L 208.817994 165.752083 
L 215.523711 161.127789 
L 223.609934 150.797121 
L 231.937957 158.9816 
L 242.48716 148.794341 
L 257.138519 148.726336 
L 276.091659 126.251787 
L 303.069166 125.686963 
L 373.581818 44.443636 
" style="fill:none;stroke:#d62728;stroke-linecap:square;stroke-width:1.5;"/>
   </g>
   <g id="line2d_17">
    <path clip-path="url(#pfde23a743c)" d="M 69.218182 241.201653 
L 69.274414 241.168531 
L 69.85642 241.143162 
L 70.458107 241.169941 
L 71.056982 240.834147 
L 71.720525 239.967004 
L 72.294096 240.355298 
L 72.909841 240.037122 
L 73.590253 238.344414 
L 74.169447 239.008249 
L 74.875164 238.787675 
L 75.578069 238.837005 
L 76.174133 237.256344 
L 76.829241 238.014963 
L 77.450609 237.878954 
L 78.057919 236.175322 
L 78.819869 237.420894 
L 79.553702 235.851157 
L 80.259419 235.667932 
L 81.015745 234.514325 
L 81.833927 234.278601 
L 82.486223 234.05556 
L 83.138519 234.846243 
L 83.987629 233.003784 
L 84.710216 233.455854 
L 85.472165 232.539733 
L 86.301593 232.590472 
L 87.069166 231.320941 
L 87.982943 230.626803 
L 88.722399 231.804018 
L 89.594002 230.581702 
L 90.378444 229.384403 
L 91.286598 229.057418 
L 92.009185 228.770602 
L 92.922962 227.569075 
L 93.738332 229.3016 
L 94.542455 227.10432 
L 95.380319 227.122642 
L 96.403749 225.643813 
L 97.2388 226.562752 
L 98.158201 227.615586 
L 99.097282 226.321742 
L 99.923899 223.46415 
L 100.922024 221.129805 
L 101.942643 223.877814 
L 103.067291 223.347521 
L 104.045736 222.654793 
L 105.097282 224.3172 
L 106.224742 219.305316 
L 107.430928 221.723874 
L 108.656795 222.532526 
L 109.68866 220.858492 
L 110.92015 221.740082 
L 112.264105 219.158737 
L 113.543393 213.992169 
L 114.721462 217.68484 
L 115.927648 219.281708 
L 117.190066 217.113321 
L 118.652109 210.566936 
L 120.080412 214.457981 
L 121.424367 213.723676 
L 123.001687 213.967505 
L 124.413121 211.340353 
L 126.139456 209.169852 
L 127.756139 209.637426 
L 129.395314 207.618085 
L 131.189128 209.484857 
L 132.957638 209.696974 
L 134.672727 206.454612 
L 136.576195 206.882017 
L 138.265979 207.805537 
L 140.121649 201.274303 
L 142.396251 201.031179 
L 144.533083 204.149512 
L 146.757076 202.89936 
L 149.189128 190.38163 
L 151.632427 187.296066 
L 153.895783 191.340033 
L 156.507779 198.015028 
L 159.392502 190.263239 
L 162.274414 188.507459 
L 165.035426 192.986936 
L 168.080412 180.964616 
L 171.333458 187.908105 
L 174.760825 183.897611 
L 178.750515 182.256346 
L 183.30253 174.301954 
L 187.79269 170.763967 
L 192.372821 183.855329 
L 197.402812 173.560601 
L 203.357826 167.735484 
L 208.817994 166.058631 
L 215.523711 161.472743 
L 223.609934 151.182244 
L 231.937957 159.32127 
L 242.48716 149.30314 
L 257.138519 149.305606 
L 276.091659 126.785251 
L 303.069166 126.186601 
L 373.581818 45.547209 
" style="fill:none;stroke:#9467bd;stroke-linecap:square;stroke-width:1.5;"/>
   </g>
   <g id="line2d_18">
    <path clip-path="url(#pfde23a743c)" d="M 69.218182 240.282009 
L 69.274414 240.203081 
L 69.85642 240.171017 
L 70.458107 240.25523 
L 71.056982 240.102308 
L 71.720525 240.095613 
L 72.294096 240.489897 
L 72.909841 240.16397 
L 73.590253 237.468462 
L 74.169447 238.113622 
L 74.875164 237.850061 
L 75.578069 238.351108 
L 76.174133 237.456482 
L 76.829241 238.232717 
L 77.450609 238.066054 
L 78.057919 235.517125 
L 78.819869 236.686236 
L 79.553702 234.864918 
L 80.259419 235.510078 
L 81.015745 234.783171 
L 81.833927 234.532295 
L 82.486223 233.482985 
L 83.138519 234.038647 
L 83.987629 231.981252 
L 84.710216 233.083063 
L 85.472165 232.852271 
L 86.301593 232.899839 
L 87.069166 230.78501 
L 87.982943 229.6758 
L 88.722399 230.987261 
L 89.594002 230.890012 
L 90.378444 229.780801 
L 91.286598 229.034868 
L 92.009185 227.970759 
L 92.922962 226.673743 
L 93.738332 229.232538 
L 94.542455 227.559209 
L 95.380319 227.498957 
L 96.403749 224.857006 
L 97.2388 225.743881 
L 98.158201 227.477463 
L 99.097282 226.683962 
L 99.923899 223.931372 
L 100.922024 220.273937 
L 101.942643 223.082551 
L 103.067291 223.695647 
L 104.045736 223.086427 
L 105.097282 224.108254 
L 106.224742 218.490321 
L 107.430928 221.84297 
L 108.656795 223.034279 
L 109.68866 220.399375 
L 110.92015 221.139671 
L 112.264105 219.601998 
L 113.543393 214.427679 
L 114.721462 217.069277 
L 115.927648 219.058668 
L 117.190066 217.663346 
L 118.652109 210.354819 
L 120.080412 214.002035 
L 121.424367 214.319859 
L 123.001687 213.874483 
L 124.413121 210.793147 
L 126.139456 209.885131 
L 127.756139 209.46442 
L 129.395314 207.533168 
L 131.189128 210.123322 
L 132.957638 209.286481 
L 134.672727 206.991599 
L 136.576195 206.919367 
L 138.265979 207.639226 
L 140.121649 201.923339 
L 142.396251 200.781007 
L 144.533083 204.77036 
L 146.757076 202.747847 
L 149.189128 191.120869 
L 151.632427 187.310512 
L 153.895783 191.941854 
L 156.507779 198.224326 
L 159.392502 190.340052 
L 162.274414 189.324568 
L 165.035426 193.113079 
L 168.080412 181.295829 
L 171.333458 188.541285 
L 174.760825 184.4198 
L 178.750515 182.771135 
L 183.30253 174.884747 
L 187.79269 171.347465 
L 192.372821 184.263707 
L 197.402812 174.130005 
L 203.357826 168.281633 
L 208.817994 166.780252 
L 215.523711 162.236295 
L 223.609934 152.15157 
L 231.937957 160.04571 
L 242.48716 150.336242 
L 257.138519 150.343994 
L 276.091659 127.955418 
L 303.069166 127.169316 
L 373.581818 47.529905 
" style="fill:none;stroke:#8c564b;stroke-linecap:square;stroke-width:1.5;"/>
   </g>
   <g id="line2d_19">
    <path clip-path="url(#pfde23a743c)" d="M 69.218182 236.653114 
L 69.274414 237.253526 
L 69.85642 236.536133 
L 70.458107 236.723937 
L 71.056982 236.221128 
L 71.720525 235.596405 
L 72.294096 236.344805 
L 72.909841 234.432579 
L 73.590253 234.977319 
L 74.169447 235.26942 
L 74.875164 234.974852 
L 75.578069 234.54498 
L 76.174133 234.844833 
L 76.829241 235.043913 
L 77.450609 233.575302 
L 78.057919 233.088701 
L 78.819869 234.245832 
L 79.553702 233.152477 
L 80.259419 233.484042 
L 81.015745 232.969605 
L 81.833927 233.666562 
L 82.486223 232.573559 
L 83.138519 233.272982 
L 83.987629 231.820226 
L 84.710216 231.66061 
L 85.472165 232.738813 
L 86.301593 231.486195 
L 87.069166 231.924171 
L 87.982943 230.85689 
L 88.722399 230.970348 
L 89.594002 232.050314 
L 90.378444 229.754727 
L 91.286598 230.125756 
L 92.009185 230.191294 
L 92.922962 229.038039 
L 93.738332 231.033772 
L 94.542455 229.100758 
L 95.380319 229.038391 
L 96.403749 229.508784 
L 97.2388 228.713169 
L 98.158201 229.784677 
L 99.097282 228.511622 
L 99.923899 226.449294 
L 100.922024 226.888679 
L 101.942643 228.091968 
L 103.067291 227.574713 
L 104.045736 226.404897 
L 105.097282 229.187085 
L 106.224742 224.794287 
L 107.430928 227.393955 
L 108.656795 227.300934 
L 109.68866 227.362243 
L 110.92015 227.53983 
L 112.264105 226.358739 
L 113.543393 223.494101 
L 114.721462 225.877071 
L 115.927648 227.34075 
L 117.190066 224.809791 
L 118.652109 222.24712 
L 120.080412 223.882042 
L 121.424367 223.768584 
L 123.001687 222.840484 
L 124.413121 221.883138 
L 126.139456 221.555801 
L 127.756139 221.92683 
L 129.395314 220.279222 
L 131.189128 221.636138 
L 132.957638 221.509643 
L 134.672727 220.487816 
L 136.576195 220.311991 
L 138.265979 221.265109 
L 140.121649 217.193658 
L 142.396251 217.939239 
L 144.533083 218.677069 
L 146.757076 219.074172 
L 149.189128 213.883997 
L 151.632427 213.125378 
L 153.895783 213.616208 
L 156.507779 218.197162 
L 159.392502 214.536204 
L 162.274414 211.122246 
L 165.035426 215.074249 
L 168.080412 209.36259 
L 171.333458 212.055279 
L 174.760825 210.792795 
L 178.750515 212.011235 
L 183.30253 206.670957 
L 187.79269 206.457431 
L 192.372821 212.221238 
L 197.402812 207.811175 
L 203.357826 205.145264 
L 208.817994 205.787253 
L 215.523711 201.249286 
L 223.609934 195.666236 
L 231.937957 203.077298 
L 242.48716 200.120696 
L 257.138519 201.501924 
L 276.091659 188.410209 
L 303.069166 193.54436 
L 373.581818 160.513988 
" style="fill:none;stroke:#e377c2;stroke-linecap:square;stroke-width:1.5;"/>
   </g>
   <g id="line2d_20">
    <path clip-path="url(#pfde23a743c)" d="M 69.218182 242.109669 
L 69.274414 242.113192 
L 69.85642 242.113192 
L 70.458107 242.110726 
L 71.056982 242.104736 
L 71.720525 242.076548 
L 72.294096 242.092051 
L 72.909841 242.089232 
L 73.590253 242.04695 
L 74.169447 242.023695 
L 74.875164 242.008191 
L 75.578069 231.705007 
L 76.174133 207.746694 
L 76.829241 212.029205 
L 77.450609 209.71142 
L 78.057919 204.419767 
L 78.819869 214.15989 
L 79.553702 206.494428 
L 80.259419 209.53031 
L 81.015745 206.946498 
L 81.833927 205.605086 
L 82.486223 208.84921 
L 83.138519 210.553546 
L 83.987629 203.690042 
L 84.710216 208.55887 
L 85.472165 207.781577 
L 86.301593 207.077574 
L 87.069166 207.301671 
L 87.982943 206.854534 
L 88.722399 210.096543 
L 89.594002 208.627932 
L 90.378444 204.853163 
L 91.286598 205.712554 
L 92.009185 208.139569 
L 92.922962 203.638246 
L 93.738332 210.522187 
L 94.542455 207.09942 
L 95.380319 205.192832 
L 96.403749 207.901378 
L 97.2388 209.01693 
L 98.158201 211.864656 
L 99.097282 209.563431 
L 99.923899 204.021607 
L 100.922024 201.746105 
L 101.942643 206.735438 
L 103.067291 208.53491 
L 104.045736 207.942955 
L 105.097282 211.222314 
L 106.224742 202.507894 
L 107.430928 209.758636 
L 108.656795 211.930546 
L 109.68866 208.995084 
L 110.92015 210.799842 
L 112.264105 210.605695 
L 113.543393 201.307776 
L 114.721462 208.912281 
L 115.927648 211.513359 
L 117.190066 209.509521 
L 118.652109 201.561119 
L 120.080412 208.689946 
L 121.424367 208.515178 
L 123.001687 209.058861 
L 124.413121 206.64594 
L 126.139456 204.523007 
L 127.756139 206.384846 
L 129.395314 204.32886 
L 131.189128 209.165271 
L 132.957638 210.998569 
L 134.672727 209.374217 
L 136.576195 209.384788 
L 138.265979 210.99117 
L 140.121649 204.576212 
L 142.396251 207.890102 
L 144.533083 211.388625 
L 146.757076 210.344953 
L 149.189128 201.284873 
L 151.632427 200.994886 
L 153.895783 203.433881 
L 156.507779 211.827306 
L 159.392502 205.52334 
L 162.274414 206.253065 
L 165.035426 209.465829 
L 168.080412 200.63478 
L 171.333458 207.794967 
L 174.760825 206.249542 
L 178.750515 205.506075 
L 183.30253 204.358458 
L 187.79269 203.685109 
L 192.372821 210.916823 
L 197.402812 205.266826 
L 203.357826 206.235448 
L 208.817994 208.056061 
L 215.523711 206.197041 
L 223.609934 200.351135 
L 231.937957 207.751979 
L 242.48716 207.226267 
L 257.138519 210.588077 
L 276.091659 203.185823 
L 303.069166 206.450384 
L 373.581818 194.58169 
" style="fill:none;stroke:#7f7f7f;stroke-linecap:square;stroke-width:1.5;"/>
   </g>
   <g id="line2d_21">
    <path clip-path="url(#pfde23a743c)" d="M 69.218182 242.080776 
L 69.274414 242.085356 
L 69.85642 242.089232 
L 70.458107 242.087471 
L 71.056982 242.082538 
L 71.720525 242.080071 
L 72.294096 242.098394 
L 72.909841 242.091699 
L 73.590253 242.09487 
L 74.169447 242.097337 
L 74.875164 241.709747 
L 75.578069 241.571624 
L 76.174133 241.645619 
L 76.829241 241.728422 
L 77.450609 241.585014 
L 78.057919 241.585366 
L 78.819869 241.574443 
L 79.553702 241.554007 
L 80.259419 241.59347 
L 81.015745 241.574795 
L 81.833927 241.364792 
L 82.486223 241.507496 
L 83.138519 241.582195 
L 83.987629 241.522295 
L 84.710216 241.63681 
L 85.472165 241.499744 
L 86.301593 241.453938 
L 87.069166 241.5755 
L 87.982943 241.581138 
L 88.722399 241.488469 
L 89.594002 238.832072 
L 90.378444 238.391277 
L 91.286598 238.597756 
L 92.009185 238.509315 
L 92.922962 238.440254 
L 93.738332 237.963167 
L 94.542455 238.495926 
L 95.380319 238.766534 
L 96.403749 237.292989 
L 97.2388 238.233775 
L 98.158201 237.777828 
L 99.097282 238.66717 
L 99.923899 238.593528 
L 100.922024 238.178103 
L 101.942643 237.921589 
L 103.067291 238.407133 
L 104.045736 238.22109 
L 105.097282 238.334195 
L 106.224742 237.999811 
L 107.430928 237.804607 
L 108.656795 237.654505 
L 109.68866 237.670008 
L 110.92015 238.245402 
L 112.264105 237.562892 
L 113.543393 228.3062 
L 114.721462 183.925447 
L 115.927648 188.297456 
L 117.190066 183.066408 
L 118.652109 169.241798 
L 120.080412 182.721454 
L 121.424367 184.298238 
L 123.001687 183.31517 
L 124.413121 178.963598 
L 126.139456 175.091227 
L 127.756139 177.282517 
L 129.395314 177.05102 
L 131.189128 181.110843 
L 132.957638 186.37466 
L 134.672727 182.097435 
L 136.576195 181.931828 
L 138.265979 186.14563 
L 140.121649 173.738892 
L 142.396251 179.704951 
L 144.533083 185.004355 
L 146.757076 184.830645 
L 149.189128 168.109684 
L 151.632427 164.649567 
L 153.895783 172.330533 
L 156.507779 185.007174 
L 159.392502 174.145156 
L 162.274414 174.866425 
L 165.035426 179.112291 
L 168.080412 167.040994 
L 171.333458 178.216607 
L 174.760825 175.193762 
L 178.750515 172.442934 
L 183.30253 171.757605 
L 187.79269 167.992703 
L 192.372821 183.77464 
L 197.402812 172.222008 
L 203.357826 172.502482 
L 208.817994 174.385462 
L 215.523711 170.730493 
L 223.609934 162.351867 
L 231.937957 175.41504 
L 242.48716 171.049021 
L 257.138519 174.674392 
L 276.091659 163.425137 
L 303.069166 167.13613 
L 373.581818 140.640868 
" style="fill:none;stroke:#bcbd22;stroke-linecap:square;stroke-width:1.5;"/>
   </g>
   <g id="patch_3">
    <path d="M 54 252 
L 54 34.56 
" style="fill:none;stroke:#000000;stroke-linecap:square;stroke-linejoin:miter;stroke-width:0.8;"/>
   </g>
   <g id="patch_4">
    <path d="M 388.8 252 
L 388.8 34.56 
" style="fill:none;stroke:#000000;stroke-linecap:square;stroke-linejoin:miter;stroke-width:0.8;"/>
   </g>
   <g id="patch_5">
    <path d="M 54 252 
L 388.8 252 
" style="fill:none;stroke:#000000;stroke-linecap:square;stroke-linejoin:miter;stroke-width:0.8;"/>
   </g>
   <g id="patch_6">
    <path d="M 54 34.56 
L 388.8 34.56 
" style="fill:none;stroke:#000000;stroke-linecap:square;stroke-linejoin:miter;stroke-width:0.8;"/>
   </g>
   <g id="legend_1">
    <g id="patch_7">
     <path d="M 220.735938 174.663125 
L 381.8 174.663125 
Q 383.8 174.663125 383.8 172.663125 
L 383.8 41.56 
Q 383.8 39.56 381.8 39.56 
L 220.735938 39.56 
Q 218.735938 39.56 218.735938 41.56 
L 218.735938 172.663125 
Q 218.735938 174.663125 220.735938 174.663125 
z
" style="fill:#ffffff;opacity:0.8;stroke:#cccccc;stroke-linejoin:miter;"/>
    </g>
    <g id="line2d_22">
     <path d="M 222.735938 47.658437 
L 242.735938 47.658437 
" style="fill:none;stroke:#1f77b4;stroke-linecap:square;stroke-width:1.5;"/>
    </g>
    <g id="line2d_23"/>
    <g id="text_15">
     <!-- FCFS -->
     <g transform="translate(250.735938 51.158437)scale(0.1 -0.1)">
      <defs>
       <path d="M 628 4666 
L 3309 4666 
L 3309 4134 
L 1259 4134 
L 1259 2759 
L 3109 2759 
L 3109 2228 
L 1259 2228 
L 1259 0 
L 628 0 
L 628 4666 
z
" id="DejaVuSans-46" transform="scale(0.015625)"/>
       <path d="M 4122 4306 
L 4122 3641 
Q 3803 3938 3442 4084 
Q 3081 4231 2675 4231 
Q 1875 4231 1450 3742 
Q 1025 3253 1025 2328 
Q 1025 1406 1450 917 
Q 1875 428 2675 428 
Q 3081 428 3442 575 
Q 3803 722 4122 1019 
L 4122 359 
Q 3791 134 3420 21 
Q 3050 -91 2638 -91 
Q 1578 -91 968 557 
Q 359 1206 359 2328 
Q 359 3453 968 4101 
Q 1578 4750 2638 4750 
Q 3056 4750 3426 4639 
Q 3797 4528 4122 4306 
z
" id="DejaVuSans-43" transform="scale(0.015625)"/>
       <path d="M 3425 4513 
L 3425 3897 
Q 3066 4069 2747 4153 
Q 2428 4238 2131 4238 
Q 1616 4238 1336 4038 
Q 1056 3838 1056 3469 
Q 1056 3159 1242 3001 
Q 1428 2844 1947 2747 
L 2328 2669 
Q 3034 2534 3370 2195 
Q 3706 1856 3706 1288 
Q 3706 609 3251 259 
Q 2797 -91 1919 -91 
Q 1588 -91 1214 -16 
Q 841 59 441 206 
L 441 856 
Q 825 641 1194 531 
Q 1563 422 1919 422 
Q 2459 422 2753 634 
Q 3047 847 3047 1241 
Q 3047 1584 2836 1778 
Q 2625 1972 2144 2069 
L 1759 2144 
Q 1053 2284 737 2584 
Q 422 2884 422 3419 
Q 422 4038 858 4394 
Q 1294 4750 2059 4750 
Q 2388 4750 2728 4690 
Q 3069 4631 3425 4513 
z
" id="DejaVuSans-53" transform="scale(0.015625)"/>
      </defs>
      <use xlink:href="#DejaVuSans-46"/>
      <use x="57.519531" xlink:href="#DejaVuSans-43"/>
      <use x="127.34375" xlink:href="#DejaVuSans-46"/>
      <use x="183.113281" xlink:href="#DejaVuSans-53"/>
     </g>
    </g>
    <g id="line2d_24">
     <path d="M 222.735938 62.336563 
L 242.735938 62.336563 
" style="fill:none;stroke:#ff7f0e;stroke-linecap:square;stroke-width:1.5;"/>
    </g>
    <g id="line2d_25"/>
    <g id="text_16">
     <!-- SJF -->
     <g transform="translate(250.735938 65.836563)scale(0.1 -0.1)">
      <defs>
       <path d="M 628 4666 
L 1259 4666 
L 1259 325 
Q 1259 -519 939 -900 
Q 619 -1281 -91 -1281 
L -331 -1281 
L -331 -750 
L -134 -750 
Q 284 -750 456 -515 
Q 628 -281 628 325 
L 628 4666 
z
" id="DejaVuSans-4a" transform="scale(0.015625)"/>
      </defs>
      <use xlink:href="#DejaVuSans-53"/>
      <use x="63.476562" xlink:href="#DejaVuSans-4a"/>
      <use x="92.96875" xlink:href="#DejaVuSans-46"/>
     </g>
    </g>
    <g id="line2d_26">
     <path d="M 222.735938 77.014687 
L 242.735938 77.014687 
" style="fill:none;stroke:#2ca02c;stroke-linecap:square;stroke-width:1.5;"/>
    </g>
    <g id="line2d_27"/>
    <g id="text_17">
     <!-- SRT -->
     <g transform="translate(250.735938 80.514687)scale(0.1 -0.1)">
      <defs>
       <path d="M 2841 2188 
Q 3044 2119 3236 1894 
Q 3428 1669 3622 1275 
L 4263 0 
L 3584 0 
L 2988 1197 
Q 2756 1666 2539 1819 
Q 2322 1972 1947 1972 
L 1259 1972 
L 1259 0 
L 628 0 
L 628 4666 
L 2053 4666 
Q 2853 4666 3247 4331 
Q 3641 3997 3641 3322 
Q 3641 2881 3436 2590 
Q 3231 2300 2841 2188 
z
M 1259 4147 
L 1259 2491 
L 2053 2491 
Q 2509 2491 2742 2702 
Q 2975 2913 2975 3322 
Q 2975 3731 2742 3939 
Q 2509 4147 2053 4147 
L 1259 4147 
z
" id="DejaVuSans-52" transform="scale(0.015625)"/>
       <path d="M -19 4666 
L 3928 4666 
L 3928 4134 
L 2272 4134 
L 2272 0 
L 1638 0 
L 1638 4134 
L -19 4134 
L -19 4666 
z
" id="DejaVuSans-54" transform="scale(0.015625)"/>
      </defs>
      <use xlink:href="#DejaVuSans-53"/>
      <use x="63.476562" xlink:href="#DejaVuSans-52"/>
      <use x="125.708984" xlink:href="#DejaVuSans-54"/>
     </g>
    </g>
    <g id="line2d_28">
     <path d="M 222.735938 91.692813 
L 242.735938 91.692813 
" style="fill:none;stroke:#d62728;stroke-linecap:square;stroke-width:1.5;"/>
    </g>
    <g id="line2d_29"/>
    <g id="text_18">
     <!-- RR met q=2 -->
     <g transform="translate(250.735938 95.192813)scale(0.1 -0.1)">
      <defs>
       <path id="DejaVuSans-20" transform="scale(0.015625)"/>
       <path d="M 3328 2828 
Q 3544 3216 3844 3400 
Q 4144 3584 4550 3584 
Q 5097 3584 5394 3201 
Q 5691 2819 5691 2113 
L 5691 0 
L 5113 0 
L 5113 2094 
Q 5113 2597 4934 2840 
Q 4756 3084 4391 3084 
Q 3944 3084 3684 2787 
Q 3425 2491 3425 1978 
L 3425 0 
L 2847 0 
L 2847 2094 
Q 2847 2600 2669 2842 
Q 2491 3084 2119 3084 
Q 1678 3084 1418 2786 
Q 1159 2488 1159 1978 
L 1159 0 
L 581 0 
L 581 3500 
L 1159 3500 
L 1159 2956 
Q 1356 3278 1631 3431 
Q 1906 3584 2284 3584 
Q 2666 3584 2933 3390 
Q 3200 3197 3328 2828 
z
" id="DejaVuSans-6d" transform="scale(0.015625)"/>
       <path d="M 947 1747 
Q 947 1113 1208 752 
Q 1469 391 1925 391 
Q 2381 391 2643 752 
Q 2906 1113 2906 1747 
Q 2906 2381 2643 2742 
Q 2381 3103 1925 3103 
Q 1469 3103 1208 2742 
Q 947 2381 947 1747 
z
M 2906 525 
Q 2725 213 2448 61 
Q 2172 -91 1784 -91 
Q 1150 -91 751 415 
Q 353 922 353 1747 
Q 353 2572 751 3078 
Q 1150 3584 1784 3584 
Q 2172 3584 2448 3432 
Q 2725 3281 2906 2969 
L 2906 3500 
L 3481 3500 
L 3481 -1331 
L 2906 -1331 
L 2906 525 
z
" id="DejaVuSans-71" transform="scale(0.015625)"/>
       <path d="M 678 2906 
L 4684 2906 
L 4684 2381 
L 678 2381 
L 678 2906 
z
M 678 1631 
L 4684 1631 
L 4684 1100 
L 678 1100 
L 678 1631 
z
" id="DejaVuSans-3d" transform="scale(0.015625)"/>
      </defs>
      <use xlink:href="#DejaVuSans-52"/>
      <use x="69.482422" xlink:href="#DejaVuSans-52"/>
      <use x="138.964844" xlink:href="#DejaVuSans-20"/>
      <use x="170.751953" xlink:href="#DejaVuSans-6d"/>
      <use x="268.164062" xlink:href="#DejaVuSans-65"/>
      <use x="329.6875" xlink:href="#DejaVuSans-74"/>
      <use x="368.896484" xlink:href="#DejaVuSans-20"/>
      <use x="400.683594" xlink:href="#DejaVuSans-71"/>
      <use x="464.160156" xlink:href="#DejaVuSans-3d"/>
      <use x="547.949219" xlink:href="#DejaVuSans-32"/>
     </g>
    </g>
    <g id="line2d_30">
     <path d="M 222.735938 106.370937 
L 242.735938 106.370937 
" style="fill:none;stroke:#9467bd;stroke-linecap:square;stroke-width:1.5;"/>
    </g>
    <g id="line2d_31"/>
    <g id="text_19">
     <!-- RR met q=4 -->
     <g transform="translate(250.735938 109.870937)scale(0.1 -0.1)">
      <use xlink:href="#DejaVuSans-52"/>
      <use x="69.482422" xlink:href="#DejaVuSans-52"/>
      <use x="138.964844" xlink:href="#DejaVuSans-20"/>
      <use x="170.751953" xlink:href="#DejaVuSans-6d"/>
      <use x="268.164062" xlink:href="#DejaVuSans-65"/>
      <use x="329.6875" xlink:href="#DejaVuSans-74"/>
      <use x="368.896484" xlink:href="#DejaVuSans-20"/>
      <use x="400.683594" xlink:href="#DejaVuSans-71"/>
      <use x="464.160156" xlink:href="#DejaVuSans-3d"/>
      <use x="547.949219" xlink:href="#DejaVuSans-34"/>
     </g>
    </g>
    <g id="line2d_32">
     <path d="M 222.735938 121.049062 
L 242.735938 121.049062 
" style="fill:none;stroke:#8c564b;stroke-linecap:square;stroke-width:1.5;"/>
    </g>
    <g id="line2d_33"/>
    <g id="text_20">
     <!-- RR met q=8 -->
     <g transform="translate(250.735938 124.549062)scale(0.1 -0.1)">
      <defs>
       <path d="M 2034 2216 
Q 1584 2216 1326 1975 
Q 1069 1734 1069 1313 
Q 1069 891 1326 650 
Q 1584 409 2034 409 
Q 2484 409 2743 651 
Q 3003 894 3003 1313 
Q 3003 1734 2745 1975 
Q 2488 2216 2034 2216 
z
M 1403 2484 
Q 997 2584 770 2862 
Q 544 3141 544 3541 
Q 544 4100 942 4425 
Q 1341 4750 2034 4750 
Q 2731 4750 3128 4425 
Q 3525 4100 3525 3541 
Q 3525 3141 3298 2862 
Q 3072 2584 2669 2484 
Q 3125 2378 3379 2068 
Q 3634 1759 3634 1313 
Q 3634 634 3220 271 
Q 2806 -91 2034 -91 
Q 1263 -91 848 271 
Q 434 634 434 1313 
Q 434 1759 690 2068 
Q 947 2378 1403 2484 
z
M 1172 3481 
Q 1172 3119 1398 2916 
Q 1625 2713 2034 2713 
Q 2441 2713 2670 2916 
Q 2900 3119 2900 3481 
Q 2900 3844 2670 4047 
Q 2441 4250 2034 4250 
Q 1625 4250 1398 4047 
Q 1172 3844 1172 3481 
z
" id="DejaVuSans-38" transform="scale(0.015625)"/>
      </defs>
      <use xlink:href="#DejaVuSans-52"/>
      <use x="69.482422" xlink:href="#DejaVuSans-52"/>
      <use x="138.964844" xlink:href="#DejaVuSans-20"/>
      <use x="170.751953" xlink:href="#DejaVuSans-6d"/>
      <use x="268.164062" xlink:href="#DejaVuSans-65"/>
      <use x="329.6875" xlink:href="#DejaVuSans-74"/>
      <use x="368.896484" xlink:href="#DejaVuSans-20"/>
      <use x="400.683594" xlink:href="#DejaVuSans-71"/>
      <use x="464.160156" xlink:href="#DejaVuSans-3d"/>
      <use x="547.949219" xlink:href="#DejaVuSans-38"/>
     </g>
    </g>
    <g id="line2d_34">
     <path d="M 222.735938 135.727187 
L 242.735938 135.727187 
" style="fill:none;stroke:#e377c2;stroke-linecap:square;stroke-width:1.5;"/>
    </g>
    <g id="line2d_35"/>
    <g id="text_21">
     <!-- HRRN -->
     <g transform="translate(250.735938 139.227187)scale(0.1 -0.1)">
      <defs>
       <path d="M 628 4666 
L 1259 4666 
L 1259 2753 
L 3553 2753 
L 3553 4666 
L 4184 4666 
L 4184 0 
L 3553 0 
L 3553 2222 
L 1259 2222 
L 1259 0 
L 628 0 
L 628 4666 
z
" id="DejaVuSans-48" transform="scale(0.015625)"/>
       <path d="M 628 4666 
L 1478 4666 
L 3547 763 
L 3547 4666 
L 4159 4666 
L 4159 0 
L 3309 0 
L 1241 3903 
L 1241 0 
L 628 0 
L 628 4666 
z
" id="DejaVuSans-4e" transform="scale(0.015625)"/>
      </defs>
      <use xlink:href="#DejaVuSans-48"/>
      <use x="75.195312" xlink:href="#DejaVuSans-52"/>
      <use x="144.677734" xlink:href="#DejaVuSans-52"/>
      <use x="214.160156" xlink:href="#DejaVuSans-4e"/>
     </g>
    </g>
    <g id="line2d_36">
     <path d="M 222.735938 150.405312 
L 242.735938 150.405312 
" style="fill:none;stroke:#7f7f7f;stroke-linecap:square;stroke-width:1.5;"/>
    </g>
    <g id="line2d_37"/>
    <g id="text_22">
     <!-- MLFB met q=1 -->
     <g transform="translate(250.735938 153.905312)scale(0.1 -0.1)">
      <defs>
       <path d="M 628 4666 
L 1569 4666 
L 2759 1491 
L 3956 4666 
L 4897 4666 
L 4897 0 
L 4281 0 
L 4281 4097 
L 3078 897 
L 2444 897 
L 1241 4097 
L 1241 0 
L 628 0 
L 628 4666 
z
" id="DejaVuSans-4d" transform="scale(0.015625)"/>
       <path d="M 628 4666 
L 1259 4666 
L 1259 531 
L 3531 531 
L 3531 0 
L 628 0 
L 628 4666 
z
" id="DejaVuSans-4c" transform="scale(0.015625)"/>
       <path d="M 1259 2228 
L 1259 519 
L 2272 519 
Q 2781 519 3026 730 
Q 3272 941 3272 1375 
Q 3272 1813 3026 2020 
Q 2781 2228 2272 2228 
L 1259 2228 
z
M 1259 4147 
L 1259 2741 
L 2194 2741 
Q 2656 2741 2882 2914 
Q 3109 3088 3109 3444 
Q 3109 3797 2882 3972 
Q 2656 4147 2194 4147 
L 1259 4147 
z
M 628 4666 
L 2241 4666 
Q 2963 4666 3353 4366 
Q 3744 4066 3744 3513 
Q 3744 3084 3544 2831 
Q 3344 2578 2956 2516 
Q 3422 2416 3680 2098 
Q 3938 1781 3938 1306 
Q 3938 681 3513 340 
Q 3088 0 2303 0 
L 628 0 
L 628 4666 
z
" id="DejaVuSans-42" transform="scale(0.015625)"/>
      </defs>
      <use xlink:href="#DejaVuSans-4d"/>
      <use x="86.279297" xlink:href="#DejaVuSans-4c"/>
      <use x="141.992188" xlink:href="#DejaVuSans-46"/>
      <use x="199.511719" xlink:href="#DejaVuSans-42"/>
      <use x="268.115234" xlink:href="#DejaVuSans-20"/>
      <use x="299.902344" xlink:href="#DejaVuSans-6d"/>
      <use x="397.314453" xlink:href="#DejaVuSans-65"/>
      <use x="458.837891" xlink:href="#DejaVuSans-74"/>
      <use x="498.046875" xlink:href="#DejaVuSans-20"/>
      <use x="529.833984" xlink:href="#DejaVuSans-71"/>
      <use x="593.310547" xlink:href="#DejaVuSans-3d"/>
      <use x="677.099609" xlink:href="#DejaVuSans-31"/>
     </g>
    </g>
    <g id="line2d_38">
     <path d="M 222.735938 165.083437 
L 242.735938 165.083437 
" style="fill:none;stroke:#bcbd22;stroke-linecap:square;stroke-width:1.5;"/>
    </g>
    <g id="line2d_39"/>
    <g id="text_23">
     <!-- MLFB met verschillende q -->
     <g transform="translate(250.735938 168.583437)scale(0.1 -0.1)">
      <defs>
       <path d="M 191 3500 
L 800 3500 
L 1894 563 
L 2988 3500 
L 3597 3500 
L 2284 0 
L 1503 0 
L 191 3500 
z
" id="DejaVuSans-76" transform="scale(0.015625)"/>
       <path d="M 2631 2963 
Q 2534 3019 2420 3045 
Q 2306 3072 2169 3072 
Q 1681 3072 1420 2755 
Q 1159 2438 1159 1844 
L 1159 0 
L 581 0 
L 581 3500 
L 1159 3500 
L 1159 2956 
Q 1341 3275 1631 3429 
Q 1922 3584 2338 3584 
Q 2397 3584 2469 3576 
Q 2541 3569 2628 3553 
L 2631 2963 
z
" id="DejaVuSans-72" transform="scale(0.015625)"/>
       <path d="M 603 4863 
L 1178 4863 
L 1178 0 
L 603 0 
L 603 4863 
z
" id="DejaVuSans-6c" transform="scale(0.015625)"/>
      </defs>
      <use xlink:href="#DejaVuSans-4d"/>
      <use x="86.279297" xlink:href="#DejaVuSans-4c"/>
      <use x="141.992188" xlink:href="#DejaVuSans-46"/>
      <use x="199.511719" xlink:href="#DejaVuSans-42"/>
      <use x="268.115234" xlink:href="#DejaVuSans-20"/>
      <use x="299.902344" xlink:href="#DejaVuSans-6d"/>
      <use x="397.314453" xlink:href="#DejaVuSans-65"/>
      <use x="458.837891" xlink:href="#DejaVuSans-74"/>
      <use x="498.046875" xlink:href="#DejaVuSans-20"/>
      <use x="529.833984" xlink:href="#DejaVuSans-76"/>
      <use x="589.013672" xlink:href="#DejaVuSans-65"/>
      <use x="650.537109" xlink:href="#DejaVuSans-72"/>
      <use x="691.650391" xlink:href="#DejaVuSans-73"/>
      <use x="743.75" xlink:href="#DejaVuSans-63"/>
      <use x="798.730469" xlink:href="#DejaVuSans-68"/>
      <use x="862.109375" xlink:href="#DejaVuSans-69"/>
      <use x="889.892578" xlink:href="#DejaVuSans-6c"/>
      <use x="917.675781" xlink:href="#DejaVuSans-6c"/>
      <use x="945.458984" xlink:href="#DejaVuSans-65"/>
      <use x="1006.982422" xlink:href="#DejaVuSans-6e"/>
      <use x="1070.361328" xlink:href="#DejaVuSans-64"/>
      <use x="1133.837891" xlink:href="#DejaVuSans-65"/>
      <use x="1195.361328" xlink:href="#DejaVuSans-20"/>
      <use x="1227.148438" xlink:href="#DejaVuSans-71"/>
     </g>
    </g>
   </g>
  </g>
 </g>
 <defs>
  <clipPath id="pfde23a743c">
   <rect height="217.44" width="334.8" x="54" y="34.56"/>
  </clipPath>
 </defs>
</svg>
