<?xml version="1.0" encoding="utf-8" standalone="no"?>
<!DOCTYPE svg PUBLIC "-//W3C//DTD SVG 1.1//EN"
  "http://www.w3.org/Graphics/SVG/1.1/DTD/svg11.dtd">
<svg height="288pt" version="1.1" viewBox="0 0 432 288" width="432pt" xmlns="http://www.w3.org/2000/svg" xmlns:xlink="http://www.w3.org/1999/xlink">
 <metadata>
  <rdf:RDF xmlns:cc="http://creativecommons.org/ns#" xmlns:dc="http://purl.org/dc/elements/1.1/" xmlns:rdf="http://www.w3.org/1999/02/22-rdf-syntax-ns#">
   <cc:Work>
    <dc:type rdf:resource="http://purl.org/dc/dcmitype/StillImage"/>
    <dc:date>2022-03-29T19:56:56.873882</dc:date>
    <dc:format>image/svg+xml</dc:format>
    <dc:creator>
     <cc:Agent>
      <dc:title>Matplotlib v3.4.3, https://matplotlib.org/</dc:title>
     </cc:Agent>
    </dc:creator>
   </cc:Work>
  </rdf:RDF>
 </metadata>
 <defs>
  <style type="text/css">*{stroke-linecap:butt;stroke-linejoin:round;}</style>
 </defs>
 <g id="figure_1">
  <g id="patch_1">
   <path d="M 0 288 
L 432 288 
L 432 0 
L 0 0 
z
" style="fill:none;"/>
  </g>
  <g id="axes_1">
   <g id="patch_2">
    <path d="M 54 252 
L 388.8 252 
L 388.8 34.56 
L 54 34.56 
z
" style="fill:#ffffff;"/>
   </g>
   <g id="matplotlib.axis_1">
    <g id="xtick_1">
     <g id="line2d_1">
      <defs>
       <path d="M 0 0 
L 0 3.5 
" id="mea052201a4" style="stroke:#000000;stroke-width:0.8;"/>
      </defs>
      <g>
       <use style="stroke:#000000;stroke-width:0.8;" x="68.676311" xlink:href="#mea052201a4" y="252"/>
      </g>
     </g>
     <g id="text_1">
      <!-- 0 -->
      <g transform="translate(65.495061 266.598437)scale(0.1 -0.1)">
       <defs>
        <path d="M 2034 4250 
Q 1547 4250 1301 3770 
Q 1056 3291 1056 2328 
Q 1056 1369 1301 889 
Q 1547 409 2034 409 
Q 2525 409 2770 889 
Q 3016 1369 3016 2328 
Q 3016 3291 2770 3770 
Q 2525 4250 2034 4250 
z
M 2034 4750 
Q 2819 4750 3233 4129 
Q 3647 3509 3647 2328 
Q 3647 1150 3233 529 
Q 2819 -91 2034 -91 
Q 1250 -91 836 529 
Q 422 1150 422 2328 
Q 422 3509 836 4129 
Q 1250 4750 2034 4750 
z
" id="DejaVuSans-30" transform="scale(0.015625)"/>
       </defs>
       <use xlink:href="#DejaVuSans-30"/>
      </g>
     </g>
    </g>
    <g id="xtick_2">
     <g id="line2d_2">
      <g>
       <use style="stroke:#000000;stroke-width:0.8;" x="122.863431" xlink:href="#mea052201a4" y="252"/>
      </g>
     </g>
     <g id="text_2">
      <!-- 100 -->
      <g transform="translate(113.319681 266.598437)scale(0.1 -0.1)">
       <defs>
        <path d="M 794 531 
L 1825 531 
L 1825 4091 
L 703 3866 
L 703 4441 
L 1819 4666 
L 2450 4666 
L 2450 531 
L 3481 531 
L 3481 0 
L 794 0 
L 794 531 
z
" id="DejaVuSans-31" transform="scale(0.015625)"/>
       </defs>
       <use xlink:href="#DejaVuSans-31"/>
       <use x="63.623047" xlink:href="#DejaVuSans-30"/>
       <use x="127.246094" xlink:href="#DejaVuSans-30"/>
      </g>
     </g>
    </g>
    <g id="xtick_3">
     <g id="line2d_3">
      <g>
       <use style="stroke:#000000;stroke-width:0.8;" x="177.050551" xlink:href="#mea052201a4" y="252"/>
      </g>
     </g>
     <g id="text_3">
      <!-- 200 -->
      <g transform="translate(167.506801 266.598437)scale(0.1 -0.1)">
       <defs>
        <path d="M 1228 531 
L 3431 531 
L 3431 0 
L 469 0 
L 469 531 
Q 828 903 1448 1529 
Q 2069 2156 2228 2338 
Q 2531 2678 2651 2914 
Q 2772 3150 2772 3378 
Q 2772 3750 2511 3984 
Q 2250 4219 1831 4219 
Q 1534 4219 1204 4116 
Q 875 4013 500 3803 
L 500 4441 
Q 881 4594 1212 4672 
Q 1544 4750 1819 4750 
Q 2544 4750 2975 4387 
Q 3406 4025 3406 3419 
Q 3406 3131 3298 2873 
Q 3191 2616 2906 2266 
Q 2828 2175 2409 1742 
Q 1991 1309 1228 531 
z
" id="DejaVuSans-32" transform="scale(0.015625)"/>
       </defs>
       <use xlink:href="#DejaVuSans-32"/>
       <use x="63.623047" xlink:href="#DejaVuSans-30"/>
       <use x="127.246094" xlink:href="#DejaVuSans-30"/>
      </g>
     </g>
    </g>
    <g id="xtick_4">
     <g id="line2d_4">
      <g>
       <use style="stroke:#000000;stroke-width:0.8;" x="231.237672" xlink:href="#mea052201a4" y="252"/>
      </g>
     </g>
     <g id="text_4">
      <!-- 300 -->
      <g transform="translate(221.693922 266.598437)scale(0.1 -0.1)">
       <defs>
        <path d="M 2597 2516 
Q 3050 2419 3304 2112 
Q 3559 1806 3559 1356 
Q 3559 666 3084 287 
Q 2609 -91 1734 -91 
Q 1441 -91 1130 -33 
Q 819 25 488 141 
L 488 750 
Q 750 597 1062 519 
Q 1375 441 1716 441 
Q 2309 441 2620 675 
Q 2931 909 2931 1356 
Q 2931 1769 2642 2001 
Q 2353 2234 1838 2234 
L 1294 2234 
L 1294 2753 
L 1863 2753 
Q 2328 2753 2575 2939 
Q 2822 3125 2822 3475 
Q 2822 3834 2567 4026 
Q 2313 4219 1838 4219 
Q 1578 4219 1281 4162 
Q 984 4106 628 3988 
L 628 4550 
Q 988 4650 1302 4700 
Q 1616 4750 1894 4750 
Q 2613 4750 3031 4423 
Q 3450 4097 3450 3541 
Q 3450 3153 3228 2886 
Q 3006 2619 2597 2516 
z
" id="DejaVuSans-33" transform="scale(0.015625)"/>
       </defs>
       <use xlink:href="#DejaVuSans-33"/>
       <use x="63.623047" xlink:href="#DejaVuSans-30"/>
       <use x="127.246094" xlink:href="#DejaVuSans-30"/>
      </g>
     </g>
    </g>
    <g id="xtick_5">
     <g id="line2d_5">
      <g>
       <use style="stroke:#000000;stroke-width:0.8;" x="285.424792" xlink:href="#mea052201a4" y="252"/>
      </g>
     </g>
     <g id="text_5">
      <!-- 400 -->
      <g transform="translate(275.881042 266.598437)scale(0.1 -0.1)">
       <defs>
        <path d="M 2419 4116 
L 825 1625 
L 2419 1625 
L 2419 4116 
z
M 2253 4666 
L 3047 4666 
L 3047 1625 
L 3713 1625 
L 3713 1100 
L 3047 1100 
L 3047 0 
L 2419 0 
L 2419 1100 
L 313 1100 
L 313 1709 
L 2253 4666 
z
" id="DejaVuSans-34" transform="scale(0.015625)"/>
       </defs>
       <use xlink:href="#DejaVuSans-34"/>
       <use x="63.623047" xlink:href="#DejaVuSans-30"/>
       <use x="127.246094" xlink:href="#DejaVuSans-30"/>
      </g>
     </g>
    </g>
    <g id="xtick_6">
     <g id="line2d_6">
      <g>
       <use style="stroke:#000000;stroke-width:0.8;" x="339.611912" xlink:href="#mea052201a4" y="252"/>
      </g>
     </g>
     <g id="text_6">
      <!-- 500 -->
      <g transform="translate(330.068162 266.598437)scale(0.1 -0.1)">
       <defs>
        <path d="M 691 4666 
L 3169 4666 
L 3169 4134 
L 1269 4134 
L 1269 2991 
Q 1406 3038 1543 3061 
Q 1681 3084 1819 3084 
Q 2600 3084 3056 2656 
Q 3513 2228 3513 1497 
Q 3513 744 3044 326 
Q 2575 -91 1722 -91 
Q 1428 -91 1123 -41 
Q 819 9 494 109 
L 494 744 
Q 775 591 1075 516 
Q 1375 441 1709 441 
Q 2250 441 2565 725 
Q 2881 1009 2881 1497 
Q 2881 1984 2565 2268 
Q 2250 2553 1709 2553 
Q 1456 2553 1204 2497 
Q 953 2441 691 2322 
L 691 4666 
z
" id="DejaVuSans-35" transform="scale(0.015625)"/>
       </defs>
       <use xlink:href="#DejaVuSans-35"/>
       <use x="63.623047" xlink:href="#DejaVuSans-30"/>
       <use x="127.246094" xlink:href="#DejaVuSans-30"/>
      </g>
     </g>
    </g>
    <g id="text_7">
     <!-- bedieningstijd -->
     <g transform="translate(186.091406 280.276563)scale(0.1 -0.1)">
      <defs>
       <path d="M 3116 1747 
Q 3116 2381 2855 2742 
Q 2594 3103 2138 3103 
Q 1681 3103 1420 2742 
Q 1159 2381 1159 1747 
Q 1159 1113 1420 752 
Q 1681 391 2138 391 
Q 2594 391 2855 752 
Q 3116 1113 3116 1747 
z
M 1159 2969 
Q 1341 3281 1617 3432 
Q 1894 3584 2278 3584 
Q 2916 3584 3314 3078 
Q 3713 2572 3713 1747 
Q 3713 922 3314 415 
Q 2916 -91 2278 -91 
Q 1894 -91 1617 61 
Q 1341 213 1159 525 
L 1159 0 
L 581 0 
L 581 4863 
L 1159 4863 
L 1159 2969 
z
" id="DejaVuSans-62" transform="scale(0.015625)"/>
       <path d="M 3597 1894 
L 3597 1613 
L 953 1613 
Q 991 1019 1311 708 
Q 1631 397 2203 397 
Q 2534 397 2845 478 
Q 3156 559 3463 722 
L 3463 178 
Q 3153 47 2828 -22 
Q 2503 -91 2169 -91 
Q 1331 -91 842 396 
Q 353 884 353 1716 
Q 353 2575 817 3079 
Q 1281 3584 2069 3584 
Q 2775 3584 3186 3129 
Q 3597 2675 3597 1894 
z
M 3022 2063 
Q 3016 2534 2758 2815 
Q 2500 3097 2075 3097 
Q 1594 3097 1305 2825 
Q 1016 2553 972 2059 
L 3022 2063 
z
" id="DejaVuSans-65" transform="scale(0.015625)"/>
       <path d="M 2906 2969 
L 2906 4863 
L 3481 4863 
L 3481 0 
L 2906 0 
L 2906 525 
Q 2725 213 2448 61 
Q 2172 -91 1784 -91 
Q 1150 -91 751 415 
Q 353 922 353 1747 
Q 353 2572 751 3078 
Q 1150 3584 1784 3584 
Q 2172 3584 2448 3432 
Q 2725 3281 2906 2969 
z
M 947 1747 
Q 947 1113 1208 752 
Q 1469 391 1925 391 
Q 2381 391 2643 752 
Q 2906 1113 2906 1747 
Q 2906 2381 2643 2742 
Q 2381 3103 1925 3103 
Q 1469 3103 1208 2742 
Q 947 2381 947 1747 
z
" id="DejaVuSans-64" transform="scale(0.015625)"/>
       <path d="M 603 3500 
L 1178 3500 
L 1178 0 
L 603 0 
L 603 3500 
z
M 603 4863 
L 1178 4863 
L 1178 4134 
L 603 4134 
L 603 4863 
z
" id="DejaVuSans-69" transform="scale(0.015625)"/>
       <path d="M 3513 2113 
L 3513 0 
L 2938 0 
L 2938 2094 
Q 2938 2591 2744 2837 
Q 2550 3084 2163 3084 
Q 1697 3084 1428 2787 
Q 1159 2491 1159 1978 
L 1159 0 
L 581 0 
L 581 3500 
L 1159 3500 
L 1159 2956 
Q 1366 3272 1645 3428 
Q 1925 3584 2291 3584 
Q 2894 3584 3203 3211 
Q 3513 2838 3513 2113 
z
" id="DejaVuSans-6e" transform="scale(0.015625)"/>
       <path d="M 2906 1791 
Q 2906 2416 2648 2759 
Q 2391 3103 1925 3103 
Q 1463 3103 1205 2759 
Q 947 2416 947 1791 
Q 947 1169 1205 825 
Q 1463 481 1925 481 
Q 2391 481 2648 825 
Q 2906 1169 2906 1791 
z
M 3481 434 
Q 3481 -459 3084 -895 
Q 2688 -1331 1869 -1331 
Q 1566 -1331 1297 -1286 
Q 1028 -1241 775 -1147 
L 775 -588 
Q 1028 -725 1275 -790 
Q 1522 -856 1778 -856 
Q 2344 -856 2625 -561 
Q 2906 -266 2906 331 
L 2906 616 
Q 2728 306 2450 153 
Q 2172 0 1784 0 
Q 1141 0 747 490 
Q 353 981 353 1791 
Q 353 2603 747 3093 
Q 1141 3584 1784 3584 
Q 2172 3584 2450 3431 
Q 2728 3278 2906 2969 
L 2906 3500 
L 3481 3500 
L 3481 434 
z
" id="DejaVuSans-67" transform="scale(0.015625)"/>
       <path d="M 2834 3397 
L 2834 2853 
Q 2591 2978 2328 3040 
Q 2066 3103 1784 3103 
Q 1356 3103 1142 2972 
Q 928 2841 928 2578 
Q 928 2378 1081 2264 
Q 1234 2150 1697 2047 
L 1894 2003 
Q 2506 1872 2764 1633 
Q 3022 1394 3022 966 
Q 3022 478 2636 193 
Q 2250 -91 1575 -91 
Q 1294 -91 989 -36 
Q 684 19 347 128 
L 347 722 
Q 666 556 975 473 
Q 1284 391 1588 391 
Q 1994 391 2212 530 
Q 2431 669 2431 922 
Q 2431 1156 2273 1281 
Q 2116 1406 1581 1522 
L 1381 1569 
Q 847 1681 609 1914 
Q 372 2147 372 2553 
Q 372 3047 722 3315 
Q 1072 3584 1716 3584 
Q 2034 3584 2315 3537 
Q 2597 3491 2834 3397 
z
" id="DejaVuSans-73" transform="scale(0.015625)"/>
       <path d="M 1172 4494 
L 1172 3500 
L 2356 3500 
L 2356 3053 
L 1172 3053 
L 1172 1153 
Q 1172 725 1289 603 
Q 1406 481 1766 481 
L 2356 481 
L 2356 0 
L 1766 0 
Q 1100 0 847 248 
Q 594 497 594 1153 
L 594 3053 
L 172 3053 
L 172 3500 
L 594 3500 
L 594 4494 
L 1172 4494 
z
" id="DejaVuSans-74" transform="scale(0.015625)"/>
       <path d="M 603 3500 
L 1178 3500 
L 1178 -63 
Q 1178 -731 923 -1031 
Q 669 -1331 103 -1331 
L -116 -1331 
L -116 -844 
L 38 -844 
Q 366 -844 484 -692 
Q 603 -541 603 -63 
L 603 3500 
z
M 603 4863 
L 1178 4863 
L 1178 4134 
L 603 4134 
L 603 4863 
z
" id="DejaVuSans-6a" transform="scale(0.015625)"/>
      </defs>
      <use xlink:href="#DejaVuSans-62"/>
      <use x="63.476562" xlink:href="#DejaVuSans-65"/>
      <use x="125" xlink:href="#DejaVuSans-64"/>
      <use x="188.476562" xlink:href="#DejaVuSans-69"/>
      <use x="216.259766" xlink:href="#DejaVuSans-65"/>
      <use x="277.783203" xlink:href="#DejaVuSans-6e"/>
      <use x="341.162109" xlink:href="#DejaVuSans-69"/>
      <use x="368.945312" xlink:href="#DejaVuSans-6e"/>
      <use x="432.324219" xlink:href="#DejaVuSans-67"/>
      <use x="495.800781" xlink:href="#DejaVuSans-73"/>
      <use x="547.900391" xlink:href="#DejaVuSans-74"/>
      <use x="587.109375" xlink:href="#DejaVuSans-69"/>
      <use x="614.892578" xlink:href="#DejaVuSans-6a"/>
      <use x="642.675781" xlink:href="#DejaVuSans-64"/>
     </g>
    </g>
   </g>
   <g id="matplotlib.axis_2">
    <g id="ytick_1">
     <g id="line2d_7">
      <defs>
       <path d="M 0 0 
L -3.5 0 
" id="md11e41c145" style="stroke:#000000;stroke-width:0.8;"/>
      </defs>
      <g>
       <use style="stroke:#000000;stroke-width:0.8;" x="54" xlink:href="#md11e41c145" y="242.116364"/>
      </g>
     </g>
     <g id="text_8">
      <!-- $\mathdefault{10^{0}}$ -->
      <g transform="translate(29.4 245.915582)scale(0.1 -0.1)">
       <use transform="translate(0 0.765625)" xlink:href="#DejaVuSans-31"/>
       <use transform="translate(63.623047 0.765625)" xlink:href="#DejaVuSans-30"/>
       <use transform="translate(128.203125 39.046875)scale(0.7)" xlink:href="#DejaVuSans-30"/>
      </g>
     </g>
    </g>
    <g id="ytick_2">
     <g id="line2d_8">
      <g>
       <use style="stroke:#000000;stroke-width:0.8;" x="54" xlink:href="#md11e41c145" y="166.630297"/>
      </g>
     </g>
     <g id="text_9">
      <!-- $\mathdefault{10^{1}}$ -->
      <g transform="translate(29.4 170.429516)scale(0.1 -0.1)">
       <use transform="translate(0 0.684375)" xlink:href="#DejaVuSans-31"/>
       <use transform="translate(63.623047 0.684375)" xlink:href="#DejaVuSans-30"/>
       <use transform="translate(128.203125 38.965625)scale(0.7)" xlink:href="#DejaVuSans-31"/>
      </g>
     </g>
    </g>
    <g id="ytick_3">
     <g id="line2d_9">
      <g>
       <use style="stroke:#000000;stroke-width:0.8;" x="54" xlink:href="#md11e41c145" y="91.14423"/>
      </g>
     </g>
     <g id="text_10">
      <!-- $\mathdefault{10^{2}}$ -->
      <g transform="translate(29.4 94.943449)scale(0.1 -0.1)">
       <use transform="translate(0 0.765625)" xlink:href="#DejaVuSans-31"/>
       <use transform="translate(63.623047 0.765625)" xlink:href="#DejaVuSans-30"/>
       <use transform="translate(128.203125 39.046875)scale(0.7)" xlink:href="#DejaVuSans-32"/>
      </g>
     </g>
    </g>
    <g id="ytick_4">
     <g id="line2d_10">
      <defs>
       <path d="M 0 0 
L -2 0 
" id="m1354d952e1" style="stroke:#000000;stroke-width:0.6;"/>
      </defs>
      <g>
       <use style="stroke:#000000;stroke-width:0.6;" x="54" xlink:href="#m1354d952e1" y="249.431719"/>
      </g>
     </g>
    </g>
    <g id="ytick_5">
     <g id="line2d_11">
      <g>
       <use style="stroke:#000000;stroke-width:0.6;" x="54" xlink:href="#m1354d952e1" y="245.570417"/>
      </g>
     </g>
    </g>
    <g id="ytick_6">
     <g id="line2d_12">
      <g>
       <use style="stroke:#000000;stroke-width:0.6;" x="54" xlink:href="#m1354d952e1" y="219.392793"/>
      </g>
     </g>
    </g>
    <g id="ytick_7">
     <g id="line2d_13">
      <g>
       <use style="stroke:#000000;stroke-width:0.6;" x="54" xlink:href="#m1354d952e1" y="206.100357"/>
      </g>
     </g>
    </g>
    <g id="ytick_8">
     <g id="line2d_14">
      <g>
       <use style="stroke:#000000;stroke-width:0.6;" x="54" xlink:href="#m1354d952e1" y="196.669223"/>
      </g>
     </g>
    </g>
    <g id="ytick_9">
     <g id="line2d_15">
      <g>
       <use style="stroke:#000000;stroke-width:0.6;" x="54" xlink:href="#m1354d952e1" y="189.353867"/>
      </g>
     </g>
    </g>
    <g id="ytick_10">
     <g id="line2d_16">
      <g>
       <use style="stroke:#000000;stroke-width:0.6;" x="54" xlink:href="#m1354d952e1" y="183.376787"/>
      </g>
     </g>
    </g>
    <g id="ytick_11">
     <g id="line2d_17">
      <g>
       <use style="stroke:#000000;stroke-width:0.6;" x="54" xlink:href="#m1354d952e1" y="178.323237"/>
      </g>
     </g>
    </g>
    <g id="ytick_12">
     <g id="line2d_18">
      <g>
       <use style="stroke:#000000;stroke-width:0.6;" x="54" xlink:href="#m1354d952e1" y="173.945653"/>
      </g>
     </g>
    </g>
    <g id="ytick_13">
     <g id="line2d_19">
      <g>
       <use style="stroke:#000000;stroke-width:0.6;" x="54" xlink:href="#m1354d952e1" y="170.08435"/>
      </g>
     </g>
    </g>
    <g id="ytick_14">
     <g id="line2d_20">
      <g>
       <use style="stroke:#000000;stroke-width:0.6;" x="54" xlink:href="#m1354d952e1" y="143.906727"/>
      </g>
     </g>
    </g>
    <g id="ytick_15">
     <g id="line2d_21">
      <g>
       <use style="stroke:#000000;stroke-width:0.6;" x="54" xlink:href="#m1354d952e1" y="130.61429"/>
      </g>
     </g>
    </g>
    <g id="ytick_16">
     <g id="line2d_22">
      <g>
       <use style="stroke:#000000;stroke-width:0.6;" x="54" xlink:href="#m1354d952e1" y="121.183156"/>
      </g>
     </g>
    </g>
    <g id="ytick_17">
     <g id="line2d_23">
      <g>
       <use style="stroke:#000000;stroke-width:0.6;" x="54" xlink:href="#m1354d952e1" y="113.867801"/>
      </g>
     </g>
    </g>
    <g id="ytick_18">
     <g id="line2d_24">
      <g>
       <use style="stroke:#000000;stroke-width:0.6;" x="54" xlink:href="#m1354d952e1" y="107.89072"/>
      </g>
     </g>
    </g>
    <g id="ytick_19">
     <g id="line2d_25">
      <g>
       <use style="stroke:#000000;stroke-width:0.6;" x="54" xlink:href="#m1354d952e1" y="102.83717"/>
      </g>
     </g>
    </g>
    <g id="ytick_20">
     <g id="line2d_26">
      <g>
       <use style="stroke:#000000;stroke-width:0.6;" x="54" xlink:href="#m1354d952e1" y="98.459586"/>
      </g>
     </g>
    </g>
    <g id="ytick_21">
     <g id="line2d_27">
      <g>
       <use style="stroke:#000000;stroke-width:0.6;" x="54" xlink:href="#m1354d952e1" y="94.598283"/>
      </g>
     </g>
    </g>
    <g id="ytick_22">
     <g id="line2d_28">
      <g>
       <use style="stroke:#000000;stroke-width:0.6;" x="54" xlink:href="#m1354d952e1" y="68.42066"/>
      </g>
     </g>
    </g>
    <g id="ytick_23">
     <g id="line2d_29">
      <g>
       <use style="stroke:#000000;stroke-width:0.6;" x="54" xlink:href="#m1354d952e1" y="55.128224"/>
      </g>
     </g>
    </g>
    <g id="ytick_24">
     <g id="line2d_30">
      <g>
       <use style="stroke:#000000;stroke-width:0.6;" x="54" xlink:href="#m1354d952e1" y="45.69709"/>
      </g>
     </g>
    </g>
    <g id="ytick_25">
     <g id="line2d_31">
      <g>
       <use style="stroke:#000000;stroke-width:0.6;" x="54" xlink:href="#m1354d952e1" y="38.381734"/>
      </g>
     </g>
    </g>
    <g id="text_11">
     <!-- genormaliseerde omlooptijd -->
     <g transform="translate(23.320312 213.529219)rotate(-90)scale(0.1 -0.1)">
      <defs>
       <path d="M 1959 3097 
Q 1497 3097 1228 2736 
Q 959 2375 959 1747 
Q 959 1119 1226 758 
Q 1494 397 1959 397 
Q 2419 397 2687 759 
Q 2956 1122 2956 1747 
Q 2956 2369 2687 2733 
Q 2419 3097 1959 3097 
z
M 1959 3584 
Q 2709 3584 3137 3096 
Q 3566 2609 3566 1747 
Q 3566 888 3137 398 
Q 2709 -91 1959 -91 
Q 1206 -91 779 398 
Q 353 888 353 1747 
Q 353 2609 779 3096 
Q 1206 3584 1959 3584 
z
" id="DejaVuSans-6f" transform="scale(0.015625)"/>
       <path d="M 2631 2963 
Q 2534 3019 2420 3045 
Q 2306 3072 2169 3072 
Q 1681 3072 1420 2755 
Q 1159 2438 1159 1844 
L 1159 0 
L 581 0 
L 581 3500 
L 1159 3500 
L 1159 2956 
Q 1341 3275 1631 3429 
Q 1922 3584 2338 3584 
Q 2397 3584 2469 3576 
Q 2541 3569 2628 3553 
L 2631 2963 
z
" id="DejaVuSans-72" transform="scale(0.015625)"/>
       <path d="M 3328 2828 
Q 3544 3216 3844 3400 
Q 4144 3584 4550 3584 
Q 5097 3584 5394 3201 
Q 5691 2819 5691 2113 
L 5691 0 
L 5113 0 
L 5113 2094 
Q 5113 2597 4934 2840 
Q 4756 3084 4391 3084 
Q 3944 3084 3684 2787 
Q 3425 2491 3425 1978 
L 3425 0 
L 2847 0 
L 2847 2094 
Q 2847 2600 2669 2842 
Q 2491 3084 2119 3084 
Q 1678 3084 1418 2786 
Q 1159 2488 1159 1978 
L 1159 0 
L 581 0 
L 581 3500 
L 1159 3500 
L 1159 2956 
Q 1356 3278 1631 3431 
Q 1906 3584 2284 3584 
Q 2666 3584 2933 3390 
Q 3200 3197 3328 2828 
z
" id="DejaVuSans-6d" transform="scale(0.015625)"/>
       <path d="M 2194 1759 
Q 1497 1759 1228 1600 
Q 959 1441 959 1056 
Q 959 750 1161 570 
Q 1363 391 1709 391 
Q 2188 391 2477 730 
Q 2766 1069 2766 1631 
L 2766 1759 
L 2194 1759 
z
M 3341 1997 
L 3341 0 
L 2766 0 
L 2766 531 
Q 2569 213 2275 61 
Q 1981 -91 1556 -91 
Q 1019 -91 701 211 
Q 384 513 384 1019 
Q 384 1609 779 1909 
Q 1175 2209 1959 2209 
L 2766 2209 
L 2766 2266 
Q 2766 2663 2505 2880 
Q 2244 3097 1772 3097 
Q 1472 3097 1187 3025 
Q 903 2953 641 2809 
L 641 3341 
Q 956 3463 1253 3523 
Q 1550 3584 1831 3584 
Q 2591 3584 2966 3190 
Q 3341 2797 3341 1997 
z
" id="DejaVuSans-61" transform="scale(0.015625)"/>
       <path d="M 603 4863 
L 1178 4863 
L 1178 0 
L 603 0 
L 603 4863 
z
" id="DejaVuSans-6c" transform="scale(0.015625)"/>
       <path id="DejaVuSans-20" transform="scale(0.015625)"/>
       <path d="M 1159 525 
L 1159 -1331 
L 581 -1331 
L 581 3500 
L 1159 3500 
L 1159 2969 
Q 1341 3281 1617 3432 
Q 1894 3584 2278 3584 
Q 2916 3584 3314 3078 
Q 3713 2572 3713 1747 
Q 3713 922 3314 415 
Q 2916 -91 2278 -91 
Q 1894 -91 1617 61 
Q 1341 213 1159 525 
z
M 3116 1747 
Q 3116 2381 2855 2742 
Q 2594 3103 2138 3103 
Q 1681 3103 1420 2742 
Q 1159 2381 1159 1747 
Q 1159 1113 1420 752 
Q 1681 391 2138 391 
Q 2594 391 2855 752 
Q 3116 1113 3116 1747 
z
" id="DejaVuSans-70" transform="scale(0.015625)"/>
      </defs>
      <use xlink:href="#DejaVuSans-67"/>
      <use x="63.476562" xlink:href="#DejaVuSans-65"/>
      <use x="125" xlink:href="#DejaVuSans-6e"/>
      <use x="188.378906" xlink:href="#DejaVuSans-6f"/>
      <use x="249.560547" xlink:href="#DejaVuSans-72"/>
      <use x="288.923828" xlink:href="#DejaVuSans-6d"/>
      <use x="386.335938" xlink:href="#DejaVuSans-61"/>
      <use x="447.615234" xlink:href="#DejaVuSans-6c"/>
      <use x="475.398438" xlink:href="#DejaVuSans-69"/>
      <use x="503.181641" xlink:href="#DejaVuSans-73"/>
      <use x="555.28125" xlink:href="#DejaVuSans-65"/>
      <use x="616.804688" xlink:href="#DejaVuSans-65"/>
      <use x="678.328125" xlink:href="#DejaVuSans-72"/>
      <use x="717.691406" xlink:href="#DejaVuSans-64"/>
      <use x="781.167969" xlink:href="#DejaVuSans-65"/>
      <use x="842.691406" xlink:href="#DejaVuSans-20"/>
      <use x="874.478516" xlink:href="#DejaVuSans-6f"/>
      <use x="935.660156" xlink:href="#DejaVuSans-6d"/>
      <use x="1033.072266" xlink:href="#DejaVuSans-6c"/>
      <use x="1060.855469" xlink:href="#DejaVuSans-6f"/>
      <use x="1122.037109" xlink:href="#DejaVuSans-6f"/>
      <use x="1183.21875" xlink:href="#DejaVuSans-70"/>
      <use x="1246.695312" xlink:href="#DejaVuSans-74"/>
      <use x="1285.904297" xlink:href="#DejaVuSans-69"/>
      <use x="1313.6875" xlink:href="#DejaVuSans-6a"/>
      <use x="1341.470703" xlink:href="#DejaVuSans-64"/>
     </g>
    </g>
   </g>
   <g id="line2d_32">
    <path clip-path="url(#p0908f240a1)" d="M 69.218182 44.443636 
L 69.321137 47.140371 
L 69.851087 70.275505 
L 70.379954 84.185433 
L 70.948918 92.81937 
L 71.494041 97.860705 
L 72.047833 106.046673 
L 72.661231 112.481125 
L 73.233447 114.044101 
L 73.818668 118.024925 
L 74.414727 121.012607 
L 74.977189 127.404756 
L 75.587336 127.371955 
L 76.171473 130.286149 
L 76.809797 132.57994 
L 77.481718 133.014658 
L 78.141717 138.556117 
L 78.810386 139.77444 
L 79.508316 141.055253 
L 80.202995 142.888997 
L 80.883585 147.184324 
L 81.555505 145.828735 
L 82.308706 148.923971 
L 83.004469 151.056432 
L 83.661217 151.318286 
L 84.494615 152.464244 
L 85.193629 155.446307 
L 85.900229 153.953429 
L 86.748799 157.599271 
L 87.445645 157.721918 
L 88.214019 160.647554 
L 88.97589 160.23333 
L 89.739928 162.311451 
L 90.566823 161.344207 
L 91.327611 163.833283 
L 92.235787 165.66142 
L 93.065933 164.425472 
L 93.897164 166.134165 
L 94.811843 170.132058 
L 95.737359 169.980524 
L 96.627111 169.218337 
L 97.587307 171.915329 
L 98.477059 174.224959 
L 99.411245 173.362498 
L 100.3942 174.533641 
L 101.407499 174.007323 
L 102.389369 174.113974 
L 103.383161 174.443385 
L 104.430056 175.809678 
L 105.435769 178.544607 
L 106.477246 179.998596 
L 107.604338 178.698595 
L 108.775863 182.937267 
L 109.932217 180.705451 
L 111.11458 180.874135 
L 112.466006 182.09709 
L 113.661374 184.997989 
L 115.031225 185.240103 
L 116.313292 183.127121 
L 117.520581 185.971537 
L 118.808067 185.187768 
L 120.072794 187.424446 
L 121.337522 189.187612 
L 122.835254 187.77425 
L 124.310227 191.853197 
L 125.796038 192.037246 
L 127.369632 189.070224 
L 129.053768 192.334289 
L 130.78342 192.241129 
L 132.609526 194.655727 
L 134.436716 195.496642 
L 136.250901 195.139732 
L 138.151785 196.552335 
L 140.195723 196.810723 
L 142.174637 196.806753 
L 144.295521 199.354114 
L 146.42074 200.481687 
L 148.768126 199.301841 
L 151.271571 198.458085 
L 153.829203 200.035857 
L 156.402007 202.194475 
L 159.248999 201.889895 
L 162.245546 203.128842 
L 165.451256 202.463109 
L 168.943074 205.777215 
L 172.543267 204.867301 
L 176.385134 206.397227 
L 180.579217 209.214157 
L 184.996551 206.144414 
L 190.115066 209.439007 
L 195.716931 209.114318 
L 202.067661 208.368655 
L 209.569326 210.654864 
L 217.889216 210.923921 
L 227.464081 215.107181 
L 238.093426 216.453745 
L 251.453803 215.486661 
L 268.78176 217.115761 
L 297.028422 220.649652 
L 373.581818 223.794029 
" style="fill:none;stroke:#1f77b4;stroke-linecap:square;stroke-width:1.5;"/>
   </g>
   <g id="line2d_33">
    <path clip-path="url(#p0908f240a1)" d="M 69.218182 100.359272 
L 69.321137 102.715163 
L 69.851087 120.12592 
L 70.379954 134.830127 
L 70.948918 144.483009 
L 71.494041 147.222774 
L 72.047833 155.571244 
L 72.661231 161.70512 
L 73.233447 167.359113 
L 73.818668 169.880676 
L 74.414727 171.041482 
L 74.977189 174.804002 
L 75.587336 176.407502 
L 76.171473 178.411567 
L 76.809797 180.100931 
L 77.481718 181.640672 
L 78.141717 186.056894 
L 78.810386 186.644025 
L 79.508316 187.842648 
L 80.202995 188.00336 
L 80.883585 191.044292 
L 81.555505 193.302025 
L 82.308706 192.905057 
L 83.004469 194.111794 
L 83.661217 196.936653 
L 84.494615 197.611045 
L 85.193629 196.873874 
L 85.900229 197.957313 
L 86.748799 203.890229 
L 87.445645 201.169037 
L 88.214019 204.116723 
L 88.97589 202.333424 
L 89.739928 204.290469 
L 90.566823 202.185236 
L 91.327611 203.093322 
L 92.235787 205.669818 
L 93.065933 205.042737 
L 93.897164 207.577058 
L 94.811843 205.31642 
L 95.737359 206.657025 
L 96.627111 209.609654 
L 97.587307 208.721245 
L 98.477059 207.892771 
L 99.411245 210.628612 
L 100.3942 210.309196 
L 101.407499 210.99647 
L 102.389369 210.926313 
L 103.383161 211.287158 
L 104.430056 212.474984 
L 105.435769 211.218642 
L 106.477246 213.539176 
L 107.604338 212.419999 
L 108.775863 213.043862 
L 109.932217 214.202259 
L 111.11458 214.004488 
L 112.466006 214.134528 
L 113.661374 214.022357 
L 115.031225 214.04075 
L 116.313292 212.848842 
L 117.520581 213.297569 
L 118.808067 214.855146 
L 120.072794 214.878569 
L 121.337522 214.746809 
L 122.835254 214.480008 
L 124.310227 215.328737 
L 125.796038 213.419166 
L 127.369632 214.023108 
L 129.053768 214.830927 
L 130.78342 213.30691 
L 132.609526 215.658723 
L 134.436716 214.144663 
L 136.250901 215.159777 
L 138.151785 215.833356 
L 140.195723 214.468766 
L 142.174637 216.098809 
L 144.295521 215.710681 
L 146.42074 213.841377 
L 148.768126 214.269556 
L 151.271571 215.134339 
L 153.829203 213.009925 
L 156.402007 214.038095 
L 159.248999 213.758607 
L 162.245546 212.985348 
L 165.451256 212.054817 
L 168.943074 213.406018 
L 172.543267 213.787622 
L 176.385134 213.46592 
L 180.579217 211.930463 
L 184.996551 211.243698 
L 190.115066 210.393856 
L 195.716931 209.493101 
L 202.067661 207.594675 
L 209.569326 208.303117 
L 217.889216 206.23147 
L 227.464081 206.015245 
L 238.093426 204.691888 
L 251.453803 202.152383 
L 268.78176 198.813218 
L 297.028422 199.620376 
L 373.581818 198.888366 
" style="fill:none;stroke:#ff7f0e;stroke-linecap:square;stroke-width:1.5;"/>
   </g>
   <g id="line2d_34">
    <path clip-path="url(#p0908f240a1)" d="M 69.218182 242.116364 
L 69.321137 242.116364 
L 69.851087 242.116364 
L 70.379954 242.116364 
L 70.948918 242.116364 
L 71.494041 242.116364 
L 72.047833 242.072682 
L 72.661231 242.061381 
L 73.233447 242.093605 
L 73.818668 242.069044 
L 74.414727 242.104445 
L 74.977189 242.110404 
L 75.587336 241.990516 
L 76.171473 242.055177 
L 76.809797 242.038051 
L 77.481718 242.047976 
L 78.141717 242.076106 
L 78.810386 241.954573 
L 79.508316 241.935521 
L 80.202995 241.948338 
L 80.883585 241.889997 
L 81.555505 242.016593 
L 82.308706 241.875963 
L 83.004469 241.855142 
L 83.661217 241.642882 
L 84.494615 241.690309 
L 85.193629 241.738407 
L 85.900229 241.779644 
L 86.748799 241.729638 
L 87.445645 241.659713 
L 88.214019 241.630202 
L 88.97589 241.494613 
L 89.739928 241.41406 
L 90.566823 241.460312 
L 91.327611 241.776262 
L 92.235787 241.528621 
L 93.065933 241.348165 
L 93.897164 241.43466 
L 94.811843 241.342826 
L 95.737359 241.353195 
L 96.627111 241.487416 
L 97.587307 241.122646 
L 98.477059 241.220305 
L 99.411245 241.014058 
L 100.3942 241.009797 
L 101.407499 241.379909 
L 102.389369 240.742588 
L 103.383161 240.701843 
L 104.430056 240.813457 
L 105.435769 240.695838 
L 106.477246 240.626613 
L 107.604338 240.126399 
L 108.775863 240.367918 
L 109.932217 240.18555 
L 111.11458 240.328547 
L 112.466006 239.982301 
L 113.661374 240.153971 
L 115.031225 240.062852 
L 116.313292 239.920692 
L 117.520581 239.567342 
L 118.808067 239.730674 
L 120.072794 239.526587 
L 121.337522 239.394638 
L 122.835254 239.558313 
L 124.310227 238.271863 
L 125.796038 238.906783 
L 127.369632 238.523867 
L 129.053768 238.43378 
L 130.78342 237.798362 
L 132.609526 238.306984 
L 134.436716 237.939735 
L 136.250901 237.920718 
L 138.151785 237.82592 
L 140.195723 238.235389 
L 142.174637 237.775201 
L 144.295521 236.988614 
L 146.42074 236.855878 
L 148.768126 236.238086 
L 151.271571 236.523598 
L 153.829203 235.75054 
L 156.402007 235.114615 
L 159.248999 235.214721 
L 162.245546 235.313115 
L 165.451256 233.595151 
L 168.943074 233.507399 
L 172.543267 232.574185 
L 176.385134 232.809289 
L 180.579217 232.658416 
L 184.996551 231.860863 
L 190.115066 232.005659 
L 195.716931 229.906613 
L 202.067661 228.741666 
L 209.569326 229.145147 
L 217.889216 227.688082 
L 227.464081 226.223617 
L 238.093426 223.819283 
L 251.453803 222.269813 
L 268.78176 221.271507 
L 297.028422 216.184075 
L 373.581818 210.367926 
" style="fill:none;stroke:#2ca02c;stroke-linecap:square;stroke-width:1.5;"/>
   </g>
   <g id="line2d_35">
    <path clip-path="url(#p0908f240a1)" d="M 69.218182 174.192453 
L 69.321137 176.439517 
L 69.851087 192.914944 
L 70.379954 186.419593 
L 70.948918 190.820109 
L 71.494041 185.892472 
L 72.047833 190.29678 
L 72.661231 190.031951 
L 73.233447 189.17659 
L 73.818668 187.785885 
L 74.414727 188.10169 
L 74.977189 191.300642 
L 75.587336 187.524058 
L 76.171473 189.551521 
L 76.809797 188.033461 
L 77.481718 188.460421 
L 78.141717 189.632354 
L 78.810386 188.311174 
L 79.508316 187.926166 
L 80.202995 187.298362 
L 80.883585 191.229245 
L 81.555505 187.902534 
L 82.308706 188.397765 
L 83.004469 190.237497 
L 83.661217 188.45873 
L 84.494615 187.841363 
L 85.193629 189.800963 
L 85.900229 187.227218 
L 86.748799 189.016059 
L 87.445645 188.172335 
L 88.214019 189.560795 
L 88.97589 189.090767 
L 89.739928 189.810352 
L 90.566823 188.550497 
L 91.327611 189.650826 
L 92.235787 189.634785 
L 93.065933 187.761591 
L 93.897164 187.712714 
L 94.811843 189.982854 
L 95.737359 189.834614 
L 96.627111 189.089648 
L 97.587307 188.785883 
L 98.477059 189.801799 
L 99.411245 188.998793 
L 100.3942 188.792354 
L 101.407499 188.264787 
L 102.389369 188.091398 
L 103.383161 188.12262 
L 104.430056 188.631206 
L 105.435769 189.151023 
L 106.477246 189.376321 
L 107.604338 188.389726 
L 108.775863 191.457637 
L 109.932217 188.288518 
L 111.11458 188.469946 
L 112.466006 188.285119 
L 113.661374 190.892704 
L 115.031225 190.760147 
L 116.313292 188.049342 
L 117.520581 189.370939 
L 118.808067 187.819548 
L 120.072794 188.519412 
L 121.337522 189.614512 
L 122.835254 188.637823 
L 124.310227 190.726606 
L 125.796038 190.829695 
L 127.369632 188.17842 
L 129.053768 189.357105 
L 130.78342 189.642879 
L 132.609526 190.156018 
L 134.436716 190.56243 
L 136.250901 189.76967 
L 138.151785 190.832018 
L 140.195723 189.696352 
L 142.174637 190.443007 
L 144.295521 191.05876 
L 146.42074 190.457922 
L 148.768126 188.697298 
L 151.271571 188.552212 
L 153.829203 188.473168 
L 156.402007 189.477233 
L 159.248999 188.981872 
L 162.245546 190.066176 
L 165.451256 188.943815 
L 168.943074 189.857906 
L 172.543267 189.189625 
L 176.385134 189.859746 
L 180.579217 191.364087 
L 184.996551 187.684034 
L 190.115066 189.72207 
L 195.716931 189.669041 
L 202.067661 187.90746 
L 209.569326 189.284945 
L 217.889216 188.009359 
L 227.464081 190.389586 
L 238.093426 190.403532 
L 251.453803 187.953841 
L 268.78176 188.767463 
L 297.028422 189.704209 
L 373.581818 189.356067 
" style="fill:none;stroke:#d62728;stroke-linecap:square;stroke-width:1.5;"/>
   </g>
   <g id="line2d_36">
    <path clip-path="url(#p0908f240a1)" d="M 69.218182 153.059298 
L 69.321137 155.370984 
L 69.851087 177.254326 
L 70.379954 188.310654 
L 70.948918 190.348362 
L 71.494041 178.645151 
L 72.047833 185.642217 
L 72.661231 191.000934 
L 73.233447 188.045854 
L 73.818668 183.479181 
L 74.414727 186.662061 
L 74.977189 192.00768 
L 75.587336 185.26212 
L 76.171473 186.636015 
L 76.809797 188.470877 
L 77.481718 188.40895 
L 78.141717 187.316284 
L 78.810386 187.974024 
L 79.508316 188.185169 
L 80.202995 185.446577 
L 80.883585 190.60964 
L 81.555505 188.320408 
L 82.308706 186.819708 
L 83.004469 189.612518 
L 83.661217 188.885943 
L 84.494615 186.561913 
L 85.193629 189.312298 
L 85.900229 187.531206 
L 86.748799 187.875363 
L 87.445645 188.025912 
L 88.214019 189.723457 
L 88.97589 188.108908 
L 89.739928 189.920926 
L 90.566823 188.400047 
L 91.327611 188.9095 
L 92.235787 189.982614 
L 93.065933 187.170197 
L 93.897164 187.534917 
L 94.811843 189.986156 
L 95.737359 189.355262 
L 96.627111 189.387761 
L 97.587307 188.177268 
L 98.477059 189.960777 
L 99.411245 188.750782 
L 100.3942 188.716909 
L 101.407499 188.267227 
L 102.389369 187.837422 
L 103.383161 188.23149 
L 104.430056 188.31714 
L 105.435769 189.350298 
L 106.477246 189.064778 
L 107.604338 188.532061 
L 108.775863 191.287015 
L 109.932217 188.348453 
L 111.11458 188.404122 
L 112.466006 188.18219 
L 113.661374 191.035722 
L 115.031225 190.568751 
L 116.313292 188.169331 
L 117.520581 189.269755 
L 118.808067 187.829512 
L 120.072794 188.598621 
L 121.337522 189.48147 
L 122.835254 188.755202 
L 124.310227 190.786189 
L 125.796038 190.736251 
L 127.369632 188.236719 
L 129.053768 189.472209 
L 130.78342 189.697181 
L 132.609526 190.153935 
L 134.436716 190.590044 
L 136.250901 189.761487 
L 138.151785 190.914127 
L 140.195723 189.769661 
L 142.174637 190.491505 
L 144.295521 191.130557 
L 146.42074 190.539282 
L 148.768126 188.748096 
L 151.271571 188.634299 
L 153.829203 188.581271 
L 156.402007 189.589477 
L 159.248999 189.051716 
L 162.245546 190.151814 
L 165.451256 189.012023 
L 168.943074 189.975141 
L 172.543267 189.27685 
L 176.385134 189.970624 
L 180.579217 191.458387 
L 184.996551 187.798292 
L 190.115066 189.835734 
L 195.716931 189.781326 
L 202.067661 188.002802 
L 209.569326 189.386921 
L 217.889216 188.132144 
L 227.464081 190.490691 
L 238.093426 190.525987 
L 251.453803 188.068634 
L 268.78176 188.890119 
L 297.028422 189.83335 
L 373.581818 189.466313 
" style="fill:none;stroke:#9467bd;stroke-linecap:square;stroke-width:1.5;"/>
   </g>
   <g id="line2d_37">
    <path clip-path="url(#p0908f240a1)" d="M 69.218182 131.68502 
L 69.321137 134.168058 
L 69.851087 156.86728 
L 70.379954 168.941901 
L 70.948918 176.358256 
L 71.494041 180.538243 
L 72.047833 187.453349 
L 72.661231 192.934092 
L 73.233447 185.655183 
L 73.818668 176.462518 
L 74.414727 179.749975 
L 74.977189 185.300974 
L 75.587336 184.657249 
L 76.171473 187.841359 
L 76.809797 189.563867 
L 77.481718 188.418694 
L 78.141717 183.233255 
L 78.810386 183.885757 
L 79.508316 184.694511 
L 80.202995 186.270349 
L 80.883585 191.63494 
L 81.555505 189.2021 
L 82.308706 184.088969 
L 83.004469 186.819858 
L 83.661217 186.056862 
L 84.494615 187.31196 
L 85.193629 190.159449 
L 85.900229 188.161381 
L 86.748799 185.745864 
L 87.445645 185.97369 
L 88.214019 188.057572 
L 88.97589 188.837656 
L 89.739928 190.567913 
L 90.566823 188.086922 
L 91.327611 187.307333 
L 92.235787 188.346005 
L 93.065933 187.450995 
L 93.897164 188.30695 
L 94.811843 190.077401 
L 95.737359 188.055432 
L 96.627111 188.077037 
L 97.587307 188.836642 
L 98.477059 190.637863 
L 99.411245 188.195921 
L 100.3942 187.672959 
L 101.407499 187.886598 
L 102.389369 188.396818 
L 103.383161 188.443281 
L 104.430056 187.394857 
L 105.435769 188.757481 
L 106.477246 189.729972 
L 107.604338 188.7684 
L 108.775863 190.527033 
L 109.932217 188.055275 
L 111.11458 189.006501 
L 112.466006 187.969225 
L 113.661374 190.352013 
L 115.031225 191.035855 
L 116.313292 188.400879 
L 117.520581 188.724725 
L 118.808067 187.812323 
L 120.072794 189.140533 
L 121.337522 189.209024 
L 122.835254 188.573453 
L 124.310227 191.330489 
L 125.796038 190.498514 
L 127.369632 188.224044 
L 129.053768 189.931259 
L 130.78342 189.307467 
L 132.609526 190.707045 
L 134.436716 190.500042 
L 136.250901 190.021511 
L 138.151785 191.085947 
L 140.195723 189.805774 
L 142.174637 190.737689 
L 144.295521 191.124187 
L 146.42074 190.882833 
L 148.768126 188.8437 
L 151.271571 188.796776 
L 153.829203 188.85349 
L 156.402007 189.593725 
L 159.248999 189.37755 
L 162.245546 190.371376 
L 165.451256 189.128982 
L 168.943074 190.165266 
L 172.543267 189.550686 
L 176.385134 190.198103 
L 180.579217 191.68271 
L 184.996551 187.963538 
L 190.115066 190.102405 
L 195.716931 190.031016 
L 202.067661 188.151233 
L 209.569326 189.636769 
L 217.889216 188.363403 
L 227.464081 190.764721 
L 238.093426 190.736756 
L 251.453803 188.332786 
L 268.78176 189.122917 
L 297.028422 190.08608 
L 373.581818 189.689401 
" style="fill:none;stroke:#8c564b;stroke-linecap:square;stroke-width:1.5;"/>
   </g>
   <g id="line2d_38">
    <path clip-path="url(#p0908f240a1)" d="M 69.218182 97.270091 
L 69.321137 100.507682 
L 69.851087 120.372588 
L 70.379954 131.438872 
L 70.948918 142.405258 
L 71.494041 143.542461 
L 72.047833 154.526978 
L 72.661231 158.055561 
L 73.233447 158.896613 
L 73.818668 162.147049 
L 74.414727 163.768172 
L 74.977189 168.305424 
L 75.587336 167.539623 
L 76.171473 170.473362 
L 76.809797 170.790592 
L 77.481718 172.871067 
L 78.141717 175.945331 
L 78.810386 177.370057 
L 79.508316 177.238792 
L 80.202995 178.484956 
L 80.883585 181.496897 
L 81.555505 180.856412 
L 82.308706 181.281741 
L 83.004469 182.714853 
L 83.661217 183.828192 
L 84.494615 183.639089 
L 85.193629 185.30926 
L 85.900229 186.389364 
L 86.748799 187.828653 
L 87.445645 187.042022 
L 88.214019 189.09741 
L 88.97589 189.101057 
L 89.739928 189.667733 
L 90.566823 188.709307 
L 91.327611 189.147392 
L 92.235787 190.465916 
L 93.065933 189.459661 
L 93.897164 191.362014 
L 94.811843 192.313776 
L 95.737359 192.400223 
L 96.627111 193.036151 
L 97.587307 193.080884 
L 98.477059 194.085124 
L 99.411245 194.49954 
L 100.3942 194.266464 
L 101.407499 193.435276 
L 102.389369 194.688627 
L 103.383161 193.679398 
L 104.430056 195.033807 
L 105.435769 195.560283 
L 106.477246 196.886223 
L 107.604338 194.827785 
L 108.775863 198.5952 
L 109.932217 197.072808 
L 111.11458 196.640649 
L 112.466006 196.333406 
L 113.661374 198.638825 
L 115.031225 199.509939 
L 116.313292 196.574069 
L 117.520581 198.732481 
L 118.808067 199.11404 
L 120.072794 198.686845 
L 121.337522 200.036067 
L 122.835254 199.221545 
L 124.310227 201.027399 
L 125.796038 201.608519 
L 127.369632 198.921126 
L 129.053768 200.785862 
L 130.78342 199.677288 
L 132.609526 202.49194 
L 134.436716 201.748702 
L 136.250901 201.265834 
L 138.151785 202.131144 
L 140.195723 202.102686 
L 142.174637 202.665133 
L 144.295521 203.245671 
L 146.42074 203.815171 
L 148.768126 202.218391 
L 151.271571 201.783559 
L 153.829203 202.33372 
L 156.402007 203.356088 
L 159.248999 203.760938 
L 162.245546 204.374293 
L 165.451256 202.967857 
L 168.943074 205.350504 
L 172.543267 204.359301 
L 176.385134 205.217383 
L 180.579217 206.709346 
L 184.996551 203.310551 
L 190.115066 206.127153 
L 195.716931 205.922986 
L 202.067661 204.663518 
L 209.569326 205.876561 
L 217.889216 205.022279 
L 227.464081 209.347767 
L 238.093426 208.818025 
L 251.453803 206.910323 
L 268.78176 208.11875 
L 297.028422 210.554045 
L 373.581818 212.809082 
" style="fill:none;stroke:#e377c2;stroke-linecap:square;stroke-width:1.5;"/>
   </g>
   <g id="line2d_39">
    <path clip-path="url(#p0908f240a1)" d="M 69.218182 239.171099 
L 69.321137 241.020265 
L 69.851087 240.237066 
L 70.379954 241.173866 
L 70.948918 240.868432 
L 71.494041 239.121194 
L 72.047833 239.403087 
L 72.661231 240.096954 
L 73.233447 239.115376 
L 73.818668 237.731495 
L 74.414727 238.164585 
L 74.977189 237.867931 
L 75.587336 133.814936 
L 76.171473 127.159052 
L 76.809797 129.622163 
L 77.481718 129.841817 
L 78.141717 135.403617 
L 78.810386 136.597921 
L 79.508316 137.952839 
L 80.202995 139.824337 
L 80.883585 143.995069 
L 81.555505 142.666491 
L 82.308706 145.855672 
L 83.004469 147.9375 
L 83.661217 148.234586 
L 84.494615 149.432943 
L 85.193629 152.41638 
L 85.900229 150.819045 
L 86.748799 154.455888 
L 87.445645 154.505033 
L 88.214019 157.491736 
L 88.97589 157.169502 
L 89.739928 159.350615 
L 90.566823 158.208541 
L 91.327611 160.807312 
L 92.235787 162.552264 
L 93.065933 161.353936 
L 93.897164 163.024291 
L 94.811843 167.004352 
L 95.737359 166.814824 
L 96.627111 166.17078 
L 97.587307 168.87173 
L 98.477059 170.985768 
L 99.411245 170.220606 
L 100.3942 171.474378 
L 101.407499 170.764335 
L 102.389369 171.140006 
L 103.383161 171.261534 
L 104.430056 172.691486 
L 105.435769 175.283037 
L 106.477246 176.859421 
L 107.604338 175.598223 
L 108.775863 179.977869 
L 109.932217 177.611469 
L 111.11458 177.821673 
L 112.466006 179.007604 
L 113.661374 182.001964 
L 115.031225 182.16027 
L 116.313292 179.968588 
L 117.520581 182.809578 
L 118.808067 181.98393 
L 120.072794 184.320678 
L 121.337522 185.979674 
L 122.835254 184.65288 
L 124.310227 188.68374 
L 125.796038 188.936875 
L 127.369632 185.959364 
L 129.053768 189.084097 
L 130.78342 189.069678 
L 132.609526 191.492695 
L 134.436716 192.434609 
L 136.250901 192.043149 
L 138.151785 193.550863 
L 140.195723 193.656039 
L 142.174637 193.849486 
L 144.295521 196.363454 
L 146.42074 197.307274 
L 148.768126 196.039887 
L 151.271571 195.431297 
L 153.829203 196.866958 
L 156.402007 199.020078 
L 159.248999 198.721587 
L 162.245546 200.043908 
L 165.451256 199.31459 
L 168.943074 202.573627 
L 172.543267 201.748215 
L 176.385134 203.264198 
L 180.579217 206.004612 
L 184.996551 202.963668 
L 190.115066 206.25981 
L 195.716931 205.998013 
L 202.067661 205.227597 
L 209.569326 207.578811 
L 217.889216 207.854464 
L 227.464081 211.891378 
L 238.093426 213.193256 
L 251.453803 212.368097 
L 268.78176 214.036885 
L 297.028422 217.536783 
L 373.581818 220.625133 
" style="fill:none;stroke:#7f7f7f;stroke-linecap:square;stroke-width:1.5;"/>
   </g>
   <g id="line2d_40">
    <path clip-path="url(#p0908f240a1)" d="M 69.218182 225.858691 
L 69.321137 233.870193 
L 69.851087 234.160387 
L 70.379954 237.387566 
L 70.948918 237.964942 
L 71.494041 239.415736 
L 72.047833 239.784695 
L 72.661231 240.457821 
L 73.233447 240.39308 
L 73.818668 240.968873 
L 74.414727 231.92665 
L 74.977189 225.906522 
L 75.587336 226.362185 
L 76.171473 227.933803 
L 76.809797 229.597694 
L 77.481718 229.28092 
L 78.141717 230.215068 
L 78.810386 230.435466 
L 79.508316 231.955561 
L 80.202995 230.733846 
L 80.883585 233.863442 
L 81.555505 231.949958 
L 82.308706 233.326214 
L 83.004469 233.239284 
L 83.661217 233.920677 
L 84.494615 234.350056 
L 85.193629 234.161216 
L 85.900229 234.881133 
L 86.748799 233.990833 
L 87.445645 233.929715 
L 88.214019 229.200019 
L 88.97589 214.675348 
L 89.739928 215.70365 
L 90.566823 215.305966 
L 91.327611 217.348066 
L 92.235787 218.144889 
L 93.065933 215.927339 
L 93.897164 217.421456 
L 94.811843 217.214775 
L 95.737359 218.6983 
L 96.627111 221.715316 
L 97.587307 217.978016 
L 98.477059 217.396137 
L 99.411245 219.748638 
L 100.3942 218.322981 
L 101.407499 220.862923 
L 102.389369 219.885874 
L 103.383161 220.497447 
L 104.430056 221.11143 
L 105.435769 221.143553 
L 106.477246 221.092826 
L 107.604338 222.122852 
L 108.775863 222.681713 
L 109.932217 222.625157 
L 111.11458 223.154315 
L 112.466006 175.004687 
L 113.661374 166.213751 
L 115.031225 165.87474 
L 116.313292 164.014071 
L 117.520581 166.604615 
L 118.808067 165.10783 
L 120.072794 168.384689 
L 121.337522 169.635266 
L 122.835254 168.285568 
L 124.310227 173.144382 
L 125.796038 173.347485 
L 127.369632 170.880521 
L 129.053768 172.494269 
L 130.78342 173.291648 
L 132.609526 174.988463 
L 134.436716 176.451177 
L 136.250901 176.000452 
L 138.151785 177.992804 
L 140.195723 177.484709 
L 142.174637 178.347436 
L 144.295521 181.276445 
L 146.42074 181.041274 
L 148.768126 179.903571 
L 151.271571 180.08941 
L 153.829203 180.888171 
L 156.402007 182.215787 
L 159.248999 183.063188 
L 162.245546 183.690864 
L 165.451256 183.13825 
L 168.943074 186.282793 
L 172.543267 185.463491 
L 176.385134 187.772187 
L 180.579217 190.30141 
L 184.996551 186.594241 
L 190.115066 190.230693 
L 195.716931 190.579658 
L 202.067661 189.302828 
L 209.569326 192.051588 
L 217.889216 192.108121 
L 227.464081 195.510129 
L 238.093426 196.846918 
L 251.453803 196.233357 
L 268.78176 198.301448 
L 297.028422 201.281129 
L 373.581818 204.667985 
" style="fill:none;stroke:#bcbd22;stroke-linecap:square;stroke-width:1.5;"/>
   </g>
   <g id="patch_3">
    <path d="M 54 252 
L 54 34.56 
" style="fill:none;stroke:#000000;stroke-linecap:square;stroke-linejoin:miter;stroke-width:0.8;"/>
   </g>
   <g id="patch_4">
    <path d="M 388.8 252 
L 388.8 34.56 
" style="fill:none;stroke:#000000;stroke-linecap:square;stroke-linejoin:miter;stroke-width:0.8;"/>
   </g>
   <g id="patch_5">
    <path d="M 54 252 
L 388.8 252 
" style="fill:none;stroke:#000000;stroke-linecap:square;stroke-linejoin:miter;stroke-width:0.8;"/>
   </g>
   <g id="patch_6">
    <path d="M 54 34.56 
L 388.8 34.56 
" style="fill:none;stroke:#000000;stroke-linecap:square;stroke-linejoin:miter;stroke-width:0.8;"/>
   </g>
   <g id="legend_1">
    <g id="patch_7">
     <path d="M 220.735938 174.663125 
L 381.8 174.663125 
Q 383.8 174.663125 383.8 172.663125 
L 383.8 41.56 
Q 383.8 39.56 381.8 39.56 
L 220.735938 39.56 
Q 218.735938 39.56 218.735938 41.56 
L 218.735938 172.663125 
Q 218.735938 174.663125 220.735938 174.663125 
z
" style="fill:#ffffff;opacity:0.8;stroke:#cccccc;stroke-linejoin:miter;"/>
    </g>
    <g id="line2d_41">
     <path d="M 222.735938 47.658437 
L 242.735938 47.658437 
" style="fill:none;stroke:#1f77b4;stroke-linecap:square;stroke-width:1.5;"/>
    </g>
    <g id="line2d_42"/>
    <g id="text_12">
     <!-- FCFS -->
     <g transform="translate(250.735938 51.158437)scale(0.1 -0.1)">
      <defs>
       <path d="M 628 4666 
L 3309 4666 
L 3309 4134 
L 1259 4134 
L 1259 2759 
L 3109 2759 
L 3109 2228 
L 1259 2228 
L 1259 0 
L 628 0 
L 628 4666 
z
" id="DejaVuSans-46" transform="scale(0.015625)"/>
       <path d="M 4122 4306 
L 4122 3641 
Q 3803 3938 3442 4084 
Q 3081 4231 2675 4231 
Q 1875 4231 1450 3742 
Q 1025 3253 1025 2328 
Q 1025 1406 1450 917 
Q 1875 428 2675 428 
Q 3081 428 3442 575 
Q 3803 722 4122 1019 
L 4122 359 
Q 3791 134 3420 21 
Q 3050 -91 2638 -91 
Q 1578 -91 968 557 
Q 359 1206 359 2328 
Q 359 3453 968 4101 
Q 1578 4750 2638 4750 
Q 3056 4750 3426 4639 
Q 3797 4528 4122 4306 
z
" id="DejaVuSans-43" transform="scale(0.015625)"/>
       <path d="M 3425 4513 
L 3425 3897 
Q 3066 4069 2747 4153 
Q 2428 4238 2131 4238 
Q 1616 4238 1336 4038 
Q 1056 3838 1056 3469 
Q 1056 3159 1242 3001 
Q 1428 2844 1947 2747 
L 2328 2669 
Q 3034 2534 3370 2195 
Q 3706 1856 3706 1288 
Q 3706 609 3251 259 
Q 2797 -91 1919 -91 
Q 1588 -91 1214 -16 
Q 841 59 441 206 
L 441 856 
Q 825 641 1194 531 
Q 1563 422 1919 422 
Q 2459 422 2753 634 
Q 3047 847 3047 1241 
Q 3047 1584 2836 1778 
Q 2625 1972 2144 2069 
L 1759 2144 
Q 1053 2284 737 2584 
Q 422 2884 422 3419 
Q 422 4038 858 4394 
Q 1294 4750 2059 4750 
Q 2388 4750 2728 4690 
Q 3069 4631 3425 4513 
z
" id="DejaVuSans-53" transform="scale(0.015625)"/>
      </defs>
      <use xlink:href="#DejaVuSans-46"/>
      <use x="57.519531" xlink:href="#DejaVuSans-43"/>
      <use x="127.34375" xlink:href="#DejaVuSans-46"/>
      <use x="183.113281" xlink:href="#DejaVuSans-53"/>
     </g>
    </g>
    <g id="line2d_43">
     <path d="M 222.735938 62.336563 
L 242.735938 62.336563 
" style="fill:none;stroke:#ff7f0e;stroke-linecap:square;stroke-width:1.5;"/>
    </g>
    <g id="line2d_44"/>
    <g id="text_13">
     <!-- SJF -->
     <g transform="translate(250.735938 65.836563)scale(0.1 -0.1)">
      <defs>
       <path d="M 628 4666 
L 1259 4666 
L 1259 325 
Q 1259 -519 939 -900 
Q 619 -1281 -91 -1281 
L -331 -1281 
L -331 -750 
L -134 -750 
Q 284 -750 456 -515 
Q 628 -281 628 325 
L 628 4666 
z
" id="DejaVuSans-4a" transform="scale(0.015625)"/>
      </defs>
      <use xlink:href="#DejaVuSans-53"/>
      <use x="63.476562" xlink:href="#DejaVuSans-4a"/>
      <use x="92.96875" xlink:href="#DejaVuSans-46"/>
     </g>
    </g>
    <g id="line2d_45">
     <path d="M 222.735938 77.014687 
L 242.735938 77.014687 
" style="fill:none;stroke:#2ca02c;stroke-linecap:square;stroke-width:1.5;"/>
    </g>
    <g id="line2d_46"/>
    <g id="text_14">
     <!-- SRT -->
     <g transform="translate(250.735938 80.514687)scale(0.1 -0.1)">
      <defs>
       <path d="M 2841 2188 
Q 3044 2119 3236 1894 
Q 3428 1669 3622 1275 
L 4263 0 
L 3584 0 
L 2988 1197 
Q 2756 1666 2539 1819 
Q 2322 1972 1947 1972 
L 1259 1972 
L 1259 0 
L 628 0 
L 628 4666 
L 2053 4666 
Q 2853 4666 3247 4331 
Q 3641 3997 3641 3322 
Q 3641 2881 3436 2590 
Q 3231 2300 2841 2188 
z
M 1259 4147 
L 1259 2491 
L 2053 2491 
Q 2509 2491 2742 2702 
Q 2975 2913 2975 3322 
Q 2975 3731 2742 3939 
Q 2509 4147 2053 4147 
L 1259 4147 
z
" id="DejaVuSans-52" transform="scale(0.015625)"/>
       <path d="M -19 4666 
L 3928 4666 
L 3928 4134 
L 2272 4134 
L 2272 0 
L 1638 0 
L 1638 4134 
L -19 4134 
L -19 4666 
z
" id="DejaVuSans-54" transform="scale(0.015625)"/>
      </defs>
      <use xlink:href="#DejaVuSans-53"/>
      <use x="63.476562" xlink:href="#DejaVuSans-52"/>
      <use x="125.708984" xlink:href="#DejaVuSans-54"/>
     </g>
    </g>
    <g id="line2d_47">
     <path d="M 222.735938 91.692813 
L 242.735938 91.692813 
" style="fill:none;stroke:#d62728;stroke-linecap:square;stroke-width:1.5;"/>
    </g>
    <g id="line2d_48"/>
    <g id="text_15">
     <!-- RR met q=2 -->
     <g transform="translate(250.735938 95.192813)scale(0.1 -0.1)">
      <defs>
       <path d="M 947 1747 
Q 947 1113 1208 752 
Q 1469 391 1925 391 
Q 2381 391 2643 752 
Q 2906 1113 2906 1747 
Q 2906 2381 2643 2742 
Q 2381 3103 1925 3103 
Q 1469 3103 1208 2742 
Q 947 2381 947 1747 
z
M 2906 525 
Q 2725 213 2448 61 
Q 2172 -91 1784 -91 
Q 1150 -91 751 415 
Q 353 922 353 1747 
Q 353 2572 751 3078 
Q 1150 3584 1784 3584 
Q 2172 3584 2448 3432 
Q 2725 3281 2906 2969 
L 2906 3500 
L 3481 3500 
L 3481 -1331 
L 2906 -1331 
L 2906 525 
z
" id="DejaVuSans-71" transform="scale(0.015625)"/>
       <path d="M 678 2906 
L 4684 2906 
L 4684 2381 
L 678 2381 
L 678 2906 
z
M 678 1631 
L 4684 1631 
L 4684 1100 
L 678 1100 
L 678 1631 
z
" id="DejaVuSans-3d" transform="scale(0.015625)"/>
      </defs>
      <use xlink:href="#DejaVuSans-52"/>
      <use x="69.482422" xlink:href="#DejaVuSans-52"/>
      <use x="138.964844" xlink:href="#DejaVuSans-20"/>
      <use x="170.751953" xlink:href="#DejaVuSans-6d"/>
      <use x="268.164062" xlink:href="#DejaVuSans-65"/>
      <use x="329.6875" xlink:href="#DejaVuSans-74"/>
      <use x="368.896484" xlink:href="#DejaVuSans-20"/>
      <use x="400.683594" xlink:href="#DejaVuSans-71"/>
      <use x="464.160156" xlink:href="#DejaVuSans-3d"/>
      <use x="547.949219" xlink:href="#DejaVuSans-32"/>
     </g>
    </g>
    <g id="line2d_49">
     <path d="M 222.735938 106.370937 
L 242.735938 106.370937 
" style="fill:none;stroke:#9467bd;stroke-linecap:square;stroke-width:1.5;"/>
    </g>
    <g id="line2d_50"/>
    <g id="text_16">
     <!-- RR met q=4 -->
     <g transform="translate(250.735938 109.870937)scale(0.1 -0.1)">
      <use xlink:href="#DejaVuSans-52"/>
      <use x="69.482422" xlink:href="#DejaVuSans-52"/>
      <use x="138.964844" xlink:href="#DejaVuSans-20"/>
      <use x="170.751953" xlink:href="#DejaVuSans-6d"/>
      <use x="268.164062" xlink:href="#DejaVuSans-65"/>
      <use x="329.6875" xlink:href="#DejaVuSans-74"/>
      <use x="368.896484" xlink:href="#DejaVuSans-20"/>
      <use x="400.683594" xlink:href="#DejaVuSans-71"/>
      <use x="464.160156" xlink:href="#DejaVuSans-3d"/>
      <use x="547.949219" xlink:href="#DejaVuSans-34"/>
     </g>
    </g>
    <g id="line2d_51">
     <path d="M 222.735938 121.049062 
L 242.735938 121.049062 
" style="fill:none;stroke:#8c564b;stroke-linecap:square;stroke-width:1.5;"/>
    </g>
    <g id="line2d_52"/>
    <g id="text_17">
     <!-- RR met q=8 -->
     <g transform="translate(250.735938 124.549062)scale(0.1 -0.1)">
      <defs>
       <path d="M 2034 2216 
Q 1584 2216 1326 1975 
Q 1069 1734 1069 1313 
Q 1069 891 1326 650 
Q 1584 409 2034 409 
Q 2484 409 2743 651 
Q 3003 894 3003 1313 
Q 3003 1734 2745 1975 
Q 2488 2216 2034 2216 
z
M 1403 2484 
Q 997 2584 770 2862 
Q 544 3141 544 3541 
Q 544 4100 942 4425 
Q 1341 4750 2034 4750 
Q 2731 4750 3128 4425 
Q 3525 4100 3525 3541 
Q 3525 3141 3298 2862 
Q 3072 2584 2669 2484 
Q 3125 2378 3379 2068 
Q 3634 1759 3634 1313 
Q 3634 634 3220 271 
Q 2806 -91 2034 -91 
Q 1263 -91 848 271 
Q 434 634 434 1313 
Q 434 1759 690 2068 
Q 947 2378 1403 2484 
z
M 1172 3481 
Q 1172 3119 1398 2916 
Q 1625 2713 2034 2713 
Q 2441 2713 2670 2916 
Q 2900 3119 2900 3481 
Q 2900 3844 2670 4047 
Q 2441 4250 2034 4250 
Q 1625 4250 1398 4047 
Q 1172 3844 1172 3481 
z
" id="DejaVuSans-38" transform="scale(0.015625)"/>
      </defs>
      <use xlink:href="#DejaVuSans-52"/>
      <use x="69.482422" xlink:href="#DejaVuSans-52"/>
      <use x="138.964844" xlink:href="#DejaVuSans-20"/>
      <use x="170.751953" xlink:href="#DejaVuSans-6d"/>
      <use x="268.164062" xlink:href="#DejaVuSans-65"/>
      <use x="329.6875" xlink:href="#DejaVuSans-74"/>
      <use x="368.896484" xlink:href="#DejaVuSans-20"/>
      <use x="400.683594" xlink:href="#DejaVuSans-71"/>
      <use x="464.160156" xlink:href="#DejaVuSans-3d"/>
      <use x="547.949219" xlink:href="#DejaVuSans-38"/>
     </g>
    </g>
    <g id="line2d_53">
     <path d="M 222.735938 135.727187 
L 242.735938 135.727187 
" style="fill:none;stroke:#e377c2;stroke-linecap:square;stroke-width:1.5;"/>
    </g>
    <g id="line2d_54"/>
    <g id="text_18">
     <!-- HRRN -->
     <g transform="translate(250.735938 139.227187)scale(0.1 -0.1)">
      <defs>
       <path d="M 628 4666 
L 1259 4666 
L 1259 2753 
L 3553 2753 
L 3553 4666 
L 4184 4666 
L 4184 0 
L 3553 0 
L 3553 2222 
L 1259 2222 
L 1259 0 
L 628 0 
L 628 4666 
z
" id="DejaVuSans-48" transform="scale(0.015625)"/>
       <path d="M 628 4666 
L 1478 4666 
L 3547 763 
L 3547 4666 
L 4159 4666 
L 4159 0 
L 3309 0 
L 1241 3903 
L 1241 0 
L 628 0 
L 628 4666 
z
" id="DejaVuSans-4e" transform="scale(0.015625)"/>
      </defs>
      <use xlink:href="#DejaVuSans-48"/>
      <use x="75.195312" xlink:href="#DejaVuSans-52"/>
      <use x="144.677734" xlink:href="#DejaVuSans-52"/>
      <use x="214.160156" xlink:href="#DejaVuSans-4e"/>
     </g>
    </g>
    <g id="line2d_55">
     <path d="M 222.735938 150.405312 
L 242.735938 150.405312 
" style="fill:none;stroke:#7f7f7f;stroke-linecap:square;stroke-width:1.5;"/>
    </g>
    <g id="line2d_56"/>
    <g id="text_19">
     <!-- MLFB met q=1 -->
     <g transform="translate(250.735938 153.905312)scale(0.1 -0.1)">
      <defs>
       <path d="M 628 4666 
L 1569 4666 
L 2759 1491 
L 3956 4666 
L 4897 4666 
L 4897 0 
L 4281 0 
L 4281 4097 
L 3078 897 
L 2444 897 
L 1241 4097 
L 1241 0 
L 628 0 
L 628 4666 
z
" id="DejaVuSans-4d" transform="scale(0.015625)"/>
       <path d="M 628 4666 
L 1259 4666 
L 1259 531 
L 3531 531 
L 3531 0 
L 628 0 
L 628 4666 
z
" id="DejaVuSans-4c" transform="scale(0.015625)"/>
       <path d="M 1259 2228 
L 1259 519 
L 2272 519 
Q 2781 519 3026 730 
Q 3272 941 3272 1375 
Q 3272 1813 3026 2020 
Q 2781 2228 2272 2228 
L 1259 2228 
z
M 1259 4147 
L 1259 2741 
L 2194 2741 
Q 2656 2741 2882 2914 
Q 3109 3088 3109 3444 
Q 3109 3797 2882 3972 
Q 2656 4147 2194 4147 
L 1259 4147 
z
M 628 4666 
L 2241 4666 
Q 2963 4666 3353 4366 
Q 3744 4066 3744 3513 
Q 3744 3084 3544 2831 
Q 3344 2578 2956 2516 
Q 3422 2416 3680 2098 
Q 3938 1781 3938 1306 
Q 3938 681 3513 340 
Q 3088 0 2303 0 
L 628 0 
L 628 4666 
z
" id="DejaVuSans-42" transform="scale(0.015625)"/>
      </defs>
      <use xlink:href="#DejaVuSans-4d"/>
      <use x="86.279297" xlink:href="#DejaVuSans-4c"/>
      <use x="141.992188" xlink:href="#DejaVuSans-46"/>
      <use x="199.511719" xlink:href="#DejaVuSans-42"/>
      <use x="268.115234" xlink:href="#DejaVuSans-20"/>
      <use x="299.902344" xlink:href="#DejaVuSans-6d"/>
      <use x="397.314453" xlink:href="#DejaVuSans-65"/>
      <use x="458.837891" xlink:href="#DejaVuSans-74"/>
      <use x="498.046875" xlink:href="#DejaVuSans-20"/>
      <use x="529.833984" xlink:href="#DejaVuSans-71"/>
      <use x="593.310547" xlink:href="#DejaVuSans-3d"/>
      <use x="677.099609" xlink:href="#DejaVuSans-31"/>
     </g>
    </g>
    <g id="line2d_57">
     <path d="M 222.735938 165.083437 
L 242.735938 165.083437 
" style="fill:none;stroke:#bcbd22;stroke-linecap:square;stroke-width:1.5;"/>
    </g>
    <g id="line2d_58"/>
    <g id="text_20">
     <!-- MLFB met verschillende q -->
     <g transform="translate(250.735938 168.583437)scale(0.1 -0.1)">
      <defs>
       <path d="M 191 3500 
L 800 3500 
L 1894 563 
L 2988 3500 
L 3597 3500 
L 2284 0 
L 1503 0 
L 191 3500 
z
" id="DejaVuSans-76" transform="scale(0.015625)"/>
       <path d="M 3122 3366 
L 3122 2828 
Q 2878 2963 2633 3030 
Q 2388 3097 2138 3097 
Q 1578 3097 1268 2742 
Q 959 2388 959 1747 
Q 959 1106 1268 751 
Q 1578 397 2138 397 
Q 2388 397 2633 464 
Q 2878 531 3122 666 
L 3122 134 
Q 2881 22 2623 -34 
Q 2366 -91 2075 -91 
Q 1284 -91 818 406 
Q 353 903 353 1747 
Q 353 2603 823 3093 
Q 1294 3584 2113 3584 
Q 2378 3584 2631 3529 
Q 2884 3475 3122 3366 
z
" id="DejaVuSans-63" transform="scale(0.015625)"/>
       <path d="M 3513 2113 
L 3513 0 
L 2938 0 
L 2938 2094 
Q 2938 2591 2744 2837 
Q 2550 3084 2163 3084 
Q 1697 3084 1428 2787 
Q 1159 2491 1159 1978 
L 1159 0 
L 581 0 
L 581 4863 
L 1159 4863 
L 1159 2956 
Q 1366 3272 1645 3428 
Q 1925 3584 2291 3584 
Q 2894 3584 3203 3211 
Q 3513 2838 3513 2113 
z
" id="DejaVuSans-68" transform="scale(0.015625)"/>
      </defs>
      <use xlink:href="#DejaVuSans-4d"/>
      <use x="86.279297" xlink:href="#DejaVuSans-4c"/>
      <use x="141.992188" xlink:href="#DejaVuSans-46"/>
      <use x="199.511719" xlink:href="#DejaVuSans-42"/>
      <use x="268.115234" xlink:href="#DejaVuSans-20"/>
      <use x="299.902344" xlink:href="#DejaVuSans-6d"/>
      <use x="397.314453" xlink:href="#DejaVuSans-65"/>
      <use x="458.837891" xlink:href="#DejaVuSans-74"/>
      <use x="498.046875" xlink:href="#DejaVuSans-20"/>
      <use x="529.833984" xlink:href="#DejaVuSans-76"/>
      <use x="589.013672" xlink:href="#DejaVuSans-65"/>
      <use x="650.537109" xlink:href="#DejaVuSans-72"/>
      <use x="691.650391" xlink:href="#DejaVuSans-73"/>
      <use x="743.75" xlink:href="#DejaVuSans-63"/>
      <use x="798.730469" xlink:href="#DejaVuSans-68"/>
      <use x="862.109375" xlink:href="#DejaVuSans-69"/>
      <use x="889.892578" xlink:href="#DejaVuSans-6c"/>
      <use x="917.675781" xlink:href="#DejaVuSans-6c"/>
      <use x="945.458984" xlink:href="#DejaVuSans-65"/>
      <use x="1006.982422" xlink:href="#DejaVuSans-6e"/>
      <use x="1070.361328" xlink:href="#DejaVuSans-64"/>
      <use x="1133.837891" xlink:href="#DejaVuSans-65"/>
      <use x="1195.361328" xlink:href="#DejaVuSans-20"/>
      <use x="1227.148438" xlink:href="#DejaVuSans-71"/>
     </g>
    </g>
   </g>
  </g>
 </g>
 <defs>
  <clipPath id="p0908f240a1">
   <rect height="217.44" width="334.8" x="54" y="34.56"/>
  </clipPath>
 </defs>
</svg>
