<?xml version="1.0" encoding="utf-8" standalone="no"?>
<!DOCTYPE svg PUBLIC "-//W3C//DTD SVG 1.1//EN"
  "http://www.w3.org/Graphics/SVG/1.1/DTD/svg11.dtd">
<svg height="288pt" version="1.1" viewBox="0 0 432 288" width="432pt" xmlns="http://www.w3.org/2000/svg" xmlns:xlink="http://www.w3.org/1999/xlink">
 <metadata>
  <rdf:RDF xmlns:cc="http://creativecommons.org/ns#" xmlns:dc="http://purl.org/dc/elements/1.1/" xmlns:rdf="http://www.w3.org/1999/02/22-rdf-syntax-ns#">
   <cc:Work>
    <dc:type rdf:resource="http://purl.org/dc/dcmitype/StillImage"/>
    <dc:date>2022-03-29T19:56:57.417034</dc:date>
    <dc:format>image/svg+xml</dc:format>
    <dc:creator>
     <cc:Agent>
      <dc:title>Matplotlib v3.4.3, https://matplotlib.org/</dc:title>
     </cc:Agent>
    </dc:creator>
   </cc:Work>
  </rdf:RDF>
 </metadata>
 <defs>
  <style type="text/css">*{stroke-linecap:butt;stroke-linejoin:round;}</style>
 </defs>
 <g id="figure_1">
  <g id="patch_1">
   <path d="M 0 288 
L 432 288 
L 432 0 
L 0 0 
z
" style="fill:none;"/>
  </g>
  <g id="axes_1">
   <g id="patch_2">
    <path d="M 54 252 
L 388.8 252 
L 388.8 34.56 
L 54 34.56 
z
" style="fill:#ffffff;"/>
   </g>
   <g id="matplotlib.axis_1">
    <g id="xtick_1">
     <g id="line2d_1">
      <defs>
       <path d="M 0 0 
L 0 3.5 
" id="m88be64eb8a" style="stroke:#000000;stroke-width:0.8;"/>
      </defs>
      <g>
       <use style="stroke:#000000;stroke-width:0.8;" x="68.676311" xlink:href="#m88be64eb8a" y="252"/>
      </g>
     </g>
     <g id="text_1">
      <!-- 0 -->
      <g transform="translate(65.495061 266.598437)scale(0.1 -0.1)">
       <defs>
        <path d="M 2034 4250 
Q 1547 4250 1301 3770 
Q 1056 3291 1056 2328 
Q 1056 1369 1301 889 
Q 1547 409 2034 409 
Q 2525 409 2770 889 
Q 3016 1369 3016 2328 
Q 3016 3291 2770 3770 
Q 2525 4250 2034 4250 
z
M 2034 4750 
Q 2819 4750 3233 4129 
Q 3647 3509 3647 2328 
Q 3647 1150 3233 529 
Q 2819 -91 2034 -91 
Q 1250 -91 836 529 
Q 422 1150 422 2328 
Q 422 3509 836 4129 
Q 1250 4750 2034 4750 
z
" id="DejaVuSans-30" transform="scale(0.015625)"/>
       </defs>
       <use xlink:href="#DejaVuSans-30"/>
      </g>
     </g>
    </g>
    <g id="xtick_2">
     <g id="line2d_2">
      <g>
       <use style="stroke:#000000;stroke-width:0.8;" x="122.863431" xlink:href="#m88be64eb8a" y="252"/>
      </g>
     </g>
     <g id="text_2">
      <!-- 100 -->
      <g transform="translate(113.319681 266.598437)scale(0.1 -0.1)">
       <defs>
        <path d="M 794 531 
L 1825 531 
L 1825 4091 
L 703 3866 
L 703 4441 
L 1819 4666 
L 2450 4666 
L 2450 531 
L 3481 531 
L 3481 0 
L 794 0 
L 794 531 
z
" id="DejaVuSans-31" transform="scale(0.015625)"/>
       </defs>
       <use xlink:href="#DejaVuSans-31"/>
       <use x="63.623047" xlink:href="#DejaVuSans-30"/>
       <use x="127.246094" xlink:href="#DejaVuSans-30"/>
      </g>
     </g>
    </g>
    <g id="xtick_3">
     <g id="line2d_3">
      <g>
       <use style="stroke:#000000;stroke-width:0.8;" x="177.050551" xlink:href="#m88be64eb8a" y="252"/>
      </g>
     </g>
     <g id="text_3">
      <!-- 200 -->
      <g transform="translate(167.506801 266.598437)scale(0.1 -0.1)">
       <defs>
        <path d="M 1228 531 
L 3431 531 
L 3431 0 
L 469 0 
L 469 531 
Q 828 903 1448 1529 
Q 2069 2156 2228 2338 
Q 2531 2678 2651 2914 
Q 2772 3150 2772 3378 
Q 2772 3750 2511 3984 
Q 2250 4219 1831 4219 
Q 1534 4219 1204 4116 
Q 875 4013 500 3803 
L 500 4441 
Q 881 4594 1212 4672 
Q 1544 4750 1819 4750 
Q 2544 4750 2975 4387 
Q 3406 4025 3406 3419 
Q 3406 3131 3298 2873 
Q 3191 2616 2906 2266 
Q 2828 2175 2409 1742 
Q 1991 1309 1228 531 
z
" id="DejaVuSans-32" transform="scale(0.015625)"/>
       </defs>
       <use xlink:href="#DejaVuSans-32"/>
       <use x="63.623047" xlink:href="#DejaVuSans-30"/>
       <use x="127.246094" xlink:href="#DejaVuSans-30"/>
      </g>
     </g>
    </g>
    <g id="xtick_4">
     <g id="line2d_4">
      <g>
       <use style="stroke:#000000;stroke-width:0.8;" x="231.237672" xlink:href="#m88be64eb8a" y="252"/>
      </g>
     </g>
     <g id="text_4">
      <!-- 300 -->
      <g transform="translate(221.693922 266.598437)scale(0.1 -0.1)">
       <defs>
        <path d="M 2597 2516 
Q 3050 2419 3304 2112 
Q 3559 1806 3559 1356 
Q 3559 666 3084 287 
Q 2609 -91 1734 -91 
Q 1441 -91 1130 -33 
Q 819 25 488 141 
L 488 750 
Q 750 597 1062 519 
Q 1375 441 1716 441 
Q 2309 441 2620 675 
Q 2931 909 2931 1356 
Q 2931 1769 2642 2001 
Q 2353 2234 1838 2234 
L 1294 2234 
L 1294 2753 
L 1863 2753 
Q 2328 2753 2575 2939 
Q 2822 3125 2822 3475 
Q 2822 3834 2567 4026 
Q 2313 4219 1838 4219 
Q 1578 4219 1281 4162 
Q 984 4106 628 3988 
L 628 4550 
Q 988 4650 1302 4700 
Q 1616 4750 1894 4750 
Q 2613 4750 3031 4423 
Q 3450 4097 3450 3541 
Q 3450 3153 3228 2886 
Q 3006 2619 2597 2516 
z
" id="DejaVuSans-33" transform="scale(0.015625)"/>
       </defs>
       <use xlink:href="#DejaVuSans-33"/>
       <use x="63.623047" xlink:href="#DejaVuSans-30"/>
       <use x="127.246094" xlink:href="#DejaVuSans-30"/>
      </g>
     </g>
    </g>
    <g id="xtick_5">
     <g id="line2d_5">
      <g>
       <use style="stroke:#000000;stroke-width:0.8;" x="285.424792" xlink:href="#m88be64eb8a" y="252"/>
      </g>
     </g>
     <g id="text_5">
      <!-- 400 -->
      <g transform="translate(275.881042 266.598437)scale(0.1 -0.1)">
       <defs>
        <path d="M 2419 4116 
L 825 1625 
L 2419 1625 
L 2419 4116 
z
M 2253 4666 
L 3047 4666 
L 3047 1625 
L 3713 1625 
L 3713 1100 
L 3047 1100 
L 3047 0 
L 2419 0 
L 2419 1100 
L 313 1100 
L 313 1709 
L 2253 4666 
z
" id="DejaVuSans-34" transform="scale(0.015625)"/>
       </defs>
       <use xlink:href="#DejaVuSans-34"/>
       <use x="63.623047" xlink:href="#DejaVuSans-30"/>
       <use x="127.246094" xlink:href="#DejaVuSans-30"/>
      </g>
     </g>
    </g>
    <g id="xtick_6">
     <g id="line2d_6">
      <g>
       <use style="stroke:#000000;stroke-width:0.8;" x="339.611912" xlink:href="#m88be64eb8a" y="252"/>
      </g>
     </g>
     <g id="text_6">
      <!-- 500 -->
      <g transform="translate(330.068162 266.598437)scale(0.1 -0.1)">
       <defs>
        <path d="M 691 4666 
L 3169 4666 
L 3169 4134 
L 1269 4134 
L 1269 2991 
Q 1406 3038 1543 3061 
Q 1681 3084 1819 3084 
Q 2600 3084 3056 2656 
Q 3513 2228 3513 1497 
Q 3513 744 3044 326 
Q 2575 -91 1722 -91 
Q 1428 -91 1123 -41 
Q 819 9 494 109 
L 494 744 
Q 775 591 1075 516 
Q 1375 441 1709 441 
Q 2250 441 2565 725 
Q 2881 1009 2881 1497 
Q 2881 1984 2565 2268 
Q 2250 2553 1709 2553 
Q 1456 2553 1204 2497 
Q 953 2441 691 2322 
L 691 4666 
z
" id="DejaVuSans-35" transform="scale(0.015625)"/>
       </defs>
       <use xlink:href="#DejaVuSans-35"/>
       <use x="63.623047" xlink:href="#DejaVuSans-30"/>
       <use x="127.246094" xlink:href="#DejaVuSans-30"/>
      </g>
     </g>
    </g>
    <g id="text_7">
     <!-- bedieningstijd -->
     <g transform="translate(186.091406 280.276563)scale(0.1 -0.1)">
      <defs>
       <path d="M 3116 1747 
Q 3116 2381 2855 2742 
Q 2594 3103 2138 3103 
Q 1681 3103 1420 2742 
Q 1159 2381 1159 1747 
Q 1159 1113 1420 752 
Q 1681 391 2138 391 
Q 2594 391 2855 752 
Q 3116 1113 3116 1747 
z
M 1159 2969 
Q 1341 3281 1617 3432 
Q 1894 3584 2278 3584 
Q 2916 3584 3314 3078 
Q 3713 2572 3713 1747 
Q 3713 922 3314 415 
Q 2916 -91 2278 -91 
Q 1894 -91 1617 61 
Q 1341 213 1159 525 
L 1159 0 
L 581 0 
L 581 4863 
L 1159 4863 
L 1159 2969 
z
" id="DejaVuSans-62" transform="scale(0.015625)"/>
       <path d="M 3597 1894 
L 3597 1613 
L 953 1613 
Q 991 1019 1311 708 
Q 1631 397 2203 397 
Q 2534 397 2845 478 
Q 3156 559 3463 722 
L 3463 178 
Q 3153 47 2828 -22 
Q 2503 -91 2169 -91 
Q 1331 -91 842 396 
Q 353 884 353 1716 
Q 353 2575 817 3079 
Q 1281 3584 2069 3584 
Q 2775 3584 3186 3129 
Q 3597 2675 3597 1894 
z
M 3022 2063 
Q 3016 2534 2758 2815 
Q 2500 3097 2075 3097 
Q 1594 3097 1305 2825 
Q 1016 2553 972 2059 
L 3022 2063 
z
" id="DejaVuSans-65" transform="scale(0.015625)"/>
       <path d="M 2906 2969 
L 2906 4863 
L 3481 4863 
L 3481 0 
L 2906 0 
L 2906 525 
Q 2725 213 2448 61 
Q 2172 -91 1784 -91 
Q 1150 -91 751 415 
Q 353 922 353 1747 
Q 353 2572 751 3078 
Q 1150 3584 1784 3584 
Q 2172 3584 2448 3432 
Q 2725 3281 2906 2969 
z
M 947 1747 
Q 947 1113 1208 752 
Q 1469 391 1925 391 
Q 2381 391 2643 752 
Q 2906 1113 2906 1747 
Q 2906 2381 2643 2742 
Q 2381 3103 1925 3103 
Q 1469 3103 1208 2742 
Q 947 2381 947 1747 
z
" id="DejaVuSans-64" transform="scale(0.015625)"/>
       <path d="M 603 3500 
L 1178 3500 
L 1178 0 
L 603 0 
L 603 3500 
z
M 603 4863 
L 1178 4863 
L 1178 4134 
L 603 4134 
L 603 4863 
z
" id="DejaVuSans-69" transform="scale(0.015625)"/>
       <path d="M 3513 2113 
L 3513 0 
L 2938 0 
L 2938 2094 
Q 2938 2591 2744 2837 
Q 2550 3084 2163 3084 
Q 1697 3084 1428 2787 
Q 1159 2491 1159 1978 
L 1159 0 
L 581 0 
L 581 3500 
L 1159 3500 
L 1159 2956 
Q 1366 3272 1645 3428 
Q 1925 3584 2291 3584 
Q 2894 3584 3203 3211 
Q 3513 2838 3513 2113 
z
" id="DejaVuSans-6e" transform="scale(0.015625)"/>
       <path d="M 2906 1791 
Q 2906 2416 2648 2759 
Q 2391 3103 1925 3103 
Q 1463 3103 1205 2759 
Q 947 2416 947 1791 
Q 947 1169 1205 825 
Q 1463 481 1925 481 
Q 2391 481 2648 825 
Q 2906 1169 2906 1791 
z
M 3481 434 
Q 3481 -459 3084 -895 
Q 2688 -1331 1869 -1331 
Q 1566 -1331 1297 -1286 
Q 1028 -1241 775 -1147 
L 775 -588 
Q 1028 -725 1275 -790 
Q 1522 -856 1778 -856 
Q 2344 -856 2625 -561 
Q 2906 -266 2906 331 
L 2906 616 
Q 2728 306 2450 153 
Q 2172 0 1784 0 
Q 1141 0 747 490 
Q 353 981 353 1791 
Q 353 2603 747 3093 
Q 1141 3584 1784 3584 
Q 2172 3584 2450 3431 
Q 2728 3278 2906 2969 
L 2906 3500 
L 3481 3500 
L 3481 434 
z
" id="DejaVuSans-67" transform="scale(0.015625)"/>
       <path d="M 2834 3397 
L 2834 2853 
Q 2591 2978 2328 3040 
Q 2066 3103 1784 3103 
Q 1356 3103 1142 2972 
Q 928 2841 928 2578 
Q 928 2378 1081 2264 
Q 1234 2150 1697 2047 
L 1894 2003 
Q 2506 1872 2764 1633 
Q 3022 1394 3022 966 
Q 3022 478 2636 193 
Q 2250 -91 1575 -91 
Q 1294 -91 989 -36 
Q 684 19 347 128 
L 347 722 
Q 666 556 975 473 
Q 1284 391 1588 391 
Q 1994 391 2212 530 
Q 2431 669 2431 922 
Q 2431 1156 2273 1281 
Q 2116 1406 1581 1522 
L 1381 1569 
Q 847 1681 609 1914 
Q 372 2147 372 2553 
Q 372 3047 722 3315 
Q 1072 3584 1716 3584 
Q 2034 3584 2315 3537 
Q 2597 3491 2834 3397 
z
" id="DejaVuSans-73" transform="scale(0.015625)"/>
       <path d="M 1172 4494 
L 1172 3500 
L 2356 3500 
L 2356 3053 
L 1172 3053 
L 1172 1153 
Q 1172 725 1289 603 
Q 1406 481 1766 481 
L 2356 481 
L 2356 0 
L 1766 0 
Q 1100 0 847 248 
Q 594 497 594 1153 
L 594 3053 
L 172 3053 
L 172 3500 
L 594 3500 
L 594 4494 
L 1172 4494 
z
" id="DejaVuSans-74" transform="scale(0.015625)"/>
       <path d="M 603 3500 
L 1178 3500 
L 1178 -63 
Q 1178 -731 923 -1031 
Q 669 -1331 103 -1331 
L -116 -1331 
L -116 -844 
L 38 -844 
Q 366 -844 484 -692 
Q 603 -541 603 -63 
L 603 3500 
z
M 603 4863 
L 1178 4863 
L 1178 4134 
L 603 4134 
L 603 4863 
z
" id="DejaVuSans-6a" transform="scale(0.015625)"/>
      </defs>
      <use xlink:href="#DejaVuSans-62"/>
      <use x="63.476562" xlink:href="#DejaVuSans-65"/>
      <use x="125" xlink:href="#DejaVuSans-64"/>
      <use x="188.476562" xlink:href="#DejaVuSans-69"/>
      <use x="216.259766" xlink:href="#DejaVuSans-65"/>
      <use x="277.783203" xlink:href="#DejaVuSans-6e"/>
      <use x="341.162109" xlink:href="#DejaVuSans-69"/>
      <use x="368.945312" xlink:href="#DejaVuSans-6e"/>
      <use x="432.324219" xlink:href="#DejaVuSans-67"/>
      <use x="495.800781" xlink:href="#DejaVuSans-73"/>
      <use x="547.900391" xlink:href="#DejaVuSans-74"/>
      <use x="587.109375" xlink:href="#DejaVuSans-69"/>
      <use x="614.892578" xlink:href="#DejaVuSans-6a"/>
      <use x="642.675781" xlink:href="#DejaVuSans-64"/>
     </g>
    </g>
   </g>
   <g id="matplotlib.axis_2">
    <g id="ytick_1">
     <g id="line2d_7">
      <defs>
       <path d="M 0 0 
L -3.5 0 
" id="m60936332f9" style="stroke:#000000;stroke-width:0.8;"/>
      </defs>
      <g>
       <use style="stroke:#000000;stroke-width:0.8;" x="54" xlink:href="#m60936332f9" y="242.116364"/>
      </g>
     </g>
     <g id="text_8">
      <!-- 0 -->
      <g transform="translate(40.6375 245.915582)scale(0.1 -0.1)">
       <use xlink:href="#DejaVuSans-30"/>
      </g>
     </g>
    </g>
    <g id="ytick_2">
     <g id="line2d_8">
      <g>
       <use style="stroke:#000000;stroke-width:0.8;" x="54" xlink:href="#m60936332f9" y="197.977933"/>
      </g>
     </g>
     <g id="text_9">
      <!-- 500 -->
      <g transform="translate(27.9125 201.777151)scale(0.1 -0.1)">
       <use xlink:href="#DejaVuSans-35"/>
       <use x="63.623047" xlink:href="#DejaVuSans-30"/>
       <use x="127.246094" xlink:href="#DejaVuSans-30"/>
      </g>
     </g>
    </g>
    <g id="ytick_3">
     <g id="line2d_9">
      <g>
       <use style="stroke:#000000;stroke-width:0.8;" x="54" xlink:href="#m60936332f9" y="153.839502"/>
      </g>
     </g>
     <g id="text_10">
      <!-- 1000 -->
      <g transform="translate(21.55 157.63872)scale(0.1 -0.1)">
       <use xlink:href="#DejaVuSans-31"/>
       <use x="63.623047" xlink:href="#DejaVuSans-30"/>
       <use x="127.246094" xlink:href="#DejaVuSans-30"/>
       <use x="190.869141" xlink:href="#DejaVuSans-30"/>
      </g>
     </g>
    </g>
    <g id="ytick_4">
     <g id="line2d_10">
      <g>
       <use style="stroke:#000000;stroke-width:0.8;" x="54" xlink:href="#m60936332f9" y="109.701071"/>
      </g>
     </g>
     <g id="text_11">
      <!-- 1500 -->
      <g transform="translate(21.55 113.500289)scale(0.1 -0.1)">
       <use xlink:href="#DejaVuSans-31"/>
       <use x="63.623047" xlink:href="#DejaVuSans-35"/>
       <use x="127.246094" xlink:href="#DejaVuSans-30"/>
       <use x="190.869141" xlink:href="#DejaVuSans-30"/>
      </g>
     </g>
    </g>
    <g id="ytick_5">
     <g id="line2d_11">
      <g>
       <use style="stroke:#000000;stroke-width:0.8;" x="54" xlink:href="#m60936332f9" y="65.56264"/>
      </g>
     </g>
     <g id="text_12">
      <!-- 2000 -->
      <g transform="translate(21.55 69.361858)scale(0.1 -0.1)">
       <use xlink:href="#DejaVuSans-32"/>
       <use x="63.623047" xlink:href="#DejaVuSans-30"/>
       <use x="127.246094" xlink:href="#DejaVuSans-30"/>
       <use x="190.869141" xlink:href="#DejaVuSans-30"/>
      </g>
     </g>
    </g>
    <g id="text_13">
     <!-- wachttijd -->
     <g transform="translate(15.470312 166.22375)rotate(-90)scale(0.1 -0.1)">
      <defs>
       <path d="M 269 3500 
L 844 3500 
L 1563 769 
L 2278 3500 
L 2956 3500 
L 3675 769 
L 4391 3500 
L 4966 3500 
L 4050 0 
L 3372 0 
L 2619 2869 
L 1863 0 
L 1184 0 
L 269 3500 
z
" id="DejaVuSans-77" transform="scale(0.015625)"/>
       <path d="M 2194 1759 
Q 1497 1759 1228 1600 
Q 959 1441 959 1056 
Q 959 750 1161 570 
Q 1363 391 1709 391 
Q 2188 391 2477 730 
Q 2766 1069 2766 1631 
L 2766 1759 
L 2194 1759 
z
M 3341 1997 
L 3341 0 
L 2766 0 
L 2766 531 
Q 2569 213 2275 61 
Q 1981 -91 1556 -91 
Q 1019 -91 701 211 
Q 384 513 384 1019 
Q 384 1609 779 1909 
Q 1175 2209 1959 2209 
L 2766 2209 
L 2766 2266 
Q 2766 2663 2505 2880 
Q 2244 3097 1772 3097 
Q 1472 3097 1187 3025 
Q 903 2953 641 2809 
L 641 3341 
Q 956 3463 1253 3523 
Q 1550 3584 1831 3584 
Q 2591 3584 2966 3190 
Q 3341 2797 3341 1997 
z
" id="DejaVuSans-61" transform="scale(0.015625)"/>
       <path d="M 3122 3366 
L 3122 2828 
Q 2878 2963 2633 3030 
Q 2388 3097 2138 3097 
Q 1578 3097 1268 2742 
Q 959 2388 959 1747 
Q 959 1106 1268 751 
Q 1578 397 2138 397 
Q 2388 397 2633 464 
Q 2878 531 3122 666 
L 3122 134 
Q 2881 22 2623 -34 
Q 2366 -91 2075 -91 
Q 1284 -91 818 406 
Q 353 903 353 1747 
Q 353 2603 823 3093 
Q 1294 3584 2113 3584 
Q 2378 3584 2631 3529 
Q 2884 3475 3122 3366 
z
" id="DejaVuSans-63" transform="scale(0.015625)"/>
       <path d="M 3513 2113 
L 3513 0 
L 2938 0 
L 2938 2094 
Q 2938 2591 2744 2837 
Q 2550 3084 2163 3084 
Q 1697 3084 1428 2787 
Q 1159 2491 1159 1978 
L 1159 0 
L 581 0 
L 581 4863 
L 1159 4863 
L 1159 2956 
Q 1366 3272 1645 3428 
Q 1925 3584 2291 3584 
Q 2894 3584 3203 3211 
Q 3513 2838 3513 2113 
z
" id="DejaVuSans-68" transform="scale(0.015625)"/>
      </defs>
      <use xlink:href="#DejaVuSans-77"/>
      <use x="81.787109" xlink:href="#DejaVuSans-61"/>
      <use x="143.066406" xlink:href="#DejaVuSans-63"/>
      <use x="198.046875" xlink:href="#DejaVuSans-68"/>
      <use x="261.425781" xlink:href="#DejaVuSans-74"/>
      <use x="300.634766" xlink:href="#DejaVuSans-74"/>
      <use x="339.84375" xlink:href="#DejaVuSans-69"/>
      <use x="367.626953" xlink:href="#DejaVuSans-6a"/>
      <use x="395.410156" xlink:href="#DejaVuSans-64"/>
     </g>
    </g>
   </g>
   <g id="line2d_12">
    <path clip-path="url(#pbc833aa49a)" d="M 69.218182 205.517659 
L 69.321137 204.571331 
L 69.851087 206.704983 
L 70.379954 208.322922 
L 70.948918 207.643896 
L 71.494041 205.518013 
L 72.047833 207.609115 
L 72.661231 209.330337 
L 73.233447 206.173203 
L 73.818668 206.358408 
L 74.414727 205.591812 
L 74.977189 209.259186 
L 75.587336 205.996826 
L 76.171473 206.373062 
L 76.809797 206.01766 
L 77.481718 203.700392 
L 78.141717 207.351346 
L 78.810386 206.325746 
L 79.508316 205.362822 
L 80.202995 205.254771 
L 80.883585 208.103465 
L 81.555505 204.637009 
L 82.308706 206.210103 
L 83.004469 206.905901 
L 83.661217 205.608761 
L 84.494615 205.069566 
L 85.193629 206.991177 
L 85.900229 203.601169 
L 86.748799 206.33528 
L 87.445645 205.010244 
L 88.214019 207.122533 
L 88.97589 205.267836 
L 89.739928 206.391071 
L 90.566823 203.78143 
L 91.327611 205.601346 
L 92.235787 206.370767 
L 93.065933 203.525251 
L 93.897164 204.502652 
L 94.811843 208.112646 
L 95.737359 206.722109 
L 96.627111 204.608761 
L 97.587307 206.738528 
L 98.477059 208.454807 
L 99.411245 206.330689 
L 100.3942 206.682031 
L 101.407499 204.872356 
L 102.389369 203.878711 
L 103.383161 203.211162 
L 104.430056 203.923732 
L 105.435769 206.452688 
L 106.477246 207.291495 
L 107.604338 204.554912 
L 108.775863 208.949334 
L 109.932217 205.093048 
L 111.11458 204.236056 
L 112.466006 204.752299 
L 113.661374 207.578041 
L 115.031225 206.856819 
L 116.313292 202.926027 
L 117.520581 205.971403 
L 118.808067 203.919319 
L 120.072794 206.095696 
L 121.337522 207.600111 
L 122.835254 204.652193 
L 124.310227 209.195274 
L 125.796038 208.534963 
L 127.369632 203.455865 
L 129.053768 207.081396 
L 130.78342 205.912257 
L 132.609526 208.208515 
L 134.436716 208.407491 
L 136.250901 206.959927 
L 138.151785 208.020308 
L 140.195723 207.347109 
L 142.174637 206.383832 
L 144.295521 209.028607 
L 146.42074 209.67497 
L 148.768126 206.981113 
L 151.271571 204.620237 
L 153.829203 205.932384 
L 156.402007 208.117943 
L 159.248999 206.524192 
L 162.245546 207.293084 
L 165.451256 205.034608 
L 168.943074 208.963282 
L 172.543267 206.338987 
L 176.385134 207.516777 
L 180.579217 210.63348 
L 184.996551 204.305618 
L 190.115066 208.282491 
L 195.716931 206.191035 
L 202.067661 202.993824 
L 209.569326 205.186621 
L 217.889216 203.530371 
L 227.464081 209.048028 
L 238.093426 209.292201 
L 251.453803 204.70975 
L 268.78176 204.825745 
L 297.028422 207.842872 
L 373.581818 206.484821 
" style="fill:none;stroke:#1f77b4;stroke-linecap:square;stroke-width:1.5;"/>
   </g>
   <g id="line2d_13">
    <path clip-path="url(#pbc833aa49a)" d="M 69.218182 235.540091 
L 69.321137 235.34288 
L 69.851087 234.647611 
L 70.379954 235.146199 
L 70.948918 235.279144 
L 71.494041 234.315337 
L 72.047833 234.991185 
L 72.661231 235.260783 
L 73.233447 235.593939 
L 73.818668 235.403791 
L 74.414727 234.898494 
L 74.977189 235.159441 
L 75.587336 234.900966 
L 76.171473 234.798565 
L 76.809797 234.662619 
L 77.481718 234.485359 
L 78.141717 235.149377 
L 78.810386 234.802979 
L 79.508316 234.636135 
L 80.202995 234.204462 
L 80.883585 234.67127 
L 81.555505 234.911559 
L 82.308706 234.371481 
L 83.004469 234.370775 
L 83.661217 234.86389 
L 84.494615 234.687866 
L 85.193629 234.115655 
L 85.900229 234.131192 
L 86.748799 235.61442 
L 87.445645 234.510959 
L 88.214019 235.156086 
L 88.97589 234.299094 
L 89.739928 234.688042 
L 90.566823 233.62307 
L 91.327611 233.669327 
L 92.235787 234.283028 
L 93.065933 233.770139 
L 93.897164 234.441397 
L 94.811843 233.282498 
L 95.737359 233.520316 
L 96.627111 234.402555 
L 97.587307 233.783911 
L 98.477059 233.178155 
L 99.411245 234.028967 
L 100.3942 233.651672 
L 101.407499 233.674624 
L 102.389369 233.388607 
L 103.383161 233.283557 
L 104.430056 233.565161 
L 105.435769 232.744715 
L 106.477246 233.551566 
L 107.604338 232.767667 
L 108.775863 232.800153 
L 109.932217 233.089701 
L 111.11458 232.739595 
L 112.466006 232.50319 
L 113.661374 232.174623 
L 115.031225 231.890372 
L 116.313292 230.927448 
L 117.520581 230.905555 
L 118.808067 231.522787 
L 120.072794 231.271904 
L 121.337522 230.916502 
L 122.835254 230.446516 
L 124.310227 230.660675 
L 125.796038 229.091995 
L 127.369632 229.146021 
L 129.053768 229.347998 
L 130.78342 227.872539 
L 132.609526 229.17886 
L 134.436716 227.674975 
L 136.250901 228.065336 
L 138.151785 228.199869 
L 140.195723 226.687687 
L 142.174637 227.611769 
L 144.295521 226.875187 
L 146.42074 224.788498 
L 148.768126 224.651316 
L 151.271571 224.921267 
L 153.829203 222.272078 
L 156.402007 222.74789 
L 159.248999 221.808272 
L 162.245546 220.290263 
L 165.451256 218.423913 
L 168.943074 219.2463 
L 172.543267 218.895665 
L 176.385134 217.611943 
L 180.579217 214.583693 
L 184.996551 212.483057 
L 190.115066 209.80562 
L 195.716931 206.812858 
L 202.067661 201.517129 
L 209.569326 200.698979 
L 217.889216 193.840926 
L 227.464081 190.10858 
L 238.093426 183.213098 
L 251.453803 170.999641 
L 268.78176 152.694021 
L 297.028422 143.349033 
L 373.581818 107.75898 
" style="fill:none;stroke:#ff7f0e;stroke-linecap:square;stroke-width:1.5;"/>
   </g>
   <g id="line2d_14">
    <path clip-path="url(#pbc833aa49a)" d="M 69.218182 242.116364 
L 69.321137 242.116364 
L 69.851087 242.116364 
L 70.379954 242.116364 
L 70.948918 242.116364 
L 71.494041 242.116364 
L 72.047833 242.115657 
L 72.661231 242.115304 
L 73.233447 242.115834 
L 73.818668 242.115128 
L 74.414727 242.116011 
L 74.977189 242.116187 
L 75.587336 242.11195 
L 76.171473 242.114068 
L 76.809797 242.113186 
L 77.481718 242.113362 
L 78.141717 242.114422 
L 78.810386 242.108066 
L 79.508316 242.106653 
L 80.202995 242.106653 
L 80.883585 242.102592 
L 81.555505 242.110008 
L 82.308706 242.099944 
L 83.004469 242.097649 
L 83.661217 242.0807 
L 84.494615 242.082818 
L 85.193629 242.08529 
L 85.900229 242.087409 
L 86.748799 242.081406 
L 87.445645 242.073285 
L 88.214019 242.068518 
L 88.97589 242.052981 
L 89.739928 242.042035 
L 90.566823 242.044153 
L 91.327611 242.077698 
L 92.235787 242.046978 
L 93.065933 242.021907 
L 93.897164 242.030029 
L 94.811843 242.015198 
L 95.737359 242.012197 
L 96.627111 242.02844 
L 97.587307 241.971236 
L 98.477059 241.9813 
L 99.411245 241.94493 
L 100.3942 241.939104 
L 101.407499 241.995601 
L 102.389369 241.881371 
L 103.383161 241.866717 
L 104.430056 241.879782 
L 105.435769 241.85118 
L 106.477246 241.829993 
L 107.604338 241.720177 
L 108.775863 241.758666 
L 109.932217 241.708348 
L 111.11458 241.729358 
L 112.466006 241.635961 
L 113.661374 241.663856 
L 115.031225 241.629075 
L 116.313292 241.578934 
L 117.520581 241.472472 
L 118.808067 241.499838 
L 120.072794 241.42904 
L 121.337522 241.373955 
L 122.835254 241.402557 
L 124.310227 240.987832 
L 125.796038 241.159089 
L 127.369632 241.009901 
L 129.053768 240.947048 
L 130.78342 240.693694 
L 132.609526 240.836173 
L 134.436716 240.661561 
L 136.250901 240.611773 
L 138.151785 240.534089 
L 140.195723 240.652204 
L 142.174637 240.420565 
L 144.295521 240.031441 
L 146.42074 239.910855 
L 148.768126 239.550332 
L 151.271571 239.613891 
L 153.829203 239.144082 
L 156.402007 238.714173 
L 159.248999 238.661031 
L 162.245546 238.601532 
L 165.451256 237.431334 
L 168.943074 237.205169 
L 172.543267 236.393198 
L 176.385134 236.355769 
L 180.579217 236.032146 
L 184.996551 235.147965 
L 190.115066 234.965761 
L 195.716931 232.783381 
L 202.067661 231.14761 
L 209.569326 231.00725 
L 217.889216 228.667207 
L 227.464081 225.984826 
L 238.093426 221.48765 
L 251.453803 217.323101 
L 268.78176 213.13454 
L 297.028422 196.979698 
L 373.581818 156.965209 
" style="fill:none;stroke:#2ca02c;stroke-linecap:square;stroke-width:1.5;"/>
   </g>
   <g id="line2d_15">
    <path clip-path="url(#pbc833aa49a)" d="M 69.218182 241.503722 
L 69.321137 241.482006 
L 69.851087 241.430099 
L 70.379954 240.888786 
L 70.948918 240.70517 
L 71.494041 240.043623 
L 72.047833 239.961879 
L 72.661231 239.618305 
L 73.233447 239.13084 
L 73.818668 238.588644 
L 74.414727 238.188926 
L 74.977189 238.311807 
L 75.587336 237.281616 
L 76.171473 237.27579 
L 76.809797 236.542033 
L 77.481718 236.201814 
L 78.141717 236.017845 
L 78.810386 235.242951 
L 79.508316 234.663501 
L 80.202995 233.996305 
L 80.883585 234.708699 
L 81.555505 233.249836 
L 82.308706 232.896199 
L 83.004469 233.080874 
L 83.661217 232.013077 
L 84.494615 231.216996 
L 85.193629 231.538147 
L 85.900229 229.954107 
L 86.748799 230.20446 
L 87.445645 229.317278 
L 88.214019 229.490124 
L 88.97589 228.769432 
L 89.739928 228.615124 
L 90.566823 227.40114 
L 91.327611 227.517489 
L 92.235787 226.90114 
L 93.065933 225.212404 
L 93.897164 224.620596 
L 94.811843 225.486768 
L 95.737359 224.795207 
L 96.627111 223.730588 
L 97.587307 222.859649 
L 98.477059 223.017841 
L 99.411245 221.806506 
L 100.3942 220.997184 
L 101.407499 219.8826 
L 102.389369 219.059683 
L 103.383161 218.420206 
L 104.430056 218.172854 
L 105.435769 217.963814 
L 106.477246 217.493299 
L 107.604338 215.789555 
L 108.775863 218.0219 
L 109.932217 214.124477 
L 111.11458 213.504067 
L 112.466006 212.401842 
L 113.661374 214.465402 
L 115.031225 213.49471 
L 116.313292 209.469461 
L 117.520581 210.313212 
L 118.808067 207.497003 
L 120.072794 207.552265 
L 121.337522 208.151311 
L 122.835254 205.859291 
L 124.310227 207.725993 
L 125.796038 206.920202 
L 127.369632 202.122531 
L 129.053768 202.808796 
L 130.78342 202.084572 
L 132.609526 201.685384 
L 134.436716 201.182206 
L 136.250901 198.739232 
L 138.151785 199.363173 
L 140.195723 196.105227 
L 142.174637 196.156428 
L 144.295521 195.965397 
L 146.42074 193.534075 
L 148.768126 188.569385 
L 151.271571 186.636828 
L 153.829203 184.759708 
L 156.402007 185.210627 
L 159.248999 182.221396 
L 162.245546 182.781071 
L 165.451256 178.060377 
L 168.943074 178.023301 
L 172.543267 174.024536 
L 176.385134 173.289719 
L 180.579217 174.661895 
L 184.996551 161.342682 
L 190.115066 164.046249 
L 195.716931 160.376933 
L 202.067661 150.205849 
L 209.569326 150.212029 
L 217.889216 139.875161 
L 227.464081 142.644936 
L 238.093426 135.95355 
L 251.453803 116.245741 
L 268.78176 108.884333 
L 297.028422 95.421935 
L 373.581818 44.443636 
" style="fill:none;stroke:#d62728;stroke-linecap:square;stroke-width:1.5;"/>
   </g>
   <g id="line2d_16">
    <path clip-path="url(#pbc833aa49a)" d="M 69.218182 240.869188 
L 69.321137 240.822048 
L 69.851087 240.949344 
L 70.379954 240.973355 
L 70.948918 240.6575 
L 71.494041 239.418446 
L 72.047833 239.573107 
L 72.661231 239.709936 
L 73.233447 238.981829 
L 73.818668 237.976355 
L 74.414727 237.988008 
L 74.977189 238.414915 
L 75.587336 236.845882 
L 76.171473 236.712054 
L 76.809797 236.636666 
L 77.481718 236.184159 
L 78.141717 235.45817 
L 78.810386 235.163148 
L 79.508316 234.732004 
L 80.202995 233.414913 
L 80.883585 234.536736 
L 81.555505 233.388254 
L 82.308706 232.331933 
L 83.004469 232.86848 
L 83.661217 232.175683 
L 84.494615 230.67992 
L 85.193629 231.344821 
L 85.900229 230.09023 
L 86.748799 229.67833 
L 87.445645 229.251247 
L 88.214019 229.565336 
L 88.97589 228.263252 
L 89.739928 228.674622 
L 90.566823 227.312864 
L 91.327611 227.101176 
L 92.235787 227.102235 
L 93.065933 224.828929 
L 93.897164 224.507248 
L 94.811843 225.485709 
L 95.737359 224.478117 
L 96.627111 223.938039 
L 97.587307 222.410496 
L 98.477059 223.136485 
L 99.411245 221.611061 
L 100.3942 220.939804 
L 101.407499 219.881541 
L 102.389369 218.840757 
L 103.383161 218.514485 
L 104.430056 217.888602 
L 105.435769 218.144252 
L 106.477246 217.201455 
L 107.604338 215.928679 
L 108.775863 217.864591 
L 109.932217 214.184858 
L 111.11458 213.435564 
L 112.466006 212.283198 
L 113.661374 214.61971 
L 115.031225 213.283022 
L 116.313292 209.614765 
L 117.520581 210.192802 
L 118.808067 207.507596 
L 120.072794 207.658197 
L 121.337522 207.9767 
L 122.835254 206.018189 
L 124.310227 207.807208 
L 125.796038 206.79273 
L 127.369632 202.207807 
L 129.053768 202.981642 
L 130.78342 202.170024 
L 132.609526 201.684148 
L 134.436716 201.225992 
L 136.250901 198.723342 
L 138.151785 199.496471 
L 140.195723 196.232699 
L 142.174637 196.241703 
L 144.295521 196.093398 
L 146.42074 193.685559 
L 148.768126 188.671609 
L 151.271571 186.808085 
L 153.829203 184.993466 
L 156.402007 185.4548 
L 159.248999 182.381 
L 162.245546 182.97581 
L 165.451256 178.225808 
L 168.943074 178.31126 
L 172.543267 174.251231 
L 176.385134 173.580327 
L 180.579217 174.906422 
L 184.996551 161.688904 
L 190.115066 164.385232 
L 195.716931 160.727392 
L 202.067661 150.536711 
L 209.569326 150.568667 
L 217.889216 140.348502 
L 227.464081 143.031059 
L 238.093426 136.451785 
L 251.453803 116.78935 
L 268.78176 109.501918 
L 297.028422 96.141921 
L 373.581818 45.275734 
" style="fill:none;stroke:#9467bd;stroke-linecap:square;stroke-width:1.5;"/>
   </g>
   <g id="line2d_17">
    <path clip-path="url(#pbc833aa49a)" d="M 69.218182 239.641434 
L 69.321137 239.553863 
L 69.851087 239.780205 
L 70.379954 239.831229 
L 70.948918 239.753369 
L 71.494041 239.59553 
L 72.047833 239.738008 
L 72.661231 239.885784 
L 73.233447 238.654498 
L 73.818668 236.789385 
L 74.414727 236.800508 
L 74.977189 237.342351 
L 75.587336 236.747895 
L 76.171473 236.951461 
L 76.809797 236.860359 
L 77.481718 236.173565 
L 78.141717 234.370422 
L 78.810386 234.020316 
L 79.508316 233.713113 
L 80.202995 233.677449 
L 80.883585 234.830698 
L 81.555505 233.674447 
L 82.308706 231.288853 
L 83.004469 231.838995 
L 83.661217 231.059687 
L 84.494615 230.998952 
L 85.193629 231.688571 
L 85.900229 230.368832 
L 86.748799 228.645844 
L 87.445645 228.221939 
L 88.214019 228.75213 
L 88.97589 228.640724 
L 89.739928 229.004248 
L 90.566823 227.128365 
L 91.327611 226.164205 
L 92.235787 226.136839 
L 93.065933 225.01537 
L 93.897164 225.012192 
L 94.811843 225.537263 
L 95.737359 223.586168 
L 96.627111 223.010779 
L 97.587307 222.897078 
L 98.477059 223.62342 
L 99.411245 221.169324 
L 100.3942 220.087579 
L 101.407499 219.565686 
L 102.389369 219.327515 
L 103.383161 218.697395 
L 104.430056 217.030551 
L 105.435769 217.601703 
L 106.477246 217.825926 
L 107.604338 216.15767 
L 108.775863 217.142486 
L 109.932217 213.87995 
L 111.11458 214.08334 
L 112.466006 212.037259 
L 113.661374 213.885953 
L 115.031225 213.800324 
L 116.313292 209.89319 
L 117.520581 209.524546 
L 118.808067 207.489765 
L 120.072794 208.359998 
L 121.337522 207.61706 
L 122.835254 205.772956 
L 124.310227 208.521544 
L 125.796038 206.4654 
L 127.369632 202.194036 
L 129.053768 203.659608 
L 130.78342 201.570977 
L 132.609526 202.53549 
L 134.436716 201.080688 
L 136.250901 199.157488 
L 138.151785 199.773661 
L 140.195723 196.300319 
L 142.174637 196.670376 
L 144.295521 196.085277 
L 146.42074 194.31921 
L 148.768126 188.870232 
L 151.271571 187.142301 
L 153.829203 185.585803 
L 156.402007 185.46151 
L 159.248999 183.113698 
L 162.245546 183.477222 
L 165.451256 178.511119 
L 168.943074 178.768181 
L 172.543267 174.951973 
L 176.385134 174.17496 
L 180.579217 175.488343 
L 184.996551 162.188374 
L 190.115066 165.172132 
L 195.716931 161.500697 
L 202.067661 151.048717 
L 209.569326 151.433428 
L 217.889216 141.232153 
L 227.464081 144.070254 
L 238.093426 137.305245 
L 251.453803 118.036172 
L 268.78176 110.667879 
L 297.028422 97.547819 
L 373.581818 46.937281 
" style="fill:none;stroke:#8c564b;stroke-linecap:square;stroke-width:1.5;"/>
   </g>
   <g id="line2d_18">
    <path clip-path="url(#pbc833aa49a)" d="M 69.218182 234.881545 
L 69.321137 234.974059 
L 69.851087 234.657322 
L 70.379954 234.358946 
L 70.948918 234.788501 
L 71.494041 233.317456 
L 72.047833 234.736418 
L 72.661231 234.398318 
L 73.233447 233.478296 
L 73.818668 233.417738 
L 74.414727 232.87307 
L 74.977189 233.405556 
L 75.587336 232.288854 
L 76.171473 232.465407 
L 76.809797 231.772258 
L 77.481718 231.697222 
L 78.141717 232.070104 
L 78.810386 231.869892 
L 79.508316 231.099235 
L 80.202995 230.905908 
L 80.883585 231.480591 
L 81.555505 230.618479 
L 82.308706 230.126953 
L 83.004469 230.176388 
L 83.661217 230.107179 
L 84.494615 229.371303 
L 85.193629 229.5897 
L 85.900229 229.568337 
L 86.748799 229.648846 
L 87.445645 228.763782 
L 88.214019 229.265195 
L 88.97589 228.774552 
L 89.739928 228.552977 
L 90.566823 227.500187 
L 91.327611 227.225999 
L 92.235787 227.389664 
L 93.065933 226.267666 
L 93.897164 226.905024 
L 94.811843 226.918972 
L 95.737359 226.432567 
L 96.627111 226.329283 
L 97.587307 225.805095 
L 98.477059 225.950752 
L 99.411245 225.719466 
L 100.3942 225.043972 
L 101.407499 223.909261 
L 102.389369 224.268018 
L 103.383161 222.992594 
L 104.430056 223.459932 
L 105.435769 223.331224 
L 106.477246 223.796266 
L 107.604338 221.618829 
L 108.775863 224.014134 
L 109.932217 222.287791 
L 111.11458 221.347643 
L 112.466006 220.427445 
L 113.661374 221.829811 
L 115.031225 221.976527 
L 116.313292 218.735001 
L 117.520581 220.184683 
L 118.808067 219.956753 
L 120.072794 218.998772 
L 121.337522 219.738885 
L 122.835254 218.29291 
L 124.310227 219.442805 
L 125.796038 219.396018 
L 127.369632 215.965756 
L 129.053768 217.271017 
L 130.78342 215.310212 
L 132.609526 217.63207 
L 134.436716 216.118122 
L 136.250901 214.838107 
L 138.151785 215.119357 
L 140.195723 214.268015 
L 142.174637 214.185565 
L 144.295521 214.118121 
L 146.42074 214.042733 
L 148.768126 211.08175 
L 151.271571 209.532315 
L 153.829203 209.322216 
L 156.402007 209.783904 
L 159.248999 209.31021 
L 162.245546 209.158374 
L 165.451256 205.82963 
L 168.943074 208.316036 
L 172.543267 205.522426 
L 176.385134 205.600816 
L 180.579217 206.680442 
L 184.996551 199.155016 
L 190.115066 202.582101 
L 195.716931 200.39919 
L 202.067661 195.69986 
L 209.569326 195.822035 
L 217.889216 191.101695 
L 227.464081 197.696329 
L 238.093426 193.421787 
L 251.453803 184.57521 
L 268.78176 182.757413 
L 297.028422 182.054376 
L 373.581818 172.176548 
" style="fill:none;stroke:#e377c2;stroke-linecap:square;stroke-width:1.5;"/>
   </g>
   <g id="line2d_19">
    <path clip-path="url(#pbc833aa49a)" d="M 69.218182 242.108066 
L 69.321137 242.113009 
L 69.851087 242.10577 
L 70.379954 242.108242 
L 70.948918 242.101533 
L 71.494041 242.072755 
L 72.047833 242.069047 
L 72.661231 242.075403 
L 73.233447 242.044859 
L 73.818668 241.997013 
L 74.414727 241.99772 
L 74.977189 241.973885 
L 75.587336 212.042026 
L 76.171473 202.674085 
L 76.809797 202.48429 
L 77.481718 199.65484 
L 78.141717 203.687504 
L 78.810386 202.51607 
L 79.508316 201.539551 
L 80.202995 201.459396 
L 80.883585 204.426204 
L 81.555505 200.628181 
L 82.308706 202.468577 
L 83.004469 203.159431 
L 83.661217 201.763068 
L 84.494615 201.230405 
L 85.193629 203.331571 
L 85.900229 199.455687 
L 86.748799 202.438209 
L 87.445645 200.870412 
L 88.214019 203.261303 
L 88.97589 201.331924 
L 89.739928 202.690152 
L 90.566823 199.574331 
L 91.327611 201.712044 
L 92.235787 202.43203 
L 93.065933 199.344105 
L 93.897164 200.352051 
L 94.811843 204.284079 
L 95.737359 202.68715 
L 96.627111 200.512891 
L 97.587307 202.839163 
L 98.477059 204.454629 
L 99.411245 202.228993 
L 100.3942 202.711691 
L 101.407499 200.444388 
L 102.389369 199.725638 
L 103.383161 198.670553 
L 104.430056 199.531429 
L 105.435769 202.096754 
L 106.477246 203.173026 
L 107.604338 200.199685 
L 108.775863 205.197038 
L 109.932217 200.763244 
L 111.11458 199.865645 
L 112.466006 200.355229 
L 113.661374 203.570625 
L 115.031225 202.639657 
L 116.313292 198.175673 
L 117.520581 201.505476 
L 118.808067 199.160313 
L 120.072794 201.688386 
L 121.337522 203.169495 
L 122.835254 200.027898 
L 124.310227 204.93309 
L 125.796038 204.28143 
L 127.369632 198.655722 
L 129.053768 202.405017 
L 130.78342 201.208336 
L 132.609526 203.71946 
L 134.436716 204.056501 
L 136.250901 202.386479 
L 138.151785 203.66773 
L 140.195723 202.657842 
L 142.174637 201.880476 
L 144.295521 204.692977 
L 146.42074 205.087751 
L 148.768126 201.939975 
L 151.271571 199.691563 
L 153.829203 200.852757 
L 156.402007 203.207807 
L 159.248999 201.414727 
L 162.245546 202.352581 
L 165.451256 199.707453 
L 168.943074 203.881536 
L 172.543267 201.079805 
L 176.385134 202.28655 
L 180.579217 205.520661 
L 184.996551 198.521365 
L 190.115066 202.820448 
L 195.716931 200.548025 
L 202.067661 196.870764 
L 209.569326 199.298025 
L 217.889216 197.35664 
L 227.464081 202.972284 
L 238.093426 202.974756 
L 251.453803 198.004945 
L 268.78176 197.949331 
L 297.028422 200.719812 
L 373.581818 197.823095 
" style="fill:none;stroke:#7f7f7f;stroke-linecap:square;stroke-width:1.5;"/>
   </g>
   <g id="line2d_20">
    <path clip-path="url(#pbc833aa49a)" d="M 69.218182 242.05969 
L 69.321137 242.088645 
L 69.851087 242.064987 
L 70.379954 242.073991 
L 70.948918 242.067988 
L 71.494041 242.076639 
L 72.047833 242.076109 
L 72.661231 242.082818 
L 73.233447 242.076639 
L 73.818668 242.086703 
L 74.414727 241.764669 
L 74.977189 241.459584 
L 75.587336 241.422861 
L 76.171473 241.459937 
L 76.809797 241.497366 
L 77.481718 241.427628 
L 78.141717 241.443694 
L 78.810386 241.410325 
L 79.508316 241.474591 
L 80.202995 241.337055 
L 80.883585 241.545036 
L 81.555505 241.352239 
L 82.308706 241.432571 
L 83.004469 241.390198 
L 83.661217 241.423743 
L 84.494615 241.428157 
L 85.193629 241.37731 
L 85.900229 241.423037 
L 86.748799 241.288856 
L 87.445645 241.248779 
L 88.214019 240.561632 
L 88.97589 237.786207 
L 89.739928 237.868658 
L 90.566823 237.601708 
L 91.327611 237.95817 
L 92.235787 237.975649 
L 93.065933 237.253191 
L 93.897164 237.50019 
L 94.811843 237.269964 
L 95.737359 237.514844 
L 96.627111 238.184512 
L 97.587307 236.98889 
L 98.477059 236.653085 
L 99.411245 237.215762 
L 100.3942 236.604709 
L 101.407499 237.251073 
L 102.389369 236.786207 
L 103.383161 236.839173 
L 104.430056 236.888784 
L 105.435769 236.75019 
L 106.477246 236.581934 
L 107.604338 236.784618 
L 108.775863 236.831758 
L 109.932217 236.659441 
L 111.11458 236.70358 
L 112.466006 193.755474 
L 113.661374 175.183081 
L 115.031225 172.380644 
L 116.313292 165.751405 
L 117.520581 170.457797 
L 118.808067 164.752464 
L 120.072794 171.149888 
L 121.337522 172.437848 
L 122.835254 167.063552 
L 124.310227 176.886825 
L 125.796038 175.578032 
L 127.369632 167.696144 
L 129.053768 169.771357 
L 130.78342 169.672663 
L 132.609526 171.775418 
L 134.436716 173.399889 
L 136.250901 170.35469 
L 138.151785 173.438731 
L 140.195723 170.063906 
L 142.174637 170.320086 
L 144.295521 175.633293 
L 146.42074 173.160482 
L 148.768126 168.098687 
L 151.271571 166.339505 
L 153.829203 166.222803 
L 156.402007 167.590565 
L 159.248999 167.455325 
L 162.245546 166.788658 
L 165.451256 162.605924 
L 168.943074 168.767119 
L 172.543267 163.808255 
L 176.385134 167.621992 
L 180.579217 171.851336 
L 184.996551 158.012702 
L 190.115066 165.552429 
L 195.716931 163.197202 
L 202.067661 154.963972 
L 209.569326 159.49028 
L 217.889216 154.762525 
L 227.464081 160.802427 
L 238.093426 159.844977 
L 251.453803 151.033533 
L 268.78176 150.727742 
L 297.028422 150.255991 
L 373.581818 138.671595 
" style="fill:none;stroke:#bcbd22;stroke-linecap:square;stroke-width:1.5;"/>
   </g>
   <g id="patch_3">
    <path d="M 54 252 
L 54 34.56 
" style="fill:none;stroke:#000000;stroke-linecap:square;stroke-linejoin:miter;stroke-width:0.8;"/>
   </g>
   <g id="patch_4">
    <path d="M 388.8 252 
L 388.8 34.56 
" style="fill:none;stroke:#000000;stroke-linecap:square;stroke-linejoin:miter;stroke-width:0.8;"/>
   </g>
   <g id="patch_5">
    <path d="M 54 252 
L 388.8 252 
" style="fill:none;stroke:#000000;stroke-linecap:square;stroke-linejoin:miter;stroke-width:0.8;"/>
   </g>
   <g id="patch_6">
    <path d="M 54 34.56 
L 388.8 34.56 
" style="fill:none;stroke:#000000;stroke-linecap:square;stroke-linejoin:miter;stroke-width:0.8;"/>
   </g>
   <g id="legend_1">
    <g id="patch_7">
     <path d="M 220.735938 174.663125 
L 381.8 174.663125 
Q 383.8 174.663125 383.8 172.663125 
L 383.8 41.56 
Q 383.8 39.56 381.8 39.56 
L 220.735938 39.56 
Q 218.735938 39.56 218.735938 41.56 
L 218.735938 172.663125 
Q 218.735938 174.663125 220.735938 174.663125 
z
" style="fill:#ffffff;opacity:0.8;stroke:#cccccc;stroke-linejoin:miter;"/>
    </g>
    <g id="line2d_21">
     <path d="M 222.735938 47.658437 
L 242.735938 47.658437 
" style="fill:none;stroke:#1f77b4;stroke-linecap:square;stroke-width:1.5;"/>
    </g>
    <g id="line2d_22"/>
    <g id="text_14">
     <!-- FCFS -->
     <g transform="translate(250.735938 51.158437)scale(0.1 -0.1)">
      <defs>
       <path d="M 628 4666 
L 3309 4666 
L 3309 4134 
L 1259 4134 
L 1259 2759 
L 3109 2759 
L 3109 2228 
L 1259 2228 
L 1259 0 
L 628 0 
L 628 4666 
z
" id="DejaVuSans-46" transform="scale(0.015625)"/>
       <path d="M 4122 4306 
L 4122 3641 
Q 3803 3938 3442 4084 
Q 3081 4231 2675 4231 
Q 1875 4231 1450 3742 
Q 1025 3253 1025 2328 
Q 1025 1406 1450 917 
Q 1875 428 2675 428 
Q 3081 428 3442 575 
Q 3803 722 4122 1019 
L 4122 359 
Q 3791 134 3420 21 
Q 3050 -91 2638 -91 
Q 1578 -91 968 557 
Q 359 1206 359 2328 
Q 359 3453 968 4101 
Q 1578 4750 2638 4750 
Q 3056 4750 3426 4639 
Q 3797 4528 4122 4306 
z
" id="DejaVuSans-43" transform="scale(0.015625)"/>
       <path d="M 3425 4513 
L 3425 3897 
Q 3066 4069 2747 4153 
Q 2428 4238 2131 4238 
Q 1616 4238 1336 4038 
Q 1056 3838 1056 3469 
Q 1056 3159 1242 3001 
Q 1428 2844 1947 2747 
L 2328 2669 
Q 3034 2534 3370 2195 
Q 3706 1856 3706 1288 
Q 3706 609 3251 259 
Q 2797 -91 1919 -91 
Q 1588 -91 1214 -16 
Q 841 59 441 206 
L 441 856 
Q 825 641 1194 531 
Q 1563 422 1919 422 
Q 2459 422 2753 634 
Q 3047 847 3047 1241 
Q 3047 1584 2836 1778 
Q 2625 1972 2144 2069 
L 1759 2144 
Q 1053 2284 737 2584 
Q 422 2884 422 3419 
Q 422 4038 858 4394 
Q 1294 4750 2059 4750 
Q 2388 4750 2728 4690 
Q 3069 4631 3425 4513 
z
" id="DejaVuSans-53" transform="scale(0.015625)"/>
      </defs>
      <use xlink:href="#DejaVuSans-46"/>
      <use x="57.519531" xlink:href="#DejaVuSans-43"/>
      <use x="127.34375" xlink:href="#DejaVuSans-46"/>
      <use x="183.113281" xlink:href="#DejaVuSans-53"/>
     </g>
    </g>
    <g id="line2d_23">
     <path d="M 222.735938 62.336563 
L 242.735938 62.336563 
" style="fill:none;stroke:#ff7f0e;stroke-linecap:square;stroke-width:1.5;"/>
    </g>
    <g id="line2d_24"/>
    <g id="text_15">
     <!-- SJF -->
     <g transform="translate(250.735938 65.836563)scale(0.1 -0.1)">
      <defs>
       <path d="M 628 4666 
L 1259 4666 
L 1259 325 
Q 1259 -519 939 -900 
Q 619 -1281 -91 -1281 
L -331 -1281 
L -331 -750 
L -134 -750 
Q 284 -750 456 -515 
Q 628 -281 628 325 
L 628 4666 
z
" id="DejaVuSans-4a" transform="scale(0.015625)"/>
      </defs>
      <use xlink:href="#DejaVuSans-53"/>
      <use x="63.476562" xlink:href="#DejaVuSans-4a"/>
      <use x="92.96875" xlink:href="#DejaVuSans-46"/>
     </g>
    </g>
    <g id="line2d_25">
     <path d="M 222.735938 77.014687 
L 242.735938 77.014687 
" style="fill:none;stroke:#2ca02c;stroke-linecap:square;stroke-width:1.5;"/>
    </g>
    <g id="line2d_26"/>
    <g id="text_16">
     <!-- SRT -->
     <g transform="translate(250.735938 80.514687)scale(0.1 -0.1)">
      <defs>
       <path d="M 2841 2188 
Q 3044 2119 3236 1894 
Q 3428 1669 3622 1275 
L 4263 0 
L 3584 0 
L 2988 1197 
Q 2756 1666 2539 1819 
Q 2322 1972 1947 1972 
L 1259 1972 
L 1259 0 
L 628 0 
L 628 4666 
L 2053 4666 
Q 2853 4666 3247 4331 
Q 3641 3997 3641 3322 
Q 3641 2881 3436 2590 
Q 3231 2300 2841 2188 
z
M 1259 4147 
L 1259 2491 
L 2053 2491 
Q 2509 2491 2742 2702 
Q 2975 2913 2975 3322 
Q 2975 3731 2742 3939 
Q 2509 4147 2053 4147 
L 1259 4147 
z
" id="DejaVuSans-52" transform="scale(0.015625)"/>
       <path d="M -19 4666 
L 3928 4666 
L 3928 4134 
L 2272 4134 
L 2272 0 
L 1638 0 
L 1638 4134 
L -19 4134 
L -19 4666 
z
" id="DejaVuSans-54" transform="scale(0.015625)"/>
      </defs>
      <use xlink:href="#DejaVuSans-53"/>
      <use x="63.476562" xlink:href="#DejaVuSans-52"/>
      <use x="125.708984" xlink:href="#DejaVuSans-54"/>
     </g>
    </g>
    <g id="line2d_27">
     <path d="M 222.735938 91.692813 
L 242.735938 91.692813 
" style="fill:none;stroke:#d62728;stroke-linecap:square;stroke-width:1.5;"/>
    </g>
    <g id="line2d_28"/>
    <g id="text_17">
     <!-- RR met q=2 -->
     <g transform="translate(250.735938 95.192813)scale(0.1 -0.1)">
      <defs>
       <path id="DejaVuSans-20" transform="scale(0.015625)"/>
       <path d="M 3328 2828 
Q 3544 3216 3844 3400 
Q 4144 3584 4550 3584 
Q 5097 3584 5394 3201 
Q 5691 2819 5691 2113 
L 5691 0 
L 5113 0 
L 5113 2094 
Q 5113 2597 4934 2840 
Q 4756 3084 4391 3084 
Q 3944 3084 3684 2787 
Q 3425 2491 3425 1978 
L 3425 0 
L 2847 0 
L 2847 2094 
Q 2847 2600 2669 2842 
Q 2491 3084 2119 3084 
Q 1678 3084 1418 2786 
Q 1159 2488 1159 1978 
L 1159 0 
L 581 0 
L 581 3500 
L 1159 3500 
L 1159 2956 
Q 1356 3278 1631 3431 
Q 1906 3584 2284 3584 
Q 2666 3584 2933 3390 
Q 3200 3197 3328 2828 
z
" id="DejaVuSans-6d" transform="scale(0.015625)"/>
       <path d="M 947 1747 
Q 947 1113 1208 752 
Q 1469 391 1925 391 
Q 2381 391 2643 752 
Q 2906 1113 2906 1747 
Q 2906 2381 2643 2742 
Q 2381 3103 1925 3103 
Q 1469 3103 1208 2742 
Q 947 2381 947 1747 
z
M 2906 525 
Q 2725 213 2448 61 
Q 2172 -91 1784 -91 
Q 1150 -91 751 415 
Q 353 922 353 1747 
Q 353 2572 751 3078 
Q 1150 3584 1784 3584 
Q 2172 3584 2448 3432 
Q 2725 3281 2906 2969 
L 2906 3500 
L 3481 3500 
L 3481 -1331 
L 2906 -1331 
L 2906 525 
z
" id="DejaVuSans-71" transform="scale(0.015625)"/>
       <path d="M 678 2906 
L 4684 2906 
L 4684 2381 
L 678 2381 
L 678 2906 
z
M 678 1631 
L 4684 1631 
L 4684 1100 
L 678 1100 
L 678 1631 
z
" id="DejaVuSans-3d" transform="scale(0.015625)"/>
      </defs>
      <use xlink:href="#DejaVuSans-52"/>
      <use x="69.482422" xlink:href="#DejaVuSans-52"/>
      <use x="138.964844" xlink:href="#DejaVuSans-20"/>
      <use x="170.751953" xlink:href="#DejaVuSans-6d"/>
      <use x="268.164062" xlink:href="#DejaVuSans-65"/>
      <use x="329.6875" xlink:href="#DejaVuSans-74"/>
      <use x="368.896484" xlink:href="#DejaVuSans-20"/>
      <use x="400.683594" xlink:href="#DejaVuSans-71"/>
      <use x="464.160156" xlink:href="#DejaVuSans-3d"/>
      <use x="547.949219" xlink:href="#DejaVuSans-32"/>
     </g>
    </g>
    <g id="line2d_29">
     <path d="M 222.735938 106.370937 
L 242.735938 106.370937 
" style="fill:none;stroke:#9467bd;stroke-linecap:square;stroke-width:1.5;"/>
    </g>
    <g id="line2d_30"/>
    <g id="text_18">
     <!-- RR met q=4 -->
     <g transform="translate(250.735938 109.870937)scale(0.1 -0.1)">
      <use xlink:href="#DejaVuSans-52"/>
      <use x="69.482422" xlink:href="#DejaVuSans-52"/>
      <use x="138.964844" xlink:href="#DejaVuSans-20"/>
      <use x="170.751953" xlink:href="#DejaVuSans-6d"/>
      <use x="268.164062" xlink:href="#DejaVuSans-65"/>
      <use x="329.6875" xlink:href="#DejaVuSans-74"/>
      <use x="368.896484" xlink:href="#DejaVuSans-20"/>
      <use x="400.683594" xlink:href="#DejaVuSans-71"/>
      <use x="464.160156" xlink:href="#DejaVuSans-3d"/>
      <use x="547.949219" xlink:href="#DejaVuSans-34"/>
     </g>
    </g>
    <g id="line2d_31">
     <path d="M 222.735938 121.049062 
L 242.735938 121.049062 
" style="fill:none;stroke:#8c564b;stroke-linecap:square;stroke-width:1.5;"/>
    </g>
    <g id="line2d_32"/>
    <g id="text_19">
     <!-- RR met q=8 -->
     <g transform="translate(250.735938 124.549062)scale(0.1 -0.1)">
      <defs>
       <path d="M 2034 2216 
Q 1584 2216 1326 1975 
Q 1069 1734 1069 1313 
Q 1069 891 1326 650 
Q 1584 409 2034 409 
Q 2484 409 2743 651 
Q 3003 894 3003 1313 
Q 3003 1734 2745 1975 
Q 2488 2216 2034 2216 
z
M 1403 2484 
Q 997 2584 770 2862 
Q 544 3141 544 3541 
Q 544 4100 942 4425 
Q 1341 4750 2034 4750 
Q 2731 4750 3128 4425 
Q 3525 4100 3525 3541 
Q 3525 3141 3298 2862 
Q 3072 2584 2669 2484 
Q 3125 2378 3379 2068 
Q 3634 1759 3634 1313 
Q 3634 634 3220 271 
Q 2806 -91 2034 -91 
Q 1263 -91 848 271 
Q 434 634 434 1313 
Q 434 1759 690 2068 
Q 947 2378 1403 2484 
z
M 1172 3481 
Q 1172 3119 1398 2916 
Q 1625 2713 2034 2713 
Q 2441 2713 2670 2916 
Q 2900 3119 2900 3481 
Q 2900 3844 2670 4047 
Q 2441 4250 2034 4250 
Q 1625 4250 1398 4047 
Q 1172 3844 1172 3481 
z
" id="DejaVuSans-38" transform="scale(0.015625)"/>
      </defs>
      <use xlink:href="#DejaVuSans-52"/>
      <use x="69.482422" xlink:href="#DejaVuSans-52"/>
      <use x="138.964844" xlink:href="#DejaVuSans-20"/>
      <use x="170.751953" xlink:href="#DejaVuSans-6d"/>
      <use x="268.164062" xlink:href="#DejaVuSans-65"/>
      <use x="329.6875" xlink:href="#DejaVuSans-74"/>
      <use x="368.896484" xlink:href="#DejaVuSans-20"/>
      <use x="400.683594" xlink:href="#DejaVuSans-71"/>
      <use x="464.160156" xlink:href="#DejaVuSans-3d"/>
      <use x="547.949219" xlink:href="#DejaVuSans-38"/>
     </g>
    </g>
    <g id="line2d_33">
     <path d="M 222.735938 135.727187 
L 242.735938 135.727187 
" style="fill:none;stroke:#e377c2;stroke-linecap:square;stroke-width:1.5;"/>
    </g>
    <g id="line2d_34"/>
    <g id="text_20">
     <!-- HRRN -->
     <g transform="translate(250.735938 139.227187)scale(0.1 -0.1)">
      <defs>
       <path d="M 628 4666 
L 1259 4666 
L 1259 2753 
L 3553 2753 
L 3553 4666 
L 4184 4666 
L 4184 0 
L 3553 0 
L 3553 2222 
L 1259 2222 
L 1259 0 
L 628 0 
L 628 4666 
z
" id="DejaVuSans-48" transform="scale(0.015625)"/>
       <path d="M 628 4666 
L 1478 4666 
L 3547 763 
L 3547 4666 
L 4159 4666 
L 4159 0 
L 3309 0 
L 1241 3903 
L 1241 0 
L 628 0 
L 628 4666 
z
" id="DejaVuSans-4e" transform="scale(0.015625)"/>
      </defs>
      <use xlink:href="#DejaVuSans-48"/>
      <use x="75.195312" xlink:href="#DejaVuSans-52"/>
      <use x="144.677734" xlink:href="#DejaVuSans-52"/>
      <use x="214.160156" xlink:href="#DejaVuSans-4e"/>
     </g>
    </g>
    <g id="line2d_35">
     <path d="M 222.735938 150.405312 
L 242.735938 150.405312 
" style="fill:none;stroke:#7f7f7f;stroke-linecap:square;stroke-width:1.5;"/>
    </g>
    <g id="line2d_36"/>
    <g id="text_21">
     <!-- MLFB met q=1 -->
     <g transform="translate(250.735938 153.905312)scale(0.1 -0.1)">
      <defs>
       <path d="M 628 4666 
L 1569 4666 
L 2759 1491 
L 3956 4666 
L 4897 4666 
L 4897 0 
L 4281 0 
L 4281 4097 
L 3078 897 
L 2444 897 
L 1241 4097 
L 1241 0 
L 628 0 
L 628 4666 
z
" id="DejaVuSans-4d" transform="scale(0.015625)"/>
       <path d="M 628 4666 
L 1259 4666 
L 1259 531 
L 3531 531 
L 3531 0 
L 628 0 
L 628 4666 
z
" id="DejaVuSans-4c" transform="scale(0.015625)"/>
       <path d="M 1259 2228 
L 1259 519 
L 2272 519 
Q 2781 519 3026 730 
Q 3272 941 3272 1375 
Q 3272 1813 3026 2020 
Q 2781 2228 2272 2228 
L 1259 2228 
z
M 1259 4147 
L 1259 2741 
L 2194 2741 
Q 2656 2741 2882 2914 
Q 3109 3088 3109 3444 
Q 3109 3797 2882 3972 
Q 2656 4147 2194 4147 
L 1259 4147 
z
M 628 4666 
L 2241 4666 
Q 2963 4666 3353 4366 
Q 3744 4066 3744 3513 
Q 3744 3084 3544 2831 
Q 3344 2578 2956 2516 
Q 3422 2416 3680 2098 
Q 3938 1781 3938 1306 
Q 3938 681 3513 340 
Q 3088 0 2303 0 
L 628 0 
L 628 4666 
z
" id="DejaVuSans-42" transform="scale(0.015625)"/>
      </defs>
      <use xlink:href="#DejaVuSans-4d"/>
      <use x="86.279297" xlink:href="#DejaVuSans-4c"/>
      <use x="141.992188" xlink:href="#DejaVuSans-46"/>
      <use x="199.511719" xlink:href="#DejaVuSans-42"/>
      <use x="268.115234" xlink:href="#DejaVuSans-20"/>
      <use x="299.902344" xlink:href="#DejaVuSans-6d"/>
      <use x="397.314453" xlink:href="#DejaVuSans-65"/>
      <use x="458.837891" xlink:href="#DejaVuSans-74"/>
      <use x="498.046875" xlink:href="#DejaVuSans-20"/>
      <use x="529.833984" xlink:href="#DejaVuSans-71"/>
      <use x="593.310547" xlink:href="#DejaVuSans-3d"/>
      <use x="677.099609" xlink:href="#DejaVuSans-31"/>
     </g>
    </g>
    <g id="line2d_37">
     <path d="M 222.735938 165.083437 
L 242.735938 165.083437 
" style="fill:none;stroke:#bcbd22;stroke-linecap:square;stroke-width:1.5;"/>
    </g>
    <g id="line2d_38"/>
    <g id="text_22">
     <!-- MLFB met verschillende q -->
     <g transform="translate(250.735938 168.583437)scale(0.1 -0.1)">
      <defs>
       <path d="M 191 3500 
L 800 3500 
L 1894 563 
L 2988 3500 
L 3597 3500 
L 2284 0 
L 1503 0 
L 191 3500 
z
" id="DejaVuSans-76" transform="scale(0.015625)"/>
       <path d="M 2631 2963 
Q 2534 3019 2420 3045 
Q 2306 3072 2169 3072 
Q 1681 3072 1420 2755 
Q 1159 2438 1159 1844 
L 1159 0 
L 581 0 
L 581 3500 
L 1159 3500 
L 1159 2956 
Q 1341 3275 1631 3429 
Q 1922 3584 2338 3584 
Q 2397 3584 2469 3576 
Q 2541 3569 2628 3553 
L 2631 2963 
z
" id="DejaVuSans-72" transform="scale(0.015625)"/>
       <path d="M 603 4863 
L 1178 4863 
L 1178 0 
L 603 0 
L 603 4863 
z
" id="DejaVuSans-6c" transform="scale(0.015625)"/>
      </defs>
      <use xlink:href="#DejaVuSans-4d"/>
      <use x="86.279297" xlink:href="#DejaVuSans-4c"/>
      <use x="141.992188" xlink:href="#DejaVuSans-46"/>
      <use x="199.511719" xlink:href="#DejaVuSans-42"/>
      <use x="268.115234" xlink:href="#DejaVuSans-20"/>
      <use x="299.902344" xlink:href="#DejaVuSans-6d"/>
      <use x="397.314453" xlink:href="#DejaVuSans-65"/>
      <use x="458.837891" xlink:href="#DejaVuSans-74"/>
      <use x="498.046875" xlink:href="#DejaVuSans-20"/>
      <use x="529.833984" xlink:href="#DejaVuSans-76"/>
      <use x="589.013672" xlink:href="#DejaVuSans-65"/>
      <use x="650.537109" xlink:href="#DejaVuSans-72"/>
      <use x="691.650391" xlink:href="#DejaVuSans-73"/>
      <use x="743.75" xlink:href="#DejaVuSans-63"/>
      <use x="798.730469" xlink:href="#DejaVuSans-68"/>
      <use x="862.109375" xlink:href="#DejaVuSans-69"/>
      <use x="889.892578" xlink:href="#DejaVuSans-6c"/>
      <use x="917.675781" xlink:href="#DejaVuSans-6c"/>
      <use x="945.458984" xlink:href="#DejaVuSans-65"/>
      <use x="1006.982422" xlink:href="#DejaVuSans-6e"/>
      <use x="1070.361328" xlink:href="#DejaVuSans-64"/>
      <use x="1133.837891" xlink:href="#DejaVuSans-65"/>
      <use x="1195.361328" xlink:href="#DejaVuSans-20"/>
      <use x="1227.148438" xlink:href="#DejaVuSans-71"/>
     </g>
    </g>
   </g>
  </g>
 </g>
 <defs>
  <clipPath id="pbc833aa49a">
   <rect height="217.44" width="334.8" x="54" y="34.56"/>
  </clipPath>
 </defs>
</svg>
